<svg width="906" height="894" viewBox="0 0 906 894" fill="none" xmlns="http://www.w3.org/2000/svg">
<path d="M129.735 404.444C162.645 358.444 211.965 337.594 211.965 337.594C213.575 336.924 206.715 273.904 206.575 269.434C204.495 195.814 216.705 119.214 272.045 66.0544C341.225 -0.355911 466.745 -14.1159 546.105 41.8341C545.105 41.0941 572.215 19.7241 574.505 18.3541C589.317 9.4151 606.03 4.10079 623.285 2.84409C692.725 -2.15591 756.405 52.4044 782.455 118.404C808.505 184.404 802.525 334.784 754.735 378.154" stroke="#CCDDE2" stroke-width="5.05" stroke-miterlimit="10"/>
<path d="M100.065 484.244C101.776 466.127 106.434 448.41 113.855 431.794C114.562 430.214 115.302 428.667 116.075 427.154" stroke="#CCDDE2" stroke-width="5.05" stroke-miterlimit="10"/>
<path d="M185.886 675.682C177.886 668.412 170.476 661.012 163.686 653.572" stroke="#CCDDE2" stroke-width="5.05" stroke-miterlimit="10"/>
<path d="M852.526 459.474C852.586 464.474 852.526 469.574 852.286 474.684C850.866 506.294 844.096 538.965 827.176 565.585C824.096 570.497 820.66 575.176 816.896 579.585C780.896 574.835 775.526 538.114 733.896 517.354C684.026 492.424 602.366 501.354 602.366 501.354L642.596 464.244C640.446 352.484 558.396 359.344 558.396 359.344L554.226 369.554C557.393 360.307 560.596 351.684 563.836 343.684L564.016 343.264C602.016 248.884 641.386 237.184 672.016 223.554C679.333 221.816 686.826 220.923 694.346 220.894C772.656 220.474 818.616 300.224 838.716 364.424C843.716 380.424 851.406 414.644 852.436 453.124C852.456 455.184 852.526 457.334 852.526 459.474Z" fill="#2E2E2E"/>
<path d="M896.525 878.356C890.445 886.726 880.415 891.286 870.075 891.286H751.275C746.71 891.351 742.181 890.46 737.981 888.671C733.78 886.881 730.001 884.233 726.885 880.896C726.463 880.468 726.068 880.014 725.705 879.536C721.982 874.924 719.654 869.345 718.995 863.456C718.395 858.046 722.415 853.236 727.855 853.456C729.916 853.535 731.879 854.36 733.379 855.775C734.879 857.191 735.816 859.102 736.015 861.156C736.015 861.586 736.105 862.006 736.165 862.426C736.605 864.866 737.678 867.149 739.275 869.046C740.688 870.716 742.462 872.042 744.463 872.927C746.463 873.812 748.639 874.233 750.825 874.156H870.585C872.729 874.192 874.855 873.765 876.818 872.901C878.781 872.038 880.533 870.76 881.955 869.156C883.558 867.3 884.652 865.059 885.129 862.654C885.606 860.249 885.449 857.761 884.675 855.435L831.185 696.385C830.748 695.165 830.231 693.976 829.635 692.826C826.495 686.193 821.518 680.6 815.295 676.711C809.072 672.822 801.863 670.799 794.525 670.885C772.005 671.155 743.415 671.216 740.725 671.216C680.795 670.996 653.525 670.996 638.525 671.396C639.554 667.71 641.415 664.309 643.965 661.456C643.965 661.456 644.025 661.395 644.025 661.365C647.683 657.466 652.69 655.11 658.025 654.776C680.245 652.956 702.245 649.636 723.615 643.836C761.325 633.616 797.295 616.086 822.285 587.896C834.449 574.25 843.644 558.224 849.285 540.836C853.663 527.029 856.422 512.759 857.505 498.315C857.892 493.755 858.132 489.162 858.225 484.536V484.326C858.225 483.266 858.285 482.175 858.285 481.115C858.421 474.525 858.12 467.934 857.385 461.385C863.915 461.436 870.169 464.026 874.825 468.606C875.233 469.683 875.535 470.798 875.725 471.935C875.906 473.012 875.996 474.102 875.995 475.195V604.546C876.006 613.381 874.262 622.129 870.865 630.284C867.467 638.44 862.485 645.84 856.205 652.055C845.805 662.355 842.845 677.986 847.775 691.736L900.935 849.916C902.541 854.661 902.979 859.723 902.211 864.674C901.444 869.625 899.493 874.319 896.525 878.356Z" fill="#3B82F6"/>
<path d="M163.695 874.362V511.732H185.885V874.512L163.695 874.362Z" fill="#2E2E2E"/>
<path d="M602.375 501.304C618.265 499.614 636.645 497.614 654.295 498.014" stroke="black" stroke-width="5.05" stroke-miterlimit="10"/>
<path d="M515.815 517.323C487.675 524.423 460.295 534.673 436.935 551.713C397.735 580.273 379.815 633.553 395.835 679.713C395.835 679.773 458.835 861.503 458.835 861.503H442.255C438.682 861.502 435.144 862.208 431.845 863.581C428.546 864.954 425.552 866.967 423.035 869.503C418.105 874.403 415.675 882.573 415.675 890.073H564.905L508.195 704.573C506.781 700.001 506.463 695.158 507.267 690.44C508.071 685.722 509.974 681.26 512.823 677.414C515.672 673.568 519.386 670.446 523.666 668.302C527.945 666.158 532.669 665.052 537.455 665.073C569.765 665.983 599.775 667.222 632.455 665.802" stroke="black" stroke-width="5.05" stroke-miterlimit="10"/>
<path d="M852.755 476.193V475.993C851.305 436.993 849.345 398.513 838.675 364.393C818.575 300.193 772.615 220.443 694.305 220.863C686.785 220.892 679.292 221.785 671.975 223.523C620.355 235.793 584.505 288.683 563.975 343.233L563.795 343.653C561.835 348.886 560.022 354.106 558.355 359.313C557.225 362.817 555.831 366.23 554.185 369.523C547.896 382.196 537.927 392.676 525.584 399.59C513.24 406.504 499.097 409.53 485.005 408.273C390.205 399.653 265.265 394.733 225.915 461.343" stroke="black" stroke-width="5.05" stroke-miterlimit="10"/>
<path d="M697.625 403.654C683.825 420.314 669.295 436.404 654.275 451.964C623.525 483.844 596.995 517.704 549.275 519.964C511.205 521.794 474.965 507.184 438.965 497.054C400.455 486.224 380.965 477.564 345.075 466.624C334.739 463.486 324.016 461.803 313.215 461.624L277.085 461.904" stroke="black" stroke-width="5.05" stroke-miterlimit="10"/>
<path d="M556.705 863.845C560.145 862.302 563.875 861.511 567.645 861.525H584.265C584.265 861.525 549.525 793.995 521.745 749.045" stroke="black" stroke-width="5.05" stroke-miterlimit="10"/>
<path d="M579.525 665.955L695.725 891.285H564.285H540.445" stroke="black" stroke-width="5.05" stroke-miterlimit="10"/>
<path d="M896.525 878.356C890.445 886.726 880.415 891.286 870.075 891.286H751.275C741.425 891.286 731.815 887.205 725.675 879.505C721.952 874.893 719.624 869.315 718.965 863.426C718.365 858.016 722.385 853.206 727.825 853.426C729.886 853.505 731.849 854.33 733.349 855.745C734.849 857.161 735.786 859.071 735.985 861.125C736.228 864.029 737.367 866.787 739.245 869.016C740.679 870.66 742.457 871.969 744.452 872.852C746.448 873.735 748.613 874.169 750.795 874.125H870.585C872.729 874.161 874.855 873.734 876.818 872.87C878.78 872.007 880.533 870.729 881.955 869.125C883.558 867.269 884.652 865.03 885.129 862.625C885.605 860.22 885.449 857.732 884.675 855.406L831.185 696.385C828.476 688.855 823.492 682.355 816.923 677.786C810.354 673.217 802.526 670.805 794.525 670.885C772.005 671.155 743.415 671.216 740.725 671.216C673.995 671.006 647.725 671.006 633.805 671.516C633.588 671.514 633.374 671.469 633.174 671.385C632.974 671.301 632.793 671.179 632.641 671.025C632.489 670.871 632.368 670.688 632.287 670.487C632.205 670.286 632.163 670.072 632.165 669.856C632.145 663.682 634.41 657.718 638.525 653.115C638.541 653.103 638.555 653.089 638.565 653.072C638.575 653.055 638.582 653.035 638.585 653.016C642.248 649.126 647.252 646.773 652.585 646.435C674.805 644.615 696.805 641.295 718.175 635.495C755.885 625.275 791.855 607.745 816.845 579.555C829.009 565.909 838.204 549.883 843.845 532.495C848.211 518.693 850.959 504.431 852.035 489.995C852.428 485.421 852.668 480.829 852.755 476.216V475.995C852.755 474.945 852.815 473.856 852.815 472.796C852.951 466.206 852.65 459.615 851.915 453.066C862.795 453.006 873.765 460.916 875.665 471.956C875.846 473.033 875.936 474.123 875.935 475.216V604.546C875.945 613.381 874.202 622.129 870.804 630.284C867.407 638.44 862.424 645.84 856.145 652.055C845.745 662.355 842.785 677.986 847.715 691.736L900.875 849.916C902.489 854.657 902.937 859.716 902.18 864.667C901.423 869.618 899.483 874.314 896.525 878.356Z" stroke="black" stroke-width="5.05" stroke-miterlimit="10"/>
<path d="M325.765 484.256H16.2554C8.67249 484.256 2.52539 490.403 2.52539 497.986V497.996C2.52539 505.579 8.67249 511.726 16.2554 511.726H325.765C333.348 511.726 339.495 505.579 339.495 497.996V497.986C339.495 490.403 333.348 484.256 325.765 484.256Z" stroke="black" stroke-width="5.05" stroke-miterlimit="10"/>
<path d="M238.115 876.084H112.965C108.718 876.084 105.275 879.527 105.275 883.774C105.275 888.021 108.718 891.464 112.965 891.464H238.115C242.362 891.464 245.805 888.021 245.805 883.774C245.805 879.527 242.362 876.084 238.115 876.084Z" stroke="black" stroke-width="5.05" stroke-miterlimit="10"/>
<path d="M146.386 471.926V473.306C146.586 482.796 155.516 484.246 163.216 484.306L312.076 484.206C318.596 484.206 323.976 479.206 323.986 473.066V472.806C323.866 466.806 318.626 461.916 312.186 461.906C312.186 461.906 228.906 461.606 164.406 461.416C163.246 464.796 160.306 467.416 156.636 469.556C153.479 471.211 149.949 472.027 146.386 471.926Z" stroke="black" stroke-width="5.05" stroke-miterlimit="10"/>
<path d="M64.5251 338.225C64.5561 339.805 65.008 341.348 65.835 342.695L134.835 458.585C135.728 459.978 136.9 461.172 138.276 462.091C139.653 463.01 141.205 463.633 142.835 463.924C145.592 464.467 148.449 464.157 151.025 463.034C155.255 461.154 157.695 457.365 157.615 453.525C157.6 453.042 157.55 452.56 157.465 452.085C157.253 451.026 156.86 450.011 156.305 449.085L87.305 333.195C84.305 328.125 76.9651 326.135 71.0651 328.745C66.8551 330.585 64.4151 334.375 64.5251 338.225Z" stroke="black" stroke-width="5.05" stroke-miterlimit="10"/>
<path d="M251.105 461.905C251.105 461.905 259.415 453.995 278.525 441.435" stroke="black" stroke-width="5.05" stroke-miterlimit="10"/>
<path d="M318.865 331.904L288.575 365.494C286.466 367.834 283.538 369.275 280.397 369.519C277.255 369.763 274.14 368.791 271.695 366.804C270.344 365.707 269.242 364.337 268.46 362.783C267.678 361.229 267.234 359.527 267.159 357.789C267.083 356.051 267.377 354.316 268.021 352.7C268.665 351.084 269.645 349.623 270.895 348.414L276.435 343.054C276.645 342.754 276.885 342.484 277.125 342.204L281.125 337.794L315.525 300.414C319.7 295.825 324.958 292.356 330.818 290.323C336.679 288.289 342.956 287.757 349.075 288.774L349.585 288.864" stroke="black" stroke-width="5.05" stroke-miterlimit="10"/>
<path d="M361.526 340.994H331.226C327.778 340.994 324.472 339.624 322.034 337.186C319.596 334.748 318.226 331.442 318.226 327.994C318.226 324.546 319.596 321.24 322.034 318.802C324.472 316.364 327.778 314.994 331.226 314.994H374.226" stroke="black" stroke-width="5.05" stroke-miterlimit="10"/>
<path d="M338.296 340.994C337.876 346.304 335.846 350.234 332.856 352.994C325.156 359.994 311.036 359.224 301.216 354.414" stroke="black" stroke-width="5.05" stroke-miterlimit="10"/>
<path d="M281.175 337.774C272.465 327.284 274.255 313.024 281.025 301.994C308.975 256.354 362.256 284.464 397.285 304.134C418.139 315.899 438.071 329.224 456.915 343.994C473.595 356.994 489.035 372.554 509.075 380.374C521.075 385.064 535.245 386.184 547.185 380.774" stroke="black" stroke-width="5.05" stroke-miterlimit="10"/>
<path d="M332.855 352.916C353.992 368.517 374.174 385.371 393.295 403.386" stroke="black" stroke-width="5.05" stroke-miterlimit="10"/>
<path d="M590.035 107.572C595.095 112.192 602.865 112.442 609.295 111.822C617.515 111.072 625.655 109.082 633.705 107.402L638.595 107.152H638.665C639.603 107.162 640.529 107.355 641.392 107.723C642.255 108.09 643.037 108.624 643.693 109.293C644.35 109.963 644.868 110.755 645.218 111.625C645.569 112.495 645.744 113.425 645.735 114.362C645.847 124.916 644.794 135.45 642.595 145.772L651.965 150.842C653.175 147.462 651.815 142.592 654.685 142.222C656.525 138.792 659.265 136.562 663.565 139.112C671.985 144.112 675.305 158.802 667.195 165.532L672.395 175.252C674.208 178.66 677.147 181.332 680.71 182.813C684.274 184.294 688.242 184.492 691.935 183.372L686.625 171.632C699.085 173.842 707.805 158.292 704.005 148.802C701.415 142.282 701.545 137.212 705.005 130.872C705.235 130.442 702.885 129.872 703.085 129.432C703.205 124.782 701.915 119.802 699.675 117.432C695.735 113.192 687.805 112.432 689.425 105.992C690.145 103.19 690.411 100.29 690.215 97.4024C689.792 93.6274 688.566 89.9864 686.618 86.7254C684.671 83.4634 682.048 80.6564 678.925 78.4924C672.365 74.1824 665.025 78.0924 658.015 77.9824C649.505 77.8924 643.405 70.6724 634.485 70.5624C630.045 70.4924 626.485 72.2224 622.685 74.3724C619.505 76.2024 616.375 78.1124 613.335 80.1824C610.295 82.2524 607.595 84.0424 603.965 84.0524C599.235 84.1124 594.665 81.1124 589.905 82.5124C587.498 83.1604 585.383 84.6064 583.905 86.6124C582.395 93.9924 585.125 103.122 590.035 107.572Z" fill="#3B82F6"/>
<path d="M652.006 149.745C652.616 147.14 653.515 144.611 654.686 142.205C656.526 138.775 659.276 136.545 663.566 139.095C671.986 144.095 675.306 158.785 667.196 165.515L672.396 175.235C674.208 178.642 677.148 181.315 680.711 182.796C684.275 184.277 688.243 184.474 691.936 183.355" stroke="black" stroke-width="5.05" stroke-linecap="round" stroke-linejoin="round"/>
<path d="M686.625 171.615L691.915 183.375C693.245 186.185 697.055 194.825 701.045 203.805C703.885 210.235 706.845 216.855 709.045 221.725" stroke="black" stroke-width="5.05" stroke-linecap="round" stroke-linejoin="round"/>
<path d="M600.936 129.385C600.936 129.385 616.526 125.505 623.336 137.325" stroke="black" stroke-width="5.05" stroke-miterlimit="10"/>
<path d="M605.526 164.675C601.326 165.825 595.676 166.855 592.436 163.195L599.496 148.335C601.21 144.691 601.634 140.572 600.696 136.655C599.156 130.065 595.306 120.055 599.436 111.365" stroke="black" stroke-width="5.05" stroke-miterlimit="10"/>
<path d="M616.016 144.76C617.199 142.797 616.287 140.078 613.978 138.687C611.67 137.296 608.84 137.759 607.657 139.722C606.473 141.685 607.385 144.404 609.694 145.795C612.002 147.187 614.832 146.723 616.016 144.76Z" fill="black"/>
<path d="M638.765 238.316L635.065 197.256" stroke="black" stroke-width="5.05" stroke-miterlimit="10"/>
<path d="M651.966 150.823C651.966 150.463 651.966 150.093 651.966 149.733C651.986 149.347 651.986 148.96 651.966 148.573" stroke="black" stroke-width="5.05" stroke-linecap="round" stroke-linejoin="round"/>
<path d="M651.976 150.836L648.756 149.106L642.596 145.756" stroke="black" stroke-width="5.05" stroke-linecap="round" stroke-linejoin="round"/>
<path d="M626.195 165.732C626.195 165.732 625.885 176.132 613.995 180.412" stroke="black" stroke-width="5.05" stroke-miterlimit="10"/>
<path d="M686.625 171.614C699.085 173.824 707.805 158.274 704.005 148.784C701.415 142.264 701.545 137.194 705.005 130.854C705.235 130.424 705.425 130.004 705.625 129.584C708.195 123.914 707.285 118.294 703.245 113.474C699.415 108.914 693.646 107.314 695.306 100.664C696.052 97.7773 696.328 94.7893 696.125 91.8143C695.694 87.9313 694.435 84.1863 692.434 80.8313C690.433 77.4763 687.736 74.5893 684.525 72.3643C677.785 67.8943 670.195 71.9443 662.935 71.8343C654.195 71.7043 647.885 64.2643 638.715 64.1543C634.125 64.1543 630.425 65.8643 626.525 68.0843C623.245 69.9743 619.995 71.9643 616.895 74.0843C613.795 76.2043 610.895 78.0843 607.215 78.0843C602.335 78.0843 597.625 75.0843 592.745 76.4843C587.865 77.8843 584.965 81.9243 584.005 86.6043C582.445 93.9443 585.175 103.114 590.085 107.604C595.145 112.224 602.916 112.474 609.346 111.854C617.566 111.104 625.705 109.114 633.755 107.434L638.645 107.184H638.715C639.653 107.193 640.579 107.387 641.442 107.754C642.305 108.122 643.088 108.655 643.744 109.325C644.401 109.994 644.919 110.787 645.27 111.656C645.62 112.526 645.795 113.456 645.786 114.394C645.898 124.948 644.844 135.481 642.645 145.804" stroke="black" stroke-width="5.05" stroke-miterlimit="10"/>
<path d="M653.855 182.994C653.855 182.994 635.275 207.674 618.765 202.144C602.255 196.614 601.415 166.064 601.415 166.064" stroke="black" stroke-width="5.05" stroke-linecap="round" stroke-linejoin="round"/>
<path d="M163.695 874.362V511.732H185.885V874.512" stroke="black" stroke-width="5.05" stroke-miterlimit="10"/>
<path d="M184.115 300.724C203.898 300.724 219.935 284.687 219.935 264.904C219.935 245.121 203.898 229.084 184.115 229.084C164.332 229.084 148.295 245.121 148.295 264.904C148.295 284.687 164.332 300.724 184.115 300.724Z" fill="#3B82F6"/>
<path d="M170.105 274.144C169.057 273.428 168.127 272.554 167.345 271.554C165.962 269.842 165.255 267.683 165.356 265.485C165.457 263.287 166.361 261.202 167.895 259.624C168.896 258.594 170.122 257.809 171.477 257.332C172.832 256.855 174.279 256.698 175.705 256.874C175.389 254.891 175.727 252.858 176.669 251.084C177.61 249.31 179.104 247.89 180.923 247.04C182.743 246.19 184.79 245.954 186.754 246.37C188.719 246.786 190.496 247.83 191.815 249.344C194.605 252.504 195.915 257.204 196.405 261.344C196.658 263.505 196.692 265.687 196.505 267.854C196.415 268.944 196.025 275.234 195.005 275.634C188.265 278.214 176.775 278.774 170.105 274.144Z" fill="white"/>
<path d="M436.846 292.273C447.45 292.273 456.046 283.677 456.046 273.073C456.046 262.469 447.45 253.873 436.846 253.873C426.242 253.873 417.646 262.469 417.646 273.073C417.646 283.677 426.242 292.273 436.846 292.273Z" fill="#3B82F6"/>
<path d="M435.525 264.175C436.109 263.822 436.748 263.569 437.415 263.425C438.562 263.149 439.77 263.302 440.812 263.854C441.855 264.407 442.659 265.321 443.075 266.425C443.346 267.146 443.446 267.921 443.368 268.688C443.29 269.454 443.036 270.193 442.625 270.845C443.636 271.166 444.519 271.801 445.146 272.658C445.772 273.515 446.11 274.548 446.11 275.61C446.11 276.671 445.772 277.705 445.146 278.562C444.519 279.418 443.636 280.053 442.625 280.375C440.335 280.876 437.949 280.702 435.755 279.875C434.65 279.502 433.584 279.02 432.575 278.435C432.065 278.145 429.095 276.525 429.145 275.935C429.435 272.055 431.785 266.355 435.525 264.175Z" fill="white"/>
<path d="M287.975 251.173C290.127 252.969 292.529 254.441 295.105 255.543C299.849 257.523 305.026 258.237 310.129 257.615C315.232 256.993 320.086 255.056 324.215 251.993C327.415 249.553 330.215 246.183 333.525 243.733C335.834 241.924 338.607 240.801 341.525 240.493C342.495 240.521 343.458 240.318 344.335 239.903C346.555 238.523 343.935 236.233 343.705 234.613C343.397 232.022 344.048 229.408 345.535 227.263C349.333 221.599 351.056 214.795 350.409 208.005C349.763 201.216 346.788 194.859 341.989 190.013C337.19 185.167 330.862 182.13 324.08 181.417C317.297 180.705 310.476 182.361 304.775 186.103C299.145 189.793 294.965 195.263 290.725 200.493C286.985 205.103 283.075 209.643 280.335 214.913C273.895 227.303 277.655 242.563 287.975 251.173Z" fill="#3B82F6"/>
<path d="M326.166 210.334C329.706 210.334 332.576 207.464 332.576 203.924C332.576 200.383 329.706 197.514 326.166 197.514C322.626 197.514 319.756 200.383 319.756 203.924C319.756 207.464 322.626 210.334 326.166 210.334Z" fill="white"/>
<path d="M313.765 225.494C317.305 225.494 320.175 222.624 320.175 219.084C320.175 215.544 317.305 212.674 313.765 212.674C310.225 212.674 307.355 215.544 307.355 219.084C307.355 222.624 310.225 225.494 313.765 225.494Z" fill="white"/>
<path d="M302.136 239.724C305.676 239.724 308.546 236.854 308.546 233.314C308.546 229.774 305.676 226.904 302.136 226.904C298.596 226.904 295.726 229.774 295.726 233.314C295.726 236.854 298.596 239.724 302.136 239.724Z" fill="white"/>
<g opacity="0.46">
<path opacity="0.46" d="M487.525 173.284C487.024 175.795 485.969 178.161 484.436 180.212C482.903 182.262 480.931 183.944 478.665 185.134L425.205 213.534C423.189 214.61 420.98 215.277 418.705 215.498C416.431 215.718 414.135 215.487 411.95 214.818C409.765 214.149 407.733 213.056 405.972 211.6C404.21 210.144 402.753 208.354 401.685 206.334L359.075 126.104C356.916 122.035 356.461 117.276 357.809 112.871C359.157 108.467 362.198 104.777 366.265 102.614L419.765 74.2244C427.815 69.9444 438.925 73.2244 443.245 81.4144L485.865 161.614C487.783 165.185 488.371 169.32 487.525 173.284Z" fill="#3B82F6"/>
</g>
<path d="M471.656 167.205L419.526 147.335C418.862 147.077 418.311 146.591 417.972 145.965C417.633 145.338 417.528 144.611 417.676 143.915L429.766 88.3054C429.903 87.7134 430.216 87.1774 430.665 86.7684C431.113 86.3584 431.675 86.0944 432.276 86.0114C432.877 85.9274 433.49 86.0284 434.033 86.3004C434.575 86.5724 435.023 87.0034 435.316 87.5354L475.356 162.995C475.639 163.532 475.752 164.143 475.681 164.746C475.609 165.349 475.356 165.917 474.955 166.373C474.554 166.829 474.024 167.153 473.435 167.302C472.846 167.45 472.225 167.416 471.656 167.205Z" fill="white"/>
<g opacity="0.46">
<path opacity="0.46" d="M549.526 229.113C550.62 229.897 551.524 230.917 552.171 232.098C552.818 233.278 553.193 234.589 553.266 235.933L555.266 267.723C555.342 268.923 555.18 270.126 554.791 271.263C554.401 272.401 553.79 273.45 552.994 274.351C552.198 275.252 551.232 275.987 550.151 276.514C549.07 277.041 547.896 277.35 546.696 277.423L498.986 280.363C496.568 280.508 494.191 279.688 492.377 278.083C490.562 276.479 489.458 274.22 489.306 271.803L487.356 239.993C487.27 237.591 488.109 235.248 489.7 233.447C491.291 231.646 493.512 230.524 495.906 230.313L543.606 227.313C545.73 227.194 547.828 227.832 549.526 229.113Z" fill="#3B82F6"/>
</g>
<path d="M543.186 235.393L522.306 256.063C522.041 256.314 521.696 256.466 521.331 256.491C520.967 256.517 520.604 256.415 520.306 256.203L496.306 238.303C496.05 238.11 495.859 237.843 495.76 237.538C495.66 237.233 495.656 236.904 495.749 236.597C495.842 236.29 496.026 236.019 496.278 235.819C496.529 235.62 496.836 235.503 497.156 235.483L542.036 232.713C542.35 232.705 542.659 232.791 542.924 232.961C543.188 233.13 543.395 233.375 543.519 233.664C543.643 233.952 543.677 234.271 543.618 234.58C543.559 234.888 543.408 235.171 543.186 235.393Z" fill="white"/>
<g opacity="0.46">
<path opacity="0.46" d="M225.525 403.804C222.394 404.319 219.228 404.587 216.055 404.604C185.675 404.604 186.695 376.434 186.695 376.434L211.865 381.874C210.914 379.544 210.55 377.016 210.805 374.512C211.059 372.008 211.925 369.605 213.325 367.514C219.085 359.094 232.465 363.424 232.465 363.424L240.785 358.064L238.985 368.064L250.135 366.184L244.405 372.814C252.105 380.214 261.915 402.744 238.255 414.454C214.595 426.164 204.385 412.134 204.385 412.134L216.055 404.614L225.525 403.804Z" fill="#3B82F6"/>
</g>
<path d="M225.026 376.254C227.036 376.254 228.666 374.625 228.666 372.614C228.666 370.604 227.036 368.974 225.026 368.974C223.016 368.974 221.386 370.604 221.386 372.614C221.386 374.625 223.016 376.254 225.026 376.254Z" fill="white"/>
<path d="M288.476 891.283H704.746" stroke="black" stroke-width="3.15" stroke-miterlimit="10"/>
</svg>
