<svg width="906" height="813" viewBox="0 0 906 813" fill="none" xmlns="http://www.w3.org/2000/svg">
<path d="M744.142 525.022H521.692C516.926 525.022 513.062 528.886 513.062 533.652V690.462C513.062 695.229 516.926 699.092 521.692 699.092H744.142C748.908 699.092 752.772 695.229 752.772 690.462V533.652C752.772 528.886 748.908 525.022 744.142 525.022Z" fill="#7C3AED"/>
<path d="M732.922 533.171H532.922C528.156 533.171 524.292 537.035 524.292 541.801V682.311C524.292 687.077 528.156 690.941 532.922 690.941H732.922C737.688 690.941 741.552 687.077 741.552 682.311V541.801C741.552 537.035 737.688 533.171 732.922 533.171Z" fill="#7C3AED"/>
<path d="M850.502 699.092H770.252C767.957 699.092 765.684 698.64 763.564 697.761C761.444 696.883 759.518 695.595 757.895 693.972C756.273 692.348 754.986 690.421 754.109 688.301C753.232 686.18 752.781 683.907 752.782 681.612V556.482C752.782 555.357 753.006 554.243 753.442 553.206C753.878 552.169 754.516 551.23 755.32 550.443C756.124 549.655 757.077 549.037 758.123 548.623C759.169 548.209 760.287 548.008 761.412 548.032L806.052 548.432C807.252 548.459 808.432 548.74 809.514 549.257C810.597 549.774 811.557 550.516 812.332 551.432L866.412 615.432C874.974 624.243 879.76 636.046 879.752 648.332V669.832C879.755 673.674 879 677.48 877.531 681.03C876.062 684.581 873.908 687.807 871.191 690.524C868.475 693.242 865.249 695.397 861.699 696.867C858.149 698.337 854.344 699.093 850.502 699.092Z" fill="#7C3AED"/>
<path d="M632.911 662.533C660.785 662.533 683.381 639.936 683.381 612.063C683.381 584.189 660.785 561.593 632.911 561.593C605.037 561.593 582.441 584.189 582.441 612.063C582.441 639.936 605.037 662.533 632.911 662.533Z" fill="#D7E8F0"/>
<path d="M770.252 611.74V569.21C770.252 567.95 770.752 566.742 771.643 565.851C772.534 564.96 773.742 564.46 775.002 564.46H798.872C799.601 564.461 800.319 564.63 800.973 564.952C801.626 565.275 802.197 565.742 802.642 566.32L835.352 608.83C835.894 609.533 836.228 610.375 836.317 611.258C836.405 612.142 836.243 613.033 835.851 613.83C835.458 614.626 834.85 615.297 834.096 615.765C833.341 616.234 832.47 616.481 831.582 616.48H775.032C774.407 616.484 773.786 616.364 773.207 616.128C772.628 615.892 772.102 615.543 771.657 615.103C771.213 614.662 770.86 614.139 770.619 613.562C770.378 612.984 770.253 612.365 770.252 611.74Z" fill="#F3E8FF"/>
<path d="M533.462 698.722V699.062C533.462 709.416 537.575 719.346 544.896 726.667C552.218 733.988 562.148 738.102 572.502 738.102C582.856 738.102 592.786 733.988 600.107 726.667C607.429 719.346 611.542 709.416 611.542 699.062" stroke="#CCDDE2" stroke-width="4.57" stroke-miterlimit="10"/>
<path d="M770.252 699.061C770.252 709.414 774.365 719.343 781.685 726.663C789.006 733.984 798.934 738.097 809.287 738.097C819.64 738.097 829.568 733.984 836.889 726.663C844.209 719.343 848.322 709.414 848.322 699.061" fill="#7C3AED"/>
<path d="M770.352 337.4C802.812 330.46 837.762 342.99 861.532 366.15C885.302 389.31 898.532 421.97 901.942 454.98C907.432 507.51 892.712 568.19 863.752 612.31" stroke="#CCDDE2" stroke-width="4.57" stroke-miterlimit="10"/>
<path d="M479.611 126.221C533.991 106.621 599.181 124.001 650.181 259.221C666.841 303.411 688.001 324.221 717.811 326.821" stroke="#CCDDE2" stroke-width="4.57" stroke-miterlimit="10"/>
<path d="M271.781 191.209C271.781 191.209 332.481 184.209 332.851 258.699L502.771 209.219L529.451 200.829C529.451 200.829 491.171 154.389 447.011 146.399C447.487 150.912 448.381 155.371 449.681 159.719C451.961 167.719 444.401 172.419 433.911 175.399C423.421 178.379 402.181 160.749 398.531 145.199C398.531 145.199 403.771 140.469 384.251 143.859C364.731 147.249 305.501 161.009 271.781 191.209Z" fill="#2E2E2E"/>
<path d="M8.25162 552.713C9.90842 553.606 11.7596 554.076 13.6416 554.083C15.3377 554.081 17.0116 553.697 18.5399 552.962C20.0681 552.226 21.4117 551.157 22.4716 549.833L60.7717 502.883L91.6817 464.093L66.3817 449.903C63.7597 448.423 60.6577 448.045 57.7567 448.851C54.8557 449.658 52.3937 451.582 50.9116 454.203L3.74161 537.033C2.99241 538.355 2.51452 539.813 2.33592 541.322C2.15742 542.831 2.28182 544.36 2.70182 545.821C3.12182 547.281 3.82902 548.643 4.78202 549.826C5.73502 551.01 6.91452 551.991 8.25162 552.713Z" fill="#2E2E2E"/>
<path d="M591.252 774.222L623.132 805.582C625.889 808.303 629.607 809.83 633.482 809.832H713.252C716.531 809.852 719.691 808.607 722.075 806.356C724.459 804.105 725.884 801.022 726.053 797.748C726.221 794.473 725.121 791.26 722.981 788.776C720.841 786.292 717.825 784.729 714.562 784.412L670.302 779.832L591.252 774.222Z" fill="#2E2E2E"/>
<path d="M444.372 142.832V144.992V145.542C462.01 149.965 478.618 157.776 493.272 168.542C495.642 170.282 497.962 172.042 500.272 173.902C500.332 166.442 499.692 158.952 497.272 151.902C495.317 145.844 491.645 140.483 486.702 136.472C482.352 133.002 477.202 130.772 472.022 128.762C466.842 126.752 461.762 124.992 457.022 122.282C453.022 120.088 449.527 117.08 446.762 113.452C445.795 112.139 445.193 110.593 445.017 108.972C444.842 107.351 445.099 105.712 445.762 104.222C445.296 104.191 444.835 104.1 444.392 103.952L444.372 142.832Z" fill="#7C3AED"/>
<path d="M444.372 142.832V144.992V145.542C462.01 149.965 478.618 157.776 493.272 168.542C495.642 170.282 497.962 172.042 500.272 173.902C500.332 166.442 499.692 158.952 497.272 151.902C495.317 145.844 491.645 140.483 486.702 136.472C482.352 133.002 477.202 130.772 472.022 128.762C466.842 126.752 461.762 124.992 457.022 122.282C453.022 120.088 449.527 117.08 446.762 113.452C445.795 112.139 445.193 110.593 445.017 108.972C444.842 107.351 445.099 105.712 445.762 104.222C445.296 104.191 444.835 104.1 444.392 103.952L444.372 142.832Z" fill="#7C3AED"/>
<path d="M200.722 311.331C207.343 316.082 214.711 319.695 222.522 322.021C225.872 323.021 217.952 326.761 221.392 327.431C207.782 295.311 217.492 245.931 260.552 200.871C267.882 193.191 284.742 183.461 293.052 176.701C306.422 165.831 321.052 164.421 335.052 157.901C341.309 155.012 347.734 152.501 354.292 150.381C365.95 146.507 377.983 143.866 390.192 142.501C392.962 142.161 395.702 141.921 398.472 141.771C397.795 137.01 397.931 132.168 398.872 127.451C401.422 114.511 405.872 107.081 413.972 96.8811C419.052 90.4611 426.972 75.1111 416.402 69.8211C409.742 66.5011 409.132 59.7111 412.262 55.5711C414.912 52.0311 420.262 50.4211 426.882 54.5711C431.452 57.4911 436.882 57.6811 442.102 56.2511C446.171 53.8811 449.7 50.6861 452.462 46.8711C460.132 35.8711 460.402 19.2211 448.412 11.1511C441.862 6.74115 433.522 5.67114 425.692 6.52114C422.193 6.92614 418.747 7.70014 415.412 8.83114C415.398 8.82514 415.382 8.82214 415.367 8.82214C415.351 8.82214 415.336 8.82514 415.322 8.83114C401.162 16.4711 391.022 30.6011 386.152 46.5211C383.292 55.9311 380.062 65.2511 376.282 74.3811C373.182 81.8711 371.022 90.9811 364.102 96.0911C361.217 98.2341 357.938 99.7871 354.452 100.661C341.392 108.941 323.272 104.161 308.992 102.401C297.573 100.84 285.947 102.016 275.072 105.831C262.892 111.981 252.422 121.831 243.922 134.601C229.922 155.761 244.742 186.271 221.272 202.961C214.202 207.961 206.012 211.031 198.272 214.961C187.192 220.601 178.272 228.601 174.982 240.961C168.412 265.721 180.042 296.321 200.722 311.331Z" fill="#7C3AED"/>
<path d="M490.252 492.452L670.802 779.542L593.802 775.902L565.082 749.702H532.252C532.252 749.702 442.772 618.482 422.252 596.242C401.732 574.002 422.252 517.632 422.252 517.632L490.252 492.452Z" fill="#F3E8FF"/>
<path d="M774.712 809.819H219.302" stroke="black" stroke-width="4.57" stroke-miterlimit="10"/>
<path d="M464.741 36.831C466.167 39.787 467.387 42.837 468.391 45.961C469.851 51.051 468.271 54.191 470.491 59.031C471.251 60.701 472.351 63.531 473.491 66.401C473.821 65.731 474.131 65.181 474.311 64.751C483.021 45.361 471.571 36.011 466.061 32.811C465.72 34.182 465.279 35.526 464.741 36.831Z" fill="#7C3AED"/>
<path d="M464.741 36.831C466.167 39.787 467.387 42.837 468.391 45.961C469.851 51.051 468.271 54.191 470.491 59.031C471.251 60.701 472.351 63.531 473.491 66.401C473.821 65.731 474.131 65.181 474.311 64.751C483.021 45.361 471.571 36.011 466.061 32.811C465.72 34.182 465.279 35.526 464.741 36.831Z" fill="#7C3AED"/>
<path d="M382.401 556.269C373.091 588.999 358.071 622.189 345.621 643.169C336.62 658.307 322.225 669.479 305.327 674.443C288.429 679.407 270.279 677.794 254.521 669.929L117.871 602.119V571.429L60.7713 502.919L22.4714 549.829C21.4076 551.146 20.0622 552.208 18.5342 552.936C17.0061 553.665 15.3342 554.042 13.6414 554.039C11.6549 554.028 9.70556 553.499 7.98606 552.504C6.26656 551.509 4.83636 550.083 3.83666 548.366C2.83696 546.65 2.30226 544.702 2.28556 542.715C2.26886 540.729 2.77066 538.772 3.74136 537.039L50.9114 454.249C52.3943 451.629 54.8563 449.704 57.7563 448.898C60.6573 448.091 63.7593 448.47 66.3813 449.949L91.6813 464.139L236.681 545.349C239.093 546.699 241.79 547.456 244.552 547.56C247.313 547.663 250.06 547.109 252.565 545.943C255.071 544.777 257.264 543.033 258.963 540.854C260.663 538.675 261.82 536.123 262.341 533.409L279.521 443.409" stroke="black" stroke-width="4.57" stroke-miterlimit="10"/>
<path d="M319.512 504.202L356.662 534.422C395.762 565.269 429.79 602.048 457.512 643.422L531.732 749.992H651.532" stroke="black" stroke-width="4.57" stroke-miterlimit="10"/>
<path d="M566.681 750.011L591.251 774.221L623.131 805.581C625.888 808.303 629.607 809.83 633.481 809.831H713.251C716.53 809.851 719.69 808.606 722.074 806.356C724.458 804.105 725.883 801.022 726.052 797.747C726.22 794.473 725.12 791.259 722.98 788.776C720.84 786.292 717.824 784.729 714.561 784.411L670.301 779.831L456.641 440.081C445.641 422.541 435.841 393.671 444.371 374.761C476.861 302.831 474.051 233.151 474.051 233.151" stroke="black" stroke-width="4.57" stroke-miterlimit="10"/>
<path d="M444.371 97.8331V142.533V144.693V145.243C448.961 151.943 451.281 161.443 446.891 168.563C441.021 178.093 428.051 176.513 419.821 171.183C417.403 169.614 415.095 167.883 412.911 166.003C405.597 159.646 400.866 150.831 399.611 141.223C398.936 136.465 399.068 131.627 400.001 126.913C402.571 113.983 407.001 106.553 415.131 96.3331C420.211 89.9231 428.131 74.5631 417.541 69.2731C405.151 63.0931 413.731 45.0031 428.021 54.0431C439.101 61.0431 455.021 52.3131 461.601 42.9031C469.271 31.9031 469.551 15.2531 457.551 7.18313C451.001 2.77313 442.661 1.70312 434.841 2.55312C410.991 5.17312 394.031 23.8131 387.241 45.9731C384.381 55.3831 381.151 64.7031 377.381 73.8331C374.271 81.3331 372.111 90.4331 365.201 95.5431C352.051 105.383 332.991 100.233 318.101 98.4131C287.101 94.6031 262.101 108.333 245.021 134.033C231.021 155.193 245.841 185.703 222.361 202.393C215.301 207.393 207.111 210.463 199.361 214.393C188.271 220.023 179.361 228.033 176.061 240.393C169.491 265.233 181.121 295.843 201.791 310.853C211.261 317.733 222.341 321.853 233.851 324.093" stroke="black" stroke-width="4.57" stroke-miterlimit="10"/>
<path d="M505.562 179.65C505.622 179.08 505.652 178.53 505.672 177.99C506.192 168.18 506.132 157.99 502.932 148.6C500.973 142.547 497.302 137.191 492.362 133.18C487.992 129.71 482.852 127.46 477.692 125.46C472.532 123.46 467.422 121.7 462.692 118.98C458.685 116.801 455.19 113.791 452.442 110.15C451.47 108.844 450.861 107.304 450.677 105.687C450.492 104.069 450.739 102.432 451.392 100.94" stroke="black" stroke-width="4.57" stroke-miterlimit="10"/>
<path d="M117.882 571.44V478.8" stroke="black" stroke-width="4.57" stroke-miterlimit="10"/>
<path d="M434.762 87.829C438.352 92.959 443.222 98.499 449.362 100.509C457.312 103.089 462.662 96.349 465.512 89.779C467.222 85.869 468.392 81.709 469.772 77.669C470.222 76.339 470.492 75.669 472.022 75.589C473.552 75.509 475.142 75.829 476.702 75.829C476.821 75.835 476.938 75.807 477.041 75.748C477.144 75.689 477.228 75.602 477.283 75.496C477.338 75.391 477.361 75.272 477.35 75.154C477.339 75.036 477.295 74.923 477.222 74.829C475.122 71.639 471.992 62.919 470.402 59.429C468.202 54.589 469.792 51.429 468.312 46.369C467.302 43.247 466.089 40.194 464.682 37.229" stroke="black" stroke-width="4.57" stroke-miterlimit="10"/>
<path d="M467.021 27.8901C467.021 27.8901 488.691 36.1901 477.501 61.1701C476.811 62.6901 475.111 65.8401 474.311 67.2701" stroke="black" stroke-width="4.57" stroke-miterlimit="10"/>
<path d="M465.821 89.0212C464.087 89.2562 462.327 88.8522 460.869 87.8842C459.412 86.9162 458.356 85.4502 457.901 83.7612" stroke="black" stroke-width="4.57" stroke-miterlimit="10"/>
<path d="M469.492 55.561C465.002 51.911 460.082 56.561 457.082 59.971" stroke="black" stroke-width="4.57" stroke-miterlimit="10"/>
<path d="M444.372 145.241C462.018 149.665 478.636 157.477 493.302 168.241C497.562 171.321 501.672 174.601 505.662 178.011C521.402 191.371 535.252 206.831 548.712 222.461" stroke="black" stroke-width="4.57" stroke-miterlimit="10"/>
<path d="M568.901 369.912C568.82 369.863 568.746 369.802 568.681 369.732C551.021 352.072 533.231 334.542 515.521 316.942C500.681 302.202 481.381 287.112 472.321 267.772" stroke="black" stroke-width="4.57" stroke-miterlimit="10"/>
<path d="M361.832 497.059C363.272 496.599 364.642 496.139 365.942 495.659C365.965 495.667 365.989 495.667 366.012 495.659" stroke="black" stroke-width="4.57" stroke-miterlimit="10"/>
<path d="M227.401 289.402L332.851 258.702L526.501 202.312C535.804 199.633 545.79 200.747 554.274 205.409C562.759 210.071 569.053 217.902 571.781 227.192L613.371 370.062C616.051 379.364 614.942 389.348 610.286 397.835C605.631 406.323 597.806 412.623 588.521 415.362L382.141 475.442L362.441 481.162L342.441 487.012L322.741 492.762L306.741 497.392L249.941 513.932C240.638 516.615 230.65 515.504 222.164 510.841C213.677 506.179 207.384 498.344 204.661 489.052L163.071 346.182C160.389 336.885 161.496 326.904 166.15 318.421C170.805 309.938 178.629 303.643 187.911 300.912L189.401 300.482L190.651 300.112L217.171 292.382L227.401 289.402Z" fill="white"/>
<path d="M243.252 293.13L340.952 264.69L520.392 212.44C529.018 209.942 538.282 210.965 546.155 215.286C554.028 219.606 559.867 226.872 562.392 235.49L600.912 367.83C603.393 376.449 602.368 385.699 598.06 393.566C593.752 401.432 586.51 407.278 577.912 409.83L386.662 465.51L368.412 470.83L349.842 476.24L331.592 481.58L316.752 485.83L256.022 503.83C247.396 506.331 238.13 505.309 230.257 500.988C222.383 496.667 216.545 489.4 214.022 480.78L175.522 348.37C173.024 339.751 174.042 330.493 178.352 322.622C182.663 314.751 189.915 308.908 198.522 306.37L199.902 305.97L201.062 305.64L233.772 295.84L243.252 293.13Z" fill="#7C3AED"/>
<path d="M253.832 297.829L344.422 271.459L517.422 220.809C525.414 218.509 533.992 219.465 541.281 223.469C548.57 227.473 553.977 234.2 556.322 242.179L592.062 364.929C594.364 372.921 593.411 381.499 589.411 388.791C585.411 396.083 578.689 401.496 570.712 403.849L386.772 457.699L369.852 462.619L352.642 467.619L335.712 472.559L322.002 476.559L260.192 494.759C252.194 497.081 243.603 496.134 236.302 492.128C229.002 488.121 223.589 481.382 221.252 473.389L185.502 350.649C183.198 342.66 184.15 334.083 188.15 326.794C192.151 319.505 198.875 314.096 206.852 311.749L213.632 309.819L214.712 309.499L245.042 300.419L253.832 297.829Z" fill="#7C3AED"/>
<path d="M388.482 370.882L225.672 416.832C224.804 417.077 223.896 417.149 223 417.043C222.105 416.937 221.239 416.655 220.452 416.214C219.665 415.773 218.973 415.181 218.415 414.472C217.858 413.763 217.445 412.951 217.202 412.082C217.024 411.482 216.933 410.859 216.932 410.232C216.939 408.738 217.429 407.286 218.331 406.094C219.232 404.903 220.496 404.035 221.932 403.622L384.742 357.702C384.086 359.944 384.055 362.323 384.652 364.582C385.299 367.006 386.628 369.192 388.482 370.882Z" fill="#7C3AED"/>
<path d="M426.512 354.922C426.51 356.421 426.022 357.878 425.12 359.076C424.218 360.273 422.952 361.146 421.512 361.562L409.762 364.882C410.431 362.551 410.438 360.08 409.783 357.745C409.128 355.41 407.836 353.304 406.052 351.662L417.802 348.352C419.554 347.865 421.427 348.091 423.012 348.981C424.597 349.871 425.766 351.353 426.262 353.102C426.438 353.692 426.523 354.306 426.512 354.922Z" fill="#D7E8F0"/>
<path d="M433.911 381.143C433.906 382.638 433.416 384.09 432.514 385.282C431.612 386.474 430.348 387.341 428.911 387.753L267.111 433.393C268.081 431.15 268.396 428.679 268.019 426.265C267.642 423.851 266.588 421.593 264.981 419.753L425.171 374.533C426.923 374.049 428.794 374.277 430.379 375.166C431.963 376.056 433.132 377.536 433.631 379.283C433.817 379.885 433.911 380.512 433.911 381.143Z" fill="#D7E8F0"/>
<path d="M247.652 438.831L233.072 442.941C232.183 443.291 231.231 443.452 230.276 443.412C229.322 443.373 228.386 443.134 227.529 442.711C226.672 442.288 225.913 441.691 225.301 440.957C224.689 440.224 224.237 439.37 223.974 438.452C223.711 437.533 223.644 436.57 223.775 435.624C223.907 434.677 224.235 433.769 224.739 432.957C225.243 432.145 225.911 431.448 226.7 430.909C227.489 430.371 228.382 430.004 229.322 429.831L242.322 426.171C242.042 427.966 242.127 429.799 242.572 431.561C243.351 434.509 245.151 437.085 247.652 438.831Z" fill="#7C3AED"/>
<path d="M392.592 426.599L241.532 469.229C239.781 469.705 237.912 469.474 236.33 468.585C234.748 467.697 233.578 466.222 233.072 464.479C232.896 463.886 232.812 463.269 232.822 462.649C232.825 461.151 233.314 459.694 234.216 458.497C235.117 457.299 236.383 456.427 237.822 456.009L388.662 413.479C388.031 415.815 388.065 418.281 388.759 420.599C389.453 422.917 390.781 424.995 392.592 426.599Z" fill="#7C3AED"/>
<path d="M442.402 407.352C442.404 408.848 441.916 410.304 441.013 411.497C440.11 412.691 438.842 413.556 437.402 413.962L413.712 420.632L392.612 426.632C390.801 425.027 389.473 422.949 388.779 420.631C388.085 418.313 388.051 415.848 388.682 413.512L410.182 407.452L433.682 400.812C435.431 400.318 437.304 400.538 438.892 401.423C440.479 402.307 441.652 403.785 442.152 405.532C442.319 406.124 442.404 406.737 442.402 407.352Z" fill="#D7E8F0"/>
<path d="M409.761 364.88C408.976 367.624 407.309 370.034 405.019 371.737C402.728 373.44 399.94 374.342 397.086 374.304C394.232 374.265 391.469 373.288 389.226 371.523C386.982 369.759 385.382 367.304 384.672 364.54C384.241 362.886 384.14 361.164 384.376 359.472C384.611 357.78 385.178 356.151 386.043 354.678C386.909 353.205 388.056 351.917 389.42 350.888C390.784 349.858 392.337 349.108 393.991 348.68C396.092 348.133 398.296 348.121 400.403 348.645C402.509 349.169 404.451 350.212 406.051 351.68C407.835 353.322 409.127 355.428 409.782 357.763C410.437 360.098 410.43 362.569 409.761 364.9V364.88Z" fill="white"/>
<g opacity="0.72">
<path opacity="0.72" d="M402.782 358.643C402.942 360.218 402.651 361.807 401.942 363.223C401.601 363.923 401.2 364.593 400.742 365.223C400.492 365.553 399.182 367.443 398.802 367.363C396.222 366.903 392.532 364.893 391.342 362.203C391.164 361.78 391.04 361.337 390.972 360.883C390.88 360.224 390.99 359.553 391.286 358.958C391.582 358.363 392.051 357.87 392.631 357.546C393.212 357.222 393.876 357.081 394.539 357.141C395.201 357.201 395.829 357.459 396.342 357.883C396.619 357.206 397.108 356.637 397.737 356.263C398.365 355.888 399.099 355.729 399.826 355.808C400.553 355.887 401.235 356.2 401.768 356.701C402.301 357.202 402.657 357.862 402.782 358.583V358.643Z" fill="#7C3AED"/>
</g>
<path d="M267.112 433.389C266.045 435.885 264.224 437.983 261.904 439.391C259.585 440.799 256.882 441.446 254.176 441.241C251.471 441.036 248.897 439.989 246.816 438.248C244.735 436.506 243.251 434.157 242.572 431.529C242.127 429.768 242.042 427.935 242.322 426.139C242.742 423.664 243.868 421.362 245.564 419.511C247.259 417.659 249.453 416.335 251.882 415.699C254.228 415.077 256.703 415.13 259.02 415.852C261.338 416.573 263.404 417.935 264.982 419.779C266.59 421.619 267.643 423.877 268.02 426.291C268.397 428.705 268.082 431.177 267.112 433.419V433.389Z" fill="white"/>
<g opacity="0.72">
<path opacity="0.72" d="M260.691 425.622C260.848 427.199 260.554 428.787 259.841 430.202C259.509 430.908 259.107 431.578 258.641 432.202C258.391 432.532 257.081 434.422 256.711 434.342C254.121 433.882 250.441 431.872 249.251 429.172C249.068 428.751 248.943 428.307 248.881 427.852C248.789 427.194 248.898 426.523 249.194 425.927C249.49 425.332 249.959 424.84 250.54 424.516C251.12 424.191 251.785 424.05 252.448 424.11C253.11 424.17 253.738 424.429 254.251 424.852C254.448 424.368 254.755 423.935 255.147 423.588C255.539 423.241 256.006 422.989 256.511 422.852C256.968 422.745 257.443 422.732 257.905 422.814C258.368 422.897 258.809 423.074 259.2 423.333C259.592 423.593 259.926 423.93 260.183 424.323C260.439 424.717 260.612 425.159 260.691 425.622Z" fill="#7C3AED"/>
</g>
<path d="M413.692 420.63C412.782 423.623 410.819 426.186 408.166 427.844C405.514 429.502 402.35 430.144 399.261 429.651C396.171 429.158 393.365 427.563 391.36 425.161C389.356 422.76 388.288 419.713 388.355 416.586C388.422 413.458 389.619 410.46 391.725 408.146C393.831 405.833 396.703 404.36 399.81 403.999C402.918 403.639 406.051 404.416 408.63 406.186C411.21 407.956 413.061 410.601 413.842 413.63C414.433 415.933 414.381 418.354 413.692 420.63Z" fill="white"/>
<g opacity="0.72">
<path opacity="0.72" d="M406.772 414.27C406.923 415.846 406.629 417.433 405.922 418.85C405.585 419.553 405.183 420.222 404.722 420.85C404.472 421.18 403.162 423.07 402.792 422.99C400.202 422.53 396.512 420.52 395.322 417.83C395.143 417.404 395.019 416.957 394.952 416.5C394.86 415.842 394.969 415.171 395.266 414.575C395.562 413.98 396.031 413.488 396.611 413.163C397.191 412.839 397.856 412.698 398.519 412.758C399.181 412.818 399.809 413.077 400.322 413.5C400.603 412.825 401.094 412.259 401.724 411.887C402.353 411.515 403.086 411.357 403.813 411.437C404.54 411.517 405.221 411.831 405.755 412.331C406.288 412.831 406.645 413.49 406.772 414.21V414.27Z" fill="#7C3AED"/>
</g>
<path d="M386.862 455.621C378.192 456.101 368.862 443.621 366.012 440.511C365.696 440.18 365.336 439.894 364.942 439.661L357.192 433.391L358.492 443.251C360.562 448.001 371.492 458.361 379.282 470.251C387.072 482.141 379.652 484.741 375.482 486.251C371.312 487.761 366.952 479.881 368.652 488.441C370.352 497.001 360.252 497.121 353.952 496.051C347.652 494.981 345.392 488.051 346.822 493.491C348.252 498.931 343.532 502.901 339.272 503.081C336.042 503.241 329.832 498.881 327.032 496.781C326.392 500.221 324.082 506.681 316.032 503.241C305.342 498.671 294.962 471.361 287.032 443.411C279.102 415.461 227.742 364.481 220.252 310.501C220.252 310.411 220.252 310.281 220.252 310.191C219.852 306.111 219.649 302.001 219.642 297.861C219.644 289.992 220.408 282.142 221.922 274.421C223.005 268.803 224.451 263.261 226.252 257.831L311.052 274.671C310.472 275.311 309.892 275.951 309.312 276.621C289.462 299.671 301.062 328.901 316.162 350.361C331.482 372.201 349.112 393.781 369.262 411.361C375.178 416.51 380.707 422.089 385.802 428.051L384.702 428.661C385.899 430.992 387.235 433.25 388.702 435.421C394.692 443.681 395.572 455.131 386.862 455.621Z" fill="#F3E8FF"/>
<path d="M332.852 258.702L526.502 202.312C535.805 199.633 545.791 200.747 554.276 205.409C562.76 210.071 569.054 217.902 571.782 227.192L613.372 370.062C616.052 379.364 614.943 389.348 610.287 397.835C605.632 406.323 597.807 412.623 588.522 415.362L382.142 475.442" stroke="black" stroke-width="4.57" stroke-miterlimit="10"/>
<path d="M306.691 497.392L249.941 513.932C240.638 516.616 230.65 515.505 222.164 510.842C213.677 506.179 207.384 498.344 204.661 489.052L163.071 346.182C160.389 336.885 161.496 326.904 166.15 318.422C170.805 309.939 178.629 303.643 187.911 300.912L189.401 300.482L190.651 300.112L217.171 292.382" stroke="black" stroke-width="4.57" stroke-miterlimit="10"/>
<path d="M362.442 481.159H362.412" stroke="black" stroke-width="4.57" stroke-miterlimit="10"/>
<path d="M322.681 492.761H322.651" stroke="black" stroke-width="4.57" stroke-miterlimit="10"/>
<path d="M333.471 437.991C336.261 453.211 348.941 469.701 362.391 481.121C366.301 484.441 374.941 488.481 379.631 484.691C389.751 476.531 372.451 463.091 367.681 457.691C361.891 451.131 357.211 443.441 355.471 434.771C355.319 434.236 355.351 433.666 355.561 433.151C355.764 432.871 356.051 432.664 356.381 432.562C356.711 432.459 357.065 432.466 357.391 432.581C358.036 432.819 358.618 433.202 359.091 433.701C364.571 438.701 369.461 444.231 374.421 449.701C377.931 453.611 387.061 458.461 391.541 453.481C401.261 442.671 373.751 417.481 366.711 411.301C346.581 393.701 328.921 372.121 313.601 350.301C298.501 328.841 286.901 299.611 306.751 276.561C317.111 264.561 332.451 259.321 346.151 252.231C368.251 240.831 372.801 221.831 372.801 221.831" stroke="black" stroke-width="4.57" stroke-miterlimit="10"/>
<path d="M320.632 453.46C320.632 453.46 332.072 486.07 356.372 496.22C357.815 496.862 359.384 497.171 360.963 497.124C362.541 497.077 364.089 496.676 365.492 495.95C368.492 494.27 370.942 490.95 366.732 484.29" stroke="black" stroke-width="4.57" stroke-miterlimit="10"/>
<path d="M304.792 461.081C309.252 473.181 315.172 485.831 324.692 494.831C329.032 498.921 334.532 502.971 340.692 503.231C348.112 503.541 348.692 496.061 345.692 490.971C345.043 489.88 344.264 488.873 343.372 487.971" stroke="black" stroke-width="4.57" stroke-miterlimit="10"/>
<path d="M324.692 494.833C324.692 494.833 324.152 507.833 313.462 503.243C302.772 498.653 292.362 471.353 284.462 443.393C276.562 415.433 224.912 364.303 217.582 310.193L217.662 310.853C217.662 310.733 217.662 310.643 217.662 310.523C216.413 298.472 216.965 286.301 219.302 274.413C242.452 157.253 398.532 141.753 398.532 141.753" stroke="black" stroke-width="4.57" stroke-miterlimit="10"/>
<path d="M629.782 389.179C625.462 401.929 614.782 410.059 601.622 412.039C595.982 412.869 589.902 413.629 584.622 411.039C580.752 409.149 576.942 404.739 578.102 400.109C576.381 400.131 574.664 399.936 572.992 399.529C570.702 398.979 568.332 397.889 567.322 395.779C566.312 393.669 567.022 390.729 568.662 388.839C570.449 387.077 572.649 385.791 575.062 385.099C575.648 384.883 576.245 384.699 576.852 384.549C574.899 384.566 572.947 384.442 571.012 384.179C567.292 383.699 563.122 382.109 562.012 378.549C561.704 377.339 561.707 376.071 562.022 374.863C562.337 373.654 562.953 372.545 563.812 371.639C565.562 369.841 567.756 368.537 570.172 367.859C570.422 367.799 570.632 367.709 570.872 367.649C566.462 367.589 561.952 366.709 560.002 362.529C559.375 361.044 559.198 359.408 559.491 357.822C559.784 356.237 560.535 354.772 561.652 353.609C565.552 349.229 571.392 348.609 576.902 348.189C582.412 347.769 589.112 347.579 595.602 347.459C597.012 347.422 598.394 347.062 599.644 346.409C600.893 345.755 601.977 344.824 602.811 343.687C603.646 342.551 604.21 341.238 604.459 339.85C604.709 338.462 604.638 337.036 604.252 335.679C601.722 326.679 600.652 316.859 605.982 314.459C613.932 310.859 619.412 320.669 621.692 326.699C628.662 345.179 636.422 369.659 629.782 389.179Z" fill="#F3E8FF"/>
<path d="M596.251 381.753C589.821 383.123 583.311 384.523 576.791 384.583C576.185 384.734 575.587 384.918 575.001 385.133C572.588 385.824 570.388 387.11 568.601 388.873C566.961 390.763 566.171 393.563 567.261 395.813C568.351 398.063 570.641 399.013 572.931 399.563C574.603 399.969 576.32 400.164 578.041 400.143C581.56 400.071 585.063 399.632 588.491 398.833C589.071 398.713 596.171 397.893 596.721 397.763" stroke="black" stroke-width="4.57" stroke-miterlimit="10"/>
<path d="M570.802 367.683C570.562 367.743 570.352 367.833 570.102 367.893C567.686 368.57 565.492 369.874 563.742 371.673C562.883 372.578 562.267 373.687 561.952 374.896C561.637 376.104 561.634 377.373 561.942 378.583C563.102 382.143 567.272 383.733 570.942 384.213C572.877 384.475 574.829 384.599 576.782 384.583" stroke="black" stroke-width="4.57" stroke-miterlimit="10"/>
<path d="M601.652 367.012C601.162 367.012 600.702 367.012 600.222 367.012L576.982 367.532C575.162 367.532 572.982 367.712 570.802 367.652C566.392 367.592 561.882 366.712 559.932 362.532C559.305 361.047 559.128 359.41 559.421 357.825C559.714 356.24 560.465 354.775 561.582 353.612C565.482 349.232 571.322 348.612 576.832 348.192C582.342 347.772 589.052 347.602 595.542 347.462C596.956 347.43 598.345 347.073 599.6 346.42C600.855 345.768 601.944 344.835 602.782 343.696C603.621 342.556 604.186 341.239 604.436 339.846C604.686 338.453 604.612 337.022 604.222 335.662C601.692 326.662 600.602 316.832 605.942 314.432C613.892 310.832 619.372 320.642 621.652 326.672C628.652 345.152 636.422 369.672 629.782 389.152C625.452 401.902 614.782 410.052 601.632 412.012C596.002 412.852 589.902 413.612 584.632 411.012C580.782 409.132 576.962 404.732 578.112 400.102" stroke="black" stroke-width="4.57" stroke-miterlimit="10"/>
<g opacity="0.54">
<path opacity="0.54" d="M417.482 314.622C417.307 313.467 417.043 312.327 416.692 311.212L412.762 298.502C411.562 294.612 410.232 290.502 407.172 287.822C401.502 282.822 392.762 284.692 385.512 286.872L367.722 292.212C363.632 293.442 359.482 294.702 355.912 297.032C352.342 299.362 349.362 302.982 348.802 307.212C348.382 310.332 349.302 313.452 350.212 316.472L353.872 328.672C355.082 332.672 356.422 336.892 359.572 339.672C365.182 344.552 373.752 342.722 380.892 340.612L399.092 335.242C410.072 331.962 419.252 326.092 417.482 314.622Z" fill="white"/>
<path opacity="0.54" d="M392.522 316.113C393.256 315.341 393.772 314.386 394.015 313.349C394.258 312.311 394.22 311.227 393.906 310.208C393.591 309.19 393.011 308.274 392.224 307.554C391.438 306.834 390.474 306.337 389.432 306.113L383.792 304.833L378.162 303.553C377.126 303.303 376.042 303.333 375.022 303.641C374.001 303.949 373.081 304.523 372.356 305.304C371.631 306.085 371.127 307.045 370.896 308.085C370.665 309.126 370.716 310.209 371.042 311.223L372.752 316.743L374.452 322.263C374.753 323.287 375.321 324.212 376.098 324.943C376.876 325.674 377.834 326.184 378.874 326.422C379.914 326.659 380.999 326.615 382.016 326.294C383.034 325.972 383.947 325.385 384.662 324.593L388.592 320.353L392.522 316.113Z" fill="#7C3AED"/>
</g>
<path d="M795.301 738.101H746.271" stroke="#CCDDE2" stroke-width="4.57" stroke-miterlimit="10"/>
<path d="M737.922 431.559C767.905 431.559 792.212 407.253 792.212 377.269C792.212 347.286 767.905 322.979 737.922 322.979C707.938 322.979 683.632 347.286 683.632 377.269C683.632 407.253 707.938 431.559 737.922 431.559Z" fill="#7C3AED"/>
<path d="M729.131 401.611C728.499 401.611 727.874 401.487 727.29 401.245C726.707 401.003 726.177 400.648 725.731 400.201L711.731 386.201C710.829 385.3 710.322 384.078 710.321 382.804C710.32 381.53 710.826 380.307 711.726 379.406C712.627 378.504 713.848 377.997 715.123 377.996C716.397 377.995 717.619 378.5 718.521 379.401L729.161 390.041L757.351 361.831C758.252 360.929 759.473 360.422 760.748 360.421C762.022 360.42 763.244 360.925 764.146 361.826C765.048 362.726 765.555 363.948 765.556 365.222C765.557 366.496 765.052 367.719 764.151 368.621L732.521 400.251C731.615 401.134 730.396 401.623 729.131 401.611Z" fill="white"/>
</svg>
