<svg width="870" height="903" viewBox="0 0 870 903" fill="none" xmlns="http://www.w3.org/2000/svg">
<path d="M582.51 158.007C588.671 154.032 595.829 151.88 603.16 151.797C604.43 151.797 605.671 151.867 606.891 151.977C606.371 149.797 605.721 147.237 604.891 144.457C602.263 143.139 599.978 141.226 598.219 138.871C596.461 136.515 595.276 133.781 594.76 130.887C593.819 131.05 592.865 131.134 591.91 131.137C588.504 131.148 585.169 130.168 582.31 128.317C581.609 128.165 580.918 127.971 580.24 127.737C579.345 127.895 578.439 127.979 577.53 127.987C572.906 128.013 568.46 126.217 565.151 122.987L556.48 125.987C556.48 125.987 578.72 137.207 582.51 158.007Z" fill="#3B82F6"/>
<path d="M585.1 809.275C585.095 825.224 578.757 840.519 567.48 851.798C556.203 863.077 540.909 869.417 524.96 869.425H238.66C222.709 869.419 207.413 863.08 196.133 851.801C184.854 840.522 178.515 825.226 178.51 809.275V184.525C178.505 176.622 180.057 168.795 183.077 161.492C186.097 154.19 190.527 147.553 196.113 141.963C201.699 136.372 208.331 131.937 215.632 128.911C222.932 125.884 230.757 124.326 238.66 124.325H276.92C283.805 124.327 290.408 127.06 295.28 131.925C299.747 136.363 302.424 142.289 302.8 148.575C302.856 149.096 302.883 149.62 302.88 150.145C302.88 150.595 302.88 151.035 302.88 151.475C303.066 155.288 304.054 159.019 305.78 162.425C305.83 162.505 305.86 162.615 305.91 162.695C308.001 166.793 311.188 170.23 315.116 172.626C319.044 175.022 323.559 176.281 328.16 176.265H434.73C438.145 176.27 441.528 175.6 444.684 174.294C447.84 172.988 450.707 171.072 453.12 168.655C454.965 166.812 456.507 164.689 457.69 162.365C457.74 162.322 457.778 162.267 457.8 162.205C459.556 158.873 460.538 155.188 460.67 151.425C460.67 151.095 460.67 150.795 460.67 150.425C460.75 136.115 471.67 124.295 486 124.295H518.31L552.31 123.875C553 117.375 555.77 110.535 558.63 104.495C559.583 102.404 560.711 100.397 562 98.4949H241.11C230.75 98.4929 220.491 100.533 210.919 104.497C201.347 108.461 192.649 114.272 185.323 121.598C177.998 128.924 172.187 137.621 168.223 147.193C164.258 156.765 162.219 167.024 162.22 177.385V823.175C162.217 833.535 164.256 843.795 168.22 853.368C172.183 862.94 177.994 871.638 185.321 878.964C192.647 886.29 201.344 892.101 210.917 896.065C220.49 900.029 230.749 902.067 241.11 902.065H531.21C541.571 902.066 551.83 900.026 561.403 896.062C570.976 892.098 579.673 886.288 587 878.962C594.327 871.636 600.139 862.939 604.104 853.367C608.069 843.795 610.11 833.536 610.11 823.175V778.705L585.11 792.955L585.1 809.275Z" fill="#3B82F6"/>
<path d="M593.82 314.237C590.82 311.147 587.92 315.947 585.1 312.667V550.297C586.862 543.808 589.037 537.438 591.61 531.227C592.19 529.867 592.77 528.497 593.37 527.147C594.64 524.357 595.97 521.607 597.37 518.877C597.75 518.097 598.14 517.357 598.55 516.617C598.96 515.877 599.46 514.927 599.93 514.127C600.73 512.667 601.59 511.207 602.47 509.777C603.07 508.697 603.74 507.657 604.4 506.607C604.89 505.777 605.4 504.977 605.94 504.207C606.52 503.267 607.15 502.337 607.76 501.427C608.51 500.297 609.3 499.167 610.08 498.057V328.787C607.08 326.447 604.08 323.987 601.26 321.457C598.69 319.137 596.21 316.737 593.82 314.237Z" fill="#3B82F6"/>
<path d="M607.72 149.065C604.26 153.425 599.97 149.765 594.39 149.765C589.31 149.765 586.39 157.985 583.17 154.675C583.35 155.115 581.54 161.675 581.69 162.115C582.18 163.435 582.62 164.815 583.01 166.195V166.245C583.51 168.015 583.89 169.775 584.22 171.595C584.3 172.005 584.39 172.455 584.44 172.895C584.58 173.825 584.72 174.795 584.8 175.755C584.909 176.645 584.972 177.539 584.99 178.435C585.08 179.435 585.1 180.525 585.1 181.605V251.605C585.917 252.287 586.596 253.118 587.1 254.055C591.1 261.355 594.931 255.885 599.211 263.055C601.491 266.755 606.21 269.645 608.63 266.965C609.52 265.965 610.07 261.685 610.07 260.085V175.505C610.069 171.489 609.771 167.478 609.18 163.505C609 161.995 608.04 150.595 607.72 149.065Z" fill="#3B82F6"/>
<path d="M302.91 148.776C304.721 152.145 305.714 155.892 305.81 159.716C304.085 156.314 303.097 152.586 302.91 148.776Z" fill="#3B82F6"/>
<path d="M460.67 148.713C460.537 152.477 459.556 156.162 457.8 159.493C457.993 155.739 458.971 152.067 460.67 148.713Z" fill="#3B82F6"/>
<path d="M843.5 453.824C747.96 483.654 698.57 410.594 698.57 410.594C702.18 405.244 696.72 395.184 696.72 395.184L693.4 378.184C651.19 376.114 613 334.974 613 334.974C667.61 325.294 644.07 292.584 644.07 292.584L681.72 322.064L685.8 321.704C686.3 270.704 718.41 246.884 728.47 238.814C738.53 230.744 740.25 238.754 740.25 238.754C740.25 238.754 735.83 255.074 754.69 257.334C773.55 259.594 787.36 241.924 787.36 241.924C793.83 227.424 801.28 236.414 801.28 236.414C833.61 253.614 839.46 296.174 846.4 325.914C851.19 346.294 860.31 390.214 866.4 411.614C868.53 419.02 868.104 426.929 865.19 434.064C863.247 438.748 860.296 442.946 856.547 446.361C852.799 449.776 848.344 452.324 843.5 453.824Z" fill="#353642"/>
<path d="M843.5 453.824C747.96 483.654 698.57 410.594 698.57 410.594C702.18 405.244 696.72 395.184 696.72 395.184L693.4 378.184C651.19 376.114 613 334.974 613 334.974C649.18 316.884 644.07 292.584 644.07 292.584L681.72 322.064L685.8 321.704C686.3 270.704 718.41 246.884 728.47 238.814C738.53 230.744 740.25 238.754 740.25 238.754C740.25 238.754 735.83 255.074 754.69 257.334C773.55 259.594 787.36 241.924 787.36 241.924C793.83 227.424 801.28 236.414 801.28 236.414C833.61 253.614 839.46 296.174 846.4 325.914C851.19 346.294 860.31 390.214 866.4 411.614C868.53 419.02 868.104 426.929 865.19 434.064C863.247 438.748 860.296 442.946 856.547 446.361C852.799 449.776 848.344 452.324 843.5 453.824Z" fill="#353642"/>
<path d="M730.89 196.287C736.86 196.287 741.7 191.447 741.7 185.477C741.7 179.506 736.86 174.667 730.89 174.667C724.92 174.667 720.08 179.506 720.08 185.477C720.08 191.447 724.92 196.287 730.89 196.287Z" fill="#D7E8F0"/>
<path d="M745.62 207.245C744.68 214.165 738.81 218.685 732.69 217.685" stroke="black" stroke-width="4.13" stroke-miterlimit="10"/>
<path d="M673.16 146.964C674.188 151.668 676.666 155.93 680.246 159.15C683.825 162.371 688.324 164.387 693.11 164.914C693.549 162.991 694.448 161.203 695.73 159.704C701.19 153.494 703.26 165.374 720.54 157.224C744.54 145.894 753.37 152.834 753.37 152.834C754.15 153.444 753.95 158.904 754.04 159.834C754.56 165.484 755.04 171.114 755.63 176.764C755.97 180.204 756.3 183.624 756.63 187.044C756.965 186.474 757.332 185.923 757.73 185.394C760.05 177.784 766.5 168.874 774.73 172.934C776.403 173.786 777.849 175.023 778.95 176.544C784.32 183.904 779.95 190.824 774.12 195.894C772.64 197.474 770.994 198.889 769.21 200.114C770.12 202.114 773.85 209.974 773.85 210.004C774.23 210.804 788.1 195.724 789.14 194.074C790.735 190.007 791.631 185.7 791.79 181.334C792.37 163.394 785.48 142.334 771.14 131.774C767.59 129.154 766.35 126.674 766.14 123.204C766.129 123.017 766.061 122.838 765.946 122.69C765.831 122.542 765.674 122.432 765.496 122.375C765.318 122.318 765.126 122.316 764.947 122.369C764.767 122.422 764.608 122.529 764.49 122.674C759.83 127.834 748.56 127.084 748.56 127.084C709.56 116.504 696.1 133.644 688.16 136.574C684.927 137.729 681.393 137.729 678.16 136.574C677.949 137.651 677.447 138.649 676.708 139.46C675.969 140.271 675.022 140.864 673.97 141.174L674.14 142.994C674.283 144.391 673.937 145.794 673.16 146.964Z" fill="#3B82F6"/>
<path d="M756.84 220.454C754.27 222.454 747.09 228.214 744.22 229.924C742.115 231.196 739.903 232.283 737.61 233.174C720.35 239.684 704.17 224.884 698.24 210.074C693.36 197.864 692.24 184.224 692.59 171.184C692.65 169.834 692.7 168.454 692.81 167.074C692.796 166.991 692.796 166.906 692.81 166.824C692.863 166.195 692.956 165.57 693.09 164.954C693.525 163.029 694.424 161.24 695.71 159.744C701.16 153.544 703.23 165.424 720.51 157.264C744.51 145.934 753.35 152.874 753.35 152.874C754.12 153.484 753.92 158.944 754.01 159.874C754.53 165.534 755.01 171.154 755.61 176.804C755.94 180.254 756.27 183.664 756.61 187.084C756.69 188.024 756.78 188.934 756.86 189.864C756.982 188.351 757.267 186.855 757.71 185.404C760.03 177.794 766.48 168.894 774.71 172.944C776.383 173.796 777.829 175.033 778.93 176.554C784.3 183.914 779.93 190.834 774.1 195.904C772.62 197.173 771.056 198.342 769.42 199.404L768.98 199.684L769.2 200.124C770.11 202.124 773.83 209.994 773.83 210.014C774.21 210.814 788.08 195.744 789.13 194.084C792.743 188.508 795.006 182.167 795.74 175.564C795.83 174.734 795.88 173.934 795.91 173.104C796.49 155.164 789.6 134.104 775.26 123.544C771.7 120.924 770.46 118.444 770.26 114.974C770.249 114.787 770.181 114.608 770.066 114.46C769.951 114.312 769.794 114.202 769.616 114.145C769.438 114.087 769.246 114.085 769.067 114.139C768.887 114.192 768.728 114.298 768.61 114.444C763.95 119.604 752.67 118.854 752.67 118.854C713.72 108.274 700.21 125.414 692.28 128.344C684.35 131.274 677.39 125.864 677.39 125.864L678.22 134.734C678.275 135.342 678.238 135.956 678.11 136.554C677.899 137.63 677.397 138.628 676.658 139.439C675.919 140.25 674.972 140.843 673.92 141.154C673.522 141.299 673.104 141.383 672.68 141.404H672.37C672.446 143.251 672.687 145.089 673.09 146.894C674.121 151.605 676.607 155.872 680.196 159.093C683.785 162.315 688.295 164.326 693.09 164.844" stroke="black" stroke-width="4.13" stroke-miterlimit="10"/>
<path d="M698.58 195.224C704.55 195.224 709.39 190.384 709.39 184.414C709.39 178.444 704.55 173.604 698.58 173.604C692.61 173.604 687.77 178.444 687.77 184.414C687.77 190.384 692.61 195.224 698.58 195.224Z" fill="#D7E8F0"/>
<path d="M735.4 189.515C735.406 190.394 735.151 191.256 734.666 191.99C734.182 192.724 733.491 193.298 732.68 193.638C731.869 193.979 730.976 194.071 730.112 193.903C729.249 193.735 728.455 193.315 727.831 192.695C727.207 192.075 726.781 191.284 726.608 190.422C726.434 189.56 726.52 188.666 726.855 187.853C727.19 187.04 727.759 186.345 728.49 185.855C729.221 185.366 730.081 185.105 730.96 185.105C731.391 185.096 731.821 185.16 732.23 185.295C732.017 185.498 731.846 185.741 731.727 186.011C731.609 186.28 731.545 186.571 731.54 186.865C731.545 187.432 731.774 187.973 732.177 188.372C732.579 188.771 733.123 188.995 733.69 188.995C733.976 188.994 734.258 188.934 734.52 188.818C734.781 188.703 735.016 188.535 735.21 188.325C735.34 188.708 735.404 189.11 735.4 189.515Z" fill="black"/>
<path d="M703.97 188.065C703.968 188.939 703.707 189.792 703.221 190.517C702.734 191.243 702.044 191.808 701.237 192.141C700.43 192.474 699.542 192.561 698.685 192.39C697.829 192.219 697.042 191.798 696.425 191.181C695.807 190.563 695.386 189.777 695.215 188.92C695.045 188.064 695.131 187.176 695.465 186.369C695.798 185.561 696.363 184.871 697.088 184.384C697.813 183.898 698.667 183.637 699.54 183.635C700.116 183.632 700.688 183.744 701.22 183.965C700.919 184.166 700.67 184.436 700.496 184.753C700.322 185.069 700.227 185.424 700.22 185.785C700.221 186.066 700.278 186.343 700.387 186.602C700.496 186.861 700.655 187.095 700.854 187.292C701.054 187.489 701.291 187.645 701.551 187.75C701.811 187.855 702.089 187.908 702.37 187.905C702.647 187.909 702.921 187.857 703.177 187.752C703.433 187.647 703.665 187.492 703.86 187.295C703.927 187.547 703.964 187.805 703.97 188.065Z" fill="black"/>
<path d="M714.94 185.303C714.94 185.303 712.17 197.613 711.84 198.853C710.84 202.853 718.78 201.613 718.78 201.613" stroke="black" stroke-width="4.13" stroke-miterlimit="10"/>
<path d="M725.1 162.066C725.1 162.066 738.15 157.176 745.41 166.976" stroke="black" stroke-width="4.13" stroke-miterlimit="10"/>
<path d="M681.72 171.856C681.72 171.856 688.44 159.646 700.32 162.356" stroke="black" stroke-width="4.13" stroke-miterlimit="10"/>
<path d="M730.89 198.246C737.943 198.246 743.66 192.528 743.66 185.476C743.66 178.423 737.943 172.706 730.89 172.706C723.837 172.706 718.12 178.423 718.12 185.476C718.12 192.528 723.837 198.246 730.89 198.246Z" stroke="black" stroke-width="4.13" stroke-miterlimit="10"/>
<path d="M698.58 197.183C705.633 197.183 711.35 191.466 711.35 184.413C711.35 177.36 705.633 171.643 698.58 171.643C691.527 171.643 685.81 177.36 685.81 184.413C685.81 191.466 691.527 197.183 698.58 197.183Z" stroke="black" stroke-width="4.13" stroke-miterlimit="10"/>
<path d="M698.57 175.734H698.86C701.159 175.771 703.35 176.72 704.95 178.372C706.549 180.025 707.427 182.245 707.39 184.544C707.353 186.844 706.404 189.034 704.752 190.634C703.099 192.233 700.879 193.111 698.58 193.074H698.31C696.011 193.037 693.82 192.088 692.22 190.436C690.621 188.784 689.743 186.564 689.78 184.264C689.817 181.965 690.766 179.774 692.418 178.174C694.071 176.575 696.291 175.697 698.59 175.734H698.57ZM698.59 173.664C695.742 173.618 692.991 174.705 690.944 176.686C688.897 178.667 687.721 181.381 687.675 184.229C687.629 187.077 688.716 189.828 690.697 191.875C692.678 193.922 695.392 195.098 698.24 195.144H698.6C701.448 195.19 704.199 194.103 706.246 192.122C708.293 190.141 709.469 187.428 709.515 184.579C709.561 181.731 708.474 178.98 706.493 176.933C704.512 174.887 701.798 173.71 698.95 173.664H698.59Z" fill="white"/>
<path d="M718.12 185.055L711.34 184.835" stroke="black" stroke-width="4.13" stroke-miterlimit="10"/>
<path d="M727.7 642.556L714.14 725.616L699.45 723.416C696.269 722.915 693.413 721.182 691.498 718.593C689.584 716.003 688.766 712.764 689.22 709.576L690.31 700.666L700.31 627.366C716.59 636.906 727.7 642.556 727.7 642.556Z" fill="#3B82F6"/>
<path d="M660.61 749.905L610.11 778.905L585.11 793.295L577.45 797.705C577.465 797.559 577.465 797.411 577.45 797.265L571.45 800.685L563.73 785.855C561.927 782.431 561.544 778.435 562.665 774.731C563.786 771.027 566.321 767.914 569.72 766.065L657.22 718.155L657.3 718.955L660.61 749.905Z" fill="#3B82F6"/>
<path d="M586.76 544.645C586.21 543.905 585.66 543.185 585.1 542.555C581.93 538.745 578.82 536.185 576.72 531.855C575.046 528.33 574.563 524.356 575.344 520.532C576.125 516.708 578.128 513.242 581.05 510.655C582.259 509.613 583.605 508.741 585.05 508.065" stroke="black" stroke-width="4.13" stroke-miterlimit="10"/>
<path d="M693.25 677.876L690.31 700.646L689.18 709.556C688.726 712.744 689.544 715.983 691.458 718.573C693.373 721.163 696.229 722.895 699.41 723.396L714.1 725.596L727.66 642.536C727.66 642.536 716.55 636.886 700.29 627.326C688.66 620.486 674.29 611.636 659.55 601.436" stroke="black" stroke-width="4.13" stroke-miterlimit="10"/>
<path d="M690.75 697.546C690.75 697.546 674.89 688.996 654.75 676.686" stroke="black" stroke-width="4.13" stroke-miterlimit="10"/>
<g opacity="0.68">
<path opacity="0.68" d="M585.099 313.934V550.294C580.719 566.474 578.63 583.294 577.52 600.214V314.534C579.98 317.734 582.509 310.874 585.099 313.934Z" fill="#D7E8F0"/>
<path opacity="0.68" d="M585.1 792.956V806.546C585.095 822.496 578.757 837.791 567.48 849.069C556.203 860.348 540.909 866.688 524.96 866.696H238.66C222.709 866.691 207.413 860.352 196.133 849.073C184.854 837.794 178.515 822.497 178.51 806.546V181.796C178.505 173.893 180.057 166.067 183.077 158.764C186.097 151.461 190.527 144.825 196.113 139.234C201.699 133.644 208.331 129.209 215.632 126.182C222.932 123.156 230.757 121.598 238.66 121.596H276.92C278.676 121.601 280.427 121.775 282.15 122.116C283.302 122.358 284.438 122.672 285.55 123.056C286.04 123.246 286.55 123.436 287.01 123.636C287.79 123.96 288.551 124.327 289.29 124.736C290.179 125.216 291.037 125.75 291.86 126.336C292.41 126.716 292.93 127.106 293.43 127.516C293.93 127.926 294.7 128.626 295.28 129.196L299.28 134.356C299.647 134.971 299.981 135.606 300.28 136.256L301.74 139.946C301.94 140.616 302.13 141.276 302.27 141.946L302.63 144.036C302.68 144.316 302.71 144.616 302.74 144.896C302.75 145.033 302.75 145.17 302.74 145.306C302.8 145.966 302.85 146.606 302.85 147.306V147.576C302.85 147.996 302.85 148.376 302.85 148.766C302.824 148.703 302.787 148.646 302.74 148.596C301.612 146.457 300.162 144.504 298.44 142.806C293.755 138.117 287.399 135.48 280.77 135.476H243.98C236.37 135.48 228.835 136.984 221.806 139.901C214.777 142.819 208.392 147.093 203.015 152.48C197.639 157.866 193.377 164.259 190.473 171.294C187.569 178.328 186.079 185.866 186.09 193.476V794.916C186.09 810.272 192.188 825 203.044 835.861C213.899 846.723 228.624 852.828 243.98 852.836H519.64C534.504 852.833 548.797 847.112 559.557 836.858C570.318 826.603 576.721 812.603 577.44 797.756C577.455 797.61 577.455 797.463 577.44 797.316L585.1 792.956Z" fill="#D7E8F0"/>
<path opacity="0.68" d="M457.8 159.495C457.8 159.875 457.8 160.235 457.8 160.625C457.763 167.231 455.113 173.554 450.428 178.212C445.744 182.87 439.406 185.485 432.8 185.485H330.17C316.34 185.485 305.89 174.185 305.83 160.345C305.83 160.125 305.83 159.935 305.83 159.715C307.895 163.882 311.086 167.388 315.042 169.834C318.997 172.28 323.559 173.569 328.21 173.555H434.73C438.145 173.56 441.528 172.89 444.684 171.584C447.84 170.278 450.707 168.362 453.12 165.945C455.008 164.053 456.587 161.876 457.8 159.495Z" fill="#D7E8F0"/>
</g>
<path d="M610.11 415.994C645.68 408.764 680.21 401.294 698.57 401.544" stroke="black" stroke-width="4.13" stroke-miterlimit="10"/>
<path d="M576.48 622.063C522.56 578.613 473.63 522.883 494.66 474.333C507.31 445.063 544.75 429.113 585.1 420.463" stroke="black" stroke-width="4.13" stroke-miterlimit="10"/>
<path d="M693.66 380.124C694.54 383.294 698.57 401.554 699.56 404.854C703.22 416.764 656.64 448.274 648.75 455.354C634.59 467.984 621.19 482.204 610.11 498.054C602.742 508.396 596.538 519.52 591.61 531.224C589.037 537.435 586.862 543.805 585.1 550.294C580.72 566.474 578.63 583.294 577.52 600.214C576.64 613.034 576.31 625.904 575.95 638.474C575.21 662.594 575.59 686.854 577.17 710.894C577.28 712.414 577.39 713.894 577.52 715.414C578.766 729.691 581.184 743.842 584.75 757.724V757.814" stroke="black" stroke-width="4.13" stroke-miterlimit="10"/>
<path d="M686.77 323.785C688.28 276.955 709.539 251.955 728.469 238.785C732.152 236.261 736.104 234.151 740.25 232.495" stroke="black" stroke-width="4.13" stroke-miterlimit="10"/>
<path d="M792.21 232.186C793.09 232.516 793.94 232.876 794.8 233.236L795.74 233.646C797.816 234.551 799.839 235.573 801.8 236.706C808.567 240.563 814.477 245.759 819.17 251.976C819.351 252.152 819.5 252.359 819.61 252.586C820.43 253.746 821.23 254.926 822.01 256.146C828.93 267.146 835.38 281.996 840.31 299.146C842.852 307.945 844.885 316.883 846.4 325.916" stroke="black" stroke-width="4.13" stroke-miterlimit="10"/>
<path d="M846.4 325.905C851.19 346.285 860.32 390.215 866.4 411.605C868.533 419.015 868.106 426.927 865.19 434.065C863.247 438.749 860.296 442.947 856.547 446.362C852.799 449.778 848.344 452.325 843.5 453.825L825.41 458.205C823.517 458.672 821.846 459.782 820.68 461.345C816.575 466.77 812.022 471.841 807.07 476.505C728.81 550.185 634.64 473.915 657.22 718.175L657.3 718.975C658.213 728.755 659.317 739.065 660.61 749.905L610.11 778.705L585.11 792.955L577.48 797.315L571.48 800.735L563.76 785.905C561.939 782.48 561.543 778.474 562.659 774.759C563.775 771.044 566.313 767.919 569.72 766.065L577.52 761.735L584.75 757.735L585.1 757.545L610.1 743.705L615.42 740.705" stroke="black" stroke-width="4.13" stroke-miterlimit="10"/>
<path d="M610.12 778.706V820.436C610.117 841.365 601.801 861.436 587.001 876.234C572.201 891.033 552.129 899.346 531.2 899.346H232.41C222.047 899.347 211.784 897.307 202.209 893.342C192.634 889.377 183.934 883.565 176.606 876.237C169.277 868.91 163.464 860.21 159.498 850.636C155.531 841.061 153.49 830.799 153.49 820.436V170.186C153.49 159.822 155.531 149.561 159.498 139.986C163.464 130.412 169.277 121.712 176.606 114.385C183.934 107.057 192.634 101.245 202.209 97.2799C211.784 93.3149 222.047 91.2749 232.41 91.2759H567.5" stroke="black" stroke-width="4.13" stroke-miterlimit="10"/>
<path d="M610.11 170.184C610.117 164.769 609.57 159.368 608.48 154.064C608.48 154.064 607.02 145.234 605.62 142.784" stroke="black" stroke-width="4.13" stroke-miterlimit="10"/>
<path d="M610.11 498.027V416.017V330.487" stroke="black" stroke-width="4.13" stroke-miterlimit="10"/>
<path d="M610.11 170.194V216.464V271.414" stroke="black" stroke-width="4.13" stroke-miterlimit="10"/>
<path d="M690.31 296.064V295.994C681.765 292.163 673.708 287.325 666.31 281.584C635.431 257.828 615.18 222.842 609.96 184.234C609.827 183.281 609.707 182.321 609.6 181.354" stroke="black" stroke-width="4.13" stroke-miterlimit="10"/>
<path d="M585.12 527.294V313.854" stroke="black" stroke-width="4.13" stroke-miterlimit="10"/>
<path d="M585.12 253.887V181.807C585.12 168.677 583.97 153.117 576.9 143.207C576.9 143.207 559.75 121.577 542.32 121.577H486.7" stroke="black" stroke-width="4.13" stroke-miterlimit="10"/>
<path d="M509.11 121.577H486.7C479.804 121.577 473.191 124.316 468.315 129.192C463.439 134.068 460.7 140.681 460.7 147.577C460.7 154.472 457.961 161.086 453.085 165.961C448.209 170.837 441.596 173.577 434.7 173.577H328.88C321.984 173.577 315.371 170.837 310.495 165.961C305.619 161.086 302.88 154.472 302.88 147.577C302.88 140.681 300.141 134.068 295.265 129.192C290.389 124.316 283.776 121.577 276.88 121.577H238.66C222.695 121.587 207.387 127.938 196.104 139.233C184.82 150.528 178.485 165.842 178.49 181.807V806.547C178.498 822.501 184.84 837.8 196.123 849.081C207.405 860.362 222.705 866.701 238.66 866.707H524.95C540.905 866.701 556.205 860.362 567.487 849.081C578.77 837.8 585.112 822.501 585.12 806.547V792.967" stroke="black" stroke-width="4.13" stroke-miterlimit="10"/>
<path d="M603.96 94.9869C614.85 99.6469 625.02 115.057 629.96 125.367C639.12 144.497 647.11 159.137 657.96 177.367C667.25 192.997 675.77 209.927 690.38 221.367C698.113 227.509 707.528 231.16 717.38 231.837" stroke="black" stroke-width="4.13" stroke-miterlimit="10"/>
<path d="M308.31 121.594C308.301 143.19 302.442 164.38 291.356 182.914C280.27 201.447 264.37 216.631 245.347 226.853C226.323 237.075 204.886 241.954 183.312 240.969C161.738 239.985 140.834 233.175 122.82 221.264C99.4753 201.618 84.5273 173.788 81.0403 143.476C77.5533 113.164 85.7903 82.667 104.064 58.233C122.338 33.799 149.265 17.2791 179.326 12.0584C209.388 6.83775 240.308 13.3118 265.75 30.1537C279.095 41.3596 289.821 55.354 297.174 71.152C304.527 86.95 308.328 104.168 308.31 121.594Z" fill="#3B82F6"/>
<path d="M295.31 122.067C295.305 141.195 290.118 159.964 280.301 176.381C270.484 192.798 256.402 206.248 239.554 215.303C222.705 224.359 203.717 228.68 184.609 227.809C165.501 226.938 146.985 220.907 131.03 210.357C110.406 192.942 97.213 168.308 94.147 141.489C91.082 114.671 98.376 87.6949 114.539 66.0749C130.701 44.4559 154.511 29.8266 181.101 25.1782C207.69 20.5297 235.051 26.2133 257.59 41.0668C269.413 50.993 278.917 63.3889 285.434 77.3829C291.95 91.3779 295.322 106.63 295.31 122.067Z" fill="#3B82F6"/>
<path d="M423.98 382.167L336.86 395.297C334.747 395.838 332.538 395.889 330.402 395.445C328.266 395.002 326.26 394.077 324.537 392.739C322.813 391.402 321.419 389.688 320.459 387.729C319.499 385.77 319 383.618 319 381.437L328.11 306.577H458.04C459.101 306.577 460.118 306.998 460.868 307.748C461.619 308.498 462.04 309.516 462.04 310.577L449.61 357.477C447.843 363.46 444.552 368.882 440.059 373.21C435.566 377.539 430.025 380.625 423.98 382.167Z" fill="#D7E8F0"/>
<path d="M349.61 440.234C357.811 440.234 364.46 433.585 364.46 425.384C364.46 417.182 357.811 410.534 349.61 410.534C341.409 410.534 334.76 417.182 334.76 425.384C334.76 433.585 341.409 440.234 349.61 440.234Z" fill="#D7E8F0"/>
<path d="M405.99 440.234C414.191 440.234 420.84 433.585 420.84 425.384C420.84 417.182 414.191 410.534 405.99 410.534C397.789 410.534 391.14 417.182 391.14 425.384C391.14 433.585 397.789 440.234 405.99 440.234Z" fill="#D7E8F0"/>
<path d="M339.9 322.263L326.37 320.453L330.17 291.993C330.411 290.222 330.264 288.418 329.74 286.709C329.215 284.999 328.325 283.424 327.131 282.092C325.938 280.761 324.469 279.705 322.826 278.997C321.184 278.289 319.408 277.947 317.62 277.993L305.96 278.293C304.15 278.339 302.396 277.664 301.084 276.417C299.771 275.17 299.007 273.453 298.96 271.643C298.936 270.748 299.089 269.856 299.41 269.02C299.73 268.183 300.213 267.418 300.83 266.768C301.446 266.118 302.185 265.595 303.003 265.231C303.822 264.866 304.704 264.667 305.6 264.643L317.27 264.343C321.343 264.215 325.388 265.054 329.073 266.792C332.759 268.531 335.979 271.119 338.47 274.343C340.628 277.222 342.191 280.501 343.068 283.99C343.946 287.478 344.12 291.107 343.58 294.663L339.9 322.263Z" fill="#D7E8F0"/>
<path d="M488.12 483.737H275.5C263.703 483.737 254.14 493.3 254.14 505.097V560.227C254.14 572.024 263.703 581.587 275.5 581.587H488.12C499.917 581.587 509.48 572.024 509.48 560.227V505.097C509.48 493.3 499.917 483.737 488.12 483.737Z" fill="#D7E8F0"/>
<path d="M174.54 639.695C202.14 631.695 225.82 601.485 192.68 576.485C191.47 575.605 190.34 574.805 189.26 574.165C191.077 572.386 193.307 571.085 195.75 570.378C198.193 569.671 200.773 569.581 203.26 570.115C203.34 570.115 203.45 570.115 203.53 570.175C203.702 570.194 203.871 570.238 204.03 570.305C207.64 571.135 211.67 573.095 216.16 576.485C249.25 601.485 203.49 633.935 174.54 639.695Z" fill="#3B82F6"/>
<path d="M203.31 570.115C200.824 569.58 198.243 569.671 195.8 570.377C193.357 571.084 191.127 572.385 189.31 574.165C172.47 589.305 171.7 639.695 171.7 639.695H167.23C167.23 639.695 156.43 581.035 172.44 571.215H172.5C172.77 571.105 173.91 570.605 175.5 570.055C175.5 570.055 175.58 570.055 175.61 570.055C177.683 569.34 179.824 568.84 182 568.565C189.14 567.923 196.338 568.447 203.31 570.115Z" fill="#D7E8F0"/>
<path d="M308.31 121.597C308.307 148.809 299.019 175.206 281.98 196.423C264.94 217.64 241.171 232.408 214.601 238.285C188.031 244.161 160.251 240.795 135.853 228.743C111.456 216.69 91.9018 196.673 80.4228 172C68.9448 147.327 66.2288 119.476 72.7258 93.0499C79.2228 66.6249 94.5428 43.2077 116.153 26.6697C137.763 10.1318 164.37 1.46332 191.575 2.09742C218.78 2.73142 244.954 12.63 265.77 30.1567C279.097 41.3762 289.81 55.3739 297.159 71.1689C304.507 86.9649 308.313 104.176 308.31 121.597Z" stroke="black" stroke-width="4.13" stroke-miterlimit="10"/>
<path d="M145.54 741.526V793.526H28.5402C27.1658 793.528 25.8049 793.255 24.5372 792.724C23.2696 792.193 22.1206 791.414 21.1577 790.434C20.1947 789.453 19.4371 788.29 18.9293 787.013C18.4215 785.736 18.1736 784.37 18.2002 782.996L18.7802 751.706C18.83 748.998 19.9417 746.417 21.8757 744.521C23.8097 742.624 26.4114 741.563 29.1202 741.566L145.54 741.526Z" fill="#D7E8F0"/>
<path d="M331.15 751.857V783.147C331.15 785.889 330.061 788.519 328.121 790.458C326.182 792.397 323.552 793.487 320.81 793.487H145.54V741.487H320.81C322.17 741.487 323.517 741.755 324.774 742.277C326.03 742.798 327.172 743.563 328.132 744.526C329.093 745.489 329.854 746.633 330.372 747.891C330.889 749.149 331.154 750.496 331.15 751.857Z" fill="#3B82F6"/>
<path d="M163.16 793.487V899.337H51.0497C46.2717 899.326 41.6907 897.429 38.3047 894.058C34.9187 890.687 33.0014 886.115 32.9697 881.337V793.537L163.16 793.487Z" fill="#D7E8F0"/>
<path d="M311.02 793.487V881.287C310.988 886.065 309.071 890.637 305.685 894.008C302.299 897.379 297.718 899.276 292.94 899.287H163.16V793.487H311.02Z" fill="#3B82F6"/>
<path d="M162.19 81.2649C175.48 81.2649 182.68 90.9049 182.68 102.645C182.68 117.595 172.49 125.645 161.53 125.645C149.78 125.645 140.81 117.005 140.81 103.935C140.81 91.6449 148.68 81.2249 162.08 81.2249L162.19 81.2649ZM161.75 91.9049C157.21 91.9049 155.43 96.9949 155.43 103.535C155.43 110.395 157.54 115.055 161.97 115.055C165.97 115.055 168.06 111.175 168.06 103.535C168.06 96.8849 166.4 91.9049 161.86 91.9049H161.75ZM163.08 155.705L204.08 81.4949H214.31L173.43 155.705H163.08ZM216.25 111.175C229.54 111.175 236.74 120.805 236.74 132.555C236.74 147.505 226.55 155.555 215.58 155.555C203.84 155.555 194.87 146.915 194.87 133.735C194.87 121.545 202.73 111.135 216.14 111.135L216.25 111.175ZM215.8 121.815C211.26 121.815 209.49 126.905 209.49 133.445C209.49 140.305 211.6 144.965 216.03 144.965C220.03 144.965 222.12 140.965 222.12 133.325C222.12 126.685 220.46 121.815 215.92 121.815H215.8Z" fill="white"/>
<path d="M160.71 639.146C142.84 639.146 109.71 624.556 127.24 605.016C129.09 602.795 131.391 600.992 133.99 599.726L134.13 599.636H134.19C138.383 597.68 142.87 596.43 147.47 595.936C148.95 595.813 150.44 595.86 151.91 596.076C149.57 595.966 146.84 597.236 143.61 600.326C143.04 600.846 142.43 601.506 141.8 602.196C124.31 621.696 142.65 637.576 160.71 639.146Z" fill="#D7E8F0"/>
<path d="M165.31 638.256L162.53 638.786C162.53 638.786 155.91 607.666 143.61 600.306C146.84 597.216 149.61 595.946 151.91 596.056C151.956 596.067 152.004 596.067 152.05 596.056L153.05 596.196L153.4 596.276C164.87 599.806 165.31 638.256 165.31 638.256Z" fill="#3B82F6"/>
<path d="M163.15 741.514H29.1498C26.4383 741.514 23.8352 742.578 21.9012 744.479C19.9672 746.379 18.857 748.963 18.8098 751.674L18.2498 782.964C18.2245 784.338 18.4733 785.703 18.9817 786.98C19.49 788.256 20.2476 789.418 21.2103 790.399C22.173 791.379 23.3214 792.158 24.5884 792.689C25.8555 793.221 27.2158 793.494 28.5898 793.494H320.8C322.159 793.494 323.504 793.226 324.759 792.706C326.014 792.186 327.155 791.423 328.115 790.462C329.075 789.501 329.837 788.36 330.356 787.104C330.875 785.849 331.141 784.503 331.14 783.144V751.854C331.14 749.112 330.051 746.482 328.111 744.543C326.172 742.604 323.542 741.514 320.8 741.514H127.37" stroke="black" stroke-width="4.13" stroke-miterlimit="10"/>
<path d="M292.94 899.345H51.0397C46.2507 899.329 41.6617 897.419 38.2767 894.031C34.8907 890.644 32.9829 886.054 32.9697 881.265V793.495H310.97V881.265C310.954 886.046 309.051 890.628 305.675 894.014C302.298 897.4 297.722 899.316 292.94 899.345Z" stroke="black" stroke-width="4.13" stroke-miterlimit="10"/>
<path d="M275.98 646.364V666.544C275.98 668.313 275.277 670.009 274.026 671.26C272.776 672.511 271.079 673.214 269.31 673.214H156.21V639.694H269.31C271.079 639.694 272.776 640.397 274.026 641.648C275.277 642.898 275.98 644.595 275.98 646.364Z" fill="#3B82F6"/>
<path d="M156.21 639.694V673.214H80.7596C79.8746 673.213 78.9986 673.036 78.1826 672.693C77.3676 672.351 76.6276 671.849 76.0066 671.219C75.3866 670.588 74.8976 669.84 74.5686 669.019C74.2386 668.197 74.0766 667.319 74.0896 666.434L74.4496 646.224C74.4836 644.478 75.2016 642.816 76.4496 641.595C77.6966 640.374 79.3736 639.691 81.1196 639.694H156.21Z" fill="#D7E8F0"/>
<path d="M263 673.213V729.863C262.989 732.958 261.753 735.922 259.563 738.107C257.372 740.292 254.404 741.521 251.31 741.523H167.59V673.213H263Z" fill="#3B82F6"/>
<path d="M167.59 673.213V741.523H95.3104C92.2204 741.516 89.2594 740.285 87.0744 738.1C84.8894 735.915 83.6584 732.953 83.6504 729.863V673.213H167.59Z" fill="#D7E8F0"/>
<path d="M145.53 741.514V793.494" stroke="black" stroke-width="4.13" stroke-miterlimit="10"/>
<path d="M163.15 793.495V899.345" stroke="black" stroke-width="4.13" stroke-miterlimit="10"/>
<path d="M275.98 646.364V666.544C275.98 668.313 275.277 670.009 274.026 671.26C272.776 672.511 271.079 673.214 269.31 673.214H156.21V639.694H269.31C271.079 639.694 272.776 640.397 274.026 641.648C275.277 642.898 275.98 644.595 275.98 646.364Z" stroke="black" stroke-width="4.13" stroke-miterlimit="10"/>
<path d="M156.21 639.694V673.214H80.7596C79.8746 673.213 78.9986 673.036 78.1826 672.693C77.3676 672.351 76.6276 671.849 76.0066 671.219C75.3866 670.588 74.8976 669.84 74.5686 669.019C74.2386 668.197 74.0766 667.319 74.0896 666.434L74.4496 646.224C74.4836 644.478 75.2016 642.816 76.4496 641.595C77.6966 640.374 79.3736 639.691 81.1196 639.694H156.21Z" stroke="black" stroke-width="4.13" stroke-miterlimit="10"/>
<path d="M263 673.213V729.863C262.989 732.958 261.753 735.922 259.563 738.107C257.372 740.292 254.404 741.521 251.31 741.523H167.59V673.213H263Z" stroke="black" stroke-width="4.13" stroke-miterlimit="10"/>
<path d="M167.59 673.213V741.523H95.3104C92.2204 741.516 89.2594 740.285 87.0744 738.1C84.8894 735.915 83.6584 732.953 83.6504 729.863V673.213H167.59Z" stroke="black" stroke-width="4.13" stroke-miterlimit="10"/>
<path d="M179.37 639.686C207.02 631.686 249.57 601.496 216.49 576.496C212.927 573.602 208.794 571.493 204.36 570.306C204.202 570.236 204.032 570.196 203.86 570.186C201.337 569.594 198.705 569.65 196.21 570.35C193.715 571.049 191.438 572.369 189.59 574.186" stroke="black" stroke-width="4.13" stroke-miterlimit="10"/>
<path d="M189.59 574.164C172.74 589.314 171.98 639.684 171.98 639.684H167.5C167.5 639.684 150.83 549.224 189.59 574.164Z" stroke="black" stroke-width="4.13" stroke-miterlimit="10"/>
<path d="M174.88 639.687H171.98C171.98 639.687 172.74 589.317 189.59 574.167C190.765 574.885 191.903 575.663 193 576.497C226.14 601.497 202.47 631.737 174.88 639.687Z" stroke="black" stroke-width="4.13" stroke-miterlimit="10"/>
<path d="M173.2 570.684C176.129 569.622 179.168 568.891 182.26 568.504C189.658 567.863 197.112 568.468 204.31 570.294" stroke="black" stroke-width="4.13" stroke-miterlimit="10"/>
<path d="M158.31 639.685C140.2 638.125 110.14 624.545 127.61 605.025C129.465 602.795 131.772 600.985 134.38 599.715C134.468 599.653 134.566 599.606 134.67 599.575C136.161 598.902 137.798 598.615 139.429 598.743C141.06 598.871 142.632 599.408 144 600.305" stroke="black" stroke-width="4.13" stroke-miterlimit="10"/>
<path d="M143.95 600.306C156.25 607.646 162.84 638.796 162.84 638.796L165.62 638.246C165.62 638.246 164.95 580.126 143.95 600.306Z" stroke="black" stroke-width="4.13" stroke-miterlimit="10"/>
<path d="M161.04 639.143L162.84 638.793C162.84 638.793 156.25 607.643 143.95 600.303C143.37 600.823 142.76 601.473 142.12 602.163C124.62 621.693 142.97 637.563 161.04 639.143Z" stroke="black" stroke-width="4.13" stroke-miterlimit="10"/>
<path d="M153.7 596.153C151.752 595.849 149.777 595.765 147.81 595.903C143.135 596.405 138.579 597.69 134.33 599.703" stroke="black" stroke-width="4.13" stroke-miterlimit="10"/>
<path d="M746.31 233.067L750.22 240.067C750.22 240.067 744.5 252.787 759.83 254.987C775.16 257.187 795.34 242.117 795.89 232.167C819.44 241.267 831.89 264.167 832.11 288.687C832.51 349.387 754.41 386.187 702.22 380.687C675.99 377.937 651.22 366.367 630.54 350.037C627.78 347.897 625.13 345.647 622.54 343.327C617.299 338.548 612.388 333.419 607.84 327.977C605.487 325.177 603.193 322.313 600.96 319.387" stroke="black" stroke-width="3.77" stroke-miterlimit="10"/>
<path d="M779.78 204.585L794.8 233.235" stroke="black" stroke-width="4.13" stroke-miterlimit="10"/>
<path d="M0 899.335H868.62" stroke="black" stroke-width="4.13" stroke-miterlimit="10"/>
<path d="M599.31 93.2759H599.18C594.34 94.0959 588.52 98.4059 585.5 103.986C582.04 110.296 581.64 117.986 580.9 121.246C580.82 121.616 580.74 121.976 580.7 122.306C580.614 122.584 580.548 122.868 580.5 123.156L580.37 123.646C579.907 125.225 578.871 126.574 577.466 127.428C576.06 128.283 574.386 128.582 572.771 128.267C571.157 127.951 569.718 127.044 568.737 125.723C567.757 124.402 567.305 122.763 567.47 121.126L567.75 118.846C567.84 118.026 567.96 117.256 568.12 116.486C568.444 114.252 568.935 112.046 569.59 109.886C569.678 109.547 569.784 109.213 569.91 108.886C570.031 108.37 570.195 107.865 570.4 107.376C570.496 107.113 570.606 106.856 570.73 106.606" stroke="black" stroke-width="4.13" stroke-miterlimit="10"/>
<path d="M611.59 138.827C608.563 141.727 605.67 143.173 602.91 143.167C601.74 143.168 600.584 142.905 599.53 142.397C598.539 141.952 597.645 141.317 596.9 140.527C594.4 137.957 594.5 133.647 595.69 130.757C596.551 128.881 597.717 127.161 599.14 125.667C599.59 125.157 600.03 124.667 600.42 124.137C601.736 122.638 602.73 120.885 603.34 118.987C603.34 118.877 603.34 118.777 603.39 118.667" stroke="black" stroke-width="4.13" stroke-miterlimit="10"/>
<path d="M587.85 90.4749C589.72 90.8249 591.52 91.2549 593.36 91.6749C595.2 92.0949 597.24 92.6749 599.16 93.2749C603.559 94.5759 607.679 96.6809 611.31 99.4849C621.17 106.775 623.24 119.205 616.13 128.375" stroke="black" stroke-width="4.13" stroke-miterlimit="10"/>
<path d="M580.9 121.243C580.9 121.333 580.9 121.413 580.85 121.523C580.825 121.859 580.778 122.193 580.71 122.523L580.49 124.803C580.36 126.035 580.579 127.279 581.123 128.392C581.668 129.504 582.514 130.441 583.567 131.095C584.619 131.748 585.834 132.092 587.073 132.086C588.312 132.081 589.524 131.726 590.57 131.063C591.323 130.597 591.972 129.979 592.474 129.249C592.977 128.52 593.323 127.694 593.49 126.823C593.68 125.973 593.84 125.053 594.06 124.183C594.86 120.803 595.16 117.783 597.68 115.183C598.389 114.448 599.235 113.857 600.17 113.443C600.405 113.343 600.65 113.265 600.9 113.213" stroke="black" stroke-width="4.13" stroke-miterlimit="10"/>
<path d="M554.17 115.267V115.007C554.598 110.682 555.74 106.458 557.55 102.507C558.67 100.037 560.172 97.7589 562 95.7569C564.865 92.5259 568.744 90.3669 573 89.6369C574.23 89.4569 575.44 89.3369 576.68 89.2769C580.418 89.2239 584.149 89.6269 587.79 90.4769C584.79 90.7069 579.65 93.9169 575.94 97.9569C574.455 99.4879 573.214 101.238 572.26 103.147C571.79 104.147 571.26 105.247 570.89 106.307C570.51 107.167 570.18 108.037 569.89 108.887C569.02 111.347 568.27 113.777 567.7 116.017C567.44 117.017 567.2 118.017 567.01 118.917C566.7 120.584 565.788 122.078 564.447 123.116C563.107 124.155 561.431 124.664 559.74 124.547C558.019 124.346 556.446 123.474 555.364 122.12C554.282 120.766 553.777 119.04 553.96 117.317L554.16 115.267" stroke="black" stroke-width="4.13" stroke-miterlimit="10"/>
<path d="M546.31 290.374C544.61 286.964 543.51 283.224 545.15 279.964C548.86 272.564 560.79 276.484 567.77 271.964C573.77 268.114 573.16 263.544 576.44 257.844C580.27 251.174 587.17 253.844 592.44 257.164C599.17 261.374 613.87 276.164 637.44 290.734C644.772 295.292 651.788 300.34 658.44 305.844C676.97 321.114 723.13 347.574 763.26 276.394" stroke="black" stroke-width="3.84" stroke-miterlimit="10"/>
<path d="M601.93 320.573C598.64 317.223 595.06 313.683 590.44 312.843C585.51 311.933 580.59 314.263 575.6 314.503C563.31 315.063 554.19 303.613 547.86 293.063C547.34 292.213 546.86 291.303 546.35 290.393" stroke="black" stroke-width="3.84" stroke-miterlimit="10"/>
<path d="M572.61 304.245C572.61 304.245 560.86 310.555 555.86 304.065" stroke="black" stroke-width="3.84" stroke-miterlimit="10"/>
<path d="M548.89 294.835C548.89 294.835 558.44 301.335 565.14 295.915" stroke="black" stroke-width="3.84" stroke-miterlimit="10"/>
<path d="M544.46 286.245C544.46 286.245 552.77 291.335 556.34 287.685" stroke="black" stroke-width="3.84" stroke-miterlimit="10"/>
<path d="M411.925 550.218V521.551H419.777V547.905L416.239 543.979H430V550.218H411.925Z" fill="white"/>
<path d="M390.439 550.218V521.551H398.291V547.905L394.754 543.979H408.514V550.218H390.439Z" fill="white"/>
<path d="M361.786 550.218L368.452 521.551H380.911L387.538 550.218H379.511L374.672 526.235H374.711L369.813 550.218H361.786ZM367.617 544.193V538.304H381.766V544.193H367.617Z" fill="white"/>
<path d="M360.83 539.392C360.83 540.701 360.577 542.023 360.072 543.357C359.579 544.679 358.821 545.897 357.798 547.011C356.787 548.125 355.498 549.026 353.93 549.713C352.375 550.386 350.529 550.723 348.391 550.723C345.579 550.723 343.169 550.095 341.161 548.838C339.166 547.568 337.637 545.819 336.574 543.591C335.525 541.362 335 538.79 335 535.875C335 532.959 335.525 530.394 336.574 528.178C337.637 525.95 339.166 524.207 341.161 522.95C343.169 521.693 345.579 521.065 348.391 521.065C350.723 521.065 352.712 521.46 354.358 522.25C356.016 523.041 357.344 524.077 358.342 525.36C359.353 526.643 360.052 528.016 360.441 529.48C360.7 530.478 360.83 531.443 360.83 532.376H352.958C352.958 531.962 352.932 531.599 352.881 531.288C352.764 530.446 352.511 529.714 352.123 529.092C351.734 528.47 351.222 527.99 350.587 527.653C349.965 527.304 349.233 527.129 348.391 527.129C347.38 527.129 346.467 527.427 345.651 528.023C344.834 528.619 344.18 529.558 343.688 530.841C343.208 532.124 342.969 533.802 342.969 535.875C342.969 537.935 343.208 539.613 343.688 540.908C344.18 542.204 344.834 543.156 345.651 543.765C346.467 544.374 347.38 544.679 348.391 544.679C349.117 544.679 349.758 544.549 350.315 544.29C350.885 544.018 351.365 543.642 351.753 543.163C352.142 542.684 352.44 542.126 352.647 541.492C352.855 540.844 352.958 540.144 352.958 539.392H360.83Z" fill="white"/>
</svg>
