<svg width="900" height="788" viewBox="0 0 900 788" fill="none" xmlns="http://www.w3.org/2000/svg">
<path d="M180 245.734C180 245.734 126.17 86.4543 313.93 105.894C501.69 125.334 411.98 54.8343 482.93 11.0843C553.88 -32.6657 762.93 103.444 675.47 234.724C588.01 366.004 815.24 245.914 862.64 443.334C891.89 565.164 819.32 654.834 759.45 705.664" stroke="#CCDDE2" stroke-width="5.47" stroke-miterlimit="10"/>
<path d="M777.76 553.457C763.65 471.747 713.69 398.627 632.52 372.457C611.756 365.8 590.523 360.702 569 357.207V357.317C567.878 364.1 565.22 370.538 561.23 376.137C552.77 387.727 541.11 397.247 527.61 402.207C513.83 407.307 496.76 407.967 483.97 399.947C476.27 395.127 468.8 386.637 467.45 377.477C465.91 367.157 471.17 357.387 478.57 350.567C415.85 351.077 356.85 361.397 309.57 373.147C311.209 380.008 313.478 386.703 316.35 393.147C320.369 402.13 326.048 410.273 333.09 417.147C341.873 408.446 349.563 398.708 355.99 388.147C362.138 390.159 367.56 393.935 371.58 399.004C375.599 404.073 378.041 410.211 378.6 416.657V416.987C381.08 440.397 358.54 457.987 339.6 468.807C317.72 481.387 293.33 490.807 269.37 498.637C259.49 501.877 246.65 504.637 236.22 501.257C235.097 500.899 234.001 500.461 232.94 499.947C222.54 494.847 215.58 484.157 210.15 474.387C194.68 446.637 184.62 416.387 177.8 385.337C130.47 391.387 125.05 359.337 122.24 351.477L81.7502 464.667C79.6262 472.803 79.3972 481.318 81.0782 489.557C82.7602 497.796 86.3092 505.54 91.4522 512.193C96.5942 518.846 103.194 524.231 110.743 527.935C118.293 531.639 126.591 533.562 135 533.557H302.62L378.76 728.857L400.34 784.287H523.6C513.6 784.287 508.13 781.847 504.16 777.867C500.06 773.765 497.752 768.206 497.74 762.407C497.74 750.407 507.59 740.567 523.6 740.567H524.73C523.52 740.567 522.36 740.457 521.15 740.347C521.9 740.266 522.644 740.142 523.38 739.977C522.587 739.958 521.796 739.898 521.01 739.797C528.231 738.944 534.923 735.581 539.915 730.294C544.907 725.008 547.882 718.135 548.32 710.877C548.34 710.5 548.34 710.123 548.32 709.747V709.167C548.148 701.726 545.303 694.595 540.308 689.078C535.312 683.56 528.497 680.025 521.11 679.117C521.95 679.047 522.75 678.977 523.56 678.977C522.83 678.797 522.02 678.687 521.26 678.577C522.46 678.467 523.67 678.387 524.83 678.387L615.01 678.867L631.6 678.937H651.29C652.2 678.937 653.12 678.937 653.99 679.047L683.24 679.197L702.78 679.307C710.947 679.375 718.753 682.675 724.493 688.485C730.233 694.294 733.439 702.14 733.41 710.307C733.4 714.925 732.329 719.478 730.28 723.617C738.664 722.544 746.438 718.667 752.34 712.617C766.41 698.247 772.47 676.737 776.66 657.617C784.07 623.557 783.63 587.667 777.76 553.457ZM549.92 555.757C532.93 581.907 504 579.557 504 579.557C504 579.557 501.6 581.897 496 571.937C490.4 561.977 474.45 555.167 474.45 555.167C473.18 565.167 470.55 580.367 444.45 560.667C418.35 540.967 426.22 512.247 428.45 497.077C430.68 481.907 439.57 476.877 439.57 476.877L450.07 471.337C450.07 471.337 419.7 463.527 418.24 463.237C416.78 462.947 389.73 440.297 417.18 434.317C444.63 428.337 487.42 452.117 495.69 456.817C503.96 461.517 552.29 502.397 552.29 502.397C552.29 502.397 567 529.647 549.92 555.757Z" fill="#353642"/>
<path d="M177.76 385.355C177.76 385.355 200.65 382.575 209.22 366.235L201.75 408.145C201.75 408.145 292.81 377.145 309.51 373.145C309.51 373.145 314.89 407.835 336.31 417.145L358.41 389.045C358.41 389.045 386.12 396.045 378.54 433.805C370.96 471.565 266.12 503.125 248.34 502.395C230.56 501.665 211.42 490.725 191.82 431.935L177.76 385.355Z" fill="#353642"/>
<path d="M215.05 291.996C220.85 301.436 226.68 310.856 232.7 320.156C236.41 325.886 243.17 334.056 235.98 340.046C233.64 341.84 230.814 342.886 227.87 343.046C223.25 343.456 218.4 342.346 215.59 338.376L201.59 315.176C198.8 310.549 194.369 307.143 189.181 305.634C183.992 304.126 178.426 304.627 173.59 307.036" stroke="black" stroke-width="5.47" stroke-miterlimit="10"/>
<path d="M268 322.553C271.66 331.253 269.18 336.863 264.9 339.683C257.9 344.273 248.53 342.073 243.57 335.373L215.1 292.043" stroke="black" stroke-width="5.47" stroke-miterlimit="10"/>
<path d="M239.15 279.396C249.51 291.996 262.58 315.396 269.81 325.166C277.04 334.936 288.22 329.046 288.22 329.046C297.3 324.156 295.76 316.046 291.79 306.196C282.01 282.016 268.05 265.936 252.48 255.396C204.23 222.756 154.73 246.836 140 303.176L81.7502 464.666C79.6262 472.803 79.3972 481.318 81.0782 489.557C82.7602 497.796 86.3092 505.54 91.4522 512.193C96.5942 518.846 103.194 524.231 110.743 527.935C118.293 531.638 126.591 533.561 135 533.556H302.62L400.37 784.296" stroke="black" stroke-width="5.47" stroke-miterlimit="10"/>
<path d="M299 295.105C311 290.945 310.45 271.805 293.42 265.345C274.61 258.205 241.21 248.105 232.82 245.585C232.768 245.545 232.705 245.521 232.64 245.515C232.05 245.335 231.64 245.185 231.32 245.115L230.85 244.965" stroke="black" stroke-width="5.47" stroke-miterlimit="10"/>
<path d="M476.3 486.474C465.8 473.854 437.06 466.704 418.3 463.244C415.147 462.652 412.272 461.051 410.107 458.683C407.943 456.315 406.607 453.308 406.3 450.114C406.082 447.96 406.331 445.784 407.03 443.734C408.148 440.587 410.291 437.907 413.114 436.123C415.937 434.339 419.278 433.554 422.6 433.894C454.6 437.134 487.6 447.204 512.01 468.894C512.01 468.894 630.34 559.194 644.47 567.984C650.3 571.524 655.74 567.344 651.79 561.784L650.55 559.664C643.595 547.728 635.363 536.583 626 526.424" stroke="black" stroke-width="5.47" stroke-miterlimit="10"/>
<path d="M478.49 350.555C329.67 351.795 201.75 408.135 201.75 408.135L214.52 336.555" stroke="black" stroke-width="5.47" stroke-miterlimit="10"/>
<path d="M709.63 740.124C709.63 740.124 693.42 736.454 689.11 749.434C684.8 762.414 680.3 783.064 711.29 784.284C742.28 785.504 724.08 779.414 722.29 769.384C720.5 759.354 709.63 740.124 709.63 740.124Z" fill="#353642"/>
<path d="M462 502.946C462 502.946 444.51 489.686 428.76 503.126C428.097 503.71 427.518 504.383 427.04 505.126" stroke="black" stroke-width="5.47" stroke-miterlimit="10"/>
<g opacity="0.77">
<path opacity="0.77" d="M243.51 335.326C248.51 342.036 257.87 344.226 264.84 339.626C269.07 336.826 271.55 331.246 267.98 322.626C268.63 323.576 269.22 324.416 269.8 325.186C277.02 334.996 288.21 329.086 288.21 329.086C297.29 324.196 295.76 316.086 291.79 306.226C287.905 296.46 282.808 287.221 276.62 278.726C280.67 274.936 285.48 271.106 290.55 272.786C296.02 274.606 297.55 281.466 298.17 287.186C298.46 289.846 298.75 292.476 299.04 295.136L303.42 334.296C304.88 347.296 306.34 360.486 309.51 373.176C311.149 380.037 313.418 386.732 316.29 393.176C320.309 402.159 325.988 410.302 333.03 417.176C341.813 408.475 349.503 398.737 355.93 388.176C362.078 390.188 367.5 393.964 371.52 399.033C375.539 404.102 377.981 410.24 378.54 416.686V417.016C381.02 440.426 358.48 458.016 339.54 468.836C317.66 481.416 293.27 490.836 269.31 498.666C259.43 501.906 246.59 504.666 236.16 501.286C235.037 500.928 233.941 500.49 232.88 499.976C222.48 494.876 215.52 484.186 210.09 474.416C184.09 427.666 173.29 373.986 167.6 320.826C178.98 319.256 190.32 317.506 201.52 315.096C201.52 315.096 201.52 315.176 201.59 315.206L214.5 336.616L215.56 338.396C218.36 342.396 223.21 343.466 227.84 343.066C230.784 342.92 233.612 341.873 235.94 340.066C243.12 334.066 236.38 325.926 232.66 320.196" fill="white"/>
<path opacity="0.77" d="M243.51 335.326C248.51 342.036 257.87 344.226 264.84 339.626C269.07 336.826 271.55 331.246 267.98 322.626C268.63 323.576 269.22 324.416 269.8 325.186C277.02 334.996 288.21 329.086 288.21 329.086C297.29 324.196 295.76 316.086 291.79 306.226C287.905 296.46 282.808 287.221 276.62 278.726C280.67 274.936 285.48 271.106 290.55 272.786C296.02 274.606 297.55 281.466 298.17 287.186C298.46 289.846 298.75 292.476 299.04 295.136L303.42 334.296C304.88 347.296 306.34 360.486 309.51 373.176C311.149 380.037 313.418 386.732 316.29 393.176C320.309 402.159 325.988 410.302 333.03 417.176C341.813 408.475 349.503 398.737 355.93 388.176C362.078 390.188 367.5 393.964 371.52 399.033C375.539 404.102 377.981 410.24 378.54 416.686V417.016C381.02 440.426 358.48 458.016 339.54 468.836C317.66 481.416 293.27 490.836 269.31 498.666C259.43 501.906 246.59 504.666 236.16 501.286C235.037 500.928 233.941 500.49 232.88 499.976C222.48 494.876 215.52 484.186 210.09 474.416C184.09 427.666 173.29 373.986 167.6 320.826C178.98 319.256 190.32 317.506 201.52 315.096C201.52 315.096 201.52 315.176 201.59 315.206L214.5 336.616L215.56 338.396C218.36 342.396 223.21 343.466 227.84 343.066C230.784 342.92 233.612 341.873 235.94 340.066C243.12 334.066 236.38 325.926 232.66 320.196" fill="#3FBDF1"/>
<path opacity="0.77" d="M246.58 338.496C251.01 344.496 258.58 343.736 264.84 339.626C268.62 337.126 271.72 337.856 268.53 330.146C269.12 330.986 269.2 328.146 269.72 328.776C276.17 337.536 269.8 325.156 269.8 325.156C278.8 336.526 298.39 325.816 294.8 317.026C291 307.556 287 293.556 281.93 286.556C285.93 282.776 285.16 283.336 290.25 286.346C291.617 287.224 292.762 288.409 293.593 289.806C294.425 291.203 294.92 292.774 295.04 294.396C295.45 298.206 295.86 301.856 296.27 305.576L300.17 340.576C301.48 352.206 302.78 363.956 305.61 375.276C307.073 381.397 309.102 387.369 311.67 393.116C315.25 401.026 326.75 414.196 333.03 420.226C340.84 412.476 350.2 398.226 355.93 388.756C366.93 392.136 366.45 402.656 367.23 414.146V414.446C369.45 435.336 349.33 451.026 332.47 460.696C312.93 471.926 291.16 480.326 269.77 487.326C260.95 490.226 249.49 492.726 240.18 489.666C239.176 489.349 238.196 488.957 237.25 488.496C227.97 483.936 221.75 474.406 216.9 465.676C195.67 427.546 185.82 384.256 180.4 340.856C180.002 337.608 180.881 334.334 182.851 331.722C184.821 329.11 187.728 327.365 190.96 326.856C197.05 325.856 203.12 324.856 209.15 323.516L209.32 323.596L220.84 342.706C223.35 346.256 223.76 343.476 227.89 343.116C230.5 342.886 235.56 342.376 237.58 340.686C243.99 335.346 240.37 333.136 237.05 328.026" fill="#3FBDF1"/>
</g>
<path d="M459.89 522.247C459.89 522.247 426.68 511.327 426.18 529.687" stroke="black" stroke-width="5.47" stroke-miterlimit="10"/>
<path opacity="0.54" d="M162.62 709.273L97.4898 542.413C96.6828 539.184 96.6228 535.814 97.3128 532.558C98.0038 529.303 99.4278 526.247 101.476 523.624C103.525 521.001 106.144 518.879 109.136 517.42C112.127 515.961 115.412 515.203 118.74 515.203H377.44C383.249 515.202 388.889 517.157 393.452 520.753C398.014 524.348 401.233 529.375 402.59 535.023L473.89 701.843C474.661 705.061 474.692 708.412 473.982 711.644C473.271 714.876 471.838 717.905 469.789 720.503C467.74 723.102 465.129 725.202 462.152 726.647C459.175 728.091 455.909 728.842 452.6 728.843H187.71C181.944 728.847 176.343 726.922 171.797 723.376C167.251 719.83 164.021 714.866 162.62 709.273Z" fill="white"/>
<path d="M470.7 550.393C470.7 550.393 476.09 555.333 474.04 562.393C472.52 567.623 467.32 570.923 462.17 569.133C445.77 563.463 431 553.833 427.4 537.463C425.699 529.175 425.331 520.668 426.31 512.263C427.1 504.473 428.25 496.063 430.87 488.653C434.87 477.273 447.12 469.343 459.01 474.823" stroke="black" stroke-width="5.47" stroke-miterlimit="10"/>
<path d="M162.62 709.273L97.4898 542.413C96.6828 539.184 96.6228 535.814 97.3128 532.558C98.0038 529.303 99.4278 526.247 101.476 523.624C103.525 521.001 106.144 518.879 109.136 517.42C112.127 515.961 115.412 515.203 118.74 515.203H377.44C383.249 515.202 388.889 517.157 393.452 520.753C398.014 524.348 401.233 529.375 402.59 535.023L473.89 701.843C474.661 705.061 474.692 708.412 473.982 711.644C473.271 714.876 471.838 717.905 469.789 720.503C467.74 723.102 465.129 725.202 462.152 726.647C459.175 728.091 455.909 728.842 452.6 728.843H187.71C181.944 728.847 176.343 726.922 171.797 723.376C167.251 719.83 164.021 714.866 162.62 709.273Z" fill="#3FBDF1"/>
<path d="M162.62 709.273L97.4898 542.413C96.6828 539.184 96.6228 535.814 97.3128 532.558C98.0038 529.303 99.4278 526.247 101.476 523.624C103.525 521.001 106.144 518.879 109.136 517.42C112.127 515.961 115.412 515.203 118.74 515.203H377.44C383.249 515.202 388.889 517.157 393.452 520.753C398.014 524.348 401.233 529.375 402.59 535.023L473.89 701.843C474.661 705.061 474.692 708.412 473.982 711.644C473.271 714.876 471.838 717.905 469.789 720.503C467.74 723.102 465.129 725.202 462.152 726.647C459.175 728.091 455.909 728.842 452.6 728.843H187.71C181.944 728.847 176.343 726.922 171.797 723.376C167.251 719.83 164.021 714.866 162.62 709.273Z" stroke="black" stroke-width="5.47" stroke-linecap="square" stroke-linejoin="round"/>
<path d="M172.15 702.553L112.06 548.553C111.317 545.574 111.263 542.465 111.901 539.462C112.539 536.459 113.853 533.64 115.744 531.221C117.634 528.802 120.051 526.845 122.81 525.499C125.57 524.153 128.6 523.453 131.67 523.453H370.33C375.688 523.451 380.891 525.254 385.1 528.57C389.309 531.886 392.279 536.523 393.53 541.733L459.32 695.643C460.03 698.613 460.058 701.705 459.402 704.687C458.746 707.669 457.422 710.463 455.531 712.86C453.641 715.257 451.231 717.195 448.484 718.527C445.737 719.86 442.723 720.553 439.67 720.553H195.29C189.979 720.558 184.819 718.789 180.628 715.529C176.436 712.268 173.453 707.702 172.15 702.553Z" fill="#3FBDF1"/>
<path d="M682.92 678.395L728.68 784.285" stroke="black" stroke-width="5.47" stroke-miterlimit="10"/>
<path d="M900 784.285H0" stroke="black" stroke-width="5.47" stroke-miterlimit="10"/>
<path d="M474.37 306.364C466.95 313.694 455.87 313.684 449.56 306.904" stroke="black" stroke-width="5.47" stroke-miterlimit="10"/>
<path d="M276.62 278.694C280.67 274.904 285.48 271.074 290.55 272.754C296.02 274.574 297.55 281.434 298.17 287.154C299.923 302.874 301.673 318.578 303.42 334.265C305.64 354.265 307.98 374.744 316.29 393.124C320.309 402.107 325.988 410.25 333.03 417.124" stroke="black" stroke-width="5.47" stroke-miterlimit="10"/>
<path d="M378.54 417.004V416.674C377.981 410.229 375.539 404.09 371.52 399.021C367.5 393.953 362.078 390.177 355.93 388.164C349.503 398.725 341.813 408.464 333.03 417.164C310.003 440.061 280.422 455.225 248.39 460.554C249.93 466.684 253.1 472.264 255.29 478.164C257.48 484.064 258.57 490.894 255.91 496.584C252.55 503.844 242.91 502.894 236.21 501.284C236.14 501.284 236.1 501.284 236.03 501.284" stroke="black" stroke-width="5.47" stroke-miterlimit="10"/>
<path d="M201.54 315.086C190.34 317.496 179 319.246 167.62 320.816C173.31 373.976 184.07 427.656 210.11 474.406C215.54 484.176 222.5 494.866 232.9 499.966C233.961 500.481 235.057 500.919 236.18 501.276C246.61 504.706 259.45 501.896 269.33 498.656C293.33 490.816 317.68 481.406 339.56 468.826C358.45 457.996 380.99 440.416 378.56 417.006C378.325 414.428 377.798 411.885 376.99 409.426" stroke="black" stroke-width="5.47" stroke-miterlimit="10"/>
<path d="M388.82 209.043C390.498 216.041 394.329 222.335 399.774 227.039C405.219 231.744 412.003 234.62 419.17 235.263C419.765 232.377 421.056 229.678 422.93 227.404C430.93 217.974 434.34 235.664 459.93 222.964C495.39 205.324 508.85 215.444 508.85 215.444C510.03 216.324 509.85 224.443 510.05 225.923C511.05 234.353 511.95 242.743 512.94 251.163C513.54 256.303 514.13 261.404 514.69 266.504C515.173 265.636 515.707 264.797 516.29 263.993C519.52 252.563 525.29 239.064 537.73 244.874C540.249 246.102 542.442 247.907 544.13 250.143C552.38 260.983 546.13 271.453 537.5 279.203C535.337 281.608 532.919 283.77 530.29 285.654C531.71 288.594 537.51 300.264 537.51 300.304C538.11 301.484 558.38 278.543 559.89 276.043C562.146 269.919 563.356 263.459 563.47 256.934C563.8 230.104 552.88 198.873 531.15 183.483C525.76 179.673 527.48 176.003 527.15 170.823C527.127 170.543 527.02 170.277 526.842 170.059C526.665 169.841 526.425 169.682 526.156 169.603C525.886 169.524 525.599 169.529 525.332 169.616C525.065 169.704 524.831 169.87 524.66 170.094C517.85 177.934 500.99 177.154 500.99 177.154C442.47 162.494 422.8 188.514 410.99 193.154C406.171 194.979 400.867 195.067 395.99 193.404C395.703 195.018 394.98 196.523 393.9 197.757C392.819 198.991 391.423 199.906 389.86 200.404L390.16 203.113C390.415 205.186 389.941 207.282 388.82 209.043Z" fill="#3FBDF1"/>
<path d="M419.21 235.307C412.043 234.663 405.259 231.787 399.814 227.083C394.369 222.379 390.537 216.084 388.86 209.087C388.203 206.403 387.788 203.665 387.62 200.907L388.08 200.857C388.709 200.81 389.328 200.675 389.92 200.457C391.483 199.959 392.879 199.044 393.96 197.81C395.04 196.577 395.763 195.071 396.05 193.457C396.233 192.562 396.27 191.643 396.16 190.737L394.66 177.497C394.66 177.497 405.24 185.367 416.98 180.767C428.72 176.167 448.43 150.147 506.98 164.767C506.98 164.767 520.2 165.547 526.98 157.707C527.151 157.483 527.385 157.317 527.652 157.23C527.919 157.142 528.206 157.138 528.476 157.217C528.745 157.296 528.985 157.455 529.162 157.672C529.34 157.89 529.447 158.157 529.47 158.437C529.82 163.627 531.74 167.297 537.14 171.097C558.87 186.497 569.79 217.717 569.45 244.547C569.35 255.677 565.65 266.667 559.94 276.097C558.43 278.597 538.16 301.537 537.56 300.357C537.56 300.357 531.76 288.647 530.34 285.707L530 285.057L530.65 284.627C533.064 282.988 535.369 281.194 537.55 279.257C546.17 271.507 552.43 261.037 544.18 250.197C542.491 247.961 540.299 246.155 537.78 244.927C525.3 239.117 519.57 252.617 516.34 264.047C515.713 266.231 515.327 268.478 515.19 270.747C515.04 269.347 514.89 267.997 514.74 266.597C514.18 261.497 513.59 256.397 512.99 251.257C511.99 242.837 511.05 234.447 510.1 226.017C509.95 224.577 510.1 216.417 508.9 215.537C508.9 215.537 495.43 205.417 459.98 223.057C434.39 235.757 430.98 218.057 422.98 227.497C421.106 229.772 419.815 232.47 419.22 235.357C419.037 236.284 418.92 237.223 418.87 238.167C418.851 238.289 418.851 238.414 418.87 238.537C418.75 240.607 418.71 242.667 418.66 244.687C418.47 264.177 420.61 284.537 428.26 302.637C437.56 324.577 462.17 346.217 487.76 335.987C495.76 332.777 502.93 327.607 509.49 322.117" stroke="white" stroke-width="5.47" stroke-miterlimit="10"/>
<path d="M436.722 282.841C439.267 281.989 440.495 278.802 439.465 275.723C438.435 272.643 435.536 270.837 432.99 271.689C430.445 272.54 429.217 275.727 430.247 278.807C431.278 281.887 434.177 283.693 436.722 282.841Z" fill="black"/>
<path d="M474.798 281.622C477.343 280.771 478.571 277.584 477.541 274.504C476.51 271.424 473.612 269.618 471.066 270.47C468.521 271.322 467.293 274.509 468.323 277.588C469.353 280.668 472.252 282.474 474.798 281.622Z" fill="black"/>
<path d="M460.24 288.217C460.24 288.217 447.57 295.407 446.8 287.947C446.56 285.647 443.46 263.117 443.46 263.117C443.46 263.117 433.22 252.267 417.53 260.287" stroke="black" stroke-width="5.47" stroke-miterlimit="10"/>
<path d="M457.39 256.804C457.39 256.804 477.85 246.584 491.39 261.314" stroke="black" stroke-width="5.47" stroke-miterlimit="10"/>
<path d="M476.15 338.496L478.5 350.556C471.09 357.386 465.85 367.176 467.38 377.486C468.74 386.626 476.22 395.136 483.89 399.926C496.71 407.926 513.76 407.296 527.56 402.206C541.05 397.206 552.72 387.716 561.18 376.136C565.164 370.538 567.818 364.105 568.94 357.326V357.206" stroke="black" stroke-width="5.47" stroke-miterlimit="10"/>
<path d="M478.5 350.555L483.08 372.335" stroke="black" stroke-width="5.47" stroke-miterlimit="10"/>
<path d="M543.27 295.106L550.19 341.056C550.872 345.554 553.146 349.658 556.598 352.621C560.05 355.585 564.45 357.212 569 357.206C590.537 360.696 611.782 365.79 632.56 372.446C713.73 398.626 763.69 471.746 777.8 553.446C783.67 587.656 784.11 623.536 776.74 657.556C772.55 676.706 766.49 698.216 752.42 712.556C734.15 731.256 706.11 723.556 684.52 715.106C617.49 689.036 561.74 642.656 513.6 589.556C487.86 561.156 454.6 538.396 454.6 538.396" stroke="black" stroke-width="5.47" stroke-miterlimit="10"/>
<path d="M194.3 668.087C186.78 668.017 180.23 661.947 178.54 653.497C175.2 636.877 174.32 611.177 198.69 605.567C229.14 598.567 252.56 631.727 264.04 652.687C267.9 659.687 263.53 668.687 256.34 668.687L194.3 668.087Z" fill="#D7E8F0"/>
<path d="M204.353 591.455C210.817 587.153 210.917 575.939 204.574 566.408C198.232 556.876 187.85 552.636 181.385 556.938C174.92 561.24 174.821 572.454 181.163 581.985C187.506 591.517 197.888 595.757 204.353 591.455Z" fill="#D7E8F0"/>
<path d="M704.77 740.673C704.3 740.743 703.77 740.813 703.31 740.923H703.13L632 740.553L525.27 740.003C524.86 740.003 524.46 740.003 524.06 740.003C523.267 739.984 522.476 739.924 521.69 739.823C528.921 738.983 535.624 735.619 540.62 730.324C545.615 725.029 548.583 718.141 549 710.873C549.02 710.497 549.02 710.12 549 709.743V709.163C548.971 702.052 546.493 695.168 541.983 689.669C537.474 684.171 531.208 680.393 524.24 678.973C523.51 678.793 522.71 678.683 521.94 678.573C523.15 678.463 524.35 678.383 525.52 678.383L615.69 678.863L632.29 678.933L654.68 679.043C662.346 679.743 669.476 683.277 674.675 688.955C679.873 694.632 682.767 702.045 682.79 709.743C682.791 711.196 682.681 712.647 682.46 714.083C681.394 721.412 677.733 728.115 672.143 732.972C666.553 737.83 659.406 740.52 652 740.553H706.18C703.06 740.553 703.93 740.553 704.77 740.673Z" fill="white"/>
<path d="M560.49 777.867C562.522 779.91 564.939 781.53 567.601 782.632C570.264 783.734 573.119 784.296 576 784.287H523.62C513.62 784.287 508.16 781.847 504.18 777.867C500.09 773.759 497.787 768.203 497.77 762.407C497.77 750.407 507.61 740.567 523.62 740.567H576C571.676 740.56 567.447 741.837 563.849 744.237C560.251 746.636 557.446 750.049 555.791 754.044C554.135 758.039 553.702 762.436 554.548 766.677C555.393 770.918 557.479 774.812 560.54 777.867H560.49Z" fill="#D7E8F0"/>
<path d="M733.48 710.293C733.467 714.912 732.392 719.466 730.34 723.603C728.874 726.731 726.863 729.572 724.4 731.993C720.339 736.017 715.239 738.832 709.67 740.123C707.374 740.653 705.026 740.922 702.67 740.923C703.15 740.813 703.67 740.743 704.13 740.673C703.29 740.593 702.42 740.563 705.55 740.563H651.36C658.771 740.535 665.925 737.845 671.519 732.985C677.113 728.125 680.776 721.417 681.84 714.083C682.061 712.647 682.171 711.196 682.17 709.743C682.147 702.044 679.252 694.63 674.051 688.952C668.85 683.274 661.718 679.741 654.05 679.043L683.3 679.193L702.84 679.303C711.006 679.372 718.812 682.67 724.553 688.477C730.295 694.284 733.504 702.127 733.48 710.293Z" fill="#3FBDF1"/>
<path d="M733.48 710.285C733.419 718.456 730.123 726.269 724.312 732.014C718.502 737.759 710.651 740.967 702.48 740.935L524.56 740.015C523.37 740.015 522.18 739.925 520.98 739.805C528.48 738.955 535.407 735.384 540.45 729.767C545.492 724.151 548.299 716.88 548.339 709.332C548.378 701.785 545.647 694.485 540.664 688.816C535.68 683.147 528.791 679.503 521.3 678.575C522.489 678.45 523.684 678.39 524.88 678.395L702.8 679.315C710.97 679.371 718.785 682.661 724.535 688.465C730.285 694.269 733.501 702.115 733.48 710.285Z" stroke="black" stroke-width="5.47" stroke-linecap="square" stroke-linejoin="round"/>
<path d="M682.15 709.734C682.134 717.903 678.882 725.733 673.105 731.509C667.329 737.286 659.499 740.538 651.33 740.554H524.74C523.544 740.547 522.349 740.48 521.16 740.354C528.654 739.464 535.562 735.856 540.575 730.214C545.587 724.571 548.355 717.286 548.355 709.739C548.355 702.192 545.587 694.907 540.575 689.264C535.562 683.622 528.654 680.014 521.16 679.124C522.35 679.014 523.55 678.934 524.74 678.934H651.33C659.495 678.952 667.32 682.203 673.096 687.974C678.871 693.746 682.126 701.569 682.15 709.734Z" stroke="black" stroke-width="5.47" stroke-linecap="square" stroke-linejoin="round"/>
<path d="M497.77 762.413C497.769 765.281 498.334 768.121 499.432 770.771C500.531 773.42 502.14 775.827 504.17 777.853C508.17 781.853 513.6 784.284 523.61 784.284H705.54C702.41 784.284 703.26 784.223 704.11 784.143C698.787 783.517 693.879 780.958 690.317 776.952C686.755 772.947 684.788 767.773 684.788 762.413C684.788 757.053 686.755 751.88 690.317 747.874C693.879 743.869 698.787 741.31 704.11 740.683C703.26 740.603 702.41 740.543 705.54 740.543H523.61C507.59 740.553 497.77 750.393 497.77 762.413Z" stroke="black" stroke-width="5.47" stroke-linecap="square" stroke-linejoin="round"/>
<path d="M554.07 762.413C554.083 768.21 556.392 773.765 560.49 777.863C564.589 781.962 570.144 784.271 575.94 784.284H701.57C702.41 784.284 703.26 784.223 704.11 784.143C698.787 783.517 693.879 780.958 690.317 776.952C686.755 772.947 684.788 767.773 684.788 762.413C684.788 757.053 686.755 751.88 690.317 747.874C693.879 743.869 698.787 741.31 704.11 740.683C703.26 740.603 702.41 740.543 701.57 740.543H575.94C570.145 740.559 564.591 742.868 560.493 746.966C556.395 751.064 554.086 756.618 554.07 762.413Z" stroke="black" stroke-width="5.47" stroke-linecap="square" stroke-linejoin="round"/>
<path d="M350.42 595.555H294.3C291.732 595.551 289.221 594.799 287.073 593.393C284.925 591.987 283.232 589.987 282.2 587.635C281.802 586.76 281.631 585.798 281.705 584.839C281.778 583.88 282.093 582.956 282.62 582.151C283.147 581.347 283.869 580.689 284.719 580.238C285.569 579.788 286.518 579.56 287.48 579.575H347.14C344.33 584.305 345.76 590.875 350.42 595.555Z" fill="#D7E8F0"/>
<path d="M386.71 589.773C386.707 591.303 386.099 592.769 385.017 593.85C383.936 594.932 382.47 595.541 380.94 595.543H350.42C345.76 590.873 344.33 584.303 347.14 579.543H374.09C376.655 579.544 379.164 580.289 381.314 581.688C383.463 583.087 385.161 585.079 386.2 587.423C386.523 588.166 386.696 588.964 386.71 589.773Z" fill="#3FBDF1"/>
<path d="M372.67 595.554C372.512 595.859 372.328 596.15 372.12 596.424C368.12 601.894 359.43 602.424 352.68 597.484C351.882 596.895 351.127 596.25 350.42 595.554C345.76 590.884 344.33 584.314 347.14 579.554C347.298 579.249 347.482 578.958 347.69 578.684C351.69 573.174 360.34 572.684 367.09 577.584C367.903 578.192 368.668 578.861 369.38 579.584C374 584.234 375.44 590.764 372.67 595.554Z" fill="white"/>
<path d="M400.82 625.006C400.809 626.537 400.194 628.002 399.107 629.081C398.021 630.16 396.551 630.766 395.02 630.766H336.13C338.97 625.986 337.55 619.466 332.88 614.766H388.2C390.769 614.767 393.281 615.515 395.432 616.919C397.582 618.324 399.277 620.324 400.31 622.676C400.64 623.409 400.813 624.202 400.82 625.006Z" fill="#3FBDF1"/>
<path d="M336.13 630.763H308.42C305.855 630.765 303.344 630.022 301.194 628.623C299.044 627.224 297.347 625.229 296.31 622.883C295.983 622.149 295.81 621.357 295.8 620.553C295.799 619.797 295.947 619.047 296.236 618.347C296.525 617.648 296.949 617.013 297.484 616.477C298.019 615.942 298.655 615.518 299.354 615.229C300.054 614.94 300.803 614.792 301.56 614.793H332.88C337.55 619.463 339 625.983 336.13 630.763Z" fill="#D7E8F0"/>
<path d="M336.13 630.764C336 631.078 335.828 631.374 335.62 631.644C331.62 637.144 322.96 637.644 316.22 632.734C315.404 632.126 314.636 631.457 313.92 630.734C309.29 626.064 307.87 619.544 310.64 614.734C310.8 614.426 310.984 614.132 311.19 613.854C315.19 608.384 323.88 607.854 330.62 612.804C331.423 613.387 332.178 614.032 332.88 614.734C337.55 619.464 339 625.984 336.13 630.764Z" fill="white"/>
<path d="M355.75 665.737H320.49C317.926 665.734 315.418 664.987 313.269 663.589C311.119 662.19 309.421 660.2 308.38 657.857C307.983 656.979 307.814 656.015 307.888 655.055C307.963 654.094 308.278 653.167 308.805 652.36C309.333 651.554 310.055 650.893 310.905 650.44C311.756 649.986 312.706 649.755 313.67 649.766H352.47C349.69 654.556 351.12 661.067 355.75 665.737Z" fill="#3FBDF1"/>
<path d="M412.89 660.015C412.882 661.536 412.271 662.993 411.192 664.065C410.112 665.137 408.651 665.737 407.13 665.735H355.75C351.12 661.065 349.69 654.545 352.47 649.735H400.27C402.838 649.735 405.351 650.484 407.502 651.888C409.652 653.293 411.347 655.293 412.38 657.645C412.709 658.392 412.883 659.198 412.89 660.015Z" fill="#D7E8F0"/>
<path d="M378 665.736C377.84 666.043 377.656 666.337 377.45 666.616C373.45 672.116 364.8 672.616 358.05 667.706C357.239 667.095 356.474 666.427 355.76 665.706C351.13 661.036 349.7 654.516 352.48 649.706C352.633 649.397 352.813 649.102 353.02 648.826C357.02 643.356 365.71 642.886 372.46 647.776C373.262 648.359 374.018 649.004 374.72 649.706C379.38 654.436 380.8 660.996 378 665.736Z" fill="white"/>
<path d="M111.61 346.926L112.49 347.176L112.16 348.456C111.951 347.956 111.767 347.445 111.61 346.926Z" fill="#353642"/>
<path d="M268.106 426.93C281.27 423.066 288.186 407.144 283.555 391.368C278.924 375.593 264.499 365.936 251.336 369.8C238.172 373.665 231.256 389.586 235.887 405.362C240.518 421.138 254.943 430.794 268.106 426.93Z" fill="#D7E8F0"/>
</svg>
