<svg width="284" height="281" viewBox="0 0 284 281" fill="none" xmlns="http://www.w3.org/2000/svg">
<path d="M40.6475 126.718C50.9586 112.306 66.4113 105.773 66.4113 105.773C66.9157 105.563 64.7664 85.8181 64.7225 84.4176C64.0708 61.3514 67.8964 37.3515 85.2352 20.6957C106.91 -0.11157 146.237 -4.42277 171.102 13.1072C170.789 12.8753 179.283 6.17978 180 5.75054C184.641 2.94983 189.877 1.28478 195.284 0.891038C217.04 -0.675533 236.992 16.419 245.154 37.0977C253.316 57.7765 251.442 104.893 236.469 118.481" stroke="#CCDDE2" stroke-width="1.58224" stroke-miterlimit="10"/>
<path d="M31.3521 151.721C31.8881 146.044 33.3476 140.493 35.6727 135.287C35.8942 134.792 36.126 134.308 36.3682 133.833" stroke="#CCDDE2" stroke-width="1.58224" stroke-miterlimit="10"/>
<path d="M58.2402 211.701C55.7337 209.423 53.4121 207.104 51.2847 204.773" stroke="#CCDDE2" stroke-width="1.58224" stroke-miterlimit="10"/>
<path d="M267.108 143.96C267.127 145.526 267.108 147.124 267.033 148.725C266.588 158.629 264.467 168.865 259.166 177.206C258.201 178.745 257.124 180.211 255.945 181.592C244.665 180.104 242.983 168.599 229.94 162.094C214.315 154.283 188.729 157.081 188.729 157.081L201.334 145.454C200.66 110.438 174.953 112.588 174.953 112.588L173.646 115.787C174.639 112.889 175.642 110.188 176.657 107.681L176.714 107.55C188.62 77.9789 200.955 74.3131 210.552 70.0427C212.844 69.4981 215.192 69.2183 217.548 69.2093C242.084 69.0777 256.484 94.0645 262.781 114.179C264.348 119.192 266.757 129.914 267.08 141.97C267.086 142.616 267.108 143.289 267.108 143.96Z" fill="#2E2E2E"/>
<path d="M280.894 275.201C278.989 277.823 275.847 279.252 272.607 279.252H235.385C233.955 279.273 232.536 278.993 231.22 278.433C229.904 277.872 228.72 277.042 227.744 275.997C227.611 275.863 227.488 275.72 227.374 275.571C226.207 274.126 225.478 272.378 225.271 270.533C225.083 268.838 226.343 267.331 228.047 267.399C228.693 267.424 229.308 267.683 229.778 268.126C230.248 268.57 230.542 269.168 230.604 269.812C230.604 269.947 230.632 270.078 230.651 270.21C230.789 270.974 231.125 271.69 231.625 272.284C232.068 272.807 232.624 273.223 233.251 273.5C233.878 273.778 234.559 273.909 235.244 273.885H272.767C273.439 273.896 274.105 273.763 274.72 273.492C275.335 273.221 275.884 272.821 276.329 272.318C276.831 271.737 277.174 271.035 277.324 270.282C277.473 269.528 277.424 268.749 277.181 268.02L260.422 218.187C260.285 217.805 260.123 217.432 259.937 217.072C258.953 214.994 257.393 213.241 255.444 212.023C253.494 210.804 251.235 210.171 248.936 210.198C241.88 210.282 232.923 210.301 232.08 210.301C213.303 210.232 204.759 210.232 200.059 210.357C200.381 209.203 200.965 208.137 201.764 207.243C201.764 207.243 201.782 207.224 201.782 207.215C202.928 205.993 204.497 205.255 206.169 205.15C213.131 204.58 220.023 203.54 226.719 201.723C238.534 198.52 249.804 193.028 257.634 184.196C261.445 179.92 264.326 174.899 266.093 169.451C267.465 165.125 268.329 160.655 268.669 156.129C268.79 154.7 268.865 153.261 268.894 151.812V151.746C268.894 151.414 268.913 151.072 268.913 150.74C268.956 148.675 268.861 146.61 268.631 144.558C270.677 144.574 272.636 145.386 274.095 146.82C274.223 147.158 274.318 147.508 274.377 147.864C274.434 148.201 274.462 148.543 274.462 148.885V189.412C274.465 192.181 273.919 194.922 272.855 197.477C271.79 200.032 270.229 202.351 268.261 204.298C265.003 207.525 264.075 212.422 265.62 216.73L282.276 266.29C282.779 267.777 282.916 269.363 282.676 270.915C282.435 272.466 281.824 273.936 280.894 275.201Z" fill="#F37B29"/>
<path d="M51.2876 273.95V160.333H58.24V273.997L51.2876 273.95Z" fill="#2E2E2E"/>
<path d="M188.732 157.066C193.711 156.536 199.47 155.91 205 156.035" stroke="black" stroke-width="1.58224" stroke-miterlimit="10"/>
<path d="M161.612 162.084C152.796 164.309 144.217 167.52 136.898 172.859C124.616 181.807 119.001 198.501 124.021 212.963C124.021 212.982 143.76 269.921 143.76 269.921H138.565C137.445 269.92 136.337 270.142 135.303 270.572C134.27 271.002 133.332 271.633 132.543 272.427C130.998 273.962 130.237 276.522 130.237 278.872H176.993L159.225 220.752C158.782 219.32 158.682 217.803 158.934 216.325C159.186 214.846 159.782 213.448 160.675 212.243C161.567 211.038 162.731 210.06 164.072 209.388C165.413 208.717 166.893 208.37 168.392 208.376C178.516 208.662 187.918 209.05 198.157 208.605" stroke="black" stroke-width="1.58224" stroke-miterlimit="10"/>
<path d="M267.18 149.198V149.136C266.726 136.916 266.112 124.86 262.769 114.17C256.471 94.055 242.071 69.0681 217.535 69.1997C215.179 69.2088 212.832 69.4886 210.539 70.0332C194.366 73.8775 183.134 90.4487 176.701 107.54L176.645 107.672C176.031 109.311 175.463 110.947 174.94 112.578C174.586 113.676 174.15 114.745 173.634 115.777C171.663 119.748 168.54 123.031 164.673 125.197C160.805 127.364 156.374 128.312 151.959 127.918C122.257 125.217 83.1111 123.676 70.7822 144.546" stroke="black" stroke-width="1.58224" stroke-miterlimit="10"/>
<path d="M218.576 126.47C214.252 131.69 209.699 136.731 204.993 141.607C195.359 151.595 187.047 162.204 172.095 162.912C160.168 163.485 148.813 158.908 137.534 155.734C125.468 152.341 119.362 149.628 108.117 146.2C104.878 145.217 101.519 144.689 98.1345 144.633L86.8145 144.721" stroke="black" stroke-width="1.58224" stroke-miterlimit="10"/>
<path d="M174.423 270.655C175.501 270.172 176.67 269.924 177.851 269.928H183.058C183.058 269.928 172.174 248.77 163.47 234.687" stroke="black" stroke-width="1.58224" stroke-miterlimit="10"/>
<path d="M181.573 208.653L217.981 279.252H176.799H169.329" stroke="black" stroke-width="1.58224" stroke-miterlimit="10"/>
<path d="M280.894 275.201C278.989 277.824 275.846 279.252 272.607 279.252H235.385C232.299 279.252 229.288 277.974 227.364 275.561C226.198 274.116 225.468 272.368 225.262 270.523C225.074 268.828 226.333 267.321 228.038 267.39C228.683 267.415 229.298 267.673 229.768 268.117C230.238 268.56 230.532 269.159 230.594 269.803C230.67 270.713 231.027 271.576 231.616 272.275C232.065 272.79 232.622 273.2 233.247 273.477C233.872 273.754 234.551 273.89 235.234 273.876H272.766C273.438 273.887 274.104 273.753 274.719 273.483C275.334 273.212 275.883 272.812 276.329 272.309C276.831 271.728 277.174 271.026 277.323 270.272C277.472 269.519 277.423 268.739 277.181 268.011L260.422 218.187C259.573 215.828 258.011 213.792 255.953 212.36C253.895 210.929 251.442 210.173 248.936 210.198C241.88 210.282 232.922 210.301 232.079 210.301C211.172 210.235 202.941 210.235 198.58 210.395C198.512 210.395 198.445 210.381 198.382 210.355C198.319 210.328 198.263 210.29 198.215 210.241C198.167 210.193 198.13 210.136 198.104 210.073C198.078 210.01 198.065 209.943 198.066 209.875C198.06 207.941 198.769 206.072 200.059 204.63C200.064 204.626 200.068 204.622 200.071 204.616C200.074 204.611 200.076 204.605 200.077 204.599C201.225 203.38 202.793 202.643 204.464 202.537C211.426 201.967 218.319 200.927 225.014 199.11C236.829 195.908 248.099 190.415 255.929 181.583C259.74 177.307 262.621 172.286 264.388 166.838C265.756 162.514 266.617 158.045 266.954 153.522C267.077 152.089 267.153 150.65 267.18 149.205V149.136C267.18 148.807 267.199 148.466 267.199 148.133C267.241 146.069 267.147 144.004 266.917 141.952C270.326 141.933 273.763 144.411 274.358 147.87C274.415 148.208 274.443 148.549 274.443 148.892V189.413C274.446 192.181 273.9 194.922 272.835 197.477C271.771 200.032 270.209 202.351 268.242 204.298C264.984 207.525 264.056 212.422 265.601 216.73L282.257 266.291C282.762 267.776 282.903 269.361 282.666 270.913C282.428 272.464 281.82 273.935 280.894 275.201Z" stroke="black" stroke-width="1.58224" stroke-miterlimit="10"/>
<path d="M102.067 151.724H5.09282C2.71699 151.724 0.791016 153.65 0.791016 156.026V156.029C0.791016 158.405 2.71699 160.331 5.09282 160.331H102.067C104.443 160.331 106.369 158.405 106.369 156.029V156.026C106.369 153.65 104.443 151.724 102.067 151.724Z" stroke="black" stroke-width="1.58224" stroke-miterlimit="10"/>
<path d="M74.6045 274.49H35.3933C34.0626 274.49 32.9839 275.568 32.9839 276.899C32.9839 278.23 34.0626 279.308 35.3933 279.308H74.6045C75.9352 279.308 77.0139 278.23 77.0139 276.899C77.0139 275.568 75.9352 274.49 74.6045 274.49Z" stroke="black" stroke-width="1.58224" stroke-miterlimit="10"/>
<path d="M45.8643 147.861V148.293C45.9269 151.267 48.7248 151.721 51.1373 151.74L97.7773 151.709C99.8201 151.709 101.506 150.142 101.509 148.218V148.137C101.471 146.257 99.8295 144.725 97.8118 144.722C97.8118 144.722 71.7189 144.628 51.5102 144.568C51.1467 145.627 50.2256 146.448 49.0757 147.118C48.0866 147.637 46.9806 147.893 45.8643 147.861Z" stroke="black" stroke-width="1.58224" stroke-miterlimit="10"/>
<path d="M20.2164 105.971C20.2262 106.466 20.3678 106.949 20.6269 107.371L42.2456 143.681C42.5254 144.117 42.8926 144.492 43.3237 144.78C43.7551 145.067 44.2414 145.263 44.7521 145.354C45.6159 145.524 46.511 145.427 47.3181 145.075C48.6434 144.486 49.4079 143.299 49.3829 142.096C49.3782 141.944 49.3625 141.793 49.3359 141.645C49.2694 141.313 49.1463 140.995 48.9724 140.705L27.3537 104.395C26.4138 102.806 24.1141 102.183 22.2655 103C20.9465 103.577 20.182 104.764 20.2164 105.971Z" stroke="black" stroke-width="1.58224" stroke-miterlimit="10"/>
<path d="M78.6748 144.721C78.6748 144.721 81.2784 142.243 87.2659 138.308" stroke="black" stroke-width="1.58224" stroke-miterlimit="10"/>
<path d="M99.9046 103.99L90.4143 114.514C89.7535 115.248 88.8361 115.699 87.852 115.776C86.8676 115.852 85.8916 115.547 85.1256 114.925C84.7023 114.581 84.357 114.152 84.112 113.665C83.867 113.178 83.7279 112.645 83.7044 112.1C83.6805 111.556 83.7727 111.012 83.9744 110.506C84.1762 110 84.4833 109.542 84.8749 109.163L86.6107 107.484C86.6765 107.39 86.7517 107.305 86.8268 107.217L88.0801 105.836L98.8581 94.124C100.166 92.6862 101.814 91.5993 103.65 90.9623C105.486 90.3251 107.453 90.1584 109.37 90.477L109.53 90.5052" stroke="black" stroke-width="1.58224" stroke-miterlimit="10"/>
<path d="M113.271 106.838H103.778C102.697 106.838 101.662 106.409 100.898 105.645C100.134 104.881 99.7046 103.846 99.7046 102.765C99.7046 101.685 100.134 100.649 100.898 99.8852C101.662 99.1214 102.697 98.6921 103.778 98.6921H117.25" stroke="black" stroke-width="1.58224" stroke-miterlimit="10"/>
<path d="M105.992 106.838C105.861 108.502 105.225 109.733 104.288 110.598C101.875 112.791 97.4513 112.55 94.3745 111.043" stroke="black" stroke-width="1.58224" stroke-miterlimit="10"/>
<path d="M88.0964 105.829C85.3674 102.543 85.9282 98.0748 88.0494 94.6189C96.8065 80.3193 113.5 89.1266 124.475 95.2894C131.009 98.9756 137.254 103.15 143.158 107.778C148.384 111.851 153.222 116.726 159.501 119.177C163.26 120.646 167.7 120.997 171.441 119.302" stroke="black" stroke-width="1.58224" stroke-miterlimit="10"/>
<path d="M104.288 110.573C110.911 115.462 117.234 120.742 123.225 126.386" stroke="black" stroke-width="1.58224" stroke-miterlimit="10"/>
<path d="M184.866 33.7038C186.452 35.1513 188.886 35.2297 190.901 35.0354C193.476 34.8004 196.027 34.1769 198.549 33.6506L200.081 33.5722H200.103C200.397 33.5754 200.687 33.6358 200.957 33.7511C201.228 33.8661 201.473 34.0334 201.678 34.243C201.884 34.453 202.046 34.7011 202.156 34.9737C202.266 35.2463 202.321 35.5376 202.318 35.8312C202.353 39.1379 202.023 42.4384 201.334 45.6724L204.27 47.2609C204.649 46.2019 204.223 44.6761 205.122 44.5602C205.699 43.4855 206.557 42.7868 207.904 43.5858C210.542 45.1523 211.583 49.7549 209.042 51.8635L210.671 54.9089C211.239 55.9767 212.16 56.8139 213.276 57.2779C214.393 57.7419 215.636 57.804 216.793 57.453L215.129 53.7747C219.033 54.4672 221.765 49.5951 220.575 46.6218C219.763 44.579 219.804 42.9905 220.888 41.004C220.96 40.8693 220.224 40.6907 220.286 40.5529C220.324 39.096 219.92 37.5357 219.218 36.7931C217.984 35.4647 215.499 35.2265 216.007 33.2088C216.232 32.3309 216.316 31.4223 216.254 30.5174C216.122 29.3347 215.737 28.1939 215.127 27.1722C214.517 26.1501 213.695 25.2707 212.717 24.5926C210.661 23.2423 208.362 24.4673 206.165 24.4329C203.499 24.4047 201.588 22.1425 198.793 22.1081C197.402 22.0861 196.287 22.6282 195.096 23.3018C194.1 23.8752 193.119 24.4736 192.167 25.1221C191.214 25.7707 190.368 26.3315 189.231 26.3347C187.749 26.3535 186.317 25.4135 184.826 25.8522C184.071 26.0552 183.409 26.5082 182.946 27.1368C182.473 29.449 183.328 32.3096 184.866 33.7038Z" fill="#F37B29"/>
<path d="M204.282 46.9171C204.473 46.1009 204.755 45.3086 205.122 44.5547C205.698 43.4801 206.56 42.7814 207.904 43.5803C210.542 45.1469 211.582 49.7495 209.041 51.8581L210.671 54.9035C211.238 55.971 212.16 56.8085 213.276 57.2725C214.393 57.7365 215.636 57.7982 216.793 57.4476" stroke="black" stroke-width="1.58224" stroke-linecap="round" stroke-linejoin="round"/>
<path d="M215.129 53.7695L216.787 57.4541C217.204 58.3345 218.397 61.0416 219.647 63.8551C220.537 65.8697 221.465 67.9439 222.154 69.4697" stroke="black" stroke-width="1.58224" stroke-linecap="round" stroke-linejoin="round"/>
<path d="M188.281 40.5381C188.281 40.5381 193.166 39.3225 195.299 43.0258" stroke="black" stroke-width="1.58224" stroke-miterlimit="10"/>
<path d="M189.719 51.5951C188.404 51.9554 186.633 52.2781 185.618 51.1314L187.83 46.4756C188.367 45.3338 188.5 44.0433 188.206 42.816C187.724 40.7513 186.517 37.615 187.811 34.8923" stroke="black" stroke-width="1.58224" stroke-miterlimit="10"/>
<path d="M193.006 45.3551C193.377 44.7401 193.091 43.8882 192.368 43.4524C191.644 43.0165 190.758 43.1616 190.387 43.7766C190.016 44.3917 190.302 45.2436 191.025 45.6794C191.748 46.1155 192.635 45.9702 193.006 45.3551Z" fill="black"/>
<path d="M200.134 74.6677L198.975 61.803" stroke="black" stroke-width="1.58224" stroke-miterlimit="10"/>
<path d="M204.27 47.2548C204.27 47.142 204.27 47.026 204.27 46.9133C204.276 46.7923 204.276 46.6711 204.27 46.5498" stroke="black" stroke-width="1.58224" stroke-linecap="round" stroke-linejoin="round"/>
<path d="M204.273 47.2589L203.264 46.7168L201.334 45.6672" stroke="black" stroke-width="1.58224" stroke-linecap="round" stroke-linejoin="round"/>
<path d="M196.195 51.9263C196.195 51.9263 196.098 55.1847 192.373 56.5257" stroke="black" stroke-width="1.58224" stroke-miterlimit="10"/>
<path d="M215.129 53.7691C219.033 54.4615 221.765 49.5895 220.575 46.6161C219.763 44.5733 219.804 42.9848 220.888 40.9984C220.96 40.8637 221.02 40.7321 221.082 40.6005C221.887 38.824 221.602 37.0632 220.337 35.553C219.137 34.1243 217.329 33.623 217.849 31.5394C218.083 30.6349 218.169 29.6987 218.106 28.7666C217.971 27.55 217.576 26.3767 216.949 25.3255C216.322 24.2743 215.477 23.3698 214.471 22.6727C212.36 21.2721 209.981 22.5411 207.707 22.5066C204.968 22.4659 202.991 20.1348 200.118 20.1003C198.68 20.1003 197.521 20.6361 196.299 21.3317C195.271 21.9238 194.253 22.5473 193.282 23.2115C192.311 23.8758 191.402 24.4648 190.249 24.4648C188.72 24.4648 187.244 23.5249 185.715 23.9635C184.186 24.4021 183.278 25.6679 182.977 27.1342C182.488 29.434 183.344 32.3071 184.882 33.7138C186.467 35.1614 188.902 35.2397 190.916 35.0454C193.492 34.8104 196.042 34.1869 198.564 33.6606L200.096 33.5823H200.118C200.412 33.5851 200.702 33.6459 200.973 33.7608C201.243 33.8761 201.488 34.0431 201.694 34.2531C201.9 34.4627 202.062 34.7111 202.172 34.9834C202.281 35.256 202.336 35.5474 202.333 35.8412C202.369 39.148 202.039 42.4481 201.35 45.6824" stroke="black" stroke-width="1.58224" stroke-miterlimit="10"/>
<path d="M204.862 57.3344C204.862 57.3344 199.04 65.067 193.868 63.3344C188.695 61.6018 188.432 52.03 188.432 52.03" stroke="black" stroke-width="1.58224" stroke-linecap="round" stroke-linejoin="round"/>
<path d="M51.2876 273.95V160.333H58.24V273.997" stroke="black" stroke-width="1.58224" stroke-miterlimit="10"/>
<path d="M57.6858 94.2212C63.8841 94.2212 68.9087 89.1966 68.9087 82.9983C68.9087 76.8 63.8841 71.7754 57.6858 71.7754C51.4875 71.7754 46.4629 76.8 46.4629 82.9983C46.4629 89.1966 51.4875 94.2212 57.6858 94.2212Z" fill="#F37B29"/>
<path d="M53.2961 85.8932C52.9677 85.6688 52.6764 85.395 52.4313 85.0817C51.998 84.5453 51.7765 83.8688 51.8082 83.1802C51.8398 82.4915 52.123 81.8383 52.6037 81.3438C52.9173 81.0211 53.3014 80.7752 53.7259 80.6257C54.1505 80.4763 54.6039 80.4271 55.0506 80.4822C54.9516 79.8609 55.0575 79.224 55.3527 78.6681C55.6475 78.1123 56.1156 77.6674 56.6855 77.4011C57.2557 77.1348 57.8971 77.0608 58.5125 77.1912C59.1281 77.3215 59.6849 77.6486 60.0981 78.123C60.9723 79.1131 61.3827 80.5856 61.5362 81.8827C61.6155 82.5598 61.6262 83.2435 61.5676 83.9224C61.5394 84.2639 61.4172 86.2347 61.0976 86.36C58.9859 87.1684 55.3859 87.3438 53.2961 85.8932Z" fill="white"/>
<path d="M136.87 91.573C140.192 91.573 142.885 88.8798 142.885 85.5574C142.885 82.235 140.192 79.5417 136.87 79.5417C133.547 79.5417 130.854 82.235 130.854 85.5574C130.854 88.8798 133.547 91.573 136.87 91.573Z" fill="#F37B29"/>
<path d="M136.456 82.7697C136.639 82.6591 136.839 82.5798 137.048 82.5347C137.407 82.4482 137.786 82.4962 138.112 82.6691C138.439 82.8424 138.691 83.1288 138.821 83.4747C138.906 83.7006 138.937 83.9434 138.913 84.1837C138.889 84.4237 138.809 84.6552 138.68 84.8595C138.997 84.9601 139.274 85.159 139.47 85.4276C139.666 85.6961 139.772 86.0197 139.772 86.3525C139.772 86.6849 139.666 87.0088 139.47 87.2774C139.274 87.5456 138.997 87.7445 138.68 87.8454C137.963 88.0024 137.215 87.9479 136.528 87.6887C136.182 87.5719 135.848 87.4209 135.531 87.2376C135.372 87.1467 134.441 86.6391 134.457 86.4543C134.548 85.2386 135.284 83.4527 136.456 82.7697Z" fill="white"/>
<path d="M90.2269 78.6962C90.9011 79.2589 91.6537 79.7201 92.4608 80.0654C93.9472 80.6857 95.5692 80.9094 97.168 80.7146C98.7669 80.5197 100.288 79.9128 101.581 78.9531C102.584 78.1886 103.461 77.1328 104.498 76.3651C105.222 75.7984 106.091 75.4465 107.005 75.35C107.309 75.3588 107.61 75.2952 107.885 75.1651C108.581 74.7328 107.76 74.0153 107.688 73.5077C107.591 72.6959 107.795 71.8769 108.261 71.2049C109.451 69.4302 109.991 67.2984 109.788 65.171C109.586 63.044 108.654 61.0522 107.15 59.5339C105.647 58.0156 103.664 57.064 101.539 56.8406C99.4139 56.6176 97.2767 57.1364 95.4905 58.3088C93.7266 59.465 92.4169 61.1788 91.0885 62.8174C89.9167 64.2618 88.6916 65.6843 87.8331 67.3354C85.8154 71.2174 86.9935 75.9986 90.2269 78.6962Z" fill="#F37B29"/>
<path d="M102.192 65.9007C103.301 65.9007 104.2 65.0015 104.2 63.8924C104.2 62.7829 103.301 61.884 102.192 61.884C101.083 61.884 100.184 62.7829 100.184 63.8924C100.184 65.0015 101.083 65.9007 102.192 65.9007Z" fill="white"/>
<path d="M98.3072 70.6505C99.4163 70.6505 100.316 69.7513 100.316 68.6421C100.316 67.533 99.4163 66.6338 98.3072 66.6338C97.198 66.6338 96.2988 67.533 96.2988 68.6421C96.2988 69.7513 97.198 70.6505 98.3072 70.6505Z" fill="white"/>
<path d="M94.6631 75.109C95.7723 75.109 96.6715 74.2098 96.6715 73.1006C96.6715 71.9915 95.7723 71.0923 94.6631 71.0923C93.554 71.0923 92.6548 71.9915 92.6548 73.1006C92.6548 74.2098 93.554 75.109 94.6631 75.109Z" fill="white"/>
<g opacity="0.46">
<path opacity="0.46" d="M152.749 54.2925C152.592 55.0792 152.261 55.8205 151.781 56.4631C151.3 57.1054 150.683 57.6324 149.973 58.0052L133.223 66.9034C132.591 67.2405 131.899 67.4495 131.186 67.5187C130.474 67.5876 129.754 67.5153 129.07 67.3056C128.385 67.096 127.749 66.7536 127.197 66.2974C126.645 65.8412 126.188 65.2804 125.854 64.6475L112.503 39.5103C111.827 38.2354 111.684 36.7444 112.107 35.3642C112.529 33.9844 113.482 32.8282 114.756 32.1505L131.518 23.2555C134.041 21.9146 137.521 22.9422 138.875 25.5083L152.228 50.6361C152.829 51.7549 153.014 53.0505 152.749 54.2925Z" fill="#F37B29"/>
</g>
<path d="M147.776 52.3877L131.443 46.1622C131.235 46.0813 131.062 45.929 130.956 45.7329C130.85 45.5365 130.817 45.3087 130.863 45.0906L134.651 27.6672C134.694 27.4817 134.792 27.3138 134.933 27.1856C135.073 27.0572 135.249 26.9745 135.438 26.9485C135.626 26.9221 135.818 26.9538 135.988 27.039C136.158 27.1242 136.298 27.2593 136.39 27.426L148.935 51.0687C149.024 51.2369 149.059 51.4283 149.037 51.6173C149.015 51.8062 148.935 51.9842 148.81 52.127C148.684 52.2699 148.518 52.3714 148.333 52.4181C148.149 52.4645 147.954 52.4538 147.776 52.3877Z" fill="white"/>
<g opacity="0.46">
<path opacity="0.46" d="M172.174 71.7844C172.517 72.0301 172.8 72.3497 173.003 72.7197C173.205 73.0894 173.323 73.5002 173.346 73.9212L173.972 83.8815C173.996 84.2575 173.945 84.6344 173.824 84.9906C173.701 85.3472 173.51 85.6759 173.261 85.9581C173.011 86.2404 172.708 86.4707 172.37 86.6358C172.031 86.801 171.663 86.8978 171.287 86.9206L156.339 87.8418C155.581 87.8872 154.837 87.6303 154.268 87.1274C153.7 86.6249 153.354 85.9171 153.306 85.1598L152.695 75.1933C152.668 74.4407 152.931 73.7066 153.43 73.1423C153.928 72.5781 154.624 72.2265 155.374 72.1604L170.319 71.2205C170.985 71.1832 171.642 71.3831 172.174 71.7844Z" fill="#F37B29"/>
</g>
<path d="M170.187 73.7519L163.645 80.2282C163.562 80.3068 163.454 80.3544 163.34 80.3623C163.226 80.3704 163.112 80.3384 163.019 80.272L155.499 74.6637C155.419 74.6032 155.359 74.5196 155.328 74.424C155.297 74.3285 155.296 74.2254 155.325 74.1292C155.354 74.033 155.411 73.9481 155.49 73.8854C155.569 73.8231 155.665 73.7864 155.766 73.7802L169.827 72.9123C169.925 72.9098 170.022 72.9367 170.105 72.99C170.188 73.0429 170.253 73.1197 170.292 73.2102C170.331 73.3005 170.341 73.4004 170.323 73.4972C170.304 73.5937 170.257 73.6824 170.187 73.7519Z" fill="white"/>
<g opacity="0.46">
<path opacity="0.46" d="M70.6599 126.518C69.6789 126.679 68.687 126.763 67.6928 126.768C58.1744 126.768 58.4939 117.942 58.4939 117.942L66.3801 119.647C66.0821 118.917 65.9681 118.124 66.0479 117.34C66.1275 116.555 66.3989 115.802 66.8375 115.147C68.6422 112.509 72.8343 113.866 72.8343 113.866L75.4411 112.187L74.8771 115.32L78.3706 114.731L76.5753 116.808C78.9878 119.126 82.0614 126.185 74.6484 129.854C67.2354 133.523 64.0365 129.127 64.0365 129.127L67.6928 126.771L70.6599 126.518Z" fill="#F37B29"/>
</g>
<path d="M70.5033 117.886C71.133 117.886 71.6437 117.376 71.6437 116.745C71.6437 116.116 71.133 115.605 70.5033 115.605C69.8735 115.605 69.3628 116.116 69.3628 116.745C69.3628 117.376 69.8735 117.886 70.5033 117.886Z" fill="white"/>
<path d="M90.3833 279.252H220.807" stroke="black" stroke-width="0.98694" stroke-miterlimit="10"/>
</svg>
