<svg width="275" height="247" viewBox="0 0 275 247" fill="none" xmlns="http://www.w3.org/2000/svg">
<path d="M225.519 159.112H158.103C156.659 159.112 155.488 160.283 155.488 161.728V209.25C155.488 210.695 156.659 211.866 158.103 211.866H225.519C226.963 211.866 228.134 210.695 228.134 209.25V161.728C228.134 160.283 226.963 159.112 225.519 159.112Z" fill="#F97316"/>
<path d="M222.12 161.582H161.508C160.064 161.582 158.893 162.753 158.893 164.197V206.78C158.893 208.225 160.064 209.396 161.508 209.396H222.12C223.565 209.396 224.736 208.225 224.736 206.78V164.197C224.736 162.753 223.565 161.582 222.12 161.582Z" fill="#F97316"/>
<path d="M257.752 211.866H233.432C232.736 211.866 232.047 211.729 231.405 211.463C230.762 211.197 230.179 210.806 229.687 210.314C229.195 209.822 228.805 209.238 228.539 208.596C228.274 207.953 228.137 207.264 228.137 206.569V168.647C228.137 168.306 228.205 167.968 228.337 167.654C228.469 167.34 228.663 167.055 228.906 166.817C229.15 166.578 229.439 166.391 229.756 166.265C230.073 166.14 230.412 166.079 230.753 166.086L244.281 166.207C244.645 166.215 245.002 166.301 245.33 166.457C245.659 166.614 245.95 166.839 246.184 167.116L262.574 186.512C265.169 189.182 266.619 192.759 266.617 196.483V202.999C266.618 204.163 266.389 205.316 265.944 206.392C265.498 207.468 264.846 208.446 264.022 209.27C263.199 210.093 262.221 210.746 261.146 211.192C260.07 211.637 258.916 211.866 257.752 211.866Z" fill="#F97316"/>
<path d="M191.811 200.786C200.258 200.786 207.106 193.938 207.106 185.491C207.106 177.043 200.258 170.195 191.811 170.195C183.363 170.195 176.515 177.043 176.515 185.491C176.515 193.938 183.363 200.786 191.811 200.786Z" fill="#FBE9D8"/>
<path d="M233.433 185.393V172.504C233.433 172.122 233.585 171.756 233.855 171.486C234.125 171.216 234.491 171.064 234.873 171.064H242.107C242.328 171.065 242.545 171.116 242.743 171.214C242.941 171.311 243.114 171.453 243.249 171.628L253.162 184.511C253.327 184.724 253.428 184.979 253.455 185.247C253.481 185.515 253.432 185.785 253.313 186.026C253.194 186.268 253.01 186.471 252.782 186.613C252.553 186.755 252.289 186.83 252.02 186.83H234.882C234.692 186.831 234.504 186.794 234.329 186.723C234.153 186.651 233.994 186.546 233.859 186.412C233.724 186.279 233.617 186.12 233.544 185.945C233.471 185.77 233.433 185.582 233.433 185.393Z" fill="white"/>
<path d="M161.672 211.754V211.857C161.672 214.995 162.919 218.004 165.138 220.223C167.357 222.442 170.366 223.688 173.504 223.688C176.642 223.688 179.651 222.442 181.87 220.223C184.089 218.004 185.335 214.995 185.335 211.857" stroke="#CCDDE2" stroke-width="1.38498" stroke-miterlimit="10"/>
<path d="M233.433 211.857C233.433 214.995 234.68 218.004 236.898 220.222C239.117 222.441 242.125 223.687 245.263 223.687C248.401 223.687 251.409 222.441 253.628 220.222C255.846 218.004 257.093 214.995 257.093 211.857" fill="#F97316"/>
<path d="M233.46 102.252C243.298 100.149 253.89 103.946 261.093 110.965C268.297 117.984 272.307 127.882 273.34 137.886C275.004 153.806 270.543 172.195 261.766 185.566" stroke="#CCDDE2" stroke-width="1.38498" stroke-miterlimit="10"/>
<path d="M145.352 38.2523C161.832 32.3124 181.589 37.5795 197.045 78.5592C202.094 91.9514 208.507 98.258 217.541 99.046" stroke="#CCDDE2" stroke-width="1.38498" stroke-miterlimit="10"/>
<path d="M82.3667 57.9477C82.3667 57.9477 100.762 55.8263 100.875 78.4012L152.37 63.4058L160.456 60.8631C160.456 60.8631 148.855 46.7891 135.472 44.3676C135.616 45.7353 135.887 47.0867 136.281 48.4044C136.972 50.8288 134.681 52.2532 131.502 53.1563C128.323 54.0594 121.886 48.7165 120.779 44.0039C120.779 44.0039 122.367 42.5705 116.452 43.5979C110.536 44.6252 92.5859 48.7953 82.3667 57.9477Z" fill="#2E2E2E"/>
<path d="M2.50086 167.504C3.00296 167.775 3.56399 167.917 4.13434 167.92C4.64836 167.919 5.15565 167.803 5.61882 167.58C6.08195 167.357 6.48915 167.033 6.81036 166.632L18.4176 152.403L27.7851 140.647L20.1177 136.347C19.3231 135.898 18.383 135.784 17.5038 136.028C16.6247 136.273 15.8785 136.856 15.4294 137.65L1.13406 162.752C0.907006 163.153 0.762175 163.595 0.708048 164.052C0.653952 164.51 0.691652 164.973 0.818937 165.416C0.946222 165.858 1.16055 166.271 1.44936 166.629C1.73818 166.988 2.09563 167.286 2.50086 167.504Z" fill="#2E2E2E"/>
<path d="M179.186 234.635L188.848 244.139C189.683 244.964 190.81 245.427 191.984 245.427H216.159C217.153 245.433 218.111 245.056 218.833 244.374C219.556 243.692 219.988 242.757 220.039 241.765C220.09 240.773 219.756 239.799 219.108 239.046C218.459 238.293 217.545 237.819 216.556 237.723L203.143 236.335L179.186 234.635Z" fill="#2E2E2E"/>
<path d="M134.671 43.2868V43.9415V44.1081C140.017 45.4486 145.05 47.8158 149.491 51.0785C150.209 51.6058 150.912 52.1392 151.612 52.7029C151.631 50.4421 151.437 48.1722 150.703 46.0356C150.111 44.1997 148.998 42.575 147.5 41.3594C146.182 40.3078 144.621 39.632 143.051 39.0228C141.481 38.4137 139.942 37.8803 138.505 37.059C137.293 36.3941 136.234 35.4825 135.396 34.383C135.103 33.9851 134.92 33.5165 134.867 33.0253C134.814 32.534 134.892 32.0373 135.093 31.5857C134.951 31.5763 134.812 31.5488 134.677 31.5039L134.671 43.2868Z" fill="#F97316"/>
<path d="M134.671 43.2868V43.9415V44.1081C140.017 45.4486 145.05 47.8158 149.491 51.0785C150.209 51.6058 150.912 52.1392 151.612 52.7029C151.631 50.4421 151.437 48.1722 150.703 46.0356C150.111 44.1997 148.998 42.575 147.5 41.3594C146.182 40.3078 144.621 39.632 143.051 39.0228C141.481 38.4137 139.942 37.8803 138.505 37.059C137.293 36.3941 136.234 35.4825 135.396 34.383C135.103 33.9851 134.92 33.5165 134.867 33.0253C134.814 32.534 134.892 32.0373 135.093 31.5857C134.951 31.5763 134.812 31.5488 134.677 31.5039L134.671 43.2868Z" fill="#F97316"/>
<path d="M60.8315 94.3514C62.838 95.7912 65.071 96.8862 67.4382 97.5911C68.4534 97.8941 66.0532 99.0276 67.0957 99.2306C62.9711 89.4964 65.9138 74.5313 78.9635 60.8754C81.1849 58.5479 86.2945 55.5992 88.8129 53.5505C92.8648 50.2562 97.2986 49.8289 101.541 47.853C103.438 46.9775 105.385 46.2165 107.372 45.574C110.905 44.3999 114.552 43.5996 118.252 43.1859C119.092 43.0828 119.922 43.0101 120.761 42.9646C120.556 41.5218 120.597 40.0544 120.883 38.6248C121.655 34.7032 123.004 32.4515 125.459 29.3603C126.998 27.4147 129.399 22.7627 126.195 21.1595C124.177 20.1534 123.992 18.0956 124.941 16.8409C125.744 15.7681 127.365 15.2802 129.371 16.5379C130.756 17.4228 132.402 17.4804 133.984 17.047C135.217 16.3288 136.287 15.3605 137.124 14.2043C139.448 10.8707 139.53 5.82474 135.896 3.37905C133.911 2.04256 131.384 1.71829 129.011 1.97589C127.95 2.09863 126.906 2.3332 125.895 2.67596C125.891 2.67414 125.886 2.67323 125.882 2.67323C125.877 2.67323 125.872 2.67414 125.868 2.67596C121.577 4.99133 118.504 9.27355 117.028 14.0983C116.161 16.95 115.182 19.7746 114.037 22.5415C113.097 24.8114 112.442 27.5723 110.345 29.1209C109.471 29.7704 108.477 30.241 107.421 30.5059C103.463 33.0152 97.9714 31.5666 93.6437 31.0332C90.183 30.5601 86.6597 30.9165 83.3639 32.0727C79.6727 33.9365 76.4996 36.9216 73.9236 40.7917C69.6808 47.2044 74.1721 56.4508 67.0593 61.5088C64.9167 63.0241 62.4347 63.9545 60.089 65.1455C56.7311 66.8548 54.0278 69.2793 53.0307 73.0251C51.0396 80.5288 54.5642 89.8024 60.8315 94.3514Z" fill="#F97316"/>
<path d="M148.576 149.242L203.293 236.247L179.957 235.144L171.253 227.204H161.304C161.304 227.204 134.186 187.436 127.968 180.696C121.749 173.956 127.968 156.873 127.968 156.873L148.576 149.242Z" fill="#FBE9D8"/>
<path d="M234.785 245.423H66.4624" stroke="black" stroke-width="1.38498" stroke-miterlimit="10"/>
<path d="M140.844 11.1626C141.276 12.0585 141.646 12.9828 141.95 13.9296C142.393 15.4721 141.914 16.4237 142.587 17.8905C142.817 18.3967 143.151 19.2543 143.496 20.1241C143.596 19.921 143.69 19.7544 143.745 19.624C146.384 13.7477 142.914 10.9141 141.244 9.94434C141.141 10.3598 141.007 10.7671 140.844 11.1626Z" fill="#F97316"/>
<path d="M140.844 11.1626C141.276 12.0585 141.646 12.9828 141.95 13.9296C142.393 15.4721 141.914 16.4237 142.587 17.8905C142.817 18.3967 143.151 19.2543 143.496 20.1241C143.596 19.921 143.69 19.7544 143.745 19.624C146.384 13.7477 142.914 10.9141 141.244 9.94434C141.141 10.3598 141.007 10.7671 140.844 11.1626Z" fill="#F97316"/>
<path d="M115.89 168.583C113.069 178.502 108.517 188.56 104.744 194.919C102.016 199.506 97.6532 202.892 92.5321 204.396C87.411 205.901 81.9105 205.412 77.1348 203.028L35.7218 182.478V173.177L18.4171 152.414L6.81 166.631C6.4876 167.03 6.07987 167.352 5.61679 167.573C5.15369 167.793 4.647 167.908 4.13398 167.907C3.53196 167.904 2.9412 167.743 2.42009 167.442C1.89898 167.14 1.46555 166.708 1.16258 166.188C0.859611 165.668 0.697566 165.077 0.692505 164.475C0.687444 163.873 0.839519 163.28 1.1337 162.755L15.429 137.665C15.8784 136.871 16.6245 136.287 17.5034 136.043C18.3826 135.798 19.3227 135.913 20.1173 136.361L27.7847 140.662L71.7283 165.273C72.4593 165.682 73.2766 165.912 74.1137 165.943C74.9504 165.975 75.7829 165.807 76.5421 165.453C77.3015 165.1 77.9661 164.571 78.481 163.911C78.9962 163.251 79.3469 162.477 79.5048 161.655L84.7113 134.379" stroke="black" stroke-width="1.38498" stroke-miterlimit="10"/>
<path d="M96.8306 152.803L108.089 161.961C119.939 171.31 130.251 182.456 138.653 194.995L161.146 227.292H197.452" stroke="black" stroke-width="1.38498" stroke-miterlimit="10"/>
<path d="M171.74 227.297L179.186 234.634L188.847 244.138C189.683 244.963 190.81 245.426 191.984 245.426H216.159C217.153 245.432 218.11 245.055 218.833 244.373C219.555 243.691 219.987 242.757 220.038 241.764C220.089 240.772 219.756 239.798 219.107 239.045C218.459 238.293 217.545 237.819 216.556 237.723L203.143 236.335L138.391 133.37C135.057 128.055 132.087 119.305 134.672 113.574C144.519 91.7754 143.667 70.6582 143.667 70.6582" stroke="black" stroke-width="1.38498" stroke-miterlimit="10"/>
<path d="M134.671 29.6492V43.196V43.8506V44.0172C136.062 46.0477 136.765 48.9268 135.434 51.0846C133.655 53.9727 129.725 53.4939 127.231 51.8786C126.498 51.4031 125.798 50.8785 125.136 50.3088C122.92 48.3822 121.486 45.7107 121.106 42.799C120.901 41.357 120.941 39.8908 121.224 38.4622C122.003 34.5436 123.345 32.2919 125.809 29.1946C127.349 27.252 129.749 22.597 126.54 20.9938C122.785 19.1209 125.385 13.6386 129.716 16.3783C133.074 18.4997 137.898 15.854 139.892 13.0022C142.217 9.66853 142.302 4.62259 138.665 2.17691C136.68 0.840415 134.152 0.51614 131.783 0.773741C124.555 1.56776 119.415 7.21678 117.357 13.9326C116.49 16.7844 115.511 19.6089 114.369 22.3758C113.426 24.6487 112.772 27.4066 110.678 28.9552C106.692 31.9373 100.916 30.3766 96.4034 29.825C87.0086 28.6703 79.4321 32.8313 74.2559 40.62C70.013 47.0327 74.5044 56.279 67.3886 61.3371C65.249 62.8524 62.7669 63.7828 60.4182 64.9738C57.0573 66.68 54.357 69.1075 53.3569 72.8533C51.3658 80.3813 54.8904 89.658 61.1546 94.2069C64.0246 96.2919 67.3825 97.5405 70.8707 98.2194" stroke="black" stroke-width="1.38498" stroke-miterlimit="10"/>
<path d="M153.215 54.4451C153.234 54.2724 153.243 54.1057 153.249 53.942C153.406 50.969 153.388 47.8808 152.418 45.0351C151.825 43.2007 150.712 41.5775 149.215 40.3619C147.891 39.3103 146.333 38.6284 144.769 38.0223C143.205 37.4162 141.657 36.8828 140.223 36.0585C139.009 35.3981 137.95 34.4859 137.117 33.3825C136.822 32.9867 136.638 32.52 136.582 32.0299C136.526 31.5396 136.601 31.0435 136.799 30.5913" stroke="black" stroke-width="1.38498" stroke-miterlimit="10"/>
<path d="M35.7261 173.18V145.104" stroke="black" stroke-width="1.38498" stroke-miterlimit="10"/>
<path d="M131.757 26.617C132.845 28.1717 134.321 29.8507 136.182 30.4598C138.591 31.2417 140.213 29.1991 141.076 27.208C141.595 26.023 141.949 24.7623 142.367 23.5379C142.504 23.1349 142.586 22.9318 143.049 22.9076C143.513 22.8833 143.995 22.9803 144.468 22.9803C144.504 22.9821 144.539 22.9736 144.57 22.9558C144.602 22.9379 144.627 22.9115 144.644 22.8794C144.66 22.8476 144.667 22.8115 144.664 22.7757C144.661 22.74 144.647 22.7057 144.625 22.6773C143.989 21.7105 143.04 19.0678 142.558 18.0101C141.892 16.5433 142.373 15.5857 141.925 14.0522C141.619 13.106 141.251 12.1808 140.825 11.2822" stroke="black" stroke-width="1.38498" stroke-miterlimit="10"/>
<path d="M141.536 8.45166C141.536 8.45166 148.103 10.9671 144.712 18.5375C144.503 18.9981 143.987 19.9528 143.745 20.3861" stroke="black" stroke-width="1.38498" stroke-miterlimit="10"/>
<path d="M141.173 26.9784C140.648 27.0496 140.114 26.9272 139.672 26.6338C139.231 26.3404 138.911 25.8961 138.773 25.3843" stroke="black" stroke-width="1.38498" stroke-miterlimit="10"/>
<path d="M142.283 16.8376C140.922 15.7314 139.431 17.1407 138.522 18.1741" stroke="black" stroke-width="1.38498" stroke-miterlimit="10"/>
<path d="M134.671 44.0166C140.019 45.3573 145.055 47.7248 149.5 50.987C150.791 51.9204 152.037 52.9144 153.246 53.9478C158.016 57.9967 162.213 62.682 166.293 67.4188" stroke="black" stroke-width="1.38498" stroke-miterlimit="10"/>
<path d="M172.41 112.105C172.385 112.09 172.363 112.072 172.343 112.05C166.991 106.698 161.599 101.386 156.232 96.0518C151.735 91.5847 145.886 87.0116 143.14 81.1504" stroke="black" stroke-width="1.38498" stroke-miterlimit="10"/>
<path d="M109.656 150.639C110.092 150.499 110.507 150.36 110.901 150.214C110.908 150.217 110.916 150.217 110.923 150.214" stroke="black" stroke-width="1.38498" stroke-miterlimit="10"/>
<path d="M68.9155 87.7053L100.873 78.4013L159.56 61.3118C162.38 60.4999 165.406 60.8375 167.977 62.2504C170.549 63.6633 172.456 66.0365 173.283 68.8519L185.887 112.15C186.699 114.969 186.363 117.995 184.952 120.567C183.542 123.139 181.17 125.049 178.356 125.879L115.811 144.086L109.841 145.82L103.779 147.593L97.8091 149.335L92.9602 150.739L75.7464 155.751C72.9271 156.564 69.9001 156.228 67.3283 154.814C64.7563 153.402 62.8491 151.027 62.0239 148.211L49.4197 104.913C48.6069 102.095 48.9424 99.0706 50.3528 96.4997C51.7635 93.9289 54.1347 92.0211 56.9477 91.1935L57.3992 91.0631L57.778 90.951L65.8152 88.6084L68.9155 87.7053Z" fill="white"/>
<path d="M73.7193 88.8353L103.328 80.2163L157.709 64.3815C160.323 63.6244 163.131 63.9345 165.517 65.244C167.903 66.5532 169.672 68.7552 170.438 71.367L182.111 111.474C182.863 114.086 182.553 116.889 181.247 119.273C179.942 121.657 177.747 123.429 175.141 124.202L117.181 141.077L111.65 142.689L106.022 144.328L100.492 145.947L95.9942 147.235L77.5894 152.69C74.9752 153.448 72.167 153.138 69.7811 151.829C67.3948 150.519 65.6255 148.317 64.8609 145.704L53.1931 105.576C52.4361 102.964 52.7446 100.159 54.0508 97.7731C55.3573 95.3878 57.555 93.617 60.1635 92.8478L60.5817 92.7266L60.9332 92.6266L70.8463 89.6566L73.7193 88.8353Z" fill="#F97316"/>
<path d="M76.9257 90.2591L104.38 82.2675L156.809 66.9175C159.231 66.2205 161.831 66.5102 164.04 67.7237C166.249 68.9371 167.887 70.9758 168.598 73.3939L179.429 110.594C180.127 113.016 179.838 115.616 178.626 117.826C177.414 120.036 175.377 121.676 172.959 122.389L117.214 138.709L112.087 140.2L106.871 141.716L101.74 143.213L97.5852 144.425L78.8531 149.941C76.4293 150.644 73.8257 150.357 71.6131 149.143C69.4007 147.929 67.7603 145.887 67.052 143.464L56.2176 106.267C55.5194 103.846 55.8079 101.246 57.0201 99.0373C58.2327 96.8283 60.2705 95.189 62.688 94.4777L64.7427 93.8928L65.07 93.7958L74.2618 91.0441L76.9257 90.2591Z" fill="#F97316"/>
<path d="M117.733 112.4L68.3924 126.325C68.1293 126.399 67.8542 126.421 67.5826 126.389C67.3114 126.357 67.0489 126.272 66.8104 126.138C66.5719 126.004 66.3622 125.825 66.1931 125.61C66.0243 125.395 65.8991 125.149 65.8255 124.886C65.7715 124.704 65.744 124.515 65.7437 124.325C65.7458 123.872 65.8943 123.432 66.1676 123.071C66.4407 122.71 66.8238 122.447 67.2589 122.322L116.6 108.405C116.401 109.085 116.392 109.806 116.573 110.49C116.769 111.225 117.172 111.887 117.733 112.4Z" fill="#F97316"/>
<path d="M129.259 107.562C129.258 108.017 129.11 108.458 128.837 108.821C128.563 109.184 128.18 109.449 127.743 109.575L124.182 110.581C124.385 109.874 124.387 109.126 124.189 108.418C123.99 107.71 123.599 107.072 123.058 106.574L126.619 105.571C127.15 105.424 127.718 105.492 128.198 105.762C128.678 106.032 129.033 106.481 129.183 107.011C129.236 107.19 129.262 107.376 129.259 107.562Z" fill="#D7E8F0"/>
<path d="M131.502 115.509C131.5 115.962 131.352 116.402 131.079 116.764C130.805 117.125 130.422 117.388 129.987 117.513L80.9517 131.344C81.2456 130.664 81.3411 129.916 81.2268 129.184C81.1126 128.452 80.7932 127.768 80.3062 127.21L128.853 113.506C129.384 113.359 129.951 113.428 130.432 113.698C130.912 113.968 131.266 114.416 131.417 114.946C131.473 115.128 131.502 115.318 131.502 115.509Z" fill="#D7E8F0"/>
<path d="M75.0532 132.991L70.6346 134.237C70.3652 134.343 70.0767 134.391 69.7873 134.379C69.4981 134.368 69.2145 134.295 68.9548 134.167C68.695 134.039 68.465 133.858 68.2796 133.635C68.0941 133.413 67.9571 133.154 67.8774 132.876C67.7977 132.598 67.7774 132.306 67.8171 132.019C67.8571 131.732 67.9565 131.457 68.1092 131.211C68.262 130.965 68.4644 130.754 68.7035 130.59C68.9426 130.427 69.2133 130.316 69.4982 130.263L73.4379 129.154C73.3531 129.698 73.3788 130.254 73.5137 130.788C73.7498 131.681 74.2953 132.462 75.0532 132.991Z" fill="#F97316"/>
<path d="M118.978 129.284L73.198 142.204C72.6673 142.348 72.1009 142.278 71.6215 142.008C71.142 141.739 70.7875 141.292 70.6341 140.764C70.5808 140.584 70.5553 140.397 70.5583 140.21C70.5593 139.756 70.7074 139.314 70.9808 138.951C71.2539 138.588 71.6375 138.324 72.0736 138.197L117.787 125.308C117.596 126.016 117.606 126.763 117.816 127.466C118.027 128.168 118.429 128.798 118.978 129.284Z" fill="#F97316"/>
<path d="M134.075 123.452C134.076 123.905 133.928 124.347 133.654 124.708C133.381 125.07 132.996 125.332 132.56 125.455L125.381 127.477L118.986 129.295C118.437 128.808 118.035 128.179 117.824 127.476C117.614 126.774 117.604 126.027 117.795 125.319L124.311 123.482L131.433 121.47C131.963 121.32 132.53 121.387 133.012 121.655C133.493 121.923 133.848 122.371 134 122.9C134.05 123.08 134.076 123.266 134.075 123.452Z" fill="#D7E8F0"/>
<path d="M124.182 110.58C123.944 111.412 123.438 112.142 122.744 112.658C122.05 113.174 121.205 113.448 120.34 113.436C119.475 113.424 118.638 113.128 117.958 112.593C117.278 112.059 116.793 111.315 116.578 110.477C116.447 109.976 116.417 109.454 116.488 108.941C116.56 108.428 116.731 107.935 116.994 107.488C117.256 107.042 117.604 106.652 118.017 106.34C118.43 106.028 118.901 105.8 119.402 105.671C120.039 105.505 120.707 105.501 121.346 105.66C121.984 105.819 122.572 106.135 123.057 106.58C123.598 107.077 123.989 107.716 124.188 108.423C124.386 109.131 124.384 109.88 124.182 110.586V110.58Z" fill="white"/>
<g opacity="0.72">
<path opacity="0.72" d="M122.067 108.69C122.115 109.168 122.027 109.649 121.812 110.078C121.709 110.291 121.587 110.494 121.448 110.684C121.373 110.785 120.976 111.357 120.861 111.333C120.079 111.194 118.96 110.584 118.6 109.769C118.546 109.641 118.508 109.507 118.488 109.369C118.46 109.169 118.493 108.966 118.583 108.786C118.672 108.606 118.815 108.456 118.99 108.358C119.166 108.26 119.368 108.217 119.569 108.235C119.769 108.253 119.96 108.332 120.115 108.46C120.199 108.255 120.347 108.082 120.538 107.969C120.728 107.855 120.951 107.807 121.171 107.831C121.391 107.855 121.598 107.95 121.759 108.102C121.921 108.254 122.029 108.454 122.067 108.672V108.69Z" fill="#F97316"/>
</g>
<path d="M80.9509 131.342C80.6275 132.099 80.0757 132.734 79.3726 133.161C78.6698 133.588 77.8506 133.784 77.0305 133.722C76.2108 133.66 75.4307 133.342 74.8 132.815C74.1693 132.287 73.7196 131.575 73.5138 130.778C73.379 130.245 73.3532 129.689 73.4381 129.145C73.5654 128.395 73.9066 127.697 74.4206 127.136C74.9343 126.575 75.5992 126.174 76.3353 125.981C77.0463 125.793 77.7964 125.809 78.4985 126.027C79.201 126.246 79.8272 126.659 80.3054 127.218C80.7927 127.775 81.1118 128.459 81.2261 129.191C81.3403 129.923 81.2449 130.672 80.9509 131.351V131.342Z" fill="white"/>
<g opacity="0.72">
<path opacity="0.72" d="M79.0053 128.989C79.0528 129.467 78.9637 129.948 78.7477 130.377C78.647 130.591 78.5252 130.794 78.384 130.983C78.3082 131.083 77.9112 131.656 77.7991 131.631C77.0142 131.492 75.8989 130.883 75.5383 130.065C75.4828 129.937 75.4449 129.802 75.4261 129.665C75.3982 129.465 75.4313 129.262 75.521 129.081C75.6107 128.901 75.7528 128.752 75.9289 128.654C76.1047 128.555 76.3062 128.512 76.5071 128.53C76.7078 128.549 76.8981 128.627 77.0536 128.755C77.1133 128.609 77.2063 128.477 77.3251 128.372C77.4439 128.267 77.5854 128.191 77.7385 128.149C77.877 128.117 78.0209 128.113 78.1609 128.138C78.3012 128.163 78.4349 128.216 78.5534 128.295C78.6722 128.374 78.7734 128.476 78.8513 128.595C78.9289 128.714 78.9813 128.848 79.0053 128.989Z" fill="#F97316"/>
</g>
<path d="M125.374 127.476C125.099 128.383 124.504 129.16 123.7 129.662C122.896 130.165 121.937 130.359 121.001 130.21C120.064 130.06 119.214 129.577 118.606 128.849C117.999 128.121 117.675 127.198 117.696 126.25C117.716 125.302 118.079 124.394 118.717 123.693C119.355 122.992 120.226 122.545 121.167 122.436C122.109 122.327 123.059 122.562 123.84 123.099C124.622 123.635 125.183 124.437 125.42 125.355C125.599 126.052 125.583 126.786 125.374 127.476Z" fill="white"/>
<g opacity="0.72">
<path opacity="0.72" d="M123.276 125.548C123.322 126.026 123.233 126.507 123.018 126.936C122.916 127.149 122.794 127.352 122.655 127.542C122.579 127.642 122.182 128.215 122.07 128.191C121.285 128.052 120.166 127.442 119.806 126.627C119.752 126.498 119.714 126.363 119.694 126.224C119.666 126.025 119.699 125.821 119.789 125.641C119.879 125.46 120.021 125.311 120.196 125.213C120.372 125.115 120.574 125.072 120.775 125.09C120.975 125.108 121.166 125.187 121.321 125.315C121.406 125.11 121.555 124.939 121.746 124.826C121.937 124.713 122.159 124.665 122.379 124.69C122.599 124.714 122.806 124.809 122.968 124.961C123.129 125.112 123.237 125.312 123.276 125.53V125.548Z" fill="#F97316"/>
</g>
<path d="M117.242 138.08C114.615 138.225 111.787 134.443 110.924 133.501C110.828 133.4 110.719 133.314 110.599 133.243L108.251 131.343L108.645 134.331C109.272 135.77 112.584 138.91 114.945 142.514C117.306 146.117 115.057 146.905 113.794 147.362C112.53 147.82 111.209 145.432 111.724 148.026C112.239 150.62 109.178 150.657 107.269 150.332C105.36 150.008 104.675 147.908 105.108 149.557C105.541 151.205 104.111 152.408 102.82 152.463C101.841 152.511 99.959 151.19 99.1105 150.554C98.9165 151.596 98.2164 153.554 95.7768 152.511C92.5371 151.126 89.3914 142.85 86.9881 134.379C84.5848 125.909 69.0197 110.459 66.7498 94.0998C66.7498 94.0726 66.7498 94.0331 66.7498 94.0059C66.6286 92.7694 66.5671 91.5238 66.5649 90.2692C66.5655 87.8844 66.7971 85.5054 67.2559 83.1654C67.5841 81.4629 68.0223 79.7833 68.5682 78.1377L94.2676 83.2412C94.0918 83.4352 93.916 83.6291 93.7403 83.8322C87.7245 90.8177 91.24 99.6761 95.8162 106.18C100.459 112.799 105.802 119.339 111.909 124.666C113.702 126.227 115.377 127.918 116.921 129.724L116.588 129.909C116.951 130.616 117.356 131.3 117.8 131.958C119.615 134.461 119.882 137.931 117.242 138.08Z" fill="#FBE9D8"/>
<path d="M100.874 78.4013L159.561 61.3118C162.38 60.4999 165.407 60.8375 167.978 62.2504C170.549 63.6633 172.457 66.0365 173.283 68.8519L185.888 112.15C186.7 114.969 186.364 117.995 184.953 120.567C183.542 123.139 181.171 125.049 178.357 125.879L115.811 144.086" stroke="black" stroke-width="1.38498" stroke-miterlimit="10"/>
<path d="M92.945 150.739L75.7464 155.751C72.9271 156.565 69.9001 156.228 67.3283 154.815C64.7563 153.402 62.8491 151.027 62.0239 148.211L49.4197 104.913C48.6069 102.095 48.9424 99.0706 50.3528 96.5001C51.7635 93.9292 54.1347 92.0211 56.9477 91.1935L57.3992 91.0632L57.778 90.951L65.8152 88.6084" stroke="black" stroke-width="1.38498" stroke-miterlimit="10"/>
<path d="M109.843 145.819H109.833" stroke="black" stroke-width="1.38498" stroke-miterlimit="10"/>
<path d="M97.7936 149.335H97.7837" stroke="black" stroke-width="1.38498" stroke-miterlimit="10"/>
<path d="M101.062 132.737C101.907 137.349 105.75 142.347 109.826 145.808C111.011 146.814 113.629 148.038 115.051 146.89C118.118 144.417 112.875 140.344 111.429 138.707C109.675 136.719 108.256 134.388 107.729 131.761C107.683 131.599 107.692 131.426 107.756 131.27C107.818 131.185 107.905 131.122 108.005 131.092C108.105 131.06 108.212 131.062 108.311 131.097C108.506 131.169 108.683 131.285 108.826 131.437C110.487 132.952 111.969 134.628 113.472 136.286C114.536 137.471 117.303 138.94 118.66 137.431C121.606 134.155 113.269 126.521 111.135 124.648C105.035 119.314 99.6826 112.774 95.0398 106.162C90.4636 99.6579 86.9481 90.7995 92.9638 83.814C96.1035 80.1773 100.752 78.5892 104.904 76.4405C111.602 72.9857 112.981 67.2275 112.981 67.2275" stroke="black" stroke-width="1.38498" stroke-miterlimit="10"/>
<path d="M97.1714 137.425C97.1714 137.425 100.638 147.308 108.003 150.384C108.44 150.578 108.916 150.672 109.394 150.658C109.872 150.643 110.341 150.522 110.767 150.302C111.676 149.793 112.418 148.786 111.142 146.768" stroke="black" stroke-width="1.38498" stroke-miterlimit="10"/>
<path d="M92.3687 139.734C93.7203 143.401 95.5144 147.235 98.3995 149.963C99.7148 151.202 101.382 152.43 103.248 152.508C105.497 152.602 105.673 150.335 104.764 148.793C104.567 148.462 104.331 148.157 104.061 147.884" stroke="black" stroke-width="1.38498" stroke-miterlimit="10"/>
<path d="M98.4016 149.964C98.4016 149.964 98.2379 153.903 94.9982 152.512C91.7585 151.121 88.6037 142.848 86.2095 134.374C83.8153 125.901 68.1623 110.405 65.9409 94.0068L65.9651 94.2068C65.9651 94.1704 65.9651 94.1431 65.9651 94.1068C65.5866 90.4546 65.7539 86.7661 66.4622 83.1633C73.478 47.6569 120.779 42.9595 120.779 42.9595" stroke="black" stroke-width="1.38498" stroke-miterlimit="10"/>
<path d="M190.861 117.944C189.552 121.808 186.315 124.272 182.327 124.872C180.618 125.124 178.775 125.354 177.175 124.569C176.002 123.996 174.847 122.66 175.199 121.257C174.677 121.263 174.157 121.204 173.65 121.081C172.956 120.914 172.238 120.584 171.932 119.944C171.626 119.305 171.841 118.414 172.338 117.841C172.88 117.307 173.546 116.917 174.278 116.708C174.455 116.642 174.636 116.587 174.82 116.541C174.228 116.546 173.637 116.509 173.05 116.429C171.923 116.284 170.659 115.802 170.323 114.723C170.229 114.356 170.23 113.972 170.326 113.606C170.421 113.239 170.608 112.903 170.868 112.629C171.399 112.084 172.064 111.689 172.796 111.483C172.872 111.465 172.935 111.438 173.008 111.419C171.671 111.401 170.305 111.135 169.714 109.868C169.524 109.418 169.47 108.922 169.559 108.441C169.648 107.961 169.875 107.517 170.214 107.164C171.396 105.837 173.166 105.649 174.835 105.522C176.505 105.395 178.536 105.337 180.503 105.301C180.93 105.289 181.349 105.18 181.728 104.982C182.106 104.784 182.435 104.502 182.687 104.157C182.94 103.813 183.111 103.415 183.187 102.995C183.263 102.574 183.241 102.142 183.124 101.731C182.357 99.0031 182.033 96.027 183.648 95.2997C186.058 94.2087 187.718 97.1817 188.409 99.0091C190.522 104.61 192.873 112.029 190.861 117.944Z" fill="#FBE9D8"/>
<path d="M180.7 115.693C178.752 116.109 176.779 116.533 174.803 116.551C174.619 116.597 174.438 116.653 174.26 116.718C173.529 116.927 172.862 117.317 172.321 117.851C171.824 118.424 171.584 119.272 171.915 119.954C172.245 120.636 172.939 120.924 173.633 121.091C174.14 121.214 174.66 121.273 175.182 121.267C176.248 121.245 177.31 121.112 178.348 120.87C178.524 120.833 180.676 120.585 180.843 120.545" fill="#FBE9D8"/>
<path d="M180.7 115.693C178.752 116.109 176.779 116.533 174.803 116.551C174.619 116.597 174.438 116.653 174.26 116.718C173.529 116.927 172.862 117.317 172.321 117.851C171.824 118.424 171.584 119.272 171.915 119.954C172.245 120.636 172.939 120.924 173.633 121.091C174.14 121.214 174.66 121.273 175.182 121.267C176.248 121.245 177.31 121.112 178.348 120.87C178.524 120.833 180.676 120.585 180.843 120.545" stroke="black" stroke-width="1.38498" stroke-miterlimit="10"/>
<path d="M172.987 111.429C172.915 111.447 172.851 111.475 172.775 111.493C172.043 111.698 171.378 112.093 170.848 112.638C170.587 112.913 170.401 113.249 170.305 113.615C170.21 113.981 170.209 114.366 170.302 114.733C170.654 115.811 171.918 116.293 173.03 116.439C173.616 116.518 174.208 116.556 174.8 116.551" stroke="black" stroke-width="1.38498" stroke-miterlimit="10"/>
<path d="M182.336 111.226C182.187 111.226 182.048 111.226 181.902 111.226L174.859 111.384C174.308 111.384 173.647 111.438 172.986 111.42C171.65 111.402 170.283 111.135 169.692 109.869C169.502 109.418 169.449 108.922 169.537 108.442C169.626 107.962 169.854 107.518 170.192 107.165C171.374 105.838 173.144 105.65 174.814 105.523C176.484 105.395 178.517 105.344 180.484 105.301C180.913 105.292 181.334 105.184 181.714 104.986C182.094 104.788 182.424 104.505 182.678 104.16C182.933 103.815 183.104 103.415 183.18 102.993C183.255 102.571 183.233 102.137 183.115 101.725C182.348 98.9978 182.018 96.0187 183.636 95.2914C186.045 94.2004 187.706 97.1734 188.397 99.0008C190.518 104.601 192.873 112.032 190.861 117.936C189.549 121.8 186.315 124.27 182.33 124.864C180.624 125.118 178.775 125.349 177.178 124.561C176.011 123.991 174.853 122.658 175.202 121.254" fill="#FBE9D8"/>
<path d="M182.336 111.226C182.187 111.226 182.048 111.226 181.902 111.226L174.859 111.384C174.308 111.384 173.647 111.438 172.986 111.42C171.65 111.402 170.283 111.135 169.692 109.869C169.502 109.418 169.449 108.922 169.537 108.442C169.626 107.962 169.854 107.518 170.192 107.165C171.374 105.838 173.144 105.65 174.814 105.523C176.484 105.395 178.517 105.344 180.484 105.301C180.913 105.292 181.334 105.184 181.714 104.986C182.094 104.788 182.424 104.505 182.678 104.16C182.933 103.815 183.104 103.415 183.18 102.993C183.255 102.571 183.233 102.137 183.115 101.725C182.348 98.9978 182.018 96.0187 183.636 95.2914C186.045 94.2004 187.706 97.1734 188.397 99.0008C190.518 104.601 192.873 112.032 190.861 117.936C189.549 121.8 186.315 124.27 182.33 124.864C180.624 125.118 178.775 125.349 177.178 124.561C176.011 123.991 174.853 122.658 175.202 121.254" stroke="black" stroke-width="1.38498" stroke-miterlimit="10"/>
<g opacity="0.54">
<path opacity="0.54" d="M126.522 95.3494C126.469 94.9993 126.389 94.6539 126.283 94.3159L125.092 90.4641C124.728 89.2852 124.325 88.0396 123.398 87.2274C121.679 85.7121 119.03 86.2788 116.833 86.9395L111.442 88.5578C110.202 88.9306 108.945 89.3124 107.863 90.0186C106.781 90.7247 105.878 91.8218 105.708 93.1037C105.581 94.0493 105.86 94.9948 106.135 95.91L107.245 99.6074C107.611 100.82 108.017 102.099 108.972 102.941C110.672 104.42 113.269 103.865 115.433 103.226L120.949 101.598C124.276 100.604 127.059 98.8255 126.522 95.3494Z" fill="white"/>
<path opacity="0.54" d="M118.958 95.8001C119.18 95.5661 119.337 95.2767 119.41 94.9624C119.484 94.6479 119.473 94.3193 119.377 94.0105C119.282 93.702 119.106 93.4244 118.868 93.2062C118.629 92.988 118.337 92.8374 118.021 92.7695L116.312 92.3816L114.606 91.9937C114.292 91.9179 113.964 91.927 113.654 92.0203C113.345 92.1137 113.066 92.2876 112.846 92.5243C112.627 92.761 112.474 93.0519 112.404 93.3671C112.334 93.6826 112.349 94.0108 112.448 94.3181L112.966 95.991L113.482 97.6639C113.573 97.9742 113.745 98.2546 113.981 98.4761C114.216 98.6976 114.507 98.8522 114.822 98.9243C115.137 98.9962 115.466 98.9828 115.774 98.8855C116.083 98.788 116.359 98.6101 116.576 98.37L117.767 97.0851L118.958 95.8001Z" fill="#F97316"/>
</g>
<path d="M241.025 223.688H226.166" stroke="#CCDDE2" stroke-width="1.38498" stroke-miterlimit="10"/>
<path d="M223.634 130.788C232.721 130.788 240.087 123.422 240.087 114.335C240.087 105.248 232.721 97.8818 223.634 97.8818C214.547 97.8818 207.181 105.248 207.181 114.335C207.181 123.422 214.547 130.788 223.634 130.788Z" fill="#F97316"/>
<path d="M220.972 121.711C220.78 121.711 220.591 121.673 220.414 121.6C220.237 121.527 220.076 121.419 219.941 121.284L215.698 117.041C215.425 116.768 215.271 116.398 215.271 116.011C215.271 115.625 215.424 115.255 215.697 114.982C215.97 114.708 216.34 114.555 216.726 114.554C217.112 114.554 217.483 114.707 217.756 114.98L220.981 118.205L229.524 109.655C229.797 109.382 230.167 109.228 230.553 109.228C230.939 109.228 231.31 109.381 231.583 109.654C231.857 109.927 232.01 110.297 232.01 110.683C232.011 111.069 231.858 111.44 231.585 111.713L221.999 121.299C221.724 121.566 221.355 121.715 220.972 121.711Z" fill="white"/>
</svg>
