<svg width="270" height="280" viewBox="0 0 270 280" fill="none" xmlns="http://www.w3.org/2000/svg">
<path d="M180.336 48.9166C182.244 47.686 184.46 47.0198 186.729 46.9941C187.122 46.9941 187.506 47.0158 187.884 47.0498C187.723 46.3749 187.522 45.5824 187.265 44.7218C186.451 44.3137 185.744 43.7215 185.2 42.9924C184.655 42.263 184.289 41.4166 184.129 40.5207C183.837 40.5711 183.542 40.5971 183.246 40.5981C182.192 40.6015 181.16 40.2981 180.274 39.725C180.057 39.678 179.843 39.6179 179.634 39.5455C179.357 39.5944 179.076 39.6204 178.795 39.6229C177.363 39.6309 175.986 39.0749 174.962 38.075L172.278 39.0037C172.278 39.0037 179.163 42.4773 180.336 48.9166Z" fill="#F97316"/>
<path d="M181.139 250.54C181.137 255.477 179.175 260.212 175.684 263.704C172.193 267.196 167.458 269.159 162.52 269.161H73.8859C68.9477 269.159 64.2123 267.197 60.7202 263.705C57.2284 260.213 55.2659 255.478 55.2643 250.54V57.1261C55.2628 54.6794 55.7433 52.2563 56.6782 49.9954C57.6132 47.7348 58.9846 45.6801 60.714 43.9495C62.4433 42.2186 64.4965 40.8456 66.7568 39.9088C69.0168 38.9717 71.4393 38.4893 73.8859 38.489H85.7307C87.8622 38.4896 89.9064 39.3357 91.4147 40.8419C92.7976 42.2158 93.6263 44.0504 93.7427 45.9965C93.7601 46.1578 93.7684 46.32 93.7675 46.4825C93.7675 46.6218 93.7675 46.7581 93.7675 46.8943C93.8251 48.0747 94.131 49.2298 94.6653 50.2842C94.6808 50.309 94.6901 50.3431 94.7056 50.3678C95.3529 51.6365 96.3395 52.7006 97.5556 53.4423C98.7716 54.1841 100.169 54.5739 101.594 54.5689H134.586C135.644 54.5705 136.691 54.363 137.668 53.9587C138.645 53.5544 139.533 52.9612 140.28 52.213C140.851 51.6424 141.328 50.9851 141.694 50.2657C141.71 50.2524 141.722 50.2353 141.729 50.2161C142.272 49.1846 142.576 48.0438 142.617 46.8788C142.617 46.7766 142.617 46.6838 142.617 46.5692C142.642 42.139 146.022 38.4797 150.459 38.4797H160.462L170.987 38.3497C171.201 36.3374 172.059 34.2198 172.944 32.3499C173.239 31.7026 173.588 31.0813 173.987 30.4924H74.6444C71.4371 30.4918 68.2611 31.1234 65.2977 32.3506C62.3344 33.5778 59.6416 35.3768 57.3735 37.6448C55.1058 39.9128 53.3068 42.6053 52.0796 45.5686C50.8521 48.532 50.2209 51.708 50.2212 54.9156V254.843C50.2203 258.05 50.8515 261.227 52.0787 264.19C53.3056 267.154 55.1046 269.846 57.3729 272.114C59.641 274.382 62.3334 276.181 65.2971 277.409C68.2607 278.636 71.4368 279.267 74.6444 279.266H164.455C167.663 279.266 170.839 278.635 173.803 277.408C176.766 276.181 179.459 274.382 181.727 272.114C183.995 269.846 185.795 267.153 187.022 264.19C188.25 261.227 188.881 258.051 188.881 254.843V241.076L181.142 245.487L181.139 250.54Z" fill="#F97316"/>
<path d="M183.838 97.2832C182.909 96.3266 182.011 97.8126 181.138 96.7971V170.364C181.684 168.355 182.357 166.383 183.154 164.46C183.333 164.039 183.513 163.615 183.698 163.197C184.092 162.333 184.503 161.482 184.937 160.637C185.054 160.395 185.175 160.166 185.302 159.937C185.429 159.708 185.584 159.414 185.729 159.166C185.977 158.714 186.243 158.262 186.516 157.82C186.701 157.485 186.909 157.163 187.113 156.838C187.265 156.581 187.423 156.334 187.59 156.095C187.77 155.804 187.965 155.516 188.153 155.235C188.386 154.885 188.63 154.535 188.872 154.191V101.788C187.943 101.063 187.014 100.302 186.141 99.5184C185.345 98.8001 184.578 98.0571 183.838 97.2832Z" fill="#F97316"/>
<path d="M188.141 46.1482C187.07 47.498 185.742 46.3649 184.015 46.3649C182.442 46.3649 181.538 48.9097 180.541 47.885C180.597 48.0212 180.036 50.0521 180.083 50.1883C180.235 50.5969 180.371 51.0242 180.491 51.4514V51.4669C180.646 52.0148 180.764 52.5597 180.866 53.1232C180.891 53.2501 180.919 53.3894 180.934 53.5256C180.978 53.8135 181.021 54.1138 181.046 54.411C181.079 54.6866 181.099 54.9633 181.104 55.2407C181.132 55.5503 181.138 55.8878 181.138 56.2221V77.8931C181.391 78.1042 181.602 78.3615 181.758 78.6516C182.996 80.9116 184.182 79.2181 185.507 81.4379C186.213 82.5833 187.674 83.478 188.423 82.6483C188.699 82.3388 188.869 81.0137 188.869 80.5184V54.3336C188.869 53.0903 188.776 51.8486 188.593 50.6186C188.538 50.1511 188.24 46.6219 188.141 46.1482Z" fill="#F97316"/>
<path d="M93.7769 46.0588C94.3375 47.1018 94.6449 48.2619 94.6747 49.4457C94.1406 48.3925 93.8347 47.2384 93.7769 46.0588Z" fill="#F97316"/>
<path d="M142.617 46.0393C142.576 47.2046 142.272 48.3454 141.729 49.3766C141.788 48.2145 142.091 47.0777 142.617 46.0393Z" fill="#F97316"/>
<path d="M261.136 140.497C231.558 149.732 216.268 127.114 216.268 127.114C217.385 125.458 215.695 122.343 215.695 122.343L214.667 117.08C201.599 116.439 189.776 103.703 189.776 103.703C206.683 100.706 199.395 90.5797 199.395 90.5797L211.051 99.7063L212.314 99.5948C212.469 83.806 222.41 76.4316 225.524 73.9333C228.639 71.4349 229.171 73.9147 229.171 73.9147C229.171 73.9147 227.803 78.9672 233.642 79.6668C239.48 80.3665 243.756 74.8961 243.756 74.8961C245.759 70.4071 248.065 73.1903 248.065 73.1903C258.074 78.5152 259.885 91.6911 262.034 100.898C263.517 107.208 266.34 120.805 268.225 127.43C268.885 129.722 268.753 132.171 267.851 134.38C267.249 135.83 266.336 137.13 265.175 138.187C264.015 139.244 262.635 140.033 261.136 140.497Z" fill="#353642"/>
<path d="M261.136 140.497C231.558 149.732 216.268 127.114 216.268 127.114C217.385 125.458 215.695 122.343 215.695 122.343L214.667 117.08C201.599 116.439 189.776 103.703 189.776 103.703C200.977 98.1026 199.395 90.5797 199.395 90.5797L211.051 99.7063L212.314 99.5948C212.469 83.806 222.41 76.4316 225.524 73.9333C228.639 71.4349 229.171 73.9147 229.171 73.9147C229.171 73.9147 227.803 78.9672 233.642 79.6668C239.48 80.3665 243.756 74.8961 243.756 74.8961C245.759 70.4071 248.065 73.1903 248.065 73.1903C258.074 78.5152 259.885 91.6911 262.034 100.898C263.517 107.208 266.34 120.805 268.225 127.43C268.885 129.722 268.753 132.171 267.851 134.38C267.249 135.83 266.336 137.13 265.175 138.187C264.015 139.244 262.635 140.033 261.136 140.497Z" fill="#353642"/>
<path d="M226.273 60.7677C228.121 60.7677 229.62 59.2693 229.62 57.4211C229.62 55.5725 228.121 54.0745 226.273 54.0745C224.425 54.0745 222.926 55.5725 222.926 57.4211C222.926 59.2693 224.425 60.7677 226.273 60.7677Z" fill="#D7E8F0"/>
<path d="M230.833 64.1599C230.542 66.3022 228.725 67.7016 226.83 67.392" stroke="black" stroke-width="1.27859" stroke-miterlimit="10"/>
<path d="M208.401 45.4979C208.719 46.9542 209.486 48.2737 210.595 49.2706C211.703 50.2677 213.095 50.8919 214.577 51.055C214.713 50.4597 214.991 49.9061 215.388 49.4421C217.079 47.5195 217.719 51.1974 223.069 48.6743C230.499 45.1667 233.233 47.3152 233.233 47.3152C233.474 47.5041 233.412 49.1944 233.44 49.4823C233.601 51.2315 233.75 52.9744 233.932 54.7236C234.038 55.7886 234.14 56.8474 234.242 57.9061C234.346 57.7297 234.459 57.5591 234.583 57.3953C235.301 55.0394 237.298 52.281 239.845 53.5379C240.363 53.8017 240.811 54.1846 241.152 54.6555C242.814 56.934 241.462 59.0764 239.657 60.646C239.198 61.1351 238.689 61.5732 238.137 61.9524C238.418 62.5716 239.573 65.0049 239.573 65.0142C239.691 65.2619 243.985 60.5933 244.307 60.0825C244.8 58.8234 245.078 57.4901 245.127 56.1384C245.307 50.5844 243.174 44.0646 238.734 40.7953C237.635 39.9842 237.251 39.2165 237.186 38.1422C237.183 38.0843 237.162 38.0289 237.126 37.9831C237.09 37.9372 237.042 37.9032 236.987 37.8855C236.932 37.8679 236.872 37.8673 236.817 37.8837C236.761 37.9001 236.712 37.9332 236.675 37.9781C235.233 39.5756 231.744 39.3434 231.744 39.3434C219.67 36.068 215.503 41.3743 213.045 42.2814C212.044 42.6389 210.95 42.6389 209.949 42.2814C209.883 42.6148 209.728 42.9237 209.499 43.1748C209.271 43.4259 208.977 43.6095 208.652 43.7054L208.704 44.2689C208.749 44.7014 208.641 45.1357 208.401 45.4979Z" fill="#F97316"/>
<path d="M234.307 68.2494C233.511 68.8686 231.288 70.6518 230.4 71.1812C229.748 71.575 229.063 71.9115 228.354 72.1873C223.01 74.2027 218.001 69.6209 216.165 65.0359C214.654 61.2559 214.308 57.0331 214.416 52.9961C214.435 52.5782 214.45 52.151 214.484 51.7237C214.48 51.698 214.48 51.6717 214.484 51.6463C214.501 51.4516 214.529 51.2581 214.571 51.0674C214.706 50.4715 214.984 49.9176 215.382 49.4545C217.069 47.535 217.71 51.2129 223.06 48.6867C230.49 45.1791 233.226 47.3276 233.226 47.3276C233.465 47.5165 233.403 49.2068 233.431 49.4947C233.592 51.247 233.74 52.9868 233.926 54.736C234.028 55.8041 234.13 56.8598 234.236 57.9185C234.261 58.2096 234.288 58.4913 234.313 58.7792C234.351 58.3108 234.439 57.8476 234.576 57.3984C235.295 55.0425 237.291 52.2872 239.839 53.541C240.357 53.8048 240.805 54.1877 241.146 54.6586C242.808 56.9372 241.455 59.0795 239.65 60.6491C239.192 61.042 238.708 61.4039 238.202 61.7326L238.065 61.8193L238.133 61.9555C238.415 62.5747 239.567 65.0111 239.567 65.0173C239.684 65.265 243.978 60.5996 244.303 60.0856C245.422 58.3594 246.123 56.3963 246.35 54.3521C246.378 54.0952 246.393 53.8475 246.402 53.5905C246.582 48.0366 244.449 41.5167 240.01 38.2475C238.907 37.4364 238.524 36.6686 238.462 35.5943C238.458 35.5364 238.437 35.481 238.402 35.4352C238.366 35.3894 238.317 35.3553 238.262 35.3377C238.207 35.3197 238.148 35.3191 238.092 35.3358C238.037 35.3522 237.987 35.385 237.951 35.4302C236.508 37.0277 233.016 36.7955 233.016 36.7955C220.958 33.5201 216.775 38.8264 214.32 39.7335C211.865 40.6406 209.71 38.9657 209.71 38.9657L209.967 41.7117C209.984 41.9 209.973 42.09 209.933 42.2752C209.868 42.6083 209.713 42.9173 209.484 43.1683C209.255 43.4194 208.962 43.603 208.636 43.6993C208.513 43.7442 208.383 43.7702 208.252 43.7767H208.156C208.18 44.3485 208.254 44.9175 208.379 45.4763C208.698 46.9348 209.468 48.2558 210.579 49.2529C211.69 50.2504 213.086 50.873 214.571 51.0334" stroke="black" stroke-width="1.27859" stroke-miterlimit="10"/>
<path d="M216.27 60.4386C218.118 60.4386 219.617 58.9402 219.617 57.092C219.617 55.2438 218.118 53.7454 216.27 53.7454C214.422 53.7454 212.923 55.2438 212.923 57.092C212.923 58.9402 214.422 60.4386 216.27 60.4386Z" fill="#D7E8F0"/>
<path d="M227.669 58.671C227.671 58.9431 227.592 59.2099 227.442 59.4372C227.292 59.6644 227.078 59.8421 226.827 59.9474C226.576 60.0529 226.299 60.0814 226.032 60.0294C225.765 59.9774 225.519 59.8474 225.326 59.6554C225.133 59.4635 225.001 59.2186 224.947 58.9517C224.893 58.6849 224.92 58.4081 225.024 58.1564C225.127 57.9047 225.303 57.6896 225.53 57.5379C225.756 57.3865 226.022 57.3057 226.294 57.3057C226.428 57.3029 226.561 57.3227 226.688 57.3645C226.622 57.4273 226.569 57.5026 226.532 57.5862C226.495 57.6694 226.476 57.7595 226.474 57.8506C226.476 58.0261 226.546 58.1936 226.671 58.3171C226.796 58.4406 226.964 58.51 227.14 58.51C227.228 58.5097 227.315 58.4911 227.397 58.4552C227.477 58.4196 227.55 58.3676 227.61 58.3025C227.65 58.4211 227.67 58.5456 227.669 58.671Z" fill="black"/>
<path d="M217.939 58.2221C217.938 58.4926 217.857 58.7567 217.707 58.9812C217.556 59.2059 217.343 59.3808 217.093 59.4839C216.843 59.587 216.568 59.614 216.303 59.561C216.038 59.5081 215.794 59.3777 215.603 59.1867C215.412 58.9954 215.281 58.7521 215.228 58.4868C215.176 58.2218 215.202 57.9468 215.306 57.697C215.409 57.4469 215.584 57.2332 215.808 57.0825C216.033 56.932 216.297 56.8512 216.567 56.8506C216.746 56.8497 216.923 56.8843 217.087 56.9528C216.994 57.015 216.917 57.0986 216.863 57.1967C216.809 57.2945 216.78 57.4045 216.778 57.5162C216.778 57.6032 216.796 57.689 216.83 57.7691C216.863 57.8493 216.913 57.9218 216.974 57.9828C217.036 58.0437 217.109 58.092 217.19 58.1245C217.27 58.1571 217.357 58.1735 217.444 58.1725C217.529 58.1738 217.614 58.1577 217.693 58.1252C217.773 58.0927 217.844 58.0447 217.905 57.9837C217.926 58.0617 217.937 58.1416 217.939 58.2221Z" fill="black"/>
<path d="M221.335 57.3669C221.335 57.3669 220.477 61.1779 220.375 61.5618C220.066 62.8002 222.524 62.4163 222.524 62.4163" stroke="black" stroke-width="1.27859" stroke-miterlimit="10"/>
<path d="M224.48 50.1734C224.48 50.1734 228.521 48.6595 230.768 51.6934" stroke="black" stroke-width="1.27859" stroke-miterlimit="10"/>
<path d="M211.05 53.2039C211.05 53.2039 213.131 49.4239 216.809 50.2629" stroke="black" stroke-width="1.27859" stroke-miterlimit="10"/>
<path d="M226.273 61.3741C228.456 61.3741 230.226 59.6039 230.226 57.4207C230.226 55.2372 228.456 53.4673 226.273 53.4673C224.089 53.4673 222.319 55.2372 222.319 57.4207C222.319 59.6039 224.089 61.3741 226.273 61.3741Z" stroke="black" stroke-width="1.27859" stroke-miterlimit="10"/>
<path d="M216.27 61.045C218.454 61.045 220.224 59.2751 220.224 57.0916C220.224 54.9081 218.454 53.1382 216.27 53.1382C214.087 53.1382 212.317 54.9081 212.317 57.0916C212.317 59.2751 214.087 61.045 216.27 61.045Z" stroke="black" stroke-width="1.27859" stroke-miterlimit="10"/>
<path d="M216.267 54.4047H216.357C217.069 54.4162 217.747 54.71 218.243 55.2214C218.738 55.7331 219.009 56.4204 218.998 57.1322C218.987 57.8442 218.693 58.5222 218.181 59.0175C217.67 59.5126 216.982 59.7844 216.271 59.7729H216.187C215.475 59.7615 214.797 59.4677 214.302 58.9562C213.807 58.4448 213.535 57.7575 213.546 57.0455C213.558 56.3337 213.851 55.6554 214.363 55.1601C214.875 54.6651 215.562 54.3933 216.274 54.4047H216.267ZM216.274 53.7639C215.392 53.7496 214.54 54.0861 213.907 54.6994C213.273 55.3127 212.909 56.1529 212.894 57.0346C212.88 57.9163 213.217 58.768 213.83 59.4017C214.443 60.0354 215.284 60.3995 216.165 60.4138H216.277C217.158 60.428 218.01 60.0915 218.644 59.4782C219.278 58.8649 219.642 58.025 219.656 57.143C219.67 56.2613 219.334 55.4096 218.72 54.7759C218.107 54.1425 217.267 53.7781 216.385 53.7639H216.274Z" fill="white"/>
<path d="M222.32 57.2903L220.221 57.2222" stroke="black" stroke-width="1.27859" stroke-miterlimit="10"/>
<path d="M225.286 198.926L221.088 224.64L216.54 223.959C215.555 223.804 214.671 223.267 214.078 222.466C213.486 221.664 213.232 220.661 213.373 219.674L213.71 216.916L216.806 194.223C221.846 197.177 225.286 198.926 225.286 198.926Z" fill="#F97316"/>
<path d="M204.515 232.16L188.881 241.138L181.142 245.593L178.77 246.958C178.775 246.913 178.775 246.867 178.77 246.822L176.913 247.881L174.523 243.289C173.964 242.229 173.846 240.992 174.193 239.846C174.54 238.699 175.325 237.735 176.377 237.163L203.466 222.331L203.491 222.578L204.515 232.16Z" fill="#F97316"/>
<path d="M181.653 168.614C181.483 168.385 181.312 168.162 181.139 167.967C180.158 166.788 179.195 165.995 178.545 164.655C178.026 163.563 177.877 162.333 178.119 161.149C178.36 159.965 178.98 158.892 179.885 158.091C180.259 157.769 180.676 157.499 181.123 157.29" stroke="black" stroke-width="1.27859" stroke-miterlimit="10"/>
<path d="M214.62 209.861L213.71 216.91L213.36 219.668C213.219 220.655 213.473 221.658 214.065 222.46C214.658 223.262 215.542 223.798 216.527 223.953L221.075 224.634L225.273 198.92C225.273 198.92 221.833 197.171 216.8 194.211C213.199 192.093 208.75 189.354 204.187 186.196" stroke="black" stroke-width="1.27859" stroke-miterlimit="10"/>
<path d="M213.846 215.95C213.846 215.95 208.936 213.303 202.701 209.492" stroke="black" stroke-width="1.27859" stroke-miterlimit="10"/>
<g opacity="0.68">
<path opacity="0.68" d="M181.139 97.1893V170.363C179.783 175.372 179.136 180.579 178.792 185.817V97.375C179.554 98.3657 180.337 96.2419 181.139 97.1893Z" fill="#D7E8F0"/>
<path opacity="0.68" d="M181.139 245.488V249.695C181.137 254.633 179.175 259.368 175.684 262.859C172.192 266.351 167.458 268.314 162.52 268.317H73.8857C68.9475 268.315 64.2121 266.353 60.72 262.861C57.2282 259.369 55.2657 254.633 55.2642 249.695V56.2813C55.2626 53.8347 55.7431 51.4119 56.678 49.151C57.613 46.8901 58.9845 44.8357 60.7138 43.1048C62.4431 41.3742 64.4963 40.0012 66.7566 39.064C69.0166 38.1272 71.4391 37.6449 73.8857 37.6443H85.7305C86.2741 37.6458 86.8162 37.6997 87.3496 37.8053C87.7063 37.8802 88.058 37.9774 88.4022 38.0963C88.5539 38.1551 88.7118 38.2139 88.8542 38.2758C89.0957 38.3761 89.3313 38.4898 89.5601 38.6164C89.8353 38.765 90.1009 38.9303 90.3557 39.1117C90.526 39.2294 90.687 39.3501 90.8417 39.477C90.9965 39.604 91.2349 39.8207 91.4145 39.9971L92.6528 41.5946C92.7664 41.785 92.8698 41.9816 92.9624 42.1828L93.4144 43.3252C93.4763 43.5326 93.5351 43.7369 93.5785 43.9444L93.6899 44.5914C93.7054 44.6781 93.7147 44.7709 93.724 44.8576C93.7271 44.9 93.7271 44.9425 93.724 44.9846C93.7426 45.1889 93.758 45.387 93.758 45.6037V45.6873C93.758 45.8173 93.758 45.935 93.758 46.0557C93.75 46.0362 93.7385 46.0186 93.724 46.0031C93.3748 45.3409 92.9259 44.7363 92.3928 44.2106C90.9424 42.7589 88.9746 41.9426 86.9224 41.9413H75.5327C73.1768 41.9426 70.8441 42.4082 68.668 43.3112C66.4919 44.2146 64.5152 45.5378 62.8506 47.2055C61.1862 48.873 59.8668 50.8521 58.9677 53.0301C58.0687 55.2077 57.6074 57.5414 57.6108 59.8973V246.094C57.6108 250.848 59.4987 255.408 62.8595 258.77C66.2201 262.133 70.7787 264.023 75.5327 264.026H160.873C165.475 264.025 169.9 262.254 173.231 259.079C176.562 255.904 178.545 251.57 178.767 246.974C178.772 246.928 178.772 246.883 178.767 246.837L181.139 245.488Z" fill="#D7E8F0"/>
<path opacity="0.68" d="M141.728 49.3774C141.728 49.4951 141.728 49.6065 141.728 49.7273C141.717 51.7724 140.897 53.7299 139.446 55.172C137.996 56.614 136.034 57.4236 133.989 57.4236H102.216C97.9344 57.4236 94.6992 53.9253 94.6807 49.6406C94.6807 49.5725 94.6807 49.5137 94.6807 49.4456C95.32 50.7356 96.3078 51.821 97.5326 52.5782C98.757 53.3355 100.169 53.7346 101.609 53.7302H134.586C135.643 53.7318 136.691 53.5243 137.668 53.12C138.645 52.7157 139.533 52.1225 140.28 51.3743C140.864 50.7885 141.353 50.1146 141.728 49.3774Z" fill="#D7E8F0"/>
</g>
<path d="M188.881 128.786C199.893 126.547 210.583 124.235 216.267 124.312" stroke="black" stroke-width="1.27859" stroke-miterlimit="10"/>
<path d="M178.47 192.582C161.777 179.13 146.629 161.877 153.14 146.847C157.056 137.785 168.647 132.847 181.139 130.169" stroke="black" stroke-width="1.27859" stroke-miterlimit="10"/>
<path d="M214.747 117.681C215.02 118.662 216.267 124.315 216.574 125.337C217.707 129.024 203.286 138.779 200.844 140.971C196.46 144.881 192.312 149.283 188.881 154.19C186.6 157.392 184.68 160.836 183.154 164.459C182.358 166.382 181.684 168.354 181.139 170.363C179.783 175.372 179.136 180.579 178.792 185.818C178.52 189.786 178.417 193.771 178.306 197.662C178.077 205.13 178.195 212.64 178.684 220.083C178.718 220.553 178.752 221.011 178.792 221.482C179.178 225.902 179.926 230.283 181.03 234.58V234.608" stroke="black" stroke-width="1.27859" stroke-miterlimit="10"/>
<path d="M212.614 100.239C213.081 85.7412 219.663 78.0016 225.523 73.9243C226.664 73.143 227.887 72.4897 229.17 71.9771" stroke="black" stroke-width="1.27859" stroke-miterlimit="10"/>
<path d="M245.257 71.8813C245.529 71.9835 245.792 72.095 246.059 72.2064L246.35 72.3333C246.992 72.6135 247.619 72.9299 248.226 73.2807C250.321 74.4747 252.15 76.0834 253.603 78.008C253.659 78.0625 253.705 78.1266 253.739 78.1969C253.993 78.556 254.241 78.9213 254.482 79.299C256.625 82.7045 258.622 87.3018 260.148 92.6112C260.935 95.3352 261.564 98.1023 262.033 100.899" stroke="black" stroke-width="1.27859" stroke-miterlimit="10"/>
<path d="M262.394 101.265C263.877 107.574 266.704 121.174 268.586 127.796C269.246 130.09 269.114 132.54 268.211 134.749C267.61 136.2 266.696 137.499 265.536 138.556C264.375 139.614 262.996 140.402 261.496 140.867L255.896 142.223C255.31 142.367 254.793 142.711 254.432 143.195C253.161 144.874 251.751 146.444 250.218 147.888C225.99 170.699 196.836 147.086 203.827 222.706L203.851 222.953C204.134 225.981 204.476 229.173 204.876 232.529L189.242 241.445L181.503 245.857L179.14 247.206L177.283 248.265L174.893 243.674C174.329 242.614 174.207 241.373 174.552 240.223C174.898 239.073 175.683 238.106 176.738 237.532L179.153 236.191L181.391 234.953L181.499 234.894L189.239 230.61L190.886 229.681" stroke="black" stroke-width="1.27859" stroke-miterlimit="10"/>
<path d="M188.885 241.076V253.995C188.884 260.474 186.309 266.688 181.727 271.269C177.145 275.851 170.931 278.424 164.452 278.424H71.9511C68.7428 278.425 65.5655 277.793 62.6013 276.566C59.637 275.338 56.9436 273.539 54.6749 271.27C52.406 269.002 50.6064 266.308 49.3785 263.345C48.1504 260.38 47.5186 257.203 47.5186 253.995V52.687C47.5186 49.4784 48.1504 46.3018 49.3785 43.3375C50.6064 40.3735 52.406 37.6801 54.6749 35.4118C56.9436 33.1431 59.637 31.3438 62.6013 30.1163C65.5655 28.8888 68.7428 28.2573 71.9511 28.2576H175.69" stroke="black" stroke-width="1.27859" stroke-miterlimit="10"/>
<path d="M188.881 52.6865C188.883 51.0101 188.714 49.338 188.377 47.696C188.377 47.696 187.925 44.9623 187.491 44.2039" stroke="black" stroke-width="1.27859" stroke-miterlimit="10"/>
<path d="M188.881 154.182V128.793V102.314" stroke="black" stroke-width="1.27859" stroke-miterlimit="10"/>
<path d="M188.881 52.6897V67.0142V84.026" stroke="black" stroke-width="1.27859" stroke-miterlimit="10"/>
<path d="M213.71 91.6571V91.6354C211.065 90.4494 208.571 88.9516 206.28 87.1743C196.721 79.8198 190.451 68.9886 188.835 57.0361C188.794 56.7411 188.757 56.4439 188.724 56.1445" stroke="black" stroke-width="1.27859" stroke-miterlimit="10"/>
<path d="M181.145 163.243V97.1646" stroke="black" stroke-width="1.27859" stroke-miterlimit="10"/>
<path d="M181.145 78.5997V56.2848C181.145 52.2199 180.789 47.4028 178.6 44.3348C178.6 44.3348 173.291 37.6384 167.894 37.6384H150.675" stroke="black" stroke-width="1.27859" stroke-miterlimit="10"/>
<path d="M157.614 37.6384H150.676C148.541 37.6384 146.494 38.4864 144.984 39.9959C143.474 41.5055 142.626 43.5528 142.626 45.6877C142.626 47.8222 141.779 49.8698 140.269 51.3791C138.759 52.8886 136.712 53.7369 134.577 53.7369H101.817C99.682 53.7369 97.6347 52.8886 96.1252 51.3791C94.6156 49.8698 93.7677 47.8222 93.7677 45.6877C93.7677 43.5528 92.9197 41.5055 91.4102 39.9959C89.9006 38.4864 87.8533 37.6384 85.7184 37.6384H73.8861C68.9435 37.6415 64.2044 39.6077 60.7113 43.1045C57.218 46.6012 55.2568 51.3422 55.2583 56.2848V249.695C55.2608 254.634 57.2242 259.371 60.7172 262.863C64.21 266.356 68.9466 268.318 73.8861 268.32H162.517C167.457 268.318 172.193 266.356 175.686 262.863C179.179 259.371 181.143 254.634 181.145 249.695V245.491" stroke="black" stroke-width="1.27859" stroke-miterlimit="10"/>
<path d="M186.977 29.4065C190.348 30.8492 193.497 35.6199 195.026 38.8117C197.862 44.7341 200.336 49.2664 203.695 54.9102C206.571 59.749 209.208 64.9903 213.731 68.5319C216.125 70.4334 219.04 71.5637 222.09 71.7733" stroke="black" stroke-width="1.27859" stroke-miterlimit="10"/>
<path d="M95.4483 37.6437C95.4455 44.3295 93.6316 50.8896 90.1995 56.6275C86.7675 62.365 81.8451 67.0658 75.9558 70.2304C70.0663 73.3949 63.4297 74.9054 56.7507 74.6005C50.0717 74.2958 43.6001 72.1876 38.0232 68.5001C30.796 62.418 26.1683 53.8022 25.0887 44.418C24.0092 35.0339 26.5593 25.5924 32.2166 18.028C37.874 10.4636 46.2102 5.34929 55.5167 3.73304C64.8234 2.11681 74.3958 4.12107 82.2723 9.33508C86.4037 12.8043 89.7243 17.1367 92.0007 22.0276C94.2771 26.9184 95.4538 32.2488 95.4483 37.6437Z" fill="#F97316"/>
<path d="M91.4238 37.7901C91.4223 43.7118 89.8165 49.5224 86.7773 54.6049C83.738 59.6874 79.3785 63.8513 74.1626 66.6546C68.9464 69.4582 63.0679 70.7959 57.1524 70.5263C51.2368 70.2566 45.5045 68.3895 40.5651 65.1234C34.1802 59.7319 30.0958 52.1056 29.1467 43.8028C28.1978 35.5004 30.4559 27.149 35.4597 20.4557C40.4632 13.7628 47.8345 9.23379 56.0664 7.79471C64.2979 6.3556 72.7685 8.11516 79.7463 12.7136C83.4065 15.7866 86.3488 19.6242 88.3664 23.9565C90.3836 28.2892 91.4275 33.011 91.4238 37.7901Z" fill="#F97316"/>
<path d="M131.259 118.313L104.287 122.378C103.633 122.546 102.949 122.561 102.288 122.424C101.627 122.287 101.006 122 100.472 121.586C99.9387 121.172 99.5072 120.642 99.21 120.035C98.9128 119.429 98.7583 118.762 98.7583 118.087L101.579 94.9116H141.803C142.132 94.9116 142.446 95.042 142.679 95.2742C142.911 95.5063 143.041 95.8215 143.041 96.15L139.193 110.67C138.646 112.522 137.627 114.2 136.236 115.54C134.845 116.88 133.13 117.836 131.259 118.313Z" fill="#D7E8F0"/>
<path d="M108.234 136.29C110.773 136.29 112.831 134.231 112.831 131.693C112.831 129.153 110.773 127.095 108.234 127.095C105.695 127.095 103.637 129.153 103.637 131.693C103.637 134.231 105.695 136.29 108.234 136.29Z" fill="#D7E8F0"/>
<path d="M125.689 136.29C128.228 136.29 130.286 134.231 130.286 131.693C130.286 129.153 128.228 127.095 125.689 127.095C123.15 127.095 121.091 129.153 121.091 131.693C121.091 134.231 123.15 136.29 125.689 136.29Z" fill="#D7E8F0"/>
<path d="M105.228 99.7679L101.039 99.2075L102.216 90.3967C102.29 89.8485 102.245 89.29 102.083 88.7609C101.92 88.2315 101.644 87.7439 101.275 87.3315C100.905 86.9195 100.451 86.5926 99.9421 86.3734C99.4337 86.1542 98.8839 86.0483 98.3304 86.0625L94.7206 86.1554C94.1602 86.1697 93.6172 85.9607 93.211 85.5746C92.8046 85.1886 92.568 84.657 92.5535 84.0967C92.5461 83.8196 92.5934 83.5434 92.6928 83.2846C92.7919 83.0255 92.9414 82.7887 93.1324 82.5874C93.3231 82.3862 93.5519 82.2243 93.8051 82.1116C94.0587 81.9986 94.3318 81.937 94.6091 81.9296L98.222 81.8367C99.4829 81.7971 100.735 82.0568 101.876 82.5949C103.017 83.1332 104.014 83.9345 104.785 84.9326C105.453 85.8239 105.937 86.839 106.209 87.9191C106.481 88.999 106.534 90.1224 106.367 91.2233L105.228 99.7679Z" fill="#D7E8F0"/>
<path d="M54.0347 198.04C62.5792 195.563 69.9102 186.211 59.6506 178.471C59.276 178.199 58.9261 177.951 58.5918 177.753C59.1543 177.202 59.8447 176.799 60.601 176.581C61.3573 176.362 62.156 176.334 62.926 176.499C62.9507 176.499 62.9848 176.499 63.0096 176.518C63.0628 176.524 63.1151 176.537 63.1643 176.558C64.282 176.815 65.5296 177.422 66.9196 178.471C77.1638 186.211 62.9972 196.257 54.0347 198.04Z" fill="#F97316"/>
<path d="M62.9421 176.499C62.1725 176.334 61.3734 176.362 60.6171 176.58C59.8608 176.799 59.1704 177.202 58.6079 177.753C53.3945 182.44 53.1561 198.04 53.1561 198.04H51.7723C51.7723 198.04 48.4287 179.88 53.3852 176.84H53.4038C53.4874 176.806 53.8403 176.651 54.3325 176.481C54.3325 176.481 54.3573 176.481 54.3666 176.481C55.0084 176.259 55.6712 176.105 56.3448 176.019C58.5553 175.821 60.7837 175.983 62.9421 176.499Z" fill="#D7E8F0"/>
<path d="M95.4483 37.6448C95.4473 46.0692 92.5719 54.2414 87.2969 60.8098C82.0215 67.3783 74.663 71.9503 66.4373 73.7697C58.2116 75.5888 49.6113 74.5468 42.0581 70.8156C34.5051 67.0842 28.4515 60.8872 24.8977 53.2488C21.3443 45.6104 20.5035 36.9882 22.5148 28.807C24.5262 20.6262 29.2691 13.3766 35.9592 8.25669C42.6494 3.13679 50.8865 0.45315 59.3088 0.649458C67.7311 0.845735 75.8341 3.9102 82.2785 9.33621C86.4043 12.8096 89.7209 17.1431 91.9961 22.033C94.2709 26.9232 95.4492 32.2515 95.4483 37.6448Z" stroke="black" stroke-width="1.27859" stroke-miterlimit="10"/>
<path d="M45.057 229.566V245.664H8.8355C8.41001 245.665 7.98869 245.58 7.59623 245.416C7.2038 245.251 6.84809 245.01 6.54999 244.707C6.25186 244.403 6.01732 244.043 5.86011 243.648C5.7029 243.252 5.62615 242.83 5.63439 242.404L5.81395 232.717C5.82937 231.879 6.17353 231.08 6.77227 230.493C7.37101 229.906 8.17646 229.577 9.01506 229.578L45.057 229.566Z" fill="#D7E8F0"/>
<path d="M102.519 232.764V242.451C102.519 243.3 102.182 244.114 101.582 244.714C100.981 245.314 100.167 245.652 99.3182 245.652H45.0571V229.553H99.3182C99.7392 229.553 100.156 229.636 100.545 229.798C100.934 229.959 101.288 230.196 101.585 230.494C101.882 230.792 102.118 231.147 102.278 231.536C102.439 231.926 102.521 232.343 102.519 232.764Z" fill="#F97316"/>
<path d="M50.512 245.652V278.422H15.8043C14.3251 278.418 12.9069 277.831 11.8587 276.787C10.8104 275.744 10.2168 274.328 10.207 272.849V245.668L50.512 245.652Z" fill="#D7E8F0"/>
<path d="M96.2871 245.652V272.834C96.2771 274.313 95.6837 275.728 94.6354 276.772C93.5872 277.816 92.1689 278.403 90.6897 278.406H50.5117V245.652H96.2871Z" fill="#F97316"/>
<path d="M50.2117 25.1584C54.3261 25.1584 56.5551 28.1428 56.5551 31.7773C56.5551 36.4056 53.4004 38.8978 50.0074 38.8978C46.3698 38.8978 43.5928 36.223 43.5928 32.1767C43.5928 28.3719 46.0292 25.146 50.1777 25.146L50.2117 25.1584ZM50.0755 28.4524C48.67 28.4524 48.1189 30.0282 48.1189 32.0529C48.1189 34.1766 48.7721 35.6193 50.1436 35.6193C51.3819 35.6193 52.029 34.4181 52.029 32.0529C52.029 29.9941 51.5151 28.4524 50.1096 28.4524H50.0755ZM50.4872 48.2039L63.1803 25.2296H66.3473L53.6915 48.2039H50.4872ZM66.9479 34.4181C71.0623 34.4181 73.2913 37.3994 73.2913 41.037C73.2913 45.6653 70.1366 48.1575 66.7405 48.1575C63.106 48.1575 60.329 45.4827 60.329 41.4023C60.329 37.6285 62.7623 34.4057 66.9139 34.4057L66.9479 34.4181ZM66.8086 37.7121C65.4031 37.7121 64.8551 39.2879 64.8551 41.3126C64.8551 43.4363 65.5083 44.879 66.8798 44.879C68.1181 44.879 68.7652 43.6406 68.7652 41.2754C68.7652 39.2198 68.2513 37.7121 66.8457 37.7121H66.8086Z" fill="white"/>
<path d="M49.7538 197.87C44.2215 197.87 33.965 193.353 39.392 187.304C39.9647 186.617 40.6771 186.058 41.4817 185.666L41.5251 185.639H41.5436C42.8417 185.033 44.2308 184.646 45.6549 184.493C46.1131 184.455 46.5744 184.47 47.0295 184.536C46.3051 184.502 45.4599 184.896 44.4599 185.852C44.2835 186.013 44.0946 186.217 43.8996 186.431C38.4849 192.468 44.1627 197.384 49.7538 197.87Z" fill="#D7E8F0"/>
<path d="M51.1775 197.595L50.3168 197.759C50.3168 197.759 48.2674 188.124 44.4595 185.846C45.4594 184.889 46.317 184.496 47.029 184.53C47.0433 184.534 47.0581 184.534 47.0724 184.53L47.382 184.573L47.4903 184.598C51.0413 185.691 51.1775 197.595 51.1775 197.595Z" fill="#F97316"/>
<path d="M50.5089 229.562H9.02444C8.185 229.562 7.37912 229.891 6.78038 230.48C6.18164 231.068 5.83794 231.868 5.82332 232.707L5.64996 242.394C5.64212 242.82 5.71915 243.242 5.87654 243.638C6.0339 244.033 6.26845 244.392 6.56648 244.696C6.86452 245 7.22005 245.241 7.6123 245.405C8.00457 245.57 8.4257 245.654 8.85107 245.654H99.3151C99.7358 245.654 100.152 245.571 100.541 245.41C100.929 245.249 101.283 245.013 101.58 244.716C101.877 244.418 102.113 244.065 102.273 243.676C102.434 243.287 102.517 242.871 102.516 242.45V232.763C102.516 231.914 102.179 231.1 101.578 230.5C100.978 229.899 100.164 229.562 99.3151 229.562H39.4319" stroke="black" stroke-width="1.27859" stroke-miterlimit="10"/>
<path d="M90.69 278.424H15.8012C14.3186 278.419 12.8979 277.828 11.85 276.779C10.8017 275.73 10.2111 274.309 10.207 272.827V245.655H96.2718V272.827C96.2669 274.307 95.6777 275.726 94.6326 276.774C93.5871 277.822 92.1705 278.415 90.69 278.424Z" stroke="black" stroke-width="1.27859" stroke-miterlimit="10"/>
<path d="M85.4394 200.105V206.352C85.4394 206.9 85.2218 207.425 84.8345 207.812C84.4475 208.2 83.9221 208.417 83.3745 208.417H48.3604V198.04H83.3745C83.9221 198.04 84.4475 198.258 84.8345 198.645C85.2218 199.032 85.4394 199.557 85.4394 200.105Z" fill="#F97316"/>
<path d="M48.3604 198.04V208.417H25.0022C24.7282 208.417 24.457 208.362 24.2044 208.256C23.9521 208.15 23.723 207.995 23.5307 207.8C23.3388 207.604 23.1874 207.373 23.0855 207.119C22.9834 206.864 22.9332 206.592 22.9372 206.318L23.0487 200.062C23.0592 199.521 23.2815 199.007 23.6679 198.629C24.0539 198.251 24.5731 198.039 25.1136 198.04H48.3604Z" fill="#D7E8F0"/>
<path d="M81.4209 208.417V225.955C81.4175 226.913 81.0348 227.831 80.3568 228.507C79.6785 229.184 78.7597 229.564 77.8018 229.565H51.8833V208.417H81.4209Z" fill="#F97316"/>
<path d="M51.8831 208.417V229.565H29.5063C28.5496 229.563 27.633 229.182 26.9565 228.505C26.2801 227.829 25.899 226.912 25.8965 225.955V208.417H51.8831Z" fill="#D7E8F0"/>
<path d="M45.0542 229.562V245.654" stroke="black" stroke-width="1.27859" stroke-miterlimit="10"/>
<path d="M50.5093 245.655V278.424" stroke="black" stroke-width="1.27859" stroke-miterlimit="10"/>
<path d="M85.4394 200.105V206.352C85.4394 206.9 85.2218 207.425 84.8345 207.812C84.4475 208.2 83.9221 208.417 83.3745 208.417H48.3604V198.04H83.3745C83.9221 198.04 84.4475 198.258 84.8345 198.645C85.2218 199.032 85.4394 199.557 85.4394 200.105Z" stroke="black" stroke-width="1.27859" stroke-miterlimit="10"/>
<path d="M48.3604 198.04V208.417H25.0022C24.7282 208.417 24.457 208.362 24.2044 208.256C23.9521 208.15 23.723 207.995 23.5307 207.8C23.3388 207.604 23.1874 207.373 23.0855 207.119C22.9834 206.864 22.9332 206.592 22.9372 206.318L23.0487 200.062C23.0592 199.521 23.2815 199.007 23.6679 198.629C24.0539 198.251 24.5731 198.039 25.1136 198.04H48.3604Z" stroke="black" stroke-width="1.27859" stroke-miterlimit="10"/>
<path d="M81.4209 208.417V225.955C81.4175 226.913 81.0348 227.831 80.3568 228.507C79.6785 229.184 78.7597 229.564 77.8018 229.565H51.8833V208.417H81.4209Z" stroke="black" stroke-width="1.27859" stroke-miterlimit="10"/>
<path d="M51.8831 208.417V229.565H29.5063C28.5496 229.563 27.633 229.182 26.9565 228.505C26.2801 227.829 25.899 226.912 25.8965 225.955V208.417H51.8831Z" stroke="black" stroke-width="1.27859" stroke-miterlimit="10"/>
<path d="M55.5303 198.037C64.0903 195.561 77.2632 186.214 67.0221 178.475C65.919 177.579 64.6395 176.926 63.2668 176.558C63.2179 176.537 63.1653 176.524 63.112 176.521C62.3309 176.338 61.5161 176.355 60.7437 176.572C59.9713 176.788 59.2664 177.197 58.6942 177.76" stroke="black" stroke-width="1.27859" stroke-miterlimit="10"/>
<path d="M58.6942 177.753C53.4777 182.443 53.2424 198.037 53.2424 198.037H51.8555C51.8555 198.037 46.6947 170.032 58.6942 177.753Z" stroke="black" stroke-width="1.27859" stroke-miterlimit="10"/>
<path d="M54.1405 198.038H53.2427C53.2427 198.038 53.478 182.444 58.6945 177.754C59.0582 177.976 59.4106 178.217 59.7502 178.475C70.0098 186.215 62.6819 195.577 54.1405 198.038Z" stroke="black" stroke-width="1.27859" stroke-miterlimit="10"/>
<path d="M53.6201 176.675C54.5269 176.347 55.4677 176.12 56.425 176.001C58.7153 175.802 61.0229 175.989 63.2513 176.555" stroke="black" stroke-width="1.27859" stroke-miterlimit="10"/>
<path d="M49.0105 198.037C43.4039 197.554 34.0978 193.35 39.5062 187.307C40.0805 186.616 40.7947 186.056 41.6021 185.663C41.6294 185.644 41.6597 185.629 41.6919 185.62C42.1535 185.411 42.6603 185.322 43.1652 185.362C43.6702 185.402 44.1568 185.568 44.5803 185.846" stroke="black" stroke-width="1.27859" stroke-miterlimit="10"/>
<path d="M44.5654 185.846C48.3733 188.118 50.4135 197.762 50.4135 197.762L51.2741 197.592C51.2741 197.592 51.0667 179.599 44.5654 185.846Z" stroke="black" stroke-width="1.27859" stroke-miterlimit="10"/>
<path d="M49.8555 197.87L50.4128 197.761C50.4128 197.761 48.3726 188.118 44.5647 185.845C44.3851 186.006 44.1963 186.207 43.9982 186.421C38.5804 192.467 44.2613 197.38 49.8555 197.87Z" stroke="black" stroke-width="1.27859" stroke-miterlimit="10"/>
<path d="M47.5836 184.56C46.9805 184.466 46.3691 184.44 45.7601 184.483C44.3128 184.638 42.9023 185.036 41.5869 185.659" stroke="black" stroke-width="1.27859" stroke-miterlimit="10"/>
<path d="M231.047 72.1539L232.258 74.321C232.258 74.321 230.487 78.2589 235.233 78.94C239.979 79.6211 246.226 74.9556 246.396 71.8752C253.687 74.6925 257.541 81.782 257.61 89.373C257.733 108.165 233.555 119.558 217.397 117.855C209.277 117.004 201.609 113.422 195.206 108.366C194.352 107.704 193.531 107.007 192.73 106.289C191.107 104.809 189.587 103.221 188.179 101.537C187.45 100.67 186.74 99.7832 186.049 98.8773" stroke="black" stroke-width="1.16714" stroke-miterlimit="10"/>
<path d="M241.409 63.3364L246.059 72.2061" stroke="black" stroke-width="1.27859" stroke-miterlimit="10"/>
<path d="M0 278.421H268.912" stroke="black" stroke-width="1.27859" stroke-miterlimit="10"/>
<path d="M185.538 28.8767H185.498C183.999 29.1306 182.198 30.4649 181.263 32.1924C180.191 34.1459 180.068 36.5266 179.838 37.5358C179.814 37.6504 179.789 37.7618 179.777 37.864C179.75 37.95 179.729 38.038 179.715 38.1271L179.674 38.2788C179.531 38.7677 179.21 39.1853 178.775 39.4497C178.34 39.7144 177.822 39.8069 177.322 39.7094C176.822 39.6116 176.377 39.3308 176.073 38.9218C175.77 38.5129 175.63 38.0055 175.681 37.4987L175.767 36.7928C175.795 36.539 175.832 36.3006 175.882 36.0622C175.982 35.3706 176.134 34.6876 176.337 34.0189C176.364 33.914 176.397 33.8106 176.436 33.7093C176.474 33.5496 176.524 33.3933 176.588 33.2419C176.618 33.1604 176.652 33.0809 176.69 33.0035" stroke="black" stroke-width="1.27859" stroke-miterlimit="10"/>
<path d="M189.34 42.9788C188.403 43.8766 187.507 44.3243 186.653 44.3224C186.29 44.3227 185.933 44.2413 185.606 44.084C185.299 43.9462 185.023 43.7497 184.792 43.5051C184.018 42.7095 184.049 41.3751 184.417 40.4804C184.684 39.8997 185.045 39.3672 185.486 38.9046C185.625 38.7468 185.761 38.5951 185.882 38.431C186.289 37.9669 186.597 37.4242 186.786 36.8366C186.786 36.8026 186.786 36.7716 186.801 36.7375" stroke="black" stroke-width="1.27859" stroke-miterlimit="10"/>
<path d="M181.99 28.0095C182.569 28.1179 183.126 28.251 183.696 28.381C184.266 28.511 184.897 28.6906 185.492 28.8764C186.854 29.2791 188.129 29.9308 189.253 30.7989C192.306 33.0558 192.946 36.9039 190.745 39.7428" stroke="black" stroke-width="1.27859" stroke-miterlimit="10"/>
<path d="M179.838 37.535C179.838 37.5629 179.838 37.5877 179.823 37.6217C179.815 37.7257 179.801 37.8292 179.78 37.9313L179.711 38.6372C179.671 39.0186 179.739 39.4037 179.907 39.7483C180.076 40.0925 180.338 40.3826 180.664 40.5851C180.99 40.7872 181.366 40.8937 181.749 40.8919C182.133 40.8903 182.508 40.7804 182.832 40.5752C183.065 40.4309 183.266 40.2396 183.422 40.0136C183.577 39.7879 183.684 39.5322 183.736 39.2625C183.795 38.9994 183.844 38.7146 183.913 38.4452C184.16 37.3988 184.253 36.4639 185.033 35.659C185.253 35.4314 185.515 35.2484 185.804 35.1203C185.877 35.0893 185.953 35.0652 186.03 35.0491" stroke="black" stroke-width="1.27859" stroke-miterlimit="10"/>
<path d="M171.563 35.6848V35.6043C171.696 34.2653 172.049 32.9576 172.61 31.7345C172.956 30.9698 173.421 30.2645 173.987 29.6448C174.874 28.6445 176.075 27.9761 177.393 27.7501C177.773 27.6944 178.148 27.6572 178.532 27.6386C179.689 27.6222 180.844 27.747 181.971 28.0101C181.043 28.0813 179.451 29.0751 178.303 30.3258C177.843 30.7998 177.459 31.3416 177.164 31.9326C177.018 32.2422 176.854 32.5827 176.739 32.9109C176.622 33.1771 176.52 33.4465 176.43 33.7096C176.161 34.4712 175.928 35.2235 175.752 35.917C175.671 36.2265 175.597 36.5361 175.538 36.8148C175.442 37.3308 175.16 37.7934 174.745 38.1147C174.33 38.4364 173.811 38.5939 173.288 38.5577C172.755 38.4955 172.268 38.2255 171.933 37.8064C171.598 37.3872 171.442 36.8528 171.498 36.3194L171.56 35.6848" stroke="black" stroke-width="1.27859" stroke-miterlimit="10"/>
<path d="M169.13 89.8954C168.604 88.8397 168.263 87.6819 168.771 86.6726C169.919 84.3817 173.613 85.5953 175.774 84.1959C177.631 83.004 177.442 81.5892 178.458 79.8246C179.643 77.7596 181.78 78.5862 183.411 79.6141C185.495 80.9174 190.046 85.4962 197.342 90.0069C199.612 91.4179 201.784 92.9807 203.844 94.6847C209.58 99.4121 223.871 107.604 236.295 85.5674" stroke="black" stroke-width="1.18881" stroke-miterlimit="10"/>
<path d="M186.349 99.2447C185.33 98.2075 184.222 97.1116 182.792 96.8516C181.265 96.5698 179.742 97.2912 178.197 97.3655C174.393 97.5388 171.569 93.9941 169.61 90.728C169.449 90.4648 169.3 90.1831 169.142 89.9014" stroke="black" stroke-width="1.18881" stroke-miterlimit="10"/>
<path d="M177.272 94.1898C177.272 94.1898 173.634 96.1432 172.086 94.134" stroke="black" stroke-width="1.18881" stroke-miterlimit="10"/>
<path d="M169.928 91.2766C169.928 91.2766 172.885 93.2889 174.959 91.611" stroke="black" stroke-width="1.18881" stroke-miterlimit="10"/>
<path d="M168.557 88.6172C168.557 88.6172 171.129 90.193 172.235 89.063" stroke="black" stroke-width="1.18881" stroke-miterlimit="10"/>
<path d="M145.395 151.577H96.0411C93.3028 151.577 91.083 153.797 91.083 156.535V169.332C91.083 172.071 93.3028 174.29 96.0411 174.29H145.395C148.133 174.29 150.353 172.071 150.353 169.332V156.535C150.353 153.797 148.133 151.577 145.395 151.577Z" fill="#D7E8F0"/>
<path d="M128.007 166.636V159.511H129.959V166.061L129.08 165.086H132.499V166.636H128.007Z" fill="white"/>
<path d="M122.668 166.636V159.511H124.619V166.061L123.74 165.086H127.16V166.636H122.668Z" fill="white"/>
<path d="M115.546 166.636L117.203 159.511H120.299L121.946 166.636H119.952L118.749 160.676H118.759L117.541 166.636H115.546ZM116.995 165.139V163.675H120.512V165.139H116.995Z" fill="white"/>
<path d="M115.309 163.946C115.309 164.271 115.246 164.6 115.12 164.931C114.998 165.26 114.809 165.562 114.555 165.839C114.304 166.116 113.983 166.34 113.594 166.511C113.207 166.678 112.749 166.762 112.217 166.762C111.518 166.762 110.919 166.606 110.42 166.293C109.924 165.978 109.544 165.543 109.28 164.989C109.02 164.435 108.889 163.796 108.889 163.072C108.889 162.347 109.02 161.709 109.28 161.159C109.544 160.605 109.924 160.172 110.42 159.859C110.919 159.547 111.518 159.391 112.217 159.391C112.797 159.391 113.291 159.489 113.7 159.686C114.112 159.882 114.442 160.14 114.69 160.458C114.941 160.777 115.115 161.118 115.212 161.482C115.276 161.73 115.309 161.97 115.309 162.202H113.352C113.352 162.099 113.346 162.009 113.333 161.932C113.304 161.722 113.241 161.54 113.145 161.386C113.048 161.231 112.921 161.112 112.763 161.028C112.608 160.941 112.427 160.898 112.217 160.898C111.966 160.898 111.739 160.972 111.536 161.12C111.333 161.268 111.171 161.502 111.048 161.82C110.929 162.139 110.87 162.556 110.87 163.072C110.87 163.584 110.929 164.001 111.048 164.323C111.171 164.645 111.333 164.881 111.536 165.033C111.739 165.184 111.966 165.26 112.217 165.26C112.398 165.26 112.557 165.227 112.695 165.163C112.837 165.095 112.956 165.002 113.053 164.883C113.149 164.764 113.224 164.625 113.275 164.467C113.327 164.306 113.352 164.133 113.352 163.946H115.309Z" fill="white"/>
</svg>
