<svg width="270" height="280" viewBox="0 0 270 280" fill="none" xmlns="http://www.w3.org/2000/svg">
<path d="M180.336 48.9164C182.243 47.6858 184.459 47.0196 186.729 46.9939C187.122 46.9939 187.506 47.0155 187.884 47.0496C187.723 46.3747 187.521 45.5822 187.264 44.7215C186.451 44.3135 185.744 43.7212 185.199 42.9922C184.655 42.2628 184.288 41.4164 184.128 40.5204C183.837 40.5709 183.542 40.5969 183.246 40.5978C182.192 40.6012 181.159 40.2978 180.274 39.7248C180.057 39.6777 179.843 39.6177 179.633 39.5452C179.356 39.5942 179.076 39.6202 178.794 39.6226C177.363 39.6307 175.986 39.0747 174.961 38.0747L172.277 39.0035C172.277 39.0035 179.163 42.477 180.336 48.9164Z" fill="#E8732A"/>
<path d="M181.138 250.539C181.137 255.477 179.175 260.212 175.683 263.704C172.192 267.196 167.457 269.159 162.52 269.161H73.8854C68.9472 269.159 64.2118 267.197 60.7197 263.705C57.2279 260.213 55.2654 255.478 55.2639 250.539V57.1258C55.2623 54.6792 55.7428 52.2561 56.6777 49.9952C57.6127 47.7346 58.9841 45.6798 60.7135 43.9493C62.4428 42.2184 64.496 40.8454 66.7563 39.9085C69.0163 38.9714 71.4388 38.4891 73.8854 38.4888H85.7302C87.8617 38.4894 89.9059 39.3355 91.4142 40.8416C92.7971 42.2156 93.6258 44.0502 93.7422 45.9962C93.7596 46.1575 93.7679 46.3198 93.767 46.4823C93.767 46.6216 93.767 46.7578 93.767 46.894C93.8246 48.0745 94.1305 49.2296 94.6648 50.284C94.6803 50.3088 94.6896 50.3428 94.7051 50.3676C95.3524 51.6363 96.3391 52.7003 97.5551 53.4421C98.7712 54.1839 100.169 54.5736 101.593 54.5687H134.586C135.643 54.5702 136.69 54.3628 137.667 53.9585C138.645 53.5542 139.532 52.961 140.279 52.2127C140.85 51.6422 141.328 50.9849 141.694 50.2654C141.709 50.2521 141.721 50.2351 141.728 50.2159C142.272 49.1844 142.576 48.0435 142.617 46.8786C142.617 46.7764 142.617 46.6835 142.617 46.569C142.641 42.1388 146.022 38.4795 150.458 38.4795H160.461L170.987 38.3495C171.201 36.3372 172.058 34.2196 172.944 32.3497C173.239 31.7024 173.588 31.081 173.987 30.4922H74.6439C71.4366 30.4916 68.2606 31.1231 65.2972 32.3503C62.3339 33.5775 59.6411 35.3765 57.3731 37.6445C55.1053 39.9126 53.3063 42.605 52.0791 45.5684C50.8516 48.5317 50.2204 51.7078 50.2207 54.9154V254.843C50.2198 258.05 50.851 261.226 52.0782 264.19C53.3051 267.153 55.1041 269.846 57.3724 272.114C59.6405 274.382 62.3329 276.181 65.2966 277.408C68.2603 278.636 71.4363 279.267 74.6439 279.266H164.455C167.662 279.266 170.838 278.635 173.802 277.407C176.766 276.18 179.458 274.382 181.726 272.114C183.995 269.846 185.794 267.153 187.022 264.19C188.249 261.226 188.881 258.05 188.881 254.843V241.075L181.141 245.487L181.138 250.539Z" fill="#E8732A"/>
<path d="M183.838 97.2829C182.91 96.3263 182.012 97.8123 181.139 96.7969V170.364C181.684 168.355 182.358 166.383 183.154 164.46C183.334 164.039 183.513 163.615 183.699 163.197C184.092 162.333 184.504 161.482 184.937 160.637C185.055 160.395 185.176 160.166 185.303 159.937C185.43 159.708 185.584 159.414 185.73 159.166C185.978 158.714 186.244 158.262 186.516 157.819C186.702 157.485 186.909 157.163 187.114 156.838C187.265 156.581 187.423 156.333 187.59 156.095C187.77 155.804 187.965 155.516 188.154 155.234C188.386 154.884 188.631 154.535 188.872 154.191V101.787C187.943 101.063 187.015 100.301 186.142 99.5181C185.346 98.7999 184.578 98.0569 183.838 97.2829Z" fill="#E8732A"/>
<path d="M188.141 46.1479C187.07 47.4977 185.742 46.3647 184.015 46.3647C182.442 46.3647 181.538 48.9095 180.541 47.8847C180.597 48.0209 180.036 50.0518 180.083 50.188C180.235 50.5967 180.371 51.0239 180.491 51.4512V51.4666C180.646 52.0146 180.764 52.5595 180.866 53.1229C180.891 53.2498 180.919 53.3892 180.934 53.5254C180.978 53.8133 181.021 54.1136 181.046 54.4108C181.079 54.6863 181.099 54.9631 181.104 55.2405C181.132 55.5501 181.138 55.8875 181.138 56.2219V77.8929C181.391 78.104 181.602 78.3613 181.758 78.6513C182.996 80.9113 184.182 79.2179 185.507 81.4376C186.213 82.5831 187.674 83.4778 188.423 82.6481C188.699 82.3385 188.869 81.0135 188.869 80.5181V54.3334C188.869 53.0901 188.776 51.8484 188.593 50.6184C188.538 50.1509 188.24 46.6216 188.141 46.1479Z" fill="#E8732A"/>
<path d="M93.7773 46.0586C94.338 47.1016 94.6454 48.2616 94.6751 49.4455C94.1411 48.3923 93.8352 47.2381 93.7773 46.0586Z" fill="#E8732A"/>
<path d="M142.617 46.0391C142.576 47.2043 142.272 48.3452 141.729 49.3764C141.788 48.2142 142.091 47.0774 142.617 46.0391Z" fill="#E8732A"/>
<path d="M261.135 140.497C231.557 149.732 216.267 127.114 216.267 127.114C217.384 125.458 215.694 122.343 215.694 122.343L214.666 117.08C201.598 116.439 189.775 103.703 189.775 103.703C206.682 100.706 199.394 90.5797 199.394 90.5797L211.05 99.7063L212.313 99.5948C212.468 83.806 222.409 76.4316 225.523 73.9333C228.638 71.4349 229.17 73.9147 229.17 73.9147C229.17 73.9147 227.802 78.9672 233.641 79.6668C239.479 80.3665 243.755 74.8961 243.755 74.8961C245.758 70.4071 248.064 73.1903 248.064 73.1903C258.073 78.5152 259.884 91.6911 262.033 100.898C263.516 107.208 266.339 120.805 268.224 127.43C268.884 129.722 268.752 132.171 267.85 134.38C267.248 135.83 266.335 137.13 265.174 138.187C264.014 139.244 262.635 140.033 261.135 140.497Z" fill="#353642"/>
<path d="M261.135 140.497C231.557 149.732 216.267 127.114 216.267 127.114C217.384 125.458 215.694 122.343 215.694 122.343L214.666 117.08C201.598 116.439 189.775 103.703 189.775 103.703C200.976 98.1026 199.394 90.5797 199.394 90.5797L211.05 99.7063L212.313 99.5948C212.468 83.806 222.409 76.4316 225.523 73.9333C228.638 71.4349 229.17 73.9147 229.17 73.9147C229.17 73.9147 227.802 78.9672 233.641 79.6668C239.479 80.3665 243.755 74.8961 243.755 74.8961C245.758 70.4071 248.064 73.1903 248.064 73.1903C258.073 78.5152 259.884 91.6911 262.033 100.898C263.516 107.208 266.339 120.805 268.224 127.43C268.884 129.722 268.752 132.171 267.85 134.38C267.248 135.83 266.335 137.13 265.174 138.187C264.014 139.244 262.635 140.033 261.135 140.497Z" fill="#353642"/>
<path d="M226.272 60.7675C228.121 60.7675 229.619 59.2691 229.619 57.4208C229.619 55.5723 228.121 54.0742 226.272 54.0742C224.424 54.0742 222.926 55.5723 222.926 57.4208C222.926 59.2691 224.424 60.7675 226.272 60.7675Z" fill="#D7E8F0"/>
<path d="M230.833 64.1597C230.542 66.302 228.725 67.7013 226.83 67.3917" stroke="black" stroke-width="1.27859" stroke-miterlimit="10"/>
<path d="M208.4 45.4977C208.719 46.954 209.486 48.2734 210.594 49.2703C211.702 50.2675 213.095 50.8916 214.577 51.0548C214.713 50.4594 214.991 49.9059 215.388 49.4418C217.078 47.5193 217.719 51.1972 223.069 48.674C230.499 45.1664 233.232 47.315 233.232 47.315C233.474 47.5038 233.412 49.1942 233.44 49.4821C233.601 51.2312 233.749 52.9742 233.932 54.7234C234.037 55.7883 234.139 56.8471 234.242 57.9059C234.345 57.7294 234.459 57.5588 234.582 57.3951C235.3 55.0391 237.297 52.2807 239.845 53.5376C240.363 53.8014 240.811 54.1844 241.151 54.6552C242.814 56.9338 241.461 59.0761 239.656 60.6457C239.198 61.1349 238.688 61.5729 238.136 61.9522C238.418 62.5713 239.573 65.0047 239.573 65.014C239.69 65.2616 243.984 60.5931 244.306 60.0823C244.8 58.8232 245.077 57.4898 245.127 56.1382C245.306 50.5842 243.173 44.0643 238.734 40.7951C237.635 39.984 237.251 39.2162 237.186 38.1419C237.182 38.0841 237.161 38.0286 237.126 37.9828C237.09 37.937 237.041 37.9029 236.986 37.8853C236.931 37.8677 236.872 37.867 236.816 37.8834C236.761 37.8998 236.711 37.933 236.675 37.9779C235.232 39.5753 231.743 39.3431 231.743 39.3431C219.669 36.0677 215.502 41.374 213.044 42.2811C212.043 42.6387 210.949 42.6387 209.948 42.2811C209.883 42.6145 209.728 42.9235 209.499 43.1746C209.27 43.4256 208.977 43.6092 208.651 43.7052L208.704 44.2686C208.748 44.7011 208.641 45.1355 208.4 45.4977Z" fill="#E8732A"/>
<path d="M234.307 68.2489C233.511 68.8681 231.288 70.6513 230.4 71.1807C229.748 71.5745 229.063 71.911 228.354 72.1869C223.01 74.2023 218.001 69.6204 216.165 65.0354C214.654 61.2554 214.308 57.0326 214.416 52.9956C214.435 52.5777 214.45 52.1505 214.484 51.7232C214.48 51.6976 214.48 51.6712 214.484 51.6458C214.501 51.4511 214.529 51.2576 214.571 51.0669C214.706 50.471 214.984 49.9171 215.382 49.454C217.069 47.5346 217.71 51.2124 223.06 48.6862C230.49 45.1786 233.226 47.3271 233.226 47.3271C233.465 47.516 233.403 49.2063 233.431 49.4942C233.592 51.2465 233.74 52.9864 233.926 54.7355C234.028 55.8036 234.13 56.8593 234.236 57.9181C234.261 58.2091 234.288 58.4908 234.313 58.7787C234.351 58.3103 234.439 57.8472 234.576 57.398C235.295 55.042 237.291 52.2867 239.839 53.5405C240.357 53.8043 240.805 54.1872 241.146 54.6581C242.808 56.9367 241.455 59.079 239.65 60.6486C239.192 61.0415 238.708 61.4034 238.202 61.7321L238.065 61.8188L238.133 61.9551C238.415 62.5742 239.567 65.0107 239.567 65.0169C239.684 65.2645 243.978 60.5991 244.303 60.0852C245.422 58.3589 246.123 56.3958 246.35 54.3516C246.378 54.0947 246.393 53.847 246.402 53.59C246.582 48.0361 244.449 41.5162 240.01 38.247C238.907 37.4359 238.524 36.6681 238.462 35.5938C238.458 35.5359 238.437 35.4805 238.402 35.4347C238.366 35.3889 238.317 35.3548 238.262 35.3372C238.207 35.3192 238.148 35.3186 238.092 35.3353C238.037 35.3517 237.987 35.3846 237.951 35.4298C236.508 37.0272 233.016 36.795 233.016 36.795C220.958 33.5196 216.775 38.8259 214.32 39.733C211.865 40.6401 209.71 38.9652 209.71 38.9652L209.967 41.7112C209.984 41.8995 209.973 42.0896 209.933 42.2747C209.868 42.6078 209.713 42.9168 209.484 43.1678C209.255 43.4189 208.962 43.6025 208.636 43.6988C208.513 43.7437 208.383 43.7697 208.252 43.7762H208.156C208.18 44.348 208.254 44.917 208.379 45.4758C208.698 46.9343 209.468 48.2553 210.579 49.2524C211.69 50.2499 213.086 50.8725 214.571 51.0329" stroke="black" stroke-width="1.27859" stroke-miterlimit="10"/>
<path d="M216.27 60.4384C218.119 60.4384 219.617 58.94 219.617 57.0917C219.617 55.2435 218.119 53.7451 216.27 53.7451C214.422 53.7451 212.924 55.2435 212.924 57.0917C212.924 58.94 214.422 60.4384 216.27 60.4384Z" fill="#D7E8F0"/>
<path d="M227.669 58.6707C227.671 58.9428 227.592 59.2097 227.442 59.4369C227.292 59.6642 227.078 59.8419 226.827 59.9471C226.576 60.0527 226.299 60.0812 226.032 60.0292C225.765 59.9772 225.519 59.8471 225.326 59.6552C225.133 59.4632 225.001 59.2184 224.947 58.9515C224.893 58.6846 224.92 58.4079 225.024 58.1562C225.127 57.9045 225.303 57.6893 225.53 57.5376C225.756 57.3862 226.022 57.3054 226.294 57.3054C226.428 57.3026 226.561 57.3225 226.688 57.3643C226.622 57.4271 226.569 57.5023 226.532 57.5859C226.495 57.6692 226.476 57.7593 226.474 57.8503C226.476 58.0258 226.546 58.1933 226.671 58.3169C226.796 58.4404 226.964 58.5097 227.14 58.5097C227.228 58.5094 227.315 58.4908 227.397 58.4549C227.477 58.4193 227.55 58.3673 227.61 58.3023C227.65 58.4209 227.67 58.5453 227.669 58.6707Z" fill="black"/>
<path d="M217.94 58.2221C217.939 58.4926 217.858 58.7567 217.708 58.9812C217.557 59.2059 217.344 59.3808 217.094 59.4839C216.844 59.587 216.569 59.614 216.304 59.561C216.039 59.5081 215.795 59.3777 215.604 59.1867C215.413 58.9954 215.282 58.7521 215.229 58.4868C215.177 58.2218 215.203 57.9468 215.307 57.697C215.41 57.4469 215.585 57.2332 215.809 57.0825C216.034 56.932 216.298 56.8512 216.568 56.8506C216.747 56.8497 216.924 56.8843 217.088 56.9528C216.995 57.015 216.918 57.0986 216.864 57.1967C216.81 57.2945 216.781 57.4045 216.779 57.5162C216.779 57.6032 216.797 57.689 216.831 57.7691C216.864 57.8493 216.914 57.9218 216.975 57.9828C217.037 58.0437 217.11 58.092 217.191 58.1245C217.271 58.1571 217.358 58.1735 217.445 58.1725C217.53 58.1738 217.615 58.1577 217.694 58.1252C217.774 58.0927 217.845 58.0447 217.906 57.9837C217.927 58.0617 217.938 58.1416 217.94 58.2221Z" fill="black"/>
<path d="M221.334 57.3667C221.334 57.3667 220.477 61.1777 220.375 61.5616C220.065 62.7999 222.523 62.416 222.523 62.416" stroke="black" stroke-width="1.27859" stroke-miterlimit="10"/>
<path d="M224.48 50.1731C224.48 50.1731 228.521 48.6592 230.768 51.6932" stroke="black" stroke-width="1.27859" stroke-miterlimit="10"/>
<path d="M211.051 53.2037C211.051 53.2037 213.131 49.4237 216.809 50.2626" stroke="black" stroke-width="1.27859" stroke-miterlimit="10"/>
<path d="M226.274 61.3736C228.457 61.3736 230.227 59.6034 230.227 57.4202C230.227 55.2367 228.457 53.4668 226.274 53.4668C224.09 53.4668 222.32 55.2367 222.32 57.4202C222.32 59.6034 224.09 61.3736 226.274 61.3736Z" stroke="black" stroke-width="1.27859" stroke-miterlimit="10"/>
<path d="M216.27 61.0445C218.453 61.0445 220.223 59.2746 220.223 57.0911C220.223 54.9076 218.453 53.1377 216.27 53.1377C214.086 53.1377 212.316 54.9076 212.316 57.0911C212.316 59.2746 214.086 61.0445 216.27 61.0445Z" stroke="black" stroke-width="1.27859" stroke-miterlimit="10"/>
<path d="M216.268 54.4045H216.358C217.069 54.4159 217.748 54.7097 218.243 55.2211C218.738 55.7329 219.01 56.4202 218.998 57.1319C218.987 57.844 218.693 58.5219 218.182 59.0173C217.67 59.5123 216.983 59.7841 216.271 59.7727H216.187C215.476 59.7612 214.797 59.4674 214.302 58.956C213.807 58.4446 213.535 57.7573 213.547 57.0452C213.558 56.3335 213.852 55.6552 214.363 55.1598C214.875 54.6648 215.562 54.393 216.274 54.4045H216.268ZM216.274 53.7636C215.392 53.7494 214.541 54.0859 213.907 54.6992C213.273 55.3125 212.909 56.1527 212.895 57.0344C212.881 57.9161 213.217 58.7678 213.831 59.4015C214.444 60.0352 215.284 60.3993 216.166 60.4135H216.277C217.159 60.4278 218.011 60.0912 218.644 59.478C219.278 58.8647 219.642 58.0248 219.656 57.1427C219.671 56.261 219.334 55.4094 218.721 54.7757C218.107 54.1422 217.267 53.7779 216.386 53.7636H216.274Z" fill="white"/>
<path d="M222.32 57.2898L220.221 57.2217" stroke="black" stroke-width="1.27859" stroke-miterlimit="10"/>
<path d="M225.285 198.926L221.087 224.64L216.539 223.959C215.554 223.804 214.67 223.267 214.077 222.466C213.485 221.664 213.231 220.661 213.372 219.674L213.709 216.916L216.805 194.223C221.845 197.177 225.285 198.926 225.285 198.926Z" fill="#E8732A"/>
<path d="M204.516 232.159L188.882 241.137L181.142 245.592L178.771 246.958C178.775 246.912 178.775 246.867 178.771 246.821L176.913 247.88L174.523 243.289C173.965 242.229 173.846 240.992 174.193 239.845C174.54 238.698 175.325 237.735 176.378 237.162L203.466 222.33L203.491 222.578L204.516 232.159Z" fill="#E8732A"/>
<path d="M181.653 168.614C181.483 168.385 181.312 168.162 181.139 167.967C180.158 166.788 179.195 165.995 178.545 164.655C178.026 163.563 177.877 162.333 178.119 161.149C178.36 159.965 178.98 158.892 179.885 158.091C180.259 157.769 180.676 157.499 181.123 157.29" stroke="black" stroke-width="1.27859" stroke-miterlimit="10"/>
<path d="M214.621 209.861L213.71 216.91L213.361 219.668C213.22 220.655 213.473 221.658 214.066 222.46C214.659 223.262 215.543 223.798 216.528 223.953L221.075 224.634L225.273 198.92C225.273 198.92 221.834 197.171 216.8 194.211C213.2 192.093 208.751 189.354 204.188 186.196" stroke="black" stroke-width="1.27859" stroke-miterlimit="10"/>
<path d="M213.846 215.95C213.846 215.95 208.936 213.303 202.701 209.492" stroke="black" stroke-width="1.27859" stroke-miterlimit="10"/>
<g opacity="0.68">
<path opacity="0.68" d="M181.138 97.1893V170.363C179.782 175.372 179.135 180.579 178.791 185.817V97.375C179.553 98.3657 180.336 96.2419 181.138 97.1893Z" fill="#D7E8F0"/>
<path opacity="0.68" d="M181.138 245.487V249.695C181.137 254.633 179.174 259.368 175.683 262.859C172.192 266.351 167.457 268.314 162.52 268.316H73.8853C68.9471 268.315 64.2116 266.352 60.7195 262.86C57.2277 259.369 55.2652 254.633 55.2637 249.695V56.2811C55.2621 53.8344 55.7426 51.4116 56.6776 49.1507C57.6125 46.8898 58.984 44.8354 60.7133 43.1045C62.4427 41.3739 64.4958 40.0009 66.7561 39.0638C69.0161 38.127 71.4386 37.6447 73.8853 37.644H85.73C86.2736 37.6456 86.8157 37.6995 87.3491 37.805C87.7058 37.8799 88.0575 37.9772 88.4017 38.096C88.5534 38.1549 88.7113 38.2137 88.8537 38.2756C89.0952 38.3759 89.3308 38.4895 89.5596 38.6161C89.8348 38.7647 90.1004 38.9301 90.3552 39.1115C90.5255 39.2291 90.6865 39.3499 90.8413 39.4768C90.9961 39.6037 91.2344 39.8204 91.414 39.9969L92.6523 41.5944C92.766 41.7847 92.8694 41.9813 92.9619 42.1826L93.4139 43.3249C93.4758 43.5324 93.5347 43.7367 93.578 43.9441L93.6895 44.5911C93.7049 44.6778 93.7142 44.7707 93.7235 44.8574C93.7266 44.8998 93.7266 44.9422 93.7235 44.9843C93.7421 45.1886 93.7576 45.3868 93.7576 45.6035V45.6871C93.7576 45.8171 93.7576 45.9347 93.7576 46.0555C93.7495 46.036 93.7381 46.0183 93.7235 46.0029C93.3743 45.3407 92.9254 44.736 92.3923 44.2104C90.9419 42.7587 88.9741 41.9423 86.9219 41.9411H75.5323C73.1763 41.9423 70.8436 42.4079 68.6675 43.311C66.4914 44.2144 64.5147 45.5375 62.8501 47.2053C61.1857 48.8727 59.8663 50.8519 58.9672 53.0298C58.0682 55.2075 57.6069 57.5411 57.6103 59.8971V246.094C57.6103 250.848 59.4982 255.408 62.8591 258.77C66.2196 262.133 70.7783 264.023 75.5323 264.025H160.873C165.474 264.025 169.899 262.253 173.23 259.079C176.562 255.904 178.544 251.57 178.767 246.973C178.771 246.928 178.771 246.883 178.767 246.837L181.138 245.487Z" fill="#D7E8F0"/>
<path opacity="0.68" d="M141.727 49.377C141.727 49.4946 141.727 49.606 141.727 49.7268C141.716 51.7719 140.896 53.7294 139.445 55.1715C137.995 56.6135 136.033 57.4231 133.988 57.4231H102.215C97.9334 57.4231 94.6983 53.9248 94.6797 49.6401C94.6797 49.572 94.6797 49.5132 94.6797 49.4451C95.319 50.7351 96.3069 51.8205 97.5316 52.5778C98.756 53.335 100.168 53.7341 101.608 53.7297H134.585C135.643 53.7313 136.69 53.5239 137.667 53.1195C138.644 52.7152 139.532 52.1221 140.279 51.3738C140.863 50.788 141.352 50.1141 141.727 49.377Z" fill="#D7E8F0"/>
</g>
<path d="M188.881 128.785C199.893 126.547 210.583 124.235 216.267 124.312" stroke="black" stroke-width="1.27859" stroke-miterlimit="10"/>
<path d="M178.47 192.581C161.778 179.13 146.63 161.877 153.14 146.846C157.056 137.785 168.647 132.847 181.139 130.169" stroke="black" stroke-width="1.27859" stroke-miterlimit="10"/>
<path d="M214.747 117.681C215.02 118.662 216.267 124.315 216.574 125.337C217.707 129.024 203.286 138.779 200.844 140.971C196.46 144.881 192.312 149.283 188.881 154.19C186.6 157.392 184.68 160.836 183.154 164.459C182.358 166.382 181.684 168.354 181.139 170.363C179.783 175.372 179.136 180.579 178.792 185.817C178.52 189.786 178.417 193.771 178.306 197.662C178.077 205.129 178.195 212.64 178.684 220.082C178.718 220.553 178.752 221.011 178.792 221.482C179.178 225.902 179.926 230.283 181.03 234.58V234.608" stroke="black" stroke-width="1.27859" stroke-miterlimit="10"/>
<path d="M212.613 100.239C213.081 85.7407 219.663 78.0011 225.523 73.9239C226.663 73.1425 227.886 72.4892 229.17 71.9766" stroke="black" stroke-width="1.27859" stroke-miterlimit="10"/>
<path d="M245.258 71.8809C245.53 71.983 245.793 72.0945 246.06 72.2059L246.351 72.3329C246.993 72.613 247.62 72.9294 248.227 73.2802C250.322 74.4743 252.151 76.0829 253.604 78.0076C253.66 78.062 253.706 78.1261 253.74 78.1964C253.994 78.5555 254.242 78.9208 254.483 79.2985C256.626 82.704 258.623 87.3013 260.149 92.6107C260.936 95.3348 261.565 98.1018 262.034 100.898" stroke="black" stroke-width="1.27859" stroke-miterlimit="10"/>
<path d="M262.394 101.264C263.877 107.574 266.704 121.174 268.586 127.796C269.246 130.09 269.114 132.539 268.211 134.749C267.61 136.199 266.696 137.499 265.536 138.556C264.375 139.613 262.996 140.402 261.496 140.866L255.896 142.222C255.31 142.367 254.793 142.711 254.432 143.194C253.161 144.874 251.751 146.444 250.218 147.888C225.99 170.698 196.836 147.086 203.827 222.705L203.851 222.953C204.134 225.981 204.476 229.173 204.876 232.528L189.242 241.445L181.503 245.856L179.14 247.206L177.283 248.265L174.893 243.674C174.329 242.613 174.207 241.373 174.552 240.223C174.898 239.073 175.683 238.105 176.738 237.531L179.153 236.191L181.391 234.953L181.499 234.894L189.239 230.609L190.886 229.68" stroke="black" stroke-width="1.27859" stroke-miterlimit="10"/>
<path d="M188.884 241.076V253.995C188.883 260.474 186.308 266.688 181.726 271.269C177.144 275.851 170.93 278.424 164.451 278.424H71.9501C68.7418 278.424 65.5646 277.793 62.6003 276.565C59.636 275.338 56.9426 273.539 54.674 271.27C52.405 269.002 50.6054 266.308 49.3776 263.344C48.1494 260.38 47.5176 257.203 47.5176 253.995V52.6867C47.5176 49.4782 48.1494 46.3015 49.3776 43.3372C50.6054 40.3733 52.405 37.6799 54.674 35.4115C56.9426 33.1429 59.636 31.3436 62.6003 30.1161C65.5646 28.8886 68.7418 28.257 71.9501 28.2573H175.689" stroke="black" stroke-width="1.27859" stroke-miterlimit="10"/>
<path d="M188.882 52.6863C188.884 51.0099 188.715 49.3378 188.378 47.6957C188.378 47.6957 187.926 44.9621 187.492 44.2036" stroke="black" stroke-width="1.27859" stroke-miterlimit="10"/>
<path d="M188.881 154.181V128.792V102.313" stroke="black" stroke-width="1.27859" stroke-miterlimit="10"/>
<path d="M188.881 52.6895V67.014V84.0257" stroke="black" stroke-width="1.27859" stroke-miterlimit="10"/>
<path d="M213.709 91.6571V91.6354C211.064 90.4494 208.57 88.9516 206.279 87.1743C196.72 79.8198 190.45 68.9886 188.834 57.0361C188.793 56.7411 188.756 56.4439 188.723 56.1445" stroke="black" stroke-width="1.27859" stroke-miterlimit="10"/>
<path d="M181.145 163.243V97.1646" stroke="black" stroke-width="1.27859" stroke-miterlimit="10"/>
<path d="M181.145 78.5995V56.2845C181.145 52.2197 180.789 47.4025 178.6 44.3345C178.6 44.3345 173.291 37.6382 167.895 37.6382H150.676" stroke="black" stroke-width="1.27859" stroke-miterlimit="10"/>
<path d="M157.613 37.6382H150.675C148.54 37.6382 146.493 38.4861 144.983 39.9957C143.474 41.5052 142.626 43.5525 142.626 45.6874C142.626 47.822 141.778 49.8696 140.268 51.3788C138.759 52.8884 136.712 53.7366 134.577 53.7366H101.816C99.6815 53.7366 97.6342 52.8884 96.1247 51.3788C94.6151 49.8696 93.7672 47.822 93.7672 45.6874C93.7672 43.5525 92.9192 41.5052 91.4097 39.9957C89.9001 38.4861 87.8529 37.6382 85.718 37.6382H73.8856C68.9431 37.6413 64.2039 39.6075 60.7109 43.1042C57.2175 46.601 55.2563 51.342 55.2578 56.2845V249.695C55.2603 254.634 57.2237 259.371 60.7167 262.863C64.2095 266.355 68.9461 268.318 73.8856 268.32H162.517C167.456 268.318 172.193 266.355 175.686 262.863C179.179 259.371 181.142 254.634 181.145 249.695V245.491" stroke="black" stroke-width="1.27859" stroke-miterlimit="10"/>
<path d="M186.977 29.4062C190.348 30.8489 193.496 35.6196 195.026 38.8115C197.862 44.7338 200.335 49.2662 203.694 54.9099C206.57 59.7487 209.208 64.99 213.731 68.5317C216.125 70.4332 219.04 71.5635 222.09 71.773" stroke="black" stroke-width="1.27859" stroke-miterlimit="10"/>
<path d="M95.4478 37.6434C95.445 44.3293 93.6311 50.8894 90.1991 56.6272C86.767 62.3648 81.8446 67.0655 75.9553 70.2301C70.0658 73.3947 63.4292 74.9052 56.7502 74.6002C50.0712 74.2956 43.5996 72.1873 38.0227 68.4999C30.7955 62.4177 26.1678 53.802 25.0883 44.4178C24.0087 35.0336 26.5588 25.5922 32.2162 18.0278C37.8735 10.4634 46.2097 5.34905 55.5162 3.73279C64.823 2.11657 74.3953 4.12083 82.2718 9.33484C86.4032 12.804 89.7239 17.1365 92.0002 22.0273C94.2766 26.9182 95.4533 32.2486 95.4478 37.6434Z" fill="#E8732A"/>
<path d="M91.4228 37.7898C91.4213 43.7116 89.8155 49.5222 86.7763 54.6046C83.7371 59.6871 79.3775 63.851 74.1616 66.6543C68.9454 69.4579 63.067 70.7957 57.1514 70.526C51.2358 70.2564 45.5036 68.3893 40.5641 65.1231C34.1792 59.7317 30.0949 52.1054 29.1457 43.8026C28.1968 35.5001 30.4549 27.1487 35.4587 20.4555C40.4623 13.7626 47.8335 9.23354 56.0654 7.79446C64.297 6.35535 72.7675 8.11492 79.7453 12.7133C83.4055 15.7864 86.3478 19.6239 88.3654 23.9563C90.3826 28.2889 91.4266 33.0107 91.4228 37.7898Z" fill="#E8732A"/>
<path d="M131.258 118.313L104.287 122.378C103.633 122.546 102.949 122.561 102.288 122.424C101.626 122.287 101.005 122 100.472 121.586C99.9383 121.172 99.5067 120.642 99.2095 120.035C98.9123 119.429 98.7578 118.762 98.7578 118.087L101.578 94.9116H141.803C142.131 94.9116 142.446 95.042 142.678 95.2742C142.911 95.5063 143.041 95.8215 143.041 96.15L139.193 110.67C138.646 112.522 137.627 114.2 136.236 115.54C134.845 116.88 133.13 117.836 131.258 118.313Z" fill="#D7E8F0"/>
<path d="M108.234 136.289C110.773 136.289 112.831 134.231 112.831 131.692C112.831 129.153 110.773 127.095 108.234 127.095C105.695 127.095 103.637 129.153 103.637 131.692C103.637 134.231 105.695 136.289 108.234 136.289Z" fill="#D7E8F0"/>
<path d="M125.689 136.289C128.228 136.289 130.286 134.231 130.286 131.692C130.286 129.153 128.228 127.095 125.689 127.095C123.15 127.095 121.092 129.153 121.092 131.692C121.092 134.231 123.15 136.289 125.689 136.289Z" fill="#D7E8F0"/>
<path d="M105.228 99.7677L101.039 99.2073L102.216 90.3965C102.29 89.8482 102.245 89.2897 102.083 88.7607C101.92 88.2313 101.644 87.7437 101.275 87.3313C100.905 86.9192 100.451 86.5923 99.9421 86.3731C99.4337 86.1539 98.8839 86.0481 98.3304 86.0623L94.7206 86.1552C94.1602 86.1694 93.6172 85.9604 93.211 85.5744C92.8046 85.1883 92.568 84.6568 92.5535 84.0964C92.5461 83.8194 92.5934 83.5432 92.6928 83.2844C92.7919 83.0253 92.9414 82.7884 93.1324 82.5872C93.3231 82.386 93.5519 82.2241 93.8051 82.1114C94.0587 81.9984 94.3318 81.9368 94.6091 81.9293L98.222 81.8365C99.4829 81.7968 100.735 82.0566 101.876 82.5946C103.017 83.133 104.014 83.9342 104.785 84.9323C105.453 85.8236 105.937 86.8387 106.209 87.9189C106.481 88.9987 106.534 90.1222 106.367 91.2231L105.228 99.7677Z" fill="#D7E8F0"/>
<path d="M54.0352 198.04C62.5797 195.563 69.9107 186.211 59.651 178.471C59.2764 178.198 58.9266 177.951 58.5923 177.753C59.1548 177.202 59.8452 176.799 60.6015 176.58C61.3578 176.361 62.1565 176.334 62.9265 176.499C62.9512 176.499 62.9853 176.499 63.01 176.517C63.0633 176.523 63.1156 176.537 63.1648 176.558C64.2824 176.815 65.5301 177.421 66.9201 178.471C77.1643 186.211 62.9977 196.257 54.0352 198.04Z" fill="#E8732A"/>
<path d="M62.9426 176.499C62.173 176.333 61.3739 176.362 60.6176 176.58C59.8613 176.799 59.1709 177.202 58.6084 177.753C53.395 182.44 53.1566 198.04 53.1566 198.04H51.7727C51.7727 198.04 48.4292 179.88 53.3857 176.84H53.4043C53.4878 176.806 53.8408 176.651 54.333 176.481C54.333 176.481 54.3578 176.481 54.3671 176.481C55.0088 176.259 55.6717 176.104 56.3453 176.019C58.5558 175.82 60.7842 175.983 62.9426 176.499Z" fill="#D7E8F0"/>
<path d="M95.4487 37.6445C95.4478 46.069 92.5724 54.2411 87.2974 60.8096C82.022 67.3781 74.6635 71.95 66.4378 73.7695C58.2121 75.5886 49.6118 74.5465 42.0585 70.8154C34.5056 67.084 28.4519 60.887 24.8982 53.2486C21.3448 45.6102 20.504 36.9879 22.5153 28.8068C24.5267 20.626 29.2696 13.3764 35.9597 8.25644C42.6498 3.13655 50.887 0.452905 59.3093 0.649214C67.7316 0.845491 75.8346 3.90995 82.279 9.33597C86.4048 12.8094 89.7214 17.1428 91.9966 22.0328C94.2714 26.923 95.4497 32.2512 95.4487 37.6445Z" stroke="black" stroke-width="1.27859" stroke-miterlimit="10"/>
<path d="M45.058 229.565V245.664H8.83648C8.41099 245.665 7.98967 245.58 7.59721 245.416C7.20478 245.251 6.84907 245.01 6.55097 244.707C6.25283 244.403 6.01829 244.043 5.86108 243.648C5.70388 243.252 5.62713 242.829 5.63536 242.404L5.81492 232.717C5.83034 231.879 6.17451 231.08 6.77325 230.493C7.37198 229.905 8.17743 229.577 9.01604 229.578L45.058 229.565Z" fill="#D7E8F0"/>
<path d="M102.519 232.764V242.451C102.519 243.299 102.182 244.114 101.581 244.714C100.981 245.314 100.167 245.652 99.3177 245.652H45.0566V229.553H99.3177C99.7387 229.553 100.156 229.636 100.545 229.798C100.934 229.959 101.287 230.196 101.584 230.494C101.882 230.792 102.118 231.146 102.278 231.536C102.438 231.925 102.52 232.342 102.519 232.764Z" fill="#E8732A"/>
<path d="M50.512 245.652V278.421H15.8043C14.3251 278.418 12.9069 277.831 11.8587 276.787C10.8104 275.744 10.2168 274.328 10.207 272.849V245.667L50.512 245.652Z" fill="#D7E8F0"/>
<path d="M96.2871 245.652V272.833C96.2771 274.313 95.6837 275.728 94.6354 276.772C93.5872 277.815 92.1689 278.403 90.6897 278.406H50.5117V245.652H96.2871Z" fill="#E8732A"/>
<path d="M50.2127 25.1584C54.3271 25.1584 56.5561 28.1428 56.5561 31.7773C56.5561 36.4056 53.4014 38.8978 50.0084 38.8978C46.3707 38.8978 43.5938 36.223 43.5938 32.1767C43.5938 28.3719 46.0302 25.146 50.1786 25.146L50.2127 25.1584ZM50.0765 28.4524C48.671 28.4524 48.1199 30.0282 48.1199 32.0529C48.1199 34.1766 48.7731 35.6193 50.1446 35.6193C51.3829 35.6193 52.03 34.4181 52.03 32.0529C52.03 29.9941 51.516 28.4524 50.1105 28.4524H50.0765ZM50.4882 48.2039L63.1812 25.2296H66.3483L53.6924 48.2039H50.4882ZM66.9489 34.4181C71.0633 34.4181 73.2923 37.3994 73.2923 41.037C73.2923 45.6653 70.1376 48.1575 66.7415 48.1575C63.1069 48.1575 60.3299 45.4827 60.3299 41.4023C60.3299 37.6285 62.7633 34.4057 66.9148 34.4057L66.9489 34.4181ZM66.8096 37.7121C65.4041 37.7121 64.8561 39.2879 64.8561 41.3126C64.8561 43.4363 65.5093 44.879 66.8808 44.879C68.1191 44.879 68.7662 43.6406 68.7662 41.2754C68.7662 39.2198 68.2522 37.7121 66.8467 37.7121H66.8096Z" fill="white"/>
<path d="M49.7529 197.87C44.2206 197.87 33.964 193.353 39.391 187.304C39.9638 186.616 40.6761 186.058 41.4807 185.666L41.5241 185.638H41.5426C42.8407 185.033 44.2299 184.646 45.6539 184.493C46.1121 184.455 46.5734 184.469 47.0285 184.536C46.3041 184.502 45.4589 184.895 44.4589 185.852C44.2825 186.013 44.0936 186.217 43.8986 186.431C38.4839 192.468 44.1617 197.384 49.7529 197.87Z" fill="#D7E8F0"/>
<path d="M51.177 197.594L50.3163 197.758C50.3163 197.758 48.2669 188.124 44.459 185.846C45.4589 184.889 46.3165 184.496 47.0285 184.53C47.0428 184.533 47.0576 184.533 47.0719 184.53L47.3815 184.573L47.4898 184.598C51.0408 185.691 51.177 197.594 51.177 197.594Z" fill="#E8732A"/>
<path d="M50.5099 229.562H9.02542C8.18597 229.562 7.38009 229.891 6.78135 230.48C6.18261 231.068 5.83891 231.868 5.8243 232.707L5.65093 242.394C5.6431 242.82 5.72012 243.242 5.87752 243.638C6.03488 244.033 6.26942 244.392 6.56746 244.696C6.8655 245 7.22103 245.241 7.61327 245.405C8.00555 245.57 8.42668 245.654 8.85205 245.654H99.3161C99.7368 245.654 100.153 245.571 100.542 245.41C100.93 245.249 101.283 245.013 101.581 244.716C101.878 244.418 102.114 244.065 102.274 243.676C102.435 243.287 102.517 242.871 102.517 242.45V232.763C102.517 231.914 102.18 231.1 101.579 230.5C100.979 229.899 100.165 229.562 99.3161 229.562H39.4329" stroke="black" stroke-width="1.27859" stroke-miterlimit="10"/>
<path d="M90.69 278.424H15.8012C14.3186 278.419 12.8979 277.828 11.85 276.779C10.8017 275.73 10.2111 274.309 10.207 272.827V245.654H96.2718V272.827C96.2669 274.307 95.6777 275.725 94.6326 276.774C93.5871 277.822 92.1705 278.415 90.69 278.424Z" stroke="black" stroke-width="1.27859" stroke-miterlimit="10"/>
<path d="M85.4404 200.104V206.352C85.4404 206.9 85.2228 207.425 84.8355 207.812C84.4485 208.199 83.9231 208.417 83.3755 208.417H48.3613V198.04H83.3755C83.9231 198.04 84.4485 198.257 84.8355 198.644C85.2228 199.031 85.4404 199.557 85.4404 200.104Z" fill="#E8732A"/>
<path d="M48.3609 198.04V208.417H25.0027C24.7287 208.417 24.4575 208.362 24.2049 208.256C23.9525 208.15 23.7235 207.994 23.5312 207.799C23.3393 207.604 23.1879 207.372 23.086 207.118C22.9839 206.864 22.9337 206.592 22.9377 206.318L23.0492 200.061C23.0597 199.521 23.282 199.006 23.6683 198.628C24.0544 198.25 24.5736 198.039 25.1141 198.04H48.3609Z" fill="#D7E8F0"/>
<path d="M81.4204 208.417V225.955C81.417 226.913 81.0343 227.83 80.3563 228.507C79.678 229.183 78.7592 229.564 77.8013 229.564H51.8828V208.417H81.4204Z" fill="#E8732A"/>
<path d="M51.8831 208.417V229.564H29.5063C28.5496 229.562 27.633 229.181 26.9565 228.505C26.2801 227.828 25.899 226.911 25.8965 225.955V208.417H51.8831Z" fill="#D7E8F0"/>
<path d="M45.0547 229.562V245.654" stroke="black" stroke-width="1.27859" stroke-miterlimit="10"/>
<path d="M50.5098 245.654V278.424" stroke="black" stroke-width="1.27859" stroke-miterlimit="10"/>
<path d="M85.4404 200.104V206.352C85.4404 206.9 85.2228 207.425 84.8355 207.812C84.4485 208.199 83.9231 208.417 83.3755 208.417H48.3613V198.04H83.3755C83.9231 198.04 84.4485 198.257 84.8355 198.644C85.2228 199.031 85.4404 199.557 85.4404 200.104Z" stroke="black" stroke-width="1.27859" stroke-miterlimit="10"/>
<path d="M48.3609 198.04V208.417H25.0027C24.7287 208.417 24.4575 208.362 24.2049 208.256C23.9525 208.15 23.7235 207.994 23.5312 207.799C23.3393 207.604 23.1879 207.372 23.086 207.118C22.9839 206.864 22.9337 206.592 22.9377 206.318L23.0492 200.061C23.0597 199.521 23.282 199.006 23.6683 198.628C24.0544 198.25 24.5736 198.039 25.1141 198.04H48.3609Z" stroke="black" stroke-width="1.27859" stroke-miterlimit="10"/>
<path d="M81.4204 208.417V225.955C81.417 226.913 81.0343 227.83 80.3563 228.507C79.678 229.183 78.7592 229.564 77.8013 229.564H51.8828V208.417H81.4204Z" stroke="black" stroke-width="1.27859" stroke-miterlimit="10"/>
<path d="M51.8831 208.417V229.564H29.5063C28.5496 229.562 27.633 229.181 26.9565 228.505C26.2801 227.828 25.899 226.911 25.8965 225.955V208.417H51.8831Z" stroke="black" stroke-width="1.27859" stroke-miterlimit="10"/>
<path d="M55.5312 198.037C64.0913 195.56 77.2642 186.214 67.0231 178.474C65.92 177.578 64.6405 176.925 63.2678 176.558C63.2189 176.536 63.1662 176.524 63.113 176.521C62.3319 176.337 61.5171 176.355 60.7447 176.571C59.9723 176.788 59.2673 177.197 58.6952 177.759" stroke="black" stroke-width="1.27859" stroke-miterlimit="10"/>
<path d="M58.6942 177.753C53.4777 182.443 53.2424 198.037 53.2424 198.037H51.8555C51.8555 198.037 46.6947 170.032 58.6942 177.753Z" stroke="black" stroke-width="1.27859" stroke-miterlimit="10"/>
<path d="M54.14 198.037H53.2422C53.2422 198.037 53.4775 182.444 58.694 177.753C59.0578 177.976 59.4101 178.217 59.7497 178.475C70.0093 186.214 62.6815 195.576 54.14 198.037Z" stroke="black" stroke-width="1.27859" stroke-miterlimit="10"/>
<path d="M53.6211 176.675C54.5279 176.346 55.4687 176.12 56.4259 176C58.7163 175.802 61.0239 175.989 63.2523 176.554" stroke="black" stroke-width="1.27859" stroke-miterlimit="10"/>
<path d="M49.0105 198.037C43.4039 197.554 34.0978 193.35 39.5062 187.307C40.0805 186.616 40.7947 186.056 41.6021 185.663C41.6294 185.643 41.6597 185.629 41.6919 185.619C42.1535 185.411 42.6603 185.322 43.1652 185.362C43.6702 185.401 44.1568 185.568 44.5803 185.845" stroke="black" stroke-width="1.27859" stroke-miterlimit="10"/>
<path d="M44.5645 185.846C48.3724 188.118 50.4125 197.762 50.4125 197.762L51.2732 197.591C51.2732 197.591 51.0658 179.598 44.5645 185.846Z" stroke="black" stroke-width="1.27859" stroke-miterlimit="10"/>
<path d="M49.8565 197.869L50.4138 197.761C50.4138 197.761 48.3736 188.117 44.5657 185.845C44.3861 186.006 44.1973 186.207 43.9991 186.421C38.5814 192.467 44.2623 197.38 49.8565 197.869Z" stroke="black" stroke-width="1.27859" stroke-miterlimit="10"/>
<path d="M47.5826 184.56C46.9795 184.466 46.3681 184.44 45.7592 184.482C44.3118 184.638 42.9014 185.036 41.5859 185.659" stroke="black" stroke-width="1.27859" stroke-miterlimit="10"/>
<path d="M231.047 72.1536L232.258 74.3207C232.258 74.3207 230.487 78.2587 235.233 78.9397C239.979 79.6208 246.226 74.9554 246.396 71.875C253.687 74.6922 257.541 81.7817 257.61 89.3728C257.733 108.165 233.555 119.557 217.397 117.855C209.277 117.003 201.609 113.421 195.206 108.366C194.352 107.703 193.531 107.007 192.73 106.289C191.107 104.809 189.587 103.221 188.179 101.536C187.45 100.67 186.74 99.7829 186.049 98.8771" stroke="black" stroke-width="1.16714" stroke-miterlimit="10"/>
<path d="M241.408 63.3364L246.058 72.2061" stroke="black" stroke-width="1.27859" stroke-miterlimit="10"/>
<path d="M0 278.421H268.912" stroke="black" stroke-width="1.27859" stroke-miterlimit="10"/>
<path d="M185.537 28.8765H185.497C183.999 29.1303 182.197 30.4646 181.262 32.1921C180.191 34.1456 180.067 36.5263 179.838 37.5356C179.813 37.6501 179.788 37.7616 179.776 37.8637C179.749 37.9498 179.729 38.0377 179.714 38.1269L179.674 38.2786C179.531 38.7674 179.21 39.185 178.775 39.4494C178.34 39.7141 177.821 39.8067 177.321 39.7092C176.822 39.6113 176.376 39.3306 176.072 38.9216C175.769 38.5126 175.629 38.0052 175.68 37.4984L175.767 36.7926C175.795 36.5387 175.832 36.3003 175.881 36.0619C175.982 35.3703 176.134 34.6874 176.337 34.0187C176.364 33.9137 176.397 33.8103 176.436 33.7091C176.473 33.5494 176.524 33.393 176.587 33.2416C176.617 33.1602 176.651 33.0806 176.689 33.0032" stroke="black" stroke-width="1.27859" stroke-miterlimit="10"/>
<path d="M189.339 42.9785C188.402 43.8763 187.507 44.324 186.652 44.3222C186.29 44.3225 185.932 44.241 185.606 44.0838C185.299 43.946 185.022 43.7494 184.792 43.5048C184.018 42.7092 184.049 41.3749 184.417 40.4802C184.684 39.8994 185.045 39.3669 185.485 38.9044C185.624 38.7465 185.761 38.5948 185.881 38.4307C186.289 37.9667 186.596 37.424 186.785 36.8364C186.785 36.8023 186.785 36.7714 186.801 36.7373" stroke="black" stroke-width="1.27859" stroke-miterlimit="10"/>
<path d="M181.99 28.0093C182.569 28.1176 183.126 28.2508 183.696 28.3808C184.266 28.5108 184.897 28.6904 185.492 28.8761C186.854 29.2789 188.129 29.9306 189.253 30.7986C192.306 33.0555 192.946 36.9037 190.745 39.7426" stroke="black" stroke-width="1.27859" stroke-miterlimit="10"/>
<path d="M179.839 37.5348C179.839 37.5627 179.839 37.5874 179.824 37.6215C179.816 37.7255 179.802 37.8289 179.781 37.9311L179.712 38.6369C179.672 39.0183 179.74 39.4035 179.908 39.748C180.077 40.0923 180.339 40.3824 180.665 40.5848C180.991 40.787 181.367 40.8935 181.75 40.8916C182.134 40.8901 182.509 40.7802 182.833 40.5749C183.066 40.4307 183.267 40.2393 183.423 40.0133C183.578 39.7877 183.685 39.5319 183.737 39.2623C183.796 38.9991 183.845 38.7143 183.914 38.445C184.161 37.3986 184.254 36.4636 185.034 35.6587C185.254 35.4312 185.516 35.2482 185.805 35.12C185.878 35.0891 185.954 35.0649 186.031 35.0488" stroke="black" stroke-width="1.27859" stroke-miterlimit="10"/>
<path d="M171.563 35.6848V35.6043C171.695 34.2653 172.049 32.9576 172.609 31.7345C172.956 30.9698 173.421 30.2645 173.987 29.6448C174.874 28.6445 176.075 27.9761 177.392 27.7501C177.773 27.6944 178.148 27.6572 178.531 27.6386C179.689 27.6222 180.844 27.747 181.971 28.0101C181.042 28.0813 179.451 29.0751 178.302 30.3258C177.843 30.7998 177.458 31.3416 177.163 31.9326C177.018 32.2422 176.854 32.5827 176.739 32.9109C176.621 33.1771 176.519 33.4465 176.429 33.7096C176.16 34.4712 175.928 35.2235 175.751 35.917C175.671 36.2265 175.597 36.5361 175.538 36.8148C175.442 37.3308 175.159 37.7934 174.744 38.1147C174.329 38.4364 173.811 38.5939 173.287 38.5577C172.754 38.4955 172.267 38.2255 171.932 37.8064C171.597 37.3872 171.441 36.8528 171.498 36.3194L171.56 35.6848" stroke="black" stroke-width="1.27859" stroke-miterlimit="10"/>
<path d="M169.13 89.8954C168.604 88.8397 168.264 87.6819 168.771 86.6726C169.92 84.3817 173.613 85.5953 175.774 84.1959C177.632 83.004 177.443 81.5892 178.458 79.8246C179.644 77.7596 181.78 78.5862 183.412 79.6141C185.495 80.9174 190.046 85.4962 197.343 90.0069C199.613 91.4179 201.785 92.9807 203.844 94.6847C209.581 99.4121 223.871 107.604 236.295 85.5674" stroke="black" stroke-width="1.18881" stroke-miterlimit="10"/>
<path d="M186.349 99.2447C185.331 98.2075 184.223 97.1116 182.792 96.8516C181.266 96.5698 179.743 97.2912 178.198 97.3655C174.393 97.5388 171.57 93.9941 169.61 90.728C169.449 90.4648 169.3 90.1831 169.143 89.9014" stroke="black" stroke-width="1.18881" stroke-miterlimit="10"/>
<path d="M177.271 94.1895C177.271 94.1895 173.634 96.143 172.086 94.1338" stroke="black" stroke-width="1.18881" stroke-miterlimit="10"/>
<path d="M169.928 91.2764C169.928 91.2764 172.884 93.2887 174.959 91.6107" stroke="black" stroke-width="1.18881" stroke-miterlimit="10"/>
<path d="M168.557 88.6167C168.557 88.6167 171.129 90.1925 172.235 89.0625" stroke="black" stroke-width="1.18881" stroke-miterlimit="10"/>
<path d="M145.396 151.577H96.0421C93.3038 151.577 91.084 153.796 91.084 156.535V169.332C91.084 172.07 93.3038 174.29 96.0421 174.29H145.396C148.134 174.29 150.354 172.07 150.354 169.332V156.535C150.354 153.796 148.134 151.577 145.396 151.577Z" fill="#D7E8F0"/>
<path d="M128.01 166.635V159.511H129.961V166.061L129.082 165.085H132.502V166.635H128.01Z" fill="white"/>
<path d="M122.67 166.635V159.511H124.621V166.061L123.742 165.085H127.162V166.635H122.67Z" fill="white"/>
<path d="M115.549 166.635L117.206 159.511H120.302L121.949 166.635H119.954L118.751 160.675H118.761L117.544 166.635H115.549ZM116.998 165.138V163.674H120.514V165.138H116.998Z" fill="white"/>
<path d="M115.31 163.945C115.31 164.27 115.247 164.599 115.122 164.93C114.999 165.259 114.811 165.562 114.557 165.839C114.305 166.115 113.985 166.339 113.595 166.51C113.209 166.677 112.75 166.761 112.219 166.761C111.52 166.761 110.921 166.605 110.422 166.293C109.926 165.977 109.546 165.542 109.282 164.988C109.021 164.435 108.891 163.795 108.891 163.071C108.891 162.346 109.021 161.709 109.282 161.158C109.546 160.604 109.926 160.171 110.422 159.859C110.921 159.546 111.52 159.39 112.219 159.39C112.798 159.39 113.293 159.488 113.702 159.685C114.114 159.881 114.444 160.139 114.692 160.458C114.943 160.776 115.117 161.118 115.213 161.482C115.278 161.73 115.31 161.97 115.31 162.201H113.354C113.354 162.098 113.347 162.008 113.334 161.931C113.305 161.722 113.243 161.54 113.146 161.385C113.049 161.23 112.922 161.111 112.765 161.028C112.61 160.941 112.428 160.897 112.219 160.897C111.968 160.897 111.74 160.971 111.538 161.119C111.335 161.268 111.172 161.501 111.05 161.82C110.931 162.139 110.871 162.556 110.871 163.071C110.871 163.583 110.931 164 111.05 164.322C111.172 164.644 111.335 164.881 111.538 165.032C111.74 165.183 111.968 165.259 112.219 165.259C112.399 165.259 112.558 165.227 112.697 165.162C112.839 165.095 112.958 165.001 113.054 164.882C113.151 164.763 113.225 164.625 113.277 164.467C113.328 164.306 113.354 164.132 113.354 163.945H115.31Z" fill="white"/>
</svg>
