<svg width="284" height="281" viewBox="0 0 284 281" fill="none" xmlns="http://www.w3.org/2000/svg">
<path d="M40.6465 126.718C50.9577 112.306 66.4103 105.773 66.4103 105.773C66.9147 105.563 64.7654 85.8183 64.7215 84.4178C64.0699 61.3516 67.8954 37.3517 85.2342 20.696C106.909 -0.111325 146.237 -4.42253 171.101 13.1074C170.788 12.8755 179.282 6.18003 179.999 5.75079C184.64 2.95007 189.876 1.28502 195.283 0.891282C217.039 -0.675289 236.991 16.4192 245.153 37.098C253.315 57.7767 251.441 104.893 236.468 118.481" stroke="#CCDDE2" stroke-width="1.58224" stroke-miterlimit="10"/>
<path d="M31.3516 151.721C31.8876 146.044 33.3471 140.493 35.6722 135.287C35.8937 134.792 36.1255 134.308 36.3677 133.833" stroke="#CCDDE2" stroke-width="1.58224" stroke-miterlimit="10"/>
<path d="M58.2407 211.701C55.7342 209.423 53.4126 207.104 51.2852 204.773" stroke="#CCDDE2" stroke-width="1.58224" stroke-miterlimit="10"/>
<path d="M267.108 143.96C267.127 145.527 267.108 147.124 267.033 148.726C266.588 158.629 264.467 168.865 259.166 177.206C258.201 178.745 257.124 180.211 255.945 181.592C244.665 180.104 242.983 168.599 229.94 162.095C214.315 154.284 188.729 157.082 188.729 157.082L201.334 145.455C200.66 110.439 174.953 112.588 174.953 112.588L173.646 115.787C174.639 112.89 175.642 110.188 176.657 107.681L176.714 107.55C188.62 77.9792 200.955 74.3134 210.552 70.0429C212.844 69.4984 215.192 69.2186 217.548 69.2095C242.084 69.0779 256.484 94.0647 262.781 114.179C264.348 119.193 266.757 129.914 267.08 141.97C267.086 142.616 267.108 143.29 267.108 143.96Z" fill="#2E2E2E"/>
<path d="M280.894 275.201C278.989 277.824 275.846 279.252 272.606 279.252H235.385C233.954 279.273 232.535 278.994 231.22 278.433C229.903 277.872 228.719 277.043 227.743 275.997C227.611 275.863 227.487 275.721 227.373 275.571C226.207 274.126 225.477 272.378 225.271 270.533C225.083 268.838 226.343 267.331 228.047 267.4C228.693 267.424 229.308 267.683 229.778 268.126C230.248 268.57 230.541 269.169 230.604 269.812C230.604 269.947 230.632 270.079 230.651 270.21C230.788 270.975 231.125 271.69 231.625 272.284C232.068 272.808 232.624 273.223 233.25 273.501C233.877 273.778 234.559 273.909 235.244 273.885H272.766C273.438 273.897 274.104 273.763 274.719 273.492C275.334 273.222 275.883 272.821 276.329 272.319C276.831 271.737 277.174 271.035 277.323 270.282C277.473 269.528 277.423 268.749 277.181 268.02L260.422 218.187C260.285 217.805 260.123 217.432 259.936 217.072C258.952 214.994 257.393 213.241 255.443 212.023C253.493 210.805 251.235 210.171 248.936 210.198C241.88 210.283 232.922 210.301 232.079 210.301C213.302 210.232 204.758 210.232 200.059 210.358C200.381 209.203 200.964 208.137 201.763 207.243C201.763 207.243 201.782 207.225 201.782 207.215C202.928 205.994 204.497 205.255 206.168 205.15C213.13 204.58 220.023 203.54 226.719 201.723C238.534 198.521 249.803 193.028 257.633 184.196C261.444 179.92 264.325 174.899 266.093 169.451C267.464 165.125 268.329 160.655 268.668 156.129C268.789 154.701 268.865 153.261 268.894 151.812V151.746C268.894 151.414 268.913 151.072 268.913 150.74C268.955 148.676 268.861 146.61 268.631 144.559C270.676 144.575 272.636 145.386 274.095 146.821C274.223 147.158 274.317 147.508 274.377 147.864C274.433 148.201 274.462 148.543 274.461 148.885V189.413C274.465 192.181 273.918 194.922 272.854 197.477C271.789 200.032 270.228 202.351 268.261 204.298C265.002 207.525 264.075 212.422 265.62 216.731L282.275 266.291C282.779 267.777 282.916 269.364 282.675 270.915C282.435 272.466 281.824 273.936 280.894 275.201Z" fill="#E8732A"/>
<path d="M51.2871 273.95V160.333H58.2396V273.997L51.2871 273.95Z" fill="#2E2E2E"/>
<path d="M188.732 157.066C193.711 156.537 199.47 155.91 205 156.035" stroke="black" stroke-width="1.58224" stroke-miterlimit="10"/>
<path d="M161.612 162.084C152.795 164.309 144.217 167.52 136.898 172.859C124.616 181.808 119.001 198.501 124.02 212.964C124.02 212.982 143.759 269.921 143.759 269.921H138.564C137.445 269.921 136.336 270.142 135.303 270.572C134.269 271.002 133.331 271.633 132.542 272.427C130.998 273.963 130.236 276.522 130.236 278.872H176.992L159.224 220.753C158.781 219.32 158.682 217.803 158.934 216.325C159.185 214.847 159.782 213.448 160.674 212.243C161.567 211.038 162.731 210.06 164.072 209.389C165.412 208.717 166.892 208.37 168.392 208.377C178.515 208.662 187.918 209.05 198.157 208.605" stroke="black" stroke-width="1.58224" stroke-miterlimit="10"/>
<path d="M267.181 149.198V149.136C266.727 136.916 266.113 124.86 262.77 114.17C256.472 94.055 242.072 69.0681 217.536 69.1997C215.18 69.2088 212.833 69.4886 210.54 70.0332C194.367 73.8775 183.135 90.4487 176.702 107.54L176.646 107.672C176.032 109.311 175.464 110.947 174.941 112.578C174.587 113.676 174.151 114.745 173.635 115.777C171.664 119.748 168.541 123.031 164.674 125.197C160.806 127.364 156.375 128.312 151.96 127.918C122.258 125.217 83.1121 123.676 70.7832 144.546" stroke="black" stroke-width="1.58224" stroke-miterlimit="10"/>
<path d="M218.576 126.471C214.252 131.691 209.699 136.732 204.993 141.607C195.359 151.595 187.047 162.204 172.095 162.912C160.168 163.486 148.813 158.908 137.534 155.734C125.468 152.341 119.362 149.628 108.117 146.2C104.878 145.217 101.519 144.69 98.1345 144.634L86.8145 144.721" stroke="black" stroke-width="1.58224" stroke-miterlimit="10"/>
<path d="M174.422 270.655C175.5 270.172 176.669 269.924 177.85 269.928H183.057C183.057 269.928 172.173 248.77 163.469 234.687" stroke="black" stroke-width="1.58224" stroke-miterlimit="10"/>
<path d="M181.574 208.653L217.982 279.252H176.799H169.33" stroke="black" stroke-width="1.58224" stroke-miterlimit="10"/>
<path d="M280.894 275.201C278.989 277.824 275.847 279.252 272.607 279.252H235.385C232.299 279.252 229.288 277.974 227.364 275.561C226.198 274.116 225.469 272.368 225.262 270.523C225.074 268.828 226.334 267.321 228.038 267.39C228.684 267.415 229.299 267.673 229.769 268.117C230.239 268.56 230.532 269.159 230.595 269.803C230.671 270.713 231.028 271.576 231.616 272.275C232.065 272.79 232.622 273.2 233.248 273.477C233.873 273.754 234.551 273.89 235.235 273.876H272.767C273.439 273.887 274.105 273.753 274.72 273.483C275.334 273.212 275.884 272.812 276.329 272.309C276.831 271.728 277.174 271.026 277.324 270.272C277.473 269.519 277.424 268.739 277.181 268.011L260.422 218.187C259.573 215.828 258.012 213.792 255.954 212.36C253.896 210.929 251.443 210.173 248.936 210.198C241.88 210.282 232.923 210.301 232.08 210.301C211.172 210.235 202.942 210.235 198.58 210.395C198.512 210.395 198.445 210.381 198.383 210.355C198.32 210.328 198.263 210.29 198.216 210.241C198.168 210.193 198.13 210.136 198.105 210.073C198.079 210.01 198.066 209.943 198.066 209.875C198.06 207.941 198.77 206.072 200.059 204.63C200.064 204.626 200.069 204.622 200.072 204.616C200.075 204.611 200.077 204.605 200.078 204.599C201.226 203.38 202.793 202.643 204.464 202.537C211.426 201.967 218.319 200.927 225.015 199.11C236.83 195.908 248.1 190.415 255.929 181.583C259.74 177.307 262.621 172.286 264.389 166.838C265.757 162.514 266.618 158.045 266.955 153.522C267.078 152.089 267.153 150.65 267.18 149.205V149.136C267.18 148.807 267.199 148.466 267.199 148.133C267.242 146.069 267.148 144.004 266.917 141.952C270.326 141.933 273.763 144.411 274.358 147.87C274.415 148.208 274.443 148.549 274.443 148.892V189.413C274.446 192.181 273.9 194.922 272.835 197.477C271.771 200.032 270.21 202.351 268.243 204.298C264.984 207.525 264.057 212.422 265.601 216.73L282.257 266.291C282.763 267.776 282.903 269.361 282.666 270.913C282.429 272.464 281.821 273.935 280.894 275.201Z" stroke="black" stroke-width="1.58224" stroke-miterlimit="10"/>
<path d="M102.067 151.725H5.09282C2.71699 151.725 0.791016 153.651 0.791016 156.026V156.03C0.791016 158.405 2.71699 160.331 5.09282 160.331H102.067C104.443 160.331 106.369 158.405 106.369 156.03V156.026C106.369 153.651 104.443 151.725 102.067 151.725Z" stroke="black" stroke-width="1.58224" stroke-miterlimit="10"/>
<path d="M74.605 274.49H35.3938C34.0631 274.49 32.9844 275.568 32.9844 276.899C32.9844 278.23 34.0631 279.309 35.3938 279.309H74.605C75.9357 279.309 77.0144 278.23 77.0144 276.899C77.0144 275.568 75.9357 274.49 74.605 274.49Z" stroke="black" stroke-width="1.58224" stroke-miterlimit="10"/>
<path d="M45.8652 147.861V148.294C45.9279 151.267 48.7258 151.721 51.1383 151.74L97.7783 151.709C99.8211 151.709 101.507 150.142 101.51 148.218V148.137C101.472 146.257 99.8305 144.725 97.8127 144.722C97.8127 144.722 71.7199 144.628 51.5112 144.568C51.1477 145.627 50.2266 146.448 49.0767 147.119C48.0876 147.637 46.9816 147.893 45.8652 147.861Z" stroke="black" stroke-width="1.58224" stroke-miterlimit="10"/>
<path d="M20.216 105.971C20.2257 106.466 20.3673 106.949 20.6264 107.371L42.2451 143.681C42.5249 144.117 42.8921 144.492 43.3232 144.78C43.7546 145.067 44.2409 145.263 44.7516 145.354C45.6154 145.524 46.5105 145.427 47.3176 145.075C48.643 144.486 49.4074 143.299 49.3824 142.096C49.3777 141.944 49.362 141.793 49.3354 141.645C49.269 141.313 49.1458 140.995 48.9719 140.705L27.3533 104.395C26.4133 102.806 24.1136 102.183 22.265 103C20.946 103.577 20.1815 104.764 20.216 105.971Z" stroke="black" stroke-width="1.58224" stroke-miterlimit="10"/>
<path d="M78.6758 144.722C78.6758 144.722 81.2794 142.243 87.2669 138.308" stroke="black" stroke-width="1.58224" stroke-miterlimit="10"/>
<path d="M99.9051 103.99L90.4148 114.515C89.754 115.248 88.8366 115.699 87.8525 115.776C86.8681 115.852 85.8921 115.548 85.126 114.925C84.7028 114.581 84.3575 114.152 84.1125 113.665C83.8675 113.178 83.7283 112.645 83.7048 112.101C83.681 111.556 83.7731 111.012 83.9749 110.506C84.1767 110 84.4837 109.542 84.8754 109.163L86.6111 107.484C86.6769 107.39 86.7521 107.305 86.8273 107.218L88.0806 105.836L98.8586 94.1242C100.167 92.6864 101.814 91.5995 103.65 90.9626C105.486 90.3253 107.453 90.1586 109.37 90.4773L109.53 90.5054" stroke="black" stroke-width="1.58224" stroke-miterlimit="10"/>
<path d="M113.272 106.839H103.778C102.698 106.839 101.662 106.409 100.898 105.645C100.134 104.882 99.7051 103.846 99.7051 102.765C99.7051 101.685 100.134 100.649 100.898 99.8855C101.662 99.1216 102.698 98.6924 103.778 98.6924H117.251" stroke="black" stroke-width="1.58224" stroke-miterlimit="10"/>
<path d="M105.993 106.839C105.861 108.503 105.225 109.734 104.288 110.599C101.876 112.792 97.4517 112.551 94.375 111.044" stroke="black" stroke-width="1.58224" stroke-miterlimit="10"/>
<path d="M88.0954 105.83C85.3664 102.543 85.9273 98.0753 88.0484 94.6194C96.8055 80.3198 113.499 89.127 124.474 95.2899C131.008 98.9761 137.253 103.151 143.157 107.779C148.383 111.852 153.221 116.727 159.5 119.177C163.259 120.646 167.699 120.997 171.44 119.302" stroke="black" stroke-width="1.58224" stroke-miterlimit="10"/>
<path d="M104.287 110.574C110.91 115.462 117.233 120.742 123.224 126.387" stroke="black" stroke-width="1.58224" stroke-miterlimit="10"/>
<path d="M184.865 33.7038C186.451 35.1513 188.885 35.2297 190.9 35.0354C193.475 34.8004 196.026 34.1769 198.548 33.6506L200.08 33.5722H200.102C200.396 33.5754 200.686 33.6358 200.956 33.7511C201.227 33.8661 201.472 34.0334 201.677 34.243C201.883 34.453 202.045 34.7011 202.155 34.9737C202.265 35.2463 202.32 35.5376 202.317 35.8312C202.352 39.1379 202.022 42.4384 201.333 45.6724L204.269 47.2609C204.648 46.2019 204.222 44.6761 205.121 44.5602C205.698 43.4855 206.556 42.7868 207.903 43.5858C210.541 45.1523 211.582 49.7549 209.041 51.8635L210.67 54.9089C211.238 55.9767 212.159 56.8139 213.275 57.2779C214.392 57.7419 215.635 57.804 216.792 57.453L215.128 53.7747C219.032 54.4672 221.764 49.5951 220.574 46.6218C219.762 44.579 219.803 42.9905 220.887 41.004C220.959 40.8693 220.223 40.6907 220.286 40.5529C220.323 39.096 219.919 37.5357 219.217 36.7931C217.983 35.4647 215.498 35.2265 216.006 33.2088C216.231 32.3309 216.315 31.4223 216.253 30.5174C216.121 29.3347 215.737 28.1939 215.126 27.1722C214.516 26.1501 213.694 25.2707 212.716 24.5926C210.661 23.2423 208.361 24.4673 206.164 24.4329C203.498 24.4047 201.587 22.1425 198.792 22.1081C197.401 22.0861 196.286 22.6282 195.095 23.3018C194.099 23.8752 193.118 24.4736 192.166 25.1221C191.213 25.7707 190.367 26.3315 189.23 26.3347C187.748 26.3535 186.316 25.4135 184.825 25.8522C184.07 26.0552 183.408 26.5082 182.945 27.1368C182.472 29.449 183.327 32.3096 184.865 33.7038Z" fill="#E8732A"/>
<path d="M204.281 46.9176C204.472 46.1014 204.754 45.3091 205.121 44.5552C205.697 43.4806 206.559 42.7819 207.903 43.5808C210.541 45.1474 211.581 49.75 209.04 51.8586L210.67 54.904C211.237 55.9715 212.159 56.8089 213.275 57.273C214.392 57.737 215.635 57.7987 216.792 57.4481" stroke="black" stroke-width="1.58224" stroke-linecap="round" stroke-linejoin="round"/>
<path d="M215.129 53.7695L216.786 57.4541C217.203 58.3345 218.397 61.0416 219.647 63.8551C220.537 65.8697 221.464 67.9439 222.153 69.4697" stroke="black" stroke-width="1.58224" stroke-linecap="round" stroke-linejoin="round"/>
<path d="M188.281 40.5381C188.281 40.5381 193.166 39.3225 195.299 43.0258" stroke="black" stroke-width="1.58224" stroke-miterlimit="10"/>
<path d="M189.72 51.5954C188.405 51.9557 186.634 52.2784 185.619 51.1317L187.831 46.4758C188.368 45.3341 188.501 44.0435 188.207 42.8163C187.725 40.7516 186.518 37.6153 187.812 34.8926" stroke="black" stroke-width="1.58224" stroke-miterlimit="10"/>
<path d="M193.006 45.3554C193.377 44.7403 193.091 43.8884 192.368 43.4526C191.644 43.0168 190.758 43.1618 190.387 43.7769C190.016 44.3919 190.302 45.2438 191.025 45.6796C191.748 46.1158 192.635 45.9704 193.006 45.3554Z" fill="black"/>
<path d="M200.134 74.6679L198.975 61.8032" stroke="black" stroke-width="1.58224" stroke-miterlimit="10"/>
<path d="M204.27 47.2548C204.27 47.142 204.27 47.026 204.27 46.9133C204.276 46.7923 204.276 46.6711 204.27 46.5498" stroke="black" stroke-width="1.58224" stroke-linecap="round" stroke-linejoin="round"/>
<path d="M204.273 47.2591L203.264 46.7171L201.334 45.6675" stroke="black" stroke-width="1.58224" stroke-linecap="round" stroke-linejoin="round"/>
<path d="M196.195 51.9268C196.195 51.9268 196.098 55.1852 192.373 56.5262" stroke="black" stroke-width="1.58224" stroke-miterlimit="10"/>
<path d="M215.13 53.7693C219.034 54.4618 221.766 49.5897 220.575 46.6164C219.764 44.5736 219.804 42.9851 220.888 40.9986C220.96 40.8639 221.02 40.7323 221.083 40.6007C221.888 38.8242 221.603 37.0634 220.337 35.5532C219.137 34.1245 217.329 33.6232 217.849 31.5397C218.083 30.6351 218.17 29.699 218.106 28.7669C217.971 27.5503 217.577 26.3769 216.95 25.3257C216.323 24.2746 215.478 23.37 214.472 22.6729C212.36 21.2724 209.982 22.5413 207.707 22.5068C204.969 22.4661 202.992 20.1351 200.119 20.1006C198.681 20.1006 197.521 20.6364 196.3 21.3319C195.272 21.9241 194.254 22.5476 193.282 23.2118C192.311 23.876 191.402 24.4651 190.249 24.4651C188.72 24.4651 187.245 23.5251 185.716 23.9638C184.187 24.4024 183.278 25.6682 182.977 27.1345C182.489 29.4342 183.344 32.3073 184.882 33.7141C186.468 35.1616 188.902 35.2399 190.917 35.0457C193.492 34.8107 196.043 34.1872 198.565 33.6608L200.097 33.5825H200.119C200.413 33.5853 200.703 33.6461 200.973 33.7611C201.244 33.8764 201.489 34.0434 201.694 34.2533C201.9 34.4629 202.062 34.7114 202.172 34.9836C202.282 35.2562 202.337 35.5476 202.334 35.8415C202.369 39.1482 202.039 42.4483 201.35 45.6827" stroke="black" stroke-width="1.58224" stroke-miterlimit="10"/>
<path d="M204.862 57.3347C204.862 57.3347 199.04 65.0673 193.868 63.3346C188.695 61.602 188.432 52.0303 188.432 52.0303" stroke="black" stroke-width="1.58224" stroke-linecap="round" stroke-linejoin="round"/>
<path d="M51.2871 273.95V160.333H58.2396V273.997" stroke="black" stroke-width="1.58224" stroke-miterlimit="10"/>
<path d="M57.6858 94.2212C63.8841 94.2212 68.9087 89.1966 68.9087 82.9983C68.9087 76.8 63.8841 71.7754 57.6858 71.7754C51.4875 71.7754 46.4629 76.8 46.4629 82.9983C46.4629 89.1966 51.4875 94.2212 57.6858 94.2212Z" fill="#E8732A"/>
<path d="M53.2956 85.8932C52.9672 85.6688 52.6759 85.395 52.4309 85.0817C51.9975 84.5453 51.776 83.8688 51.8077 83.1802C51.8393 82.4915 52.1225 81.8383 52.6032 81.3438C52.9168 81.0211 53.3009 80.7752 53.7255 80.6257C54.15 80.4763 54.6034 80.4271 55.0502 80.4822C54.9511 79.8609 55.057 79.224 55.3522 78.6681C55.647 78.1123 56.1151 77.6674 56.685 77.4011C57.2553 77.1348 57.8966 77.0608 58.512 77.1912C59.1276 77.3215 59.6844 77.6486 60.0976 78.123C60.9718 79.1131 61.3822 80.5856 61.5358 81.8827C61.615 82.5598 61.6257 83.2435 61.5671 83.9224C61.5389 84.2639 61.4167 86.2347 61.0971 86.36C58.9854 87.1684 55.3854 87.3438 53.2956 85.8932Z" fill="white"/>
<path d="M136.869 91.5733C140.192 91.5733 142.885 88.88 142.885 85.5576C142.885 82.2352 140.192 79.542 136.869 79.542C133.547 79.542 130.854 82.2352 130.854 85.5576C130.854 88.88 133.547 91.5733 136.869 91.5733Z" fill="#E8732A"/>
<path d="M136.456 82.7702C136.639 82.6596 136.839 82.5803 137.048 82.5352C137.408 82.4487 137.786 82.4967 138.113 82.6696C138.439 82.8429 138.691 83.1293 138.822 83.4752C138.907 83.7011 138.938 83.9439 138.913 84.1842C138.889 84.4242 138.809 84.6557 138.681 84.86C138.997 84.9606 139.274 85.1595 139.471 85.428C139.667 85.6965 139.773 86.0202 139.773 86.3529C139.773 86.6854 139.667 87.0093 139.471 87.2778C139.274 87.546 138.997 87.745 138.681 87.8459C137.963 88.0029 137.216 87.9483 136.528 87.6892C136.182 87.5724 135.848 87.4213 135.532 87.2381C135.372 87.1472 134.442 86.6396 134.457 86.4548C134.548 85.2391 135.284 83.4532 136.456 82.7702Z" fill="white"/>
<path d="M90.2264 78.6962C90.9006 79.2589 91.6532 79.7201 92.4603 80.0654C93.9467 80.6857 95.5687 80.9094 97.1675 80.7146C98.7664 80.5197 100.287 79.9128 101.581 78.9531C102.583 78.1886 103.461 77.1328 104.498 76.3651C105.221 75.7984 106.09 75.4465 107.004 75.35C107.308 75.3588 107.61 75.2952 107.885 75.1651C108.58 74.7328 107.759 74.0153 107.687 73.5077C107.591 72.6959 107.795 71.8769 108.261 71.2049C109.451 69.4302 109.991 67.2984 109.788 65.171C109.585 63.044 108.653 61.0522 107.15 59.5339C105.646 58.0156 103.663 57.064 101.539 56.8406C99.4134 56.6176 97.2763 57.1364 95.4901 58.3088C93.7261 59.465 92.4164 61.1788 91.088 62.8174C89.9162 64.2618 88.6911 65.6843 87.8327 67.3354C85.8149 71.2174 86.993 75.9986 90.2264 78.6962Z" fill="#E8732A"/>
<path d="M102.192 65.901C103.301 65.901 104.2 65.0018 104.2 63.8926C104.2 62.7832 103.301 61.8843 102.192 61.8843C101.083 61.8843 100.184 62.7832 100.184 63.8926C100.184 65.0018 101.083 65.901 102.192 65.901Z" fill="white"/>
<path d="M98.3072 70.651C99.4163 70.651 100.316 69.7518 100.316 68.6426C100.316 67.5335 99.4163 66.6343 98.3072 66.6343C97.198 66.6343 96.2988 67.5335 96.2988 68.6426C96.2988 69.7518 97.198 70.651 98.3072 70.651Z" fill="white"/>
<path d="M94.6626 75.109C95.7718 75.109 96.671 74.2098 96.671 73.1006C96.671 71.9915 95.7718 71.0923 94.6626 71.0923C93.5535 71.0923 92.6543 71.9915 92.6543 73.1006C92.6543 74.2098 93.5535 75.109 94.6626 75.109Z" fill="white"/>
<g opacity="0.46">
<path opacity="0.46" d="M152.748 54.2927C152.591 55.0794 152.26 55.8207 151.78 56.4633C151.299 57.1056 150.682 57.6326 149.972 58.0055L133.222 66.9036C132.59 67.2407 131.898 67.4497 131.185 67.5189C130.473 67.5879 129.753 67.5155 129.069 67.3059C128.384 67.0963 127.748 66.7538 127.196 66.2976C126.644 65.8415 126.187 65.2806 125.853 64.6477L112.502 39.5105C111.826 38.2357 111.683 36.7446 112.106 35.3644C112.528 33.9846 113.481 32.8285 114.755 32.1508L131.517 23.2558C134.04 21.9148 137.52 22.9425 138.874 25.5085L152.227 50.6363C152.828 51.7552 153.013 53.0507 152.748 54.2927Z" fill="#E8732A"/>
</g>
<path d="M147.775 52.3882L131.442 46.1626C131.234 46.0818 131.061 45.9295 130.955 45.7334C130.849 45.5369 130.816 45.3092 130.862 45.0911L134.65 27.6677C134.693 27.4822 134.791 27.3143 134.932 27.1861C135.072 27.0577 135.248 26.975 135.437 26.949C135.625 26.9226 135.817 26.9543 135.987 27.0395C136.157 27.1247 136.297 27.2598 136.389 27.4264L148.934 51.0691C149.023 51.2374 149.058 51.4288 149.036 51.6178C149.014 51.8067 148.934 51.9846 148.809 52.1275C148.683 52.2704 148.517 52.3719 148.332 52.4186C148.148 52.465 147.953 52.4543 147.775 52.3882Z" fill="white"/>
<g opacity="0.46">
<path opacity="0.46" d="M172.174 71.7847C172.517 72.0303 172.8 72.3499 173.003 72.7199C173.205 73.0896 173.323 73.5004 173.346 73.9215L173.972 83.8818C173.996 84.2577 173.945 84.6346 173.824 84.9909C173.701 85.3474 173.51 85.6761 173.261 85.9584C173.011 86.2407 172.708 86.471 172.37 86.6361C172.031 86.8012 171.663 86.898 171.287 86.9209L156.339 87.842C155.581 87.8875 154.837 87.6306 154.268 87.1277C153.7 86.6251 153.354 85.9173 153.306 85.1601L152.695 75.1935C152.668 74.441 152.931 73.7069 153.43 73.1426C153.928 72.5783 154.624 72.2268 155.374 72.1607L170.319 71.2207C170.985 71.1834 171.642 71.3833 172.174 71.7847Z" fill="#E8732A"/>
</g>
<path d="M170.186 73.7519L163.644 80.2282C163.561 80.3068 163.453 80.3544 163.339 80.3623C163.225 80.3704 163.111 80.3384 163.018 80.272L155.498 74.6637C155.418 74.6032 155.358 74.5196 155.327 74.424C155.296 74.3285 155.295 74.2254 155.324 74.1292C155.353 74.033 155.411 73.9481 155.489 73.8854C155.568 73.8231 155.664 73.7864 155.765 73.7802L169.826 72.9123C169.924 72.9098 170.021 72.9367 170.104 72.99C170.187 73.0429 170.252 73.1197 170.291 73.2102C170.33 73.3005 170.34 73.4004 170.322 73.4972C170.303 73.5937 170.256 73.6824 170.186 73.7519Z" fill="white"/>
<g opacity="0.46">
<path opacity="0.46" d="M70.6594 126.518C69.6785 126.679 68.6865 126.763 67.6924 126.769C58.1739 126.769 58.4935 117.943 58.4935 117.943L66.3796 119.647C66.0816 118.917 65.9676 118.125 66.0475 117.34C66.127 116.556 66.3984 115.803 66.837 115.148C68.6417 112.51 72.8338 113.866 72.8338 113.866L75.4406 112.187L74.8767 115.32L78.3701 114.731L76.5748 116.808C78.9873 119.127 82.061 126.186 74.6479 129.855C67.2349 133.524 64.036 129.128 64.036 129.128L67.6924 126.772L70.6594 126.518Z" fill="#E8732A"/>
</g>
<path d="M70.5037 117.886C71.1335 117.886 71.6442 117.376 71.6442 116.745C71.6442 116.116 71.1335 115.605 70.5037 115.605C69.874 115.605 69.3633 116.116 69.3633 116.745C69.3633 117.376 69.874 117.886 70.5037 117.886Z" fill="white"/>
<path d="M90.3828 279.252H220.806" stroke="black" stroke-width="0.98694" stroke-miterlimit="10"/>
</svg>
