<svg width="270" height="280" viewBox="0 0 270 280" fill="none" xmlns="http://www.w3.org/2000/svg">
<path d="M180.336 48.9169C182.243 47.6863 184.459 47.0201 186.729 46.9944C187.122 46.9944 187.506 47.016 187.884 47.0501C187.723 46.3752 187.521 45.5826 187.264 44.722C186.451 44.314 185.744 43.7217 185.199 42.9927C184.655 42.2633 184.288 41.4169 184.128 40.5209C183.837 40.5714 183.542 40.5974 183.246 40.5983C182.192 40.6017 181.159 40.2983 180.274 39.7253C180.057 39.6782 179.843 39.6182 179.633 39.5457C179.356 39.5946 179.076 39.6206 178.794 39.6231C177.363 39.6312 175.986 39.0752 174.961 38.0752L172.277 39.004C172.277 39.004 179.163 42.4775 180.336 48.9169Z" fill="#2B5BA8"/>
<path d="M181.138 250.54C181.137 255.478 179.175 260.213 175.683 263.704C172.192 267.196 167.457 269.159 162.52 269.162H73.8854C68.9472 269.16 64.2118 267.197 60.7197 263.705C57.2279 260.214 55.2654 255.478 55.2639 250.54V57.1263C55.2623 54.6797 55.7428 52.2566 56.6777 49.9956C57.6127 47.7351 58.9841 45.6803 60.7135 43.9497C62.4428 42.2189 64.496 40.8458 66.7563 39.909C69.0163 38.9719 71.4388 38.4896 73.8854 38.4893H85.7302C87.8617 38.4899 89.9059 39.336 91.4142 40.8421C92.7971 42.2161 93.6258 44.0507 93.7422 45.9967C93.7596 46.158 93.7679 46.3202 93.767 46.4828C93.767 46.6221 93.767 46.7583 93.767 46.8945C93.8246 48.075 94.1305 49.23 94.6648 50.2845C94.6803 50.3093 94.6896 50.3433 94.7051 50.3681C95.3524 51.6368 96.3391 52.7008 97.5551 53.4426C98.7712 54.1843 100.169 54.5741 101.593 54.5692H134.586C135.643 54.5707 136.69 54.3633 137.667 53.959C138.645 53.5546 139.532 52.9615 140.279 52.2132C140.85 51.6426 141.328 50.9854 141.694 50.2659C141.709 50.2526 141.721 50.2356 141.728 50.2164C142.272 49.1848 142.576 48.044 142.617 46.879C142.617 46.7769 142.617 46.684 142.617 46.5695C142.641 42.1393 146.022 38.48 150.458 38.48H160.461L170.987 38.35C171.201 36.3377 172.058 34.2201 172.944 32.3502C173.239 31.7028 173.588 31.0815 173.987 30.4927H74.6439C71.4366 30.4921 68.2606 31.1236 65.2972 32.3508C62.3339 33.578 59.6411 35.377 57.3731 37.645C55.1053 39.9131 53.3063 42.6055 52.0791 45.5689C50.8516 48.5322 50.2204 51.7083 50.2207 54.9159V254.843C50.2198 258.051 50.851 261.227 52.0782 264.191C53.3051 267.154 55.1041 269.847 57.3724 272.115C59.6405 274.383 62.3329 276.182 65.2966 277.409C68.2603 278.636 71.4363 279.267 74.6439 279.266H164.455C167.662 279.267 170.838 278.635 173.802 277.408C176.766 276.181 179.458 274.382 181.726 272.114C183.995 269.846 185.794 267.154 187.022 264.19C188.249 261.227 188.881 258.051 188.881 254.843V241.076L181.141 245.488L181.138 250.54Z" fill="#2B5BA8"/>
<path d="M183.838 97.2834C182.91 96.3268 182.012 97.8128 181.139 96.7974V170.364C181.684 168.355 182.358 166.383 183.154 164.46C183.334 164.039 183.513 163.615 183.699 163.197C184.092 162.334 184.504 161.482 184.937 160.637C185.055 160.396 185.176 160.166 185.303 159.937C185.43 159.708 185.584 159.414 185.73 159.166C185.978 158.714 186.244 158.262 186.516 157.82C186.702 157.485 186.909 157.163 187.114 156.838C187.265 156.581 187.423 156.334 187.59 156.095C187.77 155.804 187.965 155.516 188.154 155.235C188.386 154.885 188.631 154.535 188.872 154.191V101.788C187.943 101.063 187.015 100.302 186.142 99.5186C185.346 98.8004 184.578 98.0574 183.838 97.2834Z" fill="#2B5BA8"/>
<path d="M188.141 46.1484C187.07 47.4982 185.742 46.3651 184.015 46.3651C182.442 46.3651 181.538 48.9099 180.541 47.8852C180.597 48.0214 180.036 50.0523 180.083 50.1885C180.235 50.5972 180.371 51.0244 180.491 51.4516V51.4671C180.646 52.0151 180.764 52.56 180.866 53.1234C180.891 53.2503 180.919 53.3896 180.934 53.5259C180.978 53.8138 181.021 54.1141 181.046 54.4113C181.079 54.6868 181.099 54.9636 181.104 55.241C181.132 55.5506 181.138 55.888 181.138 56.2224V77.8934C181.391 78.1045 181.602 78.3617 181.758 78.6518C182.996 80.9118 184.182 79.2184 185.507 81.4381C186.213 82.5836 187.674 83.4783 188.423 82.6486C188.699 82.339 188.869 81.014 188.869 80.5186V54.3339C188.869 53.0906 188.776 51.8488 188.593 50.6189C188.538 50.1514 188.24 46.6221 188.141 46.1484Z" fill="#2B5BA8"/>
<path d="M93.7773 46.0591C94.338 47.1021 94.6454 48.2621 94.6751 49.4459C94.1411 48.3927 93.8352 47.2386 93.7773 46.0591Z" fill="#2B5BA8"/>
<path d="M142.617 46.0396C142.576 47.2048 142.272 48.3457 141.729 49.3769C141.788 48.2147 142.091 47.0779 142.617 46.0396Z" fill="#2B5BA8"/>
<path d="M261.135 140.498C231.557 149.733 216.267 127.114 216.267 127.114C217.384 125.458 215.694 122.344 215.694 122.344L214.666 117.081C201.598 116.44 189.775 103.704 189.775 103.704C206.682 100.707 199.394 90.5802 199.394 90.5802L211.05 99.7068L212.313 99.5953C212.468 83.8065 222.409 76.4321 225.523 73.9338C228.638 71.4354 229.17 73.9152 229.17 73.9152C229.17 73.9152 227.802 78.9676 233.641 79.6673C239.479 80.367 243.755 74.8966 243.755 74.8966C245.758 70.4076 248.064 73.1908 248.064 73.1908C258.073 78.5156 259.884 91.6916 262.033 100.899C263.516 107.208 266.339 120.805 268.224 127.43C268.884 129.723 268.752 132.171 267.85 134.38C267.248 135.83 266.335 137.13 265.174 138.187C264.014 139.245 262.635 140.033 261.135 140.498Z" fill="#353642"/>
<path d="M261.135 140.498C231.557 149.733 216.267 127.114 216.267 127.114C217.384 125.458 215.694 122.344 215.694 122.344L214.666 117.081C201.598 116.44 189.775 103.704 189.775 103.704C200.976 98.1031 199.394 90.5802 199.394 90.5802L211.05 99.7068L212.313 99.5953C212.468 83.8065 222.409 76.4321 225.523 73.9338C228.638 71.4354 229.17 73.9152 229.17 73.9152C229.17 73.9152 227.802 78.9676 233.641 79.6673C239.479 80.367 243.755 74.8966 243.755 74.8966C245.758 70.4076 248.064 73.1908 248.064 73.1908C258.073 78.5156 259.884 91.6916 262.033 100.899C263.516 107.208 266.339 120.805 268.224 127.43C268.884 129.723 268.752 132.171 267.85 134.38C267.248 135.83 266.335 137.13 265.174 138.187C264.014 139.245 262.635 140.033 261.135 140.498Z" fill="#353642"/>
<path d="M226.272 60.7679C228.121 60.7679 229.619 59.2696 229.619 57.4213C229.619 55.5728 228.121 54.0747 226.272 54.0747C224.424 54.0747 222.926 55.5728 222.926 57.4213C222.926 59.2696 224.424 60.7679 226.272 60.7679Z" fill="#D7E8F0"/>
<path d="M230.833 64.1602C230.542 66.3025 228.725 67.7018 226.83 67.3922" stroke="black" stroke-width="1.27859" stroke-miterlimit="10"/>
<path d="M208.4 45.4982C208.719 46.9545 209.486 48.2739 210.594 49.2708C211.702 50.268 213.095 50.8921 214.577 51.0553C214.713 50.4599 214.991 49.9064 215.388 49.4423C217.078 47.5198 217.719 51.1977 223.069 48.6745C230.499 45.1669 233.232 47.3155 233.232 47.3155C233.474 47.5043 233.412 49.1946 233.44 49.4826C233.601 51.2317 233.749 52.9747 233.932 54.7238C234.037 55.7888 234.139 56.8476 234.242 57.9064C234.345 57.7299 234.459 57.5593 234.582 57.3956C235.3 55.0396 237.297 52.2812 239.845 53.5381C240.363 53.8019 240.811 54.1849 241.151 54.6557C242.814 56.9343 241.461 59.0766 239.656 60.6462C239.198 61.1354 238.688 61.5734 238.136 61.9527C238.418 62.5718 239.573 65.0052 239.573 65.0145C239.69 65.2621 243.984 60.5936 244.306 60.0828C244.8 58.8237 245.077 57.4903 245.127 56.1386C245.306 50.5847 243.173 44.0648 238.734 40.7956C237.635 39.9845 237.251 39.2167 237.186 38.1424C237.182 38.0845 237.161 38.0291 237.126 37.9833C237.09 37.9375 237.041 37.9034 236.986 37.8858C236.931 37.8681 236.872 37.8675 236.816 37.8839C236.761 37.9003 236.711 37.9335 236.675 37.9784C235.232 39.5758 231.743 39.3436 231.743 39.3436C219.669 36.0682 215.502 41.3745 213.044 42.2816C212.043 42.6392 210.949 42.6392 209.948 42.2816C209.883 42.615 209.728 42.924 209.499 43.1751C209.27 43.4261 208.977 43.6097 208.651 43.7057L208.704 44.2691C208.748 44.7016 208.641 45.136 208.4 45.4982Z" fill="#2B5BA8"/>
<path d="M234.307 68.2494C233.511 68.8686 231.288 70.6518 230.4 71.1812C229.748 71.575 229.063 71.9115 228.354 72.1873C223.01 74.2027 218.001 69.6209 216.165 65.0359C214.654 61.2559 214.308 57.0331 214.416 52.9961C214.435 52.5782 214.45 52.151 214.484 51.7237C214.48 51.698 214.48 51.6717 214.484 51.6463C214.501 51.4516 214.529 51.2581 214.571 51.0674C214.706 50.4715 214.984 49.9176 215.382 49.4545C217.069 47.535 217.71 51.2129 223.06 48.6867C230.49 45.1791 233.226 47.3276 233.226 47.3276C233.465 47.5165 233.403 49.2068 233.431 49.4947C233.592 51.247 233.74 52.9868 233.926 54.736C234.028 55.8041 234.13 56.8598 234.236 57.9185C234.261 58.2096 234.288 58.4913 234.313 58.7792C234.351 58.3108 234.439 57.8476 234.576 57.3984C235.295 55.0425 237.291 52.2872 239.839 53.541C240.357 53.8048 240.805 54.1877 241.146 54.6586C242.808 56.9372 241.455 59.0795 239.65 60.6491C239.192 61.042 238.708 61.4039 238.202 61.7326L238.065 61.8193L238.133 61.9555C238.415 62.5747 239.567 65.0111 239.567 65.0173C239.684 65.265 243.978 60.5996 244.303 60.0856C245.422 58.3594 246.123 56.3963 246.35 54.3521C246.378 54.0952 246.393 53.8475 246.402 53.5905C246.582 48.0366 244.449 41.5167 240.01 38.2475C238.907 37.4364 238.524 36.6686 238.462 35.5943C238.458 35.5364 238.437 35.481 238.402 35.4352C238.366 35.3894 238.317 35.3553 238.262 35.3377C238.207 35.3197 238.148 35.3191 238.092 35.3358C238.037 35.3522 237.987 35.385 237.951 35.4302C236.508 37.0277 233.016 36.7955 233.016 36.7955C220.958 33.5201 216.775 38.8264 214.32 39.7335C211.865 40.6406 209.71 38.9657 209.71 38.9657L209.967 41.7117C209.984 41.9 209.973 42.09 209.933 42.2752C209.868 42.6083 209.713 42.9173 209.484 43.1683C209.255 43.4194 208.962 43.603 208.636 43.6993C208.513 43.7442 208.383 43.7702 208.252 43.7767H208.156C208.18 44.3485 208.254 44.9175 208.379 45.4763C208.698 46.9348 209.468 48.2558 210.579 49.2529C211.69 50.2504 213.086 50.873 214.571 51.0334" stroke="black" stroke-width="1.27859" stroke-miterlimit="10"/>
<path d="M216.27 60.4388C218.119 60.4388 219.617 58.9405 219.617 57.0922C219.617 55.244 218.119 53.7456 216.27 53.7456C214.422 53.7456 212.924 55.244 212.924 57.0922C212.924 58.9405 214.422 60.4388 216.27 60.4388Z" fill="#D7E8F0"/>
<path d="M227.669 58.6712C227.671 58.9433 227.592 59.2102 227.442 59.4374C227.292 59.6647 227.078 59.8424 226.827 59.9476C226.576 60.0532 226.299 60.0817 226.032 60.0297C225.765 59.9776 225.519 59.8476 225.326 59.6557C225.133 59.4637 225.001 59.2189 224.947 58.952C224.893 58.6851 224.92 58.4084 225.024 58.1567C225.127 57.905 225.303 57.6898 225.53 57.5381C225.756 57.3867 226.022 57.3059 226.294 57.3059C226.428 57.3031 226.561 57.3229 226.688 57.3647C226.622 57.4276 226.569 57.5028 226.532 57.5864C226.495 57.6697 226.476 57.7598 226.474 57.8508C226.476 58.0263 226.546 58.1938 226.671 58.3173C226.796 58.4409 226.964 58.5102 227.14 58.5102C227.228 58.5099 227.315 58.4913 227.397 58.4554C227.477 58.4198 227.55 58.3678 227.61 58.3028C227.65 58.4214 227.67 58.5458 227.669 58.6712Z" fill="black"/>
<path d="M217.94 58.2226C217.939 58.4931 217.858 58.7572 217.708 58.9817C217.557 59.2064 217.344 59.3813 217.094 59.4844C216.844 59.5875 216.569 59.6145 216.304 59.5615C216.039 59.5086 215.795 59.3782 215.604 59.1872C215.413 58.9959 215.282 58.7526 215.229 58.4872C215.177 58.2222 215.203 57.9473 215.307 57.6975C215.41 57.4474 215.585 57.2337 215.809 57.083C216.034 56.9325 216.298 56.8517 216.568 56.8511C216.747 56.8502 216.924 56.8848 217.088 56.9533C216.995 57.0155 216.918 57.0991 216.864 57.1972C216.81 57.295 216.781 57.4049 216.779 57.5167C216.779 57.6037 216.797 57.6894 216.831 57.7696C216.864 57.8498 216.914 57.9223 216.975 57.9832C217.037 58.0442 217.11 58.0925 217.191 58.125C217.271 58.1575 217.358 58.1739 217.445 58.173C217.53 58.1743 217.615 58.1582 217.694 58.1257C217.774 58.0931 217.845 58.0452 217.906 57.9842C217.927 58.0622 217.938 58.1421 217.94 58.2226Z" fill="black"/>
<path d="M221.334 57.3672C221.334 57.3672 220.477 61.1782 220.375 61.5621C220.065 62.8004 222.523 62.4165 222.523 62.4165" stroke="black" stroke-width="1.27859" stroke-miterlimit="10"/>
<path d="M224.48 50.1736C224.48 50.1736 228.521 48.6597 230.768 51.6937" stroke="black" stroke-width="1.27859" stroke-miterlimit="10"/>
<path d="M211.051 53.2042C211.051 53.2042 213.131 49.4241 216.809 50.2631" stroke="black" stroke-width="1.27859" stroke-miterlimit="10"/>
<path d="M226.274 61.3741C228.457 61.3741 230.227 59.6039 230.227 57.4207C230.227 55.2372 228.457 53.4673 226.274 53.4673C224.09 53.4673 222.32 55.2372 222.32 57.4207C222.32 59.6039 224.09 61.3741 226.274 61.3741Z" stroke="black" stroke-width="1.27859" stroke-miterlimit="10"/>
<path d="M216.27 61.045C218.453 61.045 220.223 59.2751 220.223 57.0916C220.223 54.9081 218.453 53.1382 216.27 53.1382C214.086 53.1382 212.316 54.9081 212.316 57.0916C212.316 59.2751 214.086 61.045 216.27 61.045Z" stroke="black" stroke-width="1.27859" stroke-miterlimit="10"/>
<path d="M216.268 54.405H216.358C217.069 54.4164 217.748 54.7102 218.243 55.2216C218.738 55.7334 219.01 56.4207 218.998 57.1324C218.987 57.8444 218.693 58.5224 218.182 59.0178C217.67 59.5128 216.983 59.7846 216.271 59.7732H216.187C215.476 59.7617 214.797 59.4679 214.302 58.9565C213.807 58.445 213.535 57.7578 213.547 57.0457C213.558 56.334 213.852 55.6557 214.363 55.1603C214.875 54.6653 215.562 54.3935 216.274 54.405H216.268ZM216.274 53.7641C215.392 53.7499 214.541 54.0864 213.907 54.6997C213.273 55.313 212.909 56.1532 212.895 57.0349C212.881 57.9166 213.217 58.7682 213.831 59.402C214.444 60.0357 215.284 60.3998 216.166 60.414H216.277C217.159 60.4282 218.011 60.0917 218.644 59.4784C219.278 58.8652 219.642 58.0252 219.656 57.1432C219.671 56.2615 219.334 55.4099 218.721 54.7761C218.107 54.1427 217.267 53.7783 216.386 53.7641H216.274Z" fill="white"/>
<path d="M222.32 57.2903L220.221 57.2222" stroke="black" stroke-width="1.27859" stroke-miterlimit="10"/>
<path d="M225.285 198.926L221.087 224.64L216.539 223.959C215.554 223.804 214.67 223.268 214.077 222.466C213.485 221.664 213.231 220.662 213.372 219.675L213.709 216.916L216.805 194.224C221.845 197.177 225.285 198.926 225.285 198.926Z" fill="#2B5BA8"/>
<path d="M204.516 232.16L188.882 241.138L181.142 245.593L178.771 246.958C178.775 246.913 178.775 246.867 178.771 246.822L176.913 247.881L174.523 243.289C173.965 242.229 173.846 240.992 174.193 239.846C174.54 238.699 175.325 237.735 176.378 237.163L203.466 222.331L203.491 222.578L204.516 232.16Z" fill="#2B5BA8"/>
<path d="M181.653 168.615C181.483 168.386 181.312 168.163 181.139 167.968C180.158 166.788 179.195 165.996 178.545 164.655C178.026 163.564 177.877 162.333 178.119 161.15C178.36 159.966 178.98 158.893 179.885 158.092C180.259 157.769 180.676 157.499 181.123 157.29" stroke="black" stroke-width="1.27859" stroke-miterlimit="10"/>
<path d="M214.621 209.861L213.71 216.91L213.361 219.669C213.22 220.656 213.473 221.658 214.066 222.46C214.659 223.262 215.543 223.798 216.528 223.953L221.075 224.634L225.273 198.92C225.273 198.92 221.834 197.171 216.8 194.211C213.2 192.094 208.751 189.354 204.188 186.196" stroke="black" stroke-width="1.27859" stroke-miterlimit="10"/>
<path d="M213.846 215.951C213.846 215.951 208.936 213.304 202.701 209.493" stroke="black" stroke-width="1.27859" stroke-miterlimit="10"/>
<g opacity="0.68">
<path opacity="0.68" d="M181.138 97.1898V170.363C179.782 175.373 179.135 180.58 178.791 185.818V97.3755C179.553 98.3662 180.336 96.2424 181.138 97.1898Z" fill="#D7E8F0"/>
<path opacity="0.68" d="M181.138 245.488V249.695C181.137 254.633 179.174 259.368 175.683 262.86C172.192 266.352 167.457 268.314 162.52 268.317H73.8853C68.9471 268.315 64.2116 266.353 60.7195 262.861C57.2277 259.369 55.2652 254.633 55.2637 249.695V56.2816C55.2621 53.8349 55.7426 51.4121 56.6776 49.1512C57.6125 46.8903 58.984 44.8359 60.7133 43.105C62.4427 41.3744 64.4958 40.0014 66.7561 39.0643C69.0161 38.1275 71.4386 37.6452 73.8853 37.6445H85.73C86.2736 37.6461 86.8157 37.6999 87.3491 37.8055C87.7058 37.8804 88.0575 37.9776 88.4017 38.0965C88.5534 38.1553 88.7113 38.2142 88.8537 38.2761C89.0952 38.3764 89.3308 38.49 89.5596 38.6166C89.8348 38.7652 90.1004 38.9305 90.3552 39.112C90.5255 39.2296 90.6865 39.3503 90.8413 39.4773C90.9961 39.6042 91.2344 39.8209 91.414 39.9974L92.6523 41.5948C92.766 41.7852 92.8694 41.9818 92.9619 42.1831L93.4139 43.3254C93.4758 43.5328 93.5347 43.7372 93.578 43.9446L93.6895 44.5916C93.7049 44.6783 93.7142 44.7712 93.7235 44.8579C93.7266 44.9003 93.7266 44.9427 93.7235 44.9848C93.7421 45.1891 93.7576 45.3873 93.7576 45.604V45.6876C93.7576 45.8176 93.7576 45.9352 93.7576 46.056C93.7495 46.0365 93.7381 46.0188 93.7235 46.0033C93.3743 45.3411 92.9254 44.7365 92.3923 44.2108C90.9419 42.7592 88.9741 41.9428 86.9219 41.9416H75.5323C73.1763 41.9428 70.8436 42.4084 68.6675 43.3115C66.4914 44.2149 64.5147 45.538 62.8501 47.2058C61.1857 48.8732 59.8663 50.8524 58.9672 53.0303C58.0682 55.2079 57.6069 57.5416 57.6103 59.8975V246.095C57.6103 250.849 59.4982 255.408 62.8591 258.771C66.2196 262.133 70.7783 264.023 75.5323 264.026H160.873C165.474 264.025 169.899 262.254 173.23 259.079C176.562 255.905 178.544 251.57 178.767 246.974C178.771 246.929 178.771 246.883 178.767 246.838L181.138 245.488Z" fill="#D7E8F0"/>
<path opacity="0.68" d="M141.727 49.3774C141.727 49.4951 141.727 49.6065 141.727 49.7273C141.716 51.7724 140.896 53.7299 139.445 55.172C137.995 56.614 136.033 57.4236 133.988 57.4236H102.215C97.9334 57.4236 94.6983 53.9253 94.6797 49.6406C94.6797 49.5725 94.6797 49.5137 94.6797 49.4456C95.319 50.7356 96.3069 51.821 97.5316 52.5782C98.756 53.3355 100.168 53.7346 101.608 53.7302H134.585C135.643 53.7318 136.69 53.5243 137.667 53.12C138.644 52.7157 139.532 52.1225 140.279 51.3743C140.863 50.7885 141.352 50.1146 141.727 49.3774Z" fill="#D7E8F0"/>
</g>
<path d="M188.881 128.786C199.893 126.548 210.583 124.235 216.267 124.312" stroke="black" stroke-width="1.27859" stroke-miterlimit="10"/>
<path d="M178.47 192.582C161.778 179.13 146.63 161.877 153.14 146.847C157.056 137.785 168.647 132.847 181.139 130.169" stroke="black" stroke-width="1.27859" stroke-miterlimit="10"/>
<path d="M214.747 117.681C215.02 118.663 216.267 124.316 216.574 125.337C217.707 129.024 203.286 138.779 200.844 140.971C196.46 144.881 192.312 149.284 188.881 154.191C186.6 157.392 184.68 160.836 183.154 164.46C182.358 166.382 181.684 168.354 181.139 170.363C179.783 175.372 179.136 180.58 178.792 185.818C178.52 189.787 178.417 193.771 178.306 197.663C178.077 205.13 178.195 212.64 178.684 220.083C178.718 220.553 178.752 221.012 178.792 221.482C179.178 225.902 179.926 230.283 181.03 234.581V234.609" stroke="black" stroke-width="1.27859" stroke-miterlimit="10"/>
<path d="M212.613 100.239C213.081 85.7412 219.663 78.0016 225.523 73.9243C226.663 73.143 227.886 72.4897 229.17 71.9771" stroke="black" stroke-width="1.27859" stroke-miterlimit="10"/>
<path d="M245.258 71.8813C245.53 71.9835 245.793 72.095 246.06 72.2064L246.351 72.3333C246.993 72.6135 247.62 72.9299 248.227 73.2807C250.322 74.4747 252.151 76.0834 253.604 78.008C253.66 78.0625 253.706 78.1266 253.74 78.1969C253.994 78.556 254.242 78.9213 254.483 79.299C256.626 82.7045 258.623 87.3018 260.149 92.6112C260.936 95.3352 261.565 98.1023 262.034 100.899" stroke="black" stroke-width="1.27859" stroke-miterlimit="10"/>
<path d="M262.394 101.265C263.877 107.574 266.704 121.174 268.586 127.796C269.246 130.09 269.114 132.54 268.211 134.749C267.61 136.2 266.696 137.499 265.536 138.556C264.375 139.614 262.996 140.402 261.496 140.867L255.896 142.223C255.31 142.367 254.793 142.711 254.432 143.195C253.161 144.874 251.751 146.444 250.218 147.888C225.99 170.699 196.836 147.086 203.827 222.706L203.851 222.953C204.134 225.981 204.476 229.173 204.876 232.529L189.242 241.445L181.503 245.857L179.14 247.206L177.283 248.265L174.893 243.674C174.329 242.614 174.207 241.373 174.552 240.223C174.898 239.073 175.683 238.106 176.738 237.532L179.153 236.191L181.391 234.953L181.499 234.894L189.239 230.61L190.886 229.681" stroke="black" stroke-width="1.27859" stroke-miterlimit="10"/>
<path d="M188.884 241.076V253.995C188.883 260.475 186.308 266.688 181.726 271.27C177.144 275.851 170.93 278.425 164.451 278.425H71.9501C68.7418 278.425 65.5646 277.793 62.6003 276.566C59.636 275.338 56.9426 273.539 54.674 271.27C52.405 269.002 50.6054 266.309 49.3776 263.345C48.1494 260.38 47.5176 257.203 47.5176 253.995V52.6872C47.5176 49.4787 48.1494 46.302 49.3776 43.3377C50.6054 40.3738 52.405 37.6804 54.674 35.412C56.9426 33.1434 59.636 31.3441 62.6003 30.1166C65.5646 28.8891 68.7418 28.2575 71.9501 28.2578H175.689" stroke="black" stroke-width="1.27859" stroke-miterlimit="10"/>
<path d="M188.882 52.6868C188.884 51.0103 188.715 49.3383 188.378 47.6962C188.378 47.6962 187.926 44.9626 187.492 44.2041" stroke="black" stroke-width="1.27859" stroke-miterlimit="10"/>
<path d="M188.881 154.182V128.793V102.314" stroke="black" stroke-width="1.27859" stroke-miterlimit="10"/>
<path d="M188.881 52.6899V67.0145V84.0262" stroke="black" stroke-width="1.27859" stroke-miterlimit="10"/>
<path d="M213.709 91.6576V91.6359C211.064 90.4499 208.57 88.9521 206.279 87.1748C196.72 79.8203 190.45 68.9891 188.834 57.0366C188.793 56.7416 188.756 56.4444 188.723 56.145" stroke="black" stroke-width="1.27859" stroke-miterlimit="10"/>
<path d="M181.145 163.243V97.165" stroke="black" stroke-width="1.27859" stroke-miterlimit="10"/>
<path d="M181.145 78.5999V56.285C181.145 52.2202 180.789 47.403 178.6 44.335C178.6 44.335 173.291 37.6387 167.895 37.6387H150.676" stroke="black" stroke-width="1.27859" stroke-miterlimit="10"/>
<path d="M157.613 37.6387H150.675C148.54 37.6387 146.493 38.4866 144.983 39.9962C143.474 41.5057 142.626 43.553 142.626 45.6879C142.626 47.8225 141.778 49.8701 140.268 51.3793C138.759 52.8889 136.712 53.7371 134.577 53.7371H101.816C99.6815 53.7371 97.6342 52.8889 96.1247 51.3793C94.6151 49.8701 93.7672 47.8225 93.7672 45.6879C93.7672 43.553 92.9192 41.5057 91.4097 39.9962C89.9001 38.4866 87.8529 37.6387 85.718 37.6387H73.8856C68.9431 37.6418 64.2039 39.6079 60.7109 43.1047C57.2175 46.6015 55.2563 51.3425 55.2578 56.285V249.696C55.2603 254.635 57.2237 259.371 60.7167 262.863C64.2095 266.356 68.9461 268.318 73.8856 268.32H162.517C167.456 268.318 172.193 266.356 175.686 262.863C179.179 259.371 181.142 254.635 181.145 249.696V245.491" stroke="black" stroke-width="1.27859" stroke-miterlimit="10"/>
<path d="M186.977 29.4067C190.348 30.8494 193.496 35.6201 195.026 38.812C197.862 44.7343 200.335 49.2667 203.694 54.9104C206.57 59.7492 209.208 64.9905 213.731 68.5322C216.125 70.4337 219.04 71.5639 222.09 71.7735" stroke="black" stroke-width="1.27859" stroke-miterlimit="10"/>
<path d="M95.4478 37.6439C95.445 44.3297 93.6311 50.8899 90.1991 56.6277C86.767 62.3653 81.8446 67.066 75.9553 70.2306C70.0658 73.3952 63.4292 74.9057 56.7502 74.6007C50.0712 74.2961 43.5996 72.1878 38.0227 68.5003C30.7955 62.4182 26.1678 53.8024 25.0883 44.4183C24.0087 35.0341 26.5588 25.5927 32.2162 18.0283C37.8735 10.4639 46.2097 5.34954 55.5162 3.73328C64.823 2.11706 74.3953 4.12132 82.2718 9.33533C86.4032 12.8045 89.7239 17.137 92.0002 22.0278C94.2766 26.9186 95.4533 32.2491 95.4478 37.6439Z" fill="#2B5BA8"/>
<path d="M91.4228 37.7903C91.4213 43.7121 89.8155 49.5227 86.7763 54.6051C83.7371 59.6876 79.3775 63.8515 74.1616 66.6548C68.9454 69.4584 63.067 70.7961 57.1514 70.5265C51.2358 70.2569 45.5036 68.3897 40.5641 65.1236C34.1792 59.7322 30.0949 52.1059 29.1457 43.8031C28.1968 35.5006 30.4549 27.1492 35.4587 20.456C40.4623 13.7631 47.8335 9.23403 56.0654 7.79495C64.297 6.35584 72.7675 8.1154 79.7453 12.7138C83.4055 15.7868 86.3478 19.6244 88.3654 23.9568C90.3826 28.2894 91.4266 33.0112 91.4228 37.7903Z" fill="#2B5BA8"/>
<path d="M131.258 118.314L104.287 122.379C103.633 122.546 102.949 122.562 102.288 122.424C101.626 122.287 101.005 122.001 100.472 121.587C99.9383 121.173 99.5067 120.642 99.2095 120.036C98.9123 119.429 98.7578 118.763 98.7578 118.088L101.578 94.9121H141.803C142.131 94.9121 142.446 95.0425 142.678 95.2746C142.911 95.5068 143.041 95.822 143.041 96.1505L139.193 110.67C138.646 112.522 137.627 114.201 136.236 115.541C134.845 116.881 133.13 117.836 131.258 118.314Z" fill="#D7E8F0"/>
<path d="M108.234 136.29C110.773 136.29 112.831 134.231 112.831 131.693C112.831 129.153 110.773 127.095 108.234 127.095C105.695 127.095 103.637 129.153 103.637 131.693C103.637 134.231 105.695 136.29 108.234 136.29Z" fill="#D7E8F0"/>
<path d="M125.689 136.29C128.228 136.29 130.286 134.231 130.286 131.693C130.286 129.153 128.228 127.095 125.689 127.095C123.15 127.095 121.092 129.153 121.092 131.693C121.092 134.231 123.15 136.29 125.689 136.29Z" fill="#D7E8F0"/>
<path d="M105.228 99.7681L101.039 99.2078L102.216 90.397C102.29 89.8487 102.245 89.2902 102.083 88.7611C101.92 88.2317 101.644 87.7441 101.275 87.3318C100.905 86.9197 100.451 86.5928 99.9421 86.3736C99.4337 86.1544 98.8839 86.0485 98.3304 86.0628L94.7206 86.1557C94.1602 86.1699 93.6172 85.9609 93.211 85.5749C92.8046 85.1888 92.568 84.6573 92.5535 84.0969C92.5461 83.8198 92.5934 83.5437 92.6928 83.2849C92.7919 83.0257 92.9414 82.7889 93.1324 82.5877C93.3231 82.3865 93.5519 82.2245 93.8051 82.1119C94.0587 81.9989 94.3318 81.9373 94.6091 81.9298L98.222 81.8369C99.4829 81.7973 100.735 82.0571 101.876 82.5951C103.017 83.1335 104.014 83.9347 104.785 84.9328C105.453 85.8241 105.937 86.8392 106.209 87.9194C106.481 88.9992 106.534 90.1227 106.367 91.2236L105.228 99.7681Z" fill="#D7E8F0"/>
<path d="M54.0352 198.04C62.5797 195.564 69.9107 186.211 59.651 178.471C59.2764 178.199 58.9266 177.951 58.5923 177.753C59.1548 177.202 59.8452 176.8 60.6015 176.581C61.3578 176.362 62.1565 176.334 62.9265 176.499C62.9512 176.499 62.9853 176.499 63.01 176.518C63.0633 176.524 63.1156 176.537 63.1648 176.558C64.2824 176.815 65.5301 177.422 66.9201 178.471C77.1643 186.211 62.9977 196.257 54.0352 198.04Z" fill="#2B5BA8"/>
<path d="M62.9426 176.5C62.173 176.334 61.3739 176.362 60.6176 176.581C59.8613 176.8 59.1709 177.202 58.6084 177.753C53.395 182.441 53.1566 198.041 53.1566 198.041H51.7727C51.7727 198.041 48.4292 179.88 53.3857 176.84H53.4043C53.4878 176.806 53.8408 176.651 54.333 176.481C54.333 176.481 54.3578 176.481 54.3671 176.481C55.0088 176.26 55.6717 176.105 56.3453 176.02C58.5558 175.821 60.7842 175.983 62.9426 176.5Z" fill="#D7E8F0"/>
<path d="M95.4487 37.645C95.4478 46.0695 92.5724 54.2416 87.2974 60.8101C82.022 67.3786 74.6635 71.9505 66.4378 73.77C58.2121 75.5891 49.6118 74.547 42.0585 70.8159C34.5056 67.0845 28.4519 60.8875 24.8982 53.2491C21.3448 45.6107 20.504 36.9884 22.5153 28.8073C24.5267 20.6265 29.2696 13.3769 35.9597 8.25693C42.6498 3.13704 50.887 0.453394 59.3093 0.649702C67.7316 0.845979 75.8346 3.91044 82.279 9.33646C86.4048 12.8099 89.7214 17.1433 91.9966 22.0332C94.2714 26.9235 95.4497 32.2517 95.4487 37.645Z" stroke="black" stroke-width="1.27859" stroke-miterlimit="10"/>
<path d="M45.058 229.566V245.664H8.83648C8.41099 245.665 7.98967 245.58 7.59721 245.416C7.20478 245.252 6.84907 245.011 6.55097 244.707C6.25283 244.403 6.01829 244.043 5.86108 243.648C5.70388 243.253 5.62713 242.83 5.63536 242.404L5.81492 232.717C5.83034 231.879 6.17451 231.08 6.77325 230.493C7.37198 229.906 8.17743 229.577 9.01604 229.578L45.058 229.566Z" fill="#D7E8F0"/>
<path d="M102.519 232.764V242.451C102.519 243.3 102.182 244.114 101.581 244.714C100.981 245.315 100.167 245.652 99.3177 245.652H45.0566V229.554H99.3177C99.7387 229.554 100.156 229.637 100.545 229.798C100.934 229.96 101.287 230.196 101.584 230.495C101.882 230.793 102.118 231.147 102.278 231.536C102.438 231.926 102.52 232.343 102.519 232.764Z" fill="#2B5BA8"/>
<path d="M50.512 245.652V278.422H15.8043C14.3251 278.419 12.9069 277.831 11.8587 276.788C10.8104 275.744 10.2168 274.329 10.207 272.849V245.668L50.512 245.652Z" fill="#D7E8F0"/>
<path d="M96.2871 245.652V272.834C96.2771 274.313 95.6837 275.729 94.6354 276.772C93.5872 277.816 92.1689 278.403 90.6897 278.406H50.5117V245.652H96.2871Z" fill="#2B5BA8"/>
<path d="M50.2127 25.1589C54.3271 25.1589 56.5561 28.1433 56.5561 31.7778C56.5561 36.4061 53.4014 38.8983 50.0084 38.8983C46.3707 38.8983 43.5938 36.2235 43.5938 32.1772C43.5938 28.3724 46.0302 25.1465 50.1786 25.1465L50.2127 25.1589ZM50.0765 28.4529C48.671 28.4529 48.1199 30.0286 48.1199 32.0533C48.1199 34.1771 48.7731 35.6198 50.1446 35.6198C51.3829 35.6198 52.03 34.4186 52.03 32.0533C52.03 29.9946 51.516 28.4529 50.1105 28.4529H50.0765ZM50.4882 48.2044L63.1812 25.2301H66.3483L53.6924 48.2044H50.4882ZM66.9489 34.4186C71.0633 34.4186 73.2923 37.3999 73.2923 41.0375C73.2923 45.6658 70.1376 48.158 66.7415 48.158C63.1069 48.158 60.3299 45.4832 60.3299 41.4028C60.3299 37.629 62.7633 34.4062 66.9148 34.4062L66.9489 34.4186ZM66.8096 37.7126C65.4041 37.7126 64.8561 39.2884 64.8561 41.313C64.8561 43.4368 65.5093 44.8795 66.8808 44.8795C68.1191 44.8795 68.7662 43.6411 68.7662 41.2759C68.7662 39.2202 68.2522 37.7126 66.8467 37.7126H66.8096Z" fill="white"/>
<path d="M49.7529 197.871C44.2206 197.871 33.964 193.354 39.391 187.304C39.9638 186.617 40.6761 186.059 41.4807 185.667L41.5241 185.639H41.5426C42.8407 185.033 44.2299 184.646 45.6539 184.493C46.1121 184.455 46.5734 184.47 47.0285 184.537C46.3041 184.503 45.4589 184.896 44.4589 185.852C44.2825 186.013 44.0936 186.218 43.8986 186.431C38.4839 192.468 44.1617 197.384 49.7529 197.871Z" fill="#D7E8F0"/>
<path d="M51.177 197.595L50.3163 197.759C50.3163 197.759 48.2669 188.125 44.459 185.846C45.4589 184.889 46.3165 184.496 47.0285 184.53C47.0428 184.534 47.0576 184.534 47.0719 184.53L47.3815 184.574L47.4898 184.598C51.0408 185.691 51.177 197.595 51.177 197.595Z" fill="#2B5BA8"/>
<path d="M50.5099 229.562H9.02542C8.18597 229.562 7.38009 229.892 6.78135 230.48C6.18261 231.069 5.83891 231.869 5.8243 232.708L5.65093 242.395C5.6431 242.82 5.72012 243.243 5.87752 243.638C6.03488 244.033 6.26942 244.393 6.56746 244.697C6.8655 245 7.22103 245.241 7.61327 245.406C8.00555 245.57 8.42668 245.655 8.85205 245.655H99.3161C99.7368 245.655 100.153 245.572 100.542 245.411C100.93 245.25 101.283 245.014 101.581 244.716C101.878 244.419 102.114 244.065 102.274 243.677C102.435 243.288 102.517 242.871 102.517 242.451V232.764C102.517 231.915 102.18 231.101 101.579 230.5C100.979 229.9 100.165 229.562 99.3161 229.562H39.4329" stroke="black" stroke-width="1.27859" stroke-miterlimit="10"/>
<path d="M90.69 278.424H15.8012C14.3186 278.419 12.8979 277.828 11.85 276.779C10.8017 275.731 10.2111 274.31 10.207 272.827V245.655H96.2718V272.827C96.2669 274.307 95.6777 275.726 94.6326 276.774C93.5871 277.822 92.1705 278.415 90.69 278.424Z" stroke="black" stroke-width="1.27859" stroke-miterlimit="10"/>
<path d="M85.4404 200.105V206.352C85.4404 206.9 85.2228 207.425 84.8355 207.812C84.4485 208.2 83.9231 208.417 83.3755 208.417H48.3613V198.04H83.3755C83.9231 198.04 84.4485 198.258 84.8355 198.645C85.2228 199.032 85.4404 199.557 85.4404 200.105Z" fill="#2B5BA8"/>
<path d="M48.3609 198.04V208.417H25.0027C24.7287 208.417 24.4575 208.362 24.2049 208.256C23.9525 208.15 23.7235 207.995 23.5312 207.8C23.3393 207.604 23.1879 207.373 23.086 207.119C22.9839 206.864 22.9337 206.592 22.9377 206.318L23.0492 200.062C23.0597 199.521 23.282 199.007 23.6683 198.629C24.0544 198.251 24.5736 198.039 25.1141 198.04H48.3609Z" fill="#D7E8F0"/>
<path d="M81.4204 208.417V225.955C81.417 226.913 81.0343 227.831 80.3563 228.507C79.678 229.184 78.7592 229.564 77.8013 229.565H51.8828V208.417H81.4204Z" fill="#2B5BA8"/>
<path d="M51.8831 208.417V229.565H29.5063C28.5496 229.563 27.633 229.182 26.9565 228.505C26.2801 227.829 25.899 226.912 25.8965 225.955V208.417H51.8831Z" fill="#D7E8F0"/>
<path d="M45.0547 229.562V245.655" stroke="black" stroke-width="1.27859" stroke-miterlimit="10"/>
<path d="M50.5098 245.655V278.424" stroke="black" stroke-width="1.27859" stroke-miterlimit="10"/>
<path d="M85.4404 200.105V206.352C85.4404 206.9 85.2228 207.425 84.8355 207.812C84.4485 208.2 83.9231 208.417 83.3755 208.417H48.3613V198.04H83.3755C83.9231 198.04 84.4485 198.258 84.8355 198.645C85.2228 199.032 85.4404 199.557 85.4404 200.105Z" stroke="black" stroke-width="1.27859" stroke-miterlimit="10"/>
<path d="M48.3609 198.04V208.417H25.0027C24.7287 208.417 24.4575 208.362 24.2049 208.256C23.9525 208.15 23.7235 207.995 23.5312 207.8C23.3393 207.604 23.1879 207.373 23.086 207.119C22.9839 206.864 22.9337 206.592 22.9377 206.318L23.0492 200.062C23.0597 199.521 23.282 199.007 23.6683 198.629C24.0544 198.251 24.5736 198.039 25.1141 198.04H48.3609Z" stroke="black" stroke-width="1.27859" stroke-miterlimit="10"/>
<path d="M81.4204 208.417V225.955C81.417 226.913 81.0343 227.831 80.3563 228.507C79.678 229.184 78.7592 229.564 77.8013 229.565H51.8828V208.417H81.4204Z" stroke="black" stroke-width="1.27859" stroke-miterlimit="10"/>
<path d="M51.8831 208.417V229.565H29.5063C28.5496 229.563 27.633 229.182 26.9565 228.505C26.2801 227.829 25.899 226.912 25.8965 225.955V208.417H51.8831Z" stroke="black" stroke-width="1.27859" stroke-miterlimit="10"/>
<path d="M55.5312 198.037C64.0913 195.561 77.2642 186.214 67.0231 178.475C65.92 177.579 64.6405 176.926 63.2678 176.558C63.2189 176.537 63.1662 176.524 63.113 176.521C62.3319 176.338 61.5171 176.355 60.7447 176.572C59.9723 176.788 59.2673 177.197 58.6952 177.76" stroke="black" stroke-width="1.27859" stroke-miterlimit="10"/>
<path d="M58.6942 177.753C53.4777 182.443 53.2424 198.037 53.2424 198.037H51.8555C51.8555 198.037 46.6947 170.032 58.6942 177.753Z" stroke="black" stroke-width="1.27859" stroke-miterlimit="10"/>
<path d="M54.14 198.038H53.2422C53.2422 198.038 53.4775 182.444 58.694 177.754C59.0578 177.976 59.4101 178.217 59.7497 178.475C70.0093 186.215 62.6815 195.577 54.14 198.038Z" stroke="black" stroke-width="1.27859" stroke-miterlimit="10"/>
<path d="M53.6211 176.675C54.5279 176.347 55.4687 176.12 56.4259 176.001C58.7163 175.802 61.0239 175.989 63.2523 176.555" stroke="black" stroke-width="1.27859" stroke-miterlimit="10"/>
<path d="M49.0105 198.037C43.4039 197.554 34.0978 193.35 39.5062 187.307C40.0805 186.617 40.7947 186.056 41.6021 185.663C41.6294 185.644 41.6597 185.629 41.6919 185.62C42.1535 185.411 42.6603 185.323 43.1652 185.362C43.6702 185.402 44.1568 185.568 44.5803 185.846" stroke="black" stroke-width="1.27859" stroke-miterlimit="10"/>
<path d="M44.5645 185.846C48.3724 188.119 50.4125 197.762 50.4125 197.762L51.2732 197.592C51.2732 197.592 51.0658 179.599 44.5645 185.846Z" stroke="black" stroke-width="1.27859" stroke-miterlimit="10"/>
<path d="M49.8565 197.87L50.4138 197.761C50.4138 197.761 48.3736 188.118 44.5657 185.845C44.3861 186.006 44.1973 186.207 43.9991 186.421C38.5814 192.467 44.2623 197.38 49.8565 197.87Z" stroke="black" stroke-width="1.27859" stroke-miterlimit="10"/>
<path d="M47.5826 184.56C46.9795 184.466 46.3681 184.44 45.7592 184.483C44.3118 184.638 42.9014 185.036 41.5859 185.659" stroke="black" stroke-width="1.27859" stroke-miterlimit="10"/>
<path d="M231.047 72.1541L232.258 74.3212C232.258 74.3212 230.487 78.2591 235.233 78.9402C239.979 79.6213 246.226 74.9559 246.396 71.8755C253.687 74.6927 257.541 81.7822 257.61 89.3733C257.733 108.165 233.555 119.558 217.397 117.855C209.277 117.004 201.609 113.422 195.206 108.366C194.352 107.704 193.531 107.007 192.73 106.289C191.107 104.81 189.587 103.222 188.179 101.537C187.45 100.67 186.74 99.7834 186.049 98.8775" stroke="black" stroke-width="1.16714" stroke-miterlimit="10"/>
<path d="M241.408 63.3369L246.058 72.2065" stroke="black" stroke-width="1.27859" stroke-miterlimit="10"/>
<path d="M0 278.421H268.912" stroke="black" stroke-width="1.27859" stroke-miterlimit="10"/>
<path d="M185.537 28.877H185.497C183.999 29.1308 182.197 30.4651 181.262 32.1926C180.191 34.1461 180.067 36.5268 179.838 37.5361C179.813 37.6506 179.788 37.7621 179.776 37.8642C179.749 37.9503 179.729 38.0382 179.714 38.1274L179.674 38.2791C179.531 38.7679 179.21 39.1855 178.775 39.4499C178.34 39.7146 177.821 39.8072 177.321 39.7097C176.822 39.6118 176.376 39.331 176.072 38.9221C175.769 38.5131 175.629 38.0057 175.68 37.4989L175.767 36.7931C175.795 36.5392 175.832 36.3008 175.881 36.0624C175.982 35.3708 176.134 34.6879 176.337 34.0192C176.364 33.9142 176.397 33.8108 176.436 33.7096C176.473 33.5498 176.524 33.3935 176.587 33.2421C176.617 33.1607 176.651 33.0811 176.689 33.0037" stroke="black" stroke-width="1.27859" stroke-miterlimit="10"/>
<path d="M189.339 42.979C188.402 43.8768 187.507 44.3245 186.652 44.3226C186.29 44.323 185.932 44.2415 185.606 44.0843C185.299 43.9465 185.022 43.7499 184.792 43.5053C184.018 42.7097 184.049 41.3754 184.417 40.4807C184.684 39.8999 185.045 39.3674 185.485 38.9049C185.624 38.747 185.761 38.5953 185.881 38.4312C186.289 37.9672 186.596 37.4245 186.785 36.8369C186.785 36.8028 186.785 36.7718 186.801 36.7378" stroke="black" stroke-width="1.27859" stroke-miterlimit="10"/>
<path d="M181.99 28.0098C182.569 28.1181 183.126 28.2512 183.696 28.3813C184.266 28.5113 184.897 28.6909 185.492 28.8766C186.854 29.2794 188.129 29.9311 189.253 30.7991C192.306 33.056 192.946 36.9042 190.745 39.7431" stroke="black" stroke-width="1.27859" stroke-miterlimit="10"/>
<path d="M179.839 37.5353C179.839 37.5632 179.839 37.5879 179.824 37.622C179.816 37.726 179.802 37.8294 179.781 37.9316L179.712 38.6374C179.672 39.0188 179.74 39.4039 179.908 39.7485C180.077 40.0928 180.339 40.3829 180.665 40.5853C180.991 40.7875 181.367 40.894 181.75 40.8921C182.134 40.8906 182.509 40.7807 182.833 40.5754C183.066 40.4312 183.267 40.2398 183.423 40.0138C183.578 39.7881 183.685 39.5324 183.737 39.2628C183.796 38.9996 183.845 38.7148 183.914 38.4455C184.161 37.3991 184.254 36.4641 185.034 35.6592C185.254 35.4317 185.516 35.2487 185.805 35.1205C185.878 35.0896 185.954 35.0654 186.031 35.0493" stroke="black" stroke-width="1.27859" stroke-miterlimit="10"/>
<path d="M171.563 35.6853V35.6048C171.695 34.2658 172.049 32.9581 172.609 31.7349C172.956 30.9703 173.421 30.265 173.987 29.6452C174.874 28.645 176.075 27.9766 177.392 27.7506C177.773 27.6949 178.148 27.6577 178.531 27.6391C179.689 27.6227 180.844 27.7475 181.971 28.0106C181.042 28.0818 179.451 29.0756 178.302 30.3263C177.843 30.8003 177.458 31.3421 177.163 31.9331C177.018 32.2427 176.854 32.5832 176.739 32.9114C176.621 33.1776 176.519 33.447 176.429 33.7101C176.16 34.4717 175.928 35.224 175.751 35.9174C175.671 36.227 175.597 36.5366 175.538 36.8152C175.442 37.3313 175.159 37.7938 174.744 38.1152C174.329 38.4369 173.811 38.5944 173.287 38.5582C172.754 38.496 172.267 38.226 171.932 37.8068C171.597 37.3877 171.441 36.8533 171.498 36.3199L171.56 35.6853" stroke="black" stroke-width="1.27859" stroke-miterlimit="10"/>
<path d="M169.13 89.8959C168.604 88.8402 168.264 87.6823 168.771 86.6731C169.92 84.3822 173.613 85.5957 175.774 84.1964C177.632 83.0045 177.443 81.5897 178.458 79.8251C179.644 77.7601 181.78 78.5867 183.412 79.6145C185.495 80.9179 190.046 85.4967 197.343 90.0073C199.613 91.4184 201.785 92.9812 203.844 94.6852C209.581 99.4125 223.871 107.604 236.295 85.5679" stroke="black" stroke-width="1.18881" stroke-miterlimit="10"/>
<path d="M186.349 99.2451C185.331 98.208 184.223 97.1121 182.792 96.8521C181.266 96.5703 179.743 97.2917 178.198 97.366C174.393 97.5393 171.57 93.9946 169.61 90.7284C169.449 90.4653 169.3 90.1836 169.143 89.9019" stroke="black" stroke-width="1.18881" stroke-miterlimit="10"/>
<path d="M177.271 94.19C177.271 94.19 173.634 96.1435 172.086 94.1343" stroke="black" stroke-width="1.18881" stroke-miterlimit="10"/>
<path d="M169.928 91.2769C169.928 91.2769 172.884 93.2892 174.959 91.6112" stroke="black" stroke-width="1.18881" stroke-miterlimit="10"/>
<path d="M168.557 88.6172C168.557 88.6172 171.129 90.193 172.235 89.063" stroke="black" stroke-width="1.18881" stroke-miterlimit="10"/>
<path d="M145.396 151.577H96.0421C93.3038 151.577 91.084 153.797 91.084 156.535V169.332C91.084 172.071 93.3038 174.29 96.0421 174.29H145.396C148.134 174.29 150.354 172.071 150.354 169.332V156.535C150.354 153.797 148.134 151.577 145.396 151.577Z" fill="#D7E8F0"/>
<path d="M128.01 166.636V159.511H129.961V166.061L129.082 165.085H132.502V166.636H128.01Z" fill="white"/>
<path d="M122.67 166.636V159.511H124.621V166.061L123.742 165.085H127.162V166.636H122.67Z" fill="white"/>
<path d="M115.549 166.636L117.206 159.511H120.302L121.949 166.636H119.954L118.751 160.675H118.761L117.544 166.636H115.549ZM116.998 165.138V163.675H120.514V165.138H116.998Z" fill="white"/>
<path d="M115.31 163.946C115.31 164.271 115.247 164.599 115.122 164.931C114.999 165.259 114.811 165.562 114.557 165.839C114.305 166.116 113.985 166.34 113.595 166.51C113.209 166.678 112.75 166.762 112.219 166.762C111.52 166.762 110.921 166.605 110.422 166.293C109.926 165.978 109.546 165.543 109.282 164.989C109.021 164.435 108.891 163.796 108.891 163.071C108.891 162.347 109.021 161.709 109.282 161.159C109.546 160.605 109.926 160.172 110.422 159.859C110.921 159.547 111.52 159.391 112.219 159.391C112.798 159.391 113.293 159.489 113.702 159.685C114.114 159.882 114.444 160.139 114.692 160.458C114.943 160.777 115.117 161.118 115.213 161.482C115.278 161.73 115.31 161.97 115.31 162.202H113.354C113.354 162.099 113.347 162.009 113.334 161.931C113.305 161.722 113.243 161.54 113.146 161.386C113.049 161.231 112.922 161.112 112.765 161.028C112.61 160.941 112.428 160.898 112.219 160.898C111.968 160.898 111.74 160.972 111.538 161.12C111.335 161.268 111.172 161.501 111.05 161.82C110.931 162.139 110.871 162.556 110.871 163.071C110.871 163.583 110.931 164 111.05 164.322C111.172 164.644 111.335 164.881 111.538 165.032C111.74 165.184 111.968 165.259 112.219 165.259C112.399 165.259 112.558 165.227 112.697 165.163C112.839 165.095 112.958 165.002 113.054 164.883C113.151 164.763 113.225 164.625 113.277 164.467C113.328 164.306 113.354 164.132 113.354 163.946H115.31Z" fill="white"/>
</svg>
