<svg width="275" height="247" viewBox="0 0 275 247" fill="none" xmlns="http://www.w3.org/2000/svg">
<path d="M225.521 159.112H158.106C156.661 159.112 155.49 160.283 155.49 161.728V209.25C155.49 210.695 156.661 211.866 158.106 211.866H225.521C226.966 211.866 228.137 210.695 228.137 209.25V161.728C228.137 160.283 226.966 159.112 225.521 159.112Z" fill="#E8732A"/>
<path d="M222.122 161.582H161.51C160.066 161.582 158.895 162.753 158.895 164.197V206.78C158.895 208.225 160.066 209.396 161.51 209.396H222.122C223.566 209.396 224.737 208.225 224.737 206.78V164.197C224.737 162.753 223.566 161.582 222.122 161.582Z" fill="#E8732A"/>
<path d="M257.754 211.866H233.433C232.738 211.866 232.049 211.729 231.406 211.463C230.764 211.197 230.18 210.806 229.688 210.314C229.197 209.822 228.807 209.238 228.541 208.596C228.275 207.953 228.138 207.264 228.139 206.569V168.647C228.139 168.306 228.207 167.968 228.339 167.654C228.471 167.34 228.664 167.055 228.908 166.817C229.151 166.578 229.44 166.391 229.757 166.265C230.074 166.14 230.413 166.079 230.754 166.086L244.283 166.207C244.646 166.215 245.004 166.301 245.332 166.457C245.66 166.614 245.951 166.839 246.186 167.116L262.575 186.512C265.17 189.182 266.621 192.759 266.618 196.483V202.999C266.619 204.163 266.39 205.316 265.945 206.392C265.5 207.468 264.847 208.446 264.024 209.27C263.201 210.093 262.223 210.746 261.147 211.192C260.071 211.637 258.918 211.866 257.754 211.866Z" fill="#E8732A"/>
<path d="M191.811 200.786C200.258 200.786 207.106 193.938 207.106 185.491C207.106 177.043 200.258 170.195 191.811 170.195C183.364 170.195 176.516 177.043 176.516 185.491C176.516 193.938 183.364 200.786 191.811 200.786Z" fill="#FBE9D8"/>
<path d="M233.434 185.393V172.504C233.434 172.122 233.585 171.756 233.855 171.486C234.125 171.216 234.491 171.064 234.873 171.064H242.107C242.328 171.065 242.546 171.116 242.744 171.214C242.942 171.311 243.115 171.453 243.25 171.628L253.163 184.511C253.327 184.724 253.428 184.979 253.455 185.247C253.482 185.515 253.433 185.785 253.314 186.026C253.195 186.268 253.011 186.471 252.782 186.613C252.553 186.755 252.289 186.83 252.02 186.83H234.882C234.693 186.831 234.505 186.794 234.329 186.723C234.154 186.651 233.994 186.546 233.859 186.412C233.725 186.279 233.618 186.12 233.545 185.945C233.472 185.77 233.434 185.582 233.434 185.393Z" fill="white"/>
<path d="M161.674 211.754V211.857C161.674 214.995 162.92 218.004 165.139 220.223C167.358 222.442 170.367 223.688 173.505 223.688C176.643 223.688 179.652 222.442 181.871 220.223C184.09 218.004 185.337 214.995 185.337 211.857" stroke="#CCDDE2" stroke-width="1.38498" stroke-miterlimit="10"/>
<path d="M233.434 211.857C233.434 214.995 234.68 218.004 236.898 220.222C239.117 222.441 242.126 223.687 245.263 223.687C248.401 223.687 251.41 222.441 253.629 220.222C255.847 218.004 257.093 214.995 257.093 211.857" fill="#E8732A"/>
<path d="M233.463 102.252C243.3 100.149 253.892 103.946 261.096 110.965C268.3 117.984 272.309 127.882 273.342 137.886C275.006 153.806 270.545 172.195 261.769 185.566" stroke="#CCDDE2" stroke-width="1.38498" stroke-miterlimit="10"/>
<path d="M145.354 38.2523C161.834 32.3124 181.59 37.5795 197.046 78.5592C202.095 91.9514 208.508 98.258 217.542 99.046" stroke="#CCDDE2" stroke-width="1.38498" stroke-miterlimit="10"/>
<path d="M82.3672 57.9477C82.3672 57.9477 100.763 55.8263 100.875 78.4012L152.371 63.4058L160.456 60.8631C160.456 60.8631 148.855 46.7891 135.472 44.3676C135.617 45.7353 135.887 47.0867 136.281 48.4044C136.972 50.8288 134.681 52.2532 131.502 53.1563C128.323 54.0594 121.886 48.7165 120.78 44.0039C120.78 44.0039 122.368 42.5705 116.452 43.5979C110.537 44.6252 92.5863 48.7953 82.3672 57.9477Z" fill="#2E2E2E"/>
<path d="M2.50232 167.504C3.00443 167.775 3.56545 167.917 4.13581 167.92C4.64983 167.919 5.15712 167.803 5.62028 167.58C6.08342 167.357 6.49061 167.033 6.81182 166.632L18.419 152.403L27.7866 140.647L20.1192 136.347C19.3246 135.898 18.3845 135.784 17.5053 136.028C16.6261 136.273 15.88 136.856 15.4308 137.65L1.13552 162.752C0.908471 163.153 0.76364 163.595 0.709513 164.052C0.655417 164.51 0.693117 164.973 0.820402 165.416C0.947687 165.858 1.16201 166.271 1.45083 166.629C1.73964 166.988 2.0971 167.286 2.50232 167.504Z" fill="#2E2E2E"/>
<path d="M179.188 234.635L188.849 244.139C189.685 244.964 190.811 245.427 191.986 245.427H216.161C217.154 245.433 218.112 245.056 218.835 244.374C219.557 243.692 219.989 242.757 220.04 241.765C220.091 240.773 219.758 239.799 219.109 239.046C218.461 238.293 217.547 237.819 216.558 237.723L203.144 236.335L179.188 234.635Z" fill="#2E2E2E"/>
<path d="M134.674 43.2868V43.9415V44.1081C140.019 45.4486 145.052 47.8158 149.493 51.0785C150.212 51.6058 150.915 52.1392 151.615 52.7029C151.633 50.4421 151.439 48.1722 150.706 46.0356C150.113 44.1997 149 42.575 147.502 41.3594C146.184 40.3078 144.623 39.632 143.053 39.0228C141.484 38.4137 139.944 37.8803 138.508 37.059C137.295 36.3941 136.236 35.4825 135.398 34.383C135.105 33.9851 134.923 33.5165 134.869 33.0253C134.816 32.534 134.894 32.0373 135.095 31.5857C134.954 31.5763 134.814 31.5488 134.68 31.5039L134.674 43.2868Z" fill="#E8732A"/>
<path d="M134.674 43.2868V43.9415V44.1081C140.019 45.4486 145.052 47.8158 149.493 51.0785C150.212 51.6058 150.915 52.1392 151.615 52.7029C151.633 50.4421 151.439 48.1722 150.706 46.0356C150.113 44.1997 149 42.575 147.502 41.3594C146.184 40.3078 144.623 39.632 143.053 39.0228C141.484 38.4137 139.944 37.8803 138.508 37.059C137.295 36.3941 136.236 35.4825 135.398 34.383C135.105 33.9851 134.923 33.5165 134.869 33.0253C134.816 32.534 134.894 32.0373 135.095 31.5857C134.954 31.5763 134.814 31.5488 134.68 31.5039L134.674 43.2868Z" fill="#E8732A"/>
<path d="M60.832 94.3514C62.8385 95.7912 65.0714 96.8862 67.4386 97.5911C68.4539 97.8941 66.0537 99.0276 67.0962 99.2306C62.9716 89.4964 65.9143 74.5313 78.964 60.8754C81.1854 58.5479 86.295 55.5992 88.8134 53.5505C92.8653 50.2562 97.2991 49.8289 101.542 47.853C103.438 46.9775 105.385 46.2165 107.373 45.574C110.906 44.3999 114.553 43.5996 118.253 43.1859C119.092 43.0828 119.922 43.0101 120.762 42.9646C120.557 41.5218 120.598 40.0544 120.883 38.6248C121.656 34.7032 123.005 32.4515 125.459 29.3603C126.999 27.4147 129.399 22.7627 126.196 21.1595C124.177 20.1534 123.993 18.0956 124.941 16.8409C125.744 15.7681 127.366 15.2802 129.372 16.5379C130.757 17.4228 132.402 17.4804 133.984 17.047C135.218 16.3288 136.287 15.3605 137.124 14.2043C139.449 10.8707 139.53 5.82474 135.897 3.37905C133.912 2.04256 131.384 1.71829 129.011 1.97589C127.951 2.09863 126.906 2.3332 125.896 2.67596C125.891 2.67414 125.887 2.67323 125.882 2.67323C125.877 2.67323 125.873 2.67414 125.868 2.67596C121.577 4.99133 118.504 9.27355 117.028 14.0983C116.161 16.95 115.183 19.7746 114.037 22.5415C113.098 24.8114 112.443 27.5723 110.346 29.1209C109.471 29.7704 108.478 30.241 107.421 30.5059C103.463 33.0152 97.9719 31.5666 93.6442 31.0332C90.1835 30.5601 86.6602 30.9165 83.3644 32.0727C79.6731 33.9365 76.5001 36.9216 73.9241 40.7917C69.6813 47.2044 74.1726 56.4508 67.0598 61.5088C64.9172 63.0241 62.4351 63.9545 60.0895 65.1455C56.7316 66.8548 54.0283 69.2793 53.0312 73.0251C51.0401 80.5288 54.5647 89.8024 60.832 94.3514Z" fill="#E8732A"/>
<path d="M148.577 149.242L203.294 236.247L179.959 235.144L171.255 227.204H161.305C161.305 227.204 134.188 187.436 127.969 180.696C121.75 173.956 127.969 156.873 127.969 156.873L148.577 149.242Z" fill="#EBF2FB"/>
<path d="M234.787 245.423H66.4648" stroke="black" stroke-width="1.38498" stroke-miterlimit="10"/>
<path d="M140.846 11.1626C141.278 12.0585 141.648 12.9828 141.952 13.9296C142.394 15.4721 141.916 16.4237 142.588 17.8905C142.819 18.3967 143.152 19.2543 143.497 20.1241C143.597 19.921 143.691 19.7544 143.746 19.624C146.386 13.7477 142.916 10.9141 141.246 9.94434C141.142 10.3598 141.009 10.7671 140.846 11.1626Z" fill="#E8732A"/>
<path d="M140.846 11.1626C141.278 12.0585 141.648 12.9828 141.952 13.9296C142.394 15.4721 141.916 16.4237 142.588 17.8905C142.819 18.3967 143.152 19.2543 143.497 20.1241C143.597 19.921 143.691 19.7544 143.746 19.624C146.386 13.7477 142.916 10.9141 141.246 9.94434C141.142 10.3598 141.009 10.7671 140.846 11.1626Z" fill="#E8732A"/>
<path d="M115.891 168.583C113.07 178.502 108.518 188.56 104.745 194.919C102.017 199.506 97.6541 202.892 92.533 204.396C87.412 205.901 81.9114 205.412 77.1358 203.028L35.7228 182.478V173.177L18.4181 152.414L6.81097 166.631C6.48858 167.03 6.08084 167.352 5.61777 167.573C5.15466 167.793 4.64798 167.908 4.13496 167.907C3.53293 167.904 2.94218 167.743 2.42107 167.442C1.89996 167.14 1.46652 166.708 1.16356 166.188C0.860588 165.668 0.698543 165.077 0.693482 164.475C0.688421 163.873 0.840495 163.28 1.13468 162.755L15.43 137.665C15.8794 136.871 16.6255 136.287 17.5044 136.043C18.3836 135.798 19.3237 135.913 20.1183 136.361L27.7857 140.662L71.7292 165.273C72.4602 165.682 73.2776 165.912 74.1146 165.943C74.9514 165.975 75.7839 165.807 76.543 165.453C77.3025 165.1 77.9671 164.571 78.482 163.911C78.9972 163.251 79.3479 162.477 79.5057 161.655L84.7123 134.379" stroke="black" stroke-width="1.38498" stroke-miterlimit="10"/>
<path d="M96.832 152.803L108.091 161.961C119.94 171.31 130.253 182.456 138.654 194.995L161.147 227.292H197.454" stroke="black" stroke-width="1.38498" stroke-miterlimit="10"/>
<path d="M171.74 227.297L179.186 234.634L188.848 244.138C189.683 244.963 190.81 245.426 191.984 245.426H216.159C217.153 245.432 218.111 245.055 218.833 244.373C219.556 243.691 219.988 242.757 220.039 241.764C220.09 240.772 219.756 239.798 219.108 239.045C218.459 238.293 217.545 237.819 216.556 237.723L203.143 236.335L138.391 133.37C135.058 128.055 132.088 119.305 134.673 113.574C144.519 91.7754 143.668 70.6582 143.668 70.6582" stroke="black" stroke-width="1.38498" stroke-miterlimit="10"/>
<path d="M134.671 29.6492V43.196V43.8506V44.0172C136.062 46.0477 136.765 48.9268 135.435 51.0846C133.656 53.9727 129.725 53.4939 127.231 51.8786C126.498 51.4031 125.799 50.8785 125.137 50.3088C122.92 48.3822 121.487 45.7107 121.106 42.799C120.902 41.357 120.942 39.8908 121.224 38.4622C122.003 34.5436 123.346 32.2919 125.81 29.1946C127.349 27.252 129.75 22.597 126.54 20.9938C122.785 19.1209 125.385 13.6386 129.716 16.3783C133.074 18.4997 137.899 15.854 139.893 13.0022C142.217 9.66853 142.302 4.62259 138.666 2.17691C136.68 0.840415 134.153 0.51614 131.783 0.773741C124.555 1.56776 119.415 7.21678 117.357 13.9326C116.491 16.7844 115.512 19.6089 114.369 22.3758C113.427 24.6487 112.772 27.4066 110.678 28.9552C106.693 31.9373 100.916 30.3766 96.4039 29.825C87.0091 28.6703 79.4326 32.8313 74.2564 40.62C70.0135 47.0327 74.5049 56.279 67.389 61.3371C65.2494 62.8524 62.7674 63.7828 60.4187 64.9738C57.0578 66.68 54.3575 69.1075 53.3574 72.8533C51.3663 80.3813 54.8909 89.658 61.1551 94.2069C64.0251 96.2919 67.383 97.5405 70.8712 98.2194" stroke="black" stroke-width="1.38498" stroke-miterlimit="10"/>
<path d="M153.218 54.4451C153.236 54.2724 153.245 54.1057 153.251 53.942C153.409 50.969 153.391 47.8808 152.421 45.0351C151.827 43.2007 150.715 41.5775 149.218 40.3619C147.893 39.3103 146.335 38.6284 144.772 38.0223C143.208 37.4162 141.659 36.8828 140.226 36.0585C139.011 35.3981 137.952 34.4859 137.119 33.3825C136.825 32.9867 136.64 32.52 136.584 32.0299C136.528 31.5396 136.603 31.0435 136.801 30.5913" stroke="black" stroke-width="1.38498" stroke-miterlimit="10"/>
<path d="M35.7266 173.18V145.104" stroke="black" stroke-width="1.38498" stroke-miterlimit="10"/>
<path d="M131.758 26.617C132.846 28.1717 134.322 29.8507 136.182 30.4598C138.592 31.2417 140.213 29.1991 141.077 27.208C141.595 26.023 141.95 24.7623 142.368 23.5379C142.504 23.1349 142.586 22.9318 143.05 22.9076C143.513 22.8833 143.995 22.9803 144.468 22.9803C144.504 22.9821 144.54 22.9736 144.571 22.9558C144.602 22.9379 144.628 22.9115 144.644 22.8794C144.661 22.8476 144.668 22.8115 144.664 22.7757C144.661 22.74 144.648 22.7057 144.626 22.6773C143.989 21.7105 143.041 19.0678 142.559 18.0101C141.892 16.5433 142.374 15.5857 141.925 14.0522C141.619 13.106 141.252 12.1808 140.825 11.2822" stroke="black" stroke-width="1.38498" stroke-miterlimit="10"/>
<path d="M141.537 8.45166C141.537 8.45166 148.104 10.9671 144.713 18.5375C144.504 18.9981 143.989 19.9528 143.746 20.3861" stroke="black" stroke-width="1.38498" stroke-miterlimit="10"/>
<path d="M141.174 26.9784C140.648 27.0496 140.115 26.9272 139.673 26.6338C139.231 26.3404 138.911 25.8961 138.773 25.3843" stroke="black" stroke-width="1.38498" stroke-miterlimit="10"/>
<path d="M142.284 16.8376C140.924 15.7314 139.433 17.1407 138.523 18.1741" stroke="black" stroke-width="1.38498" stroke-miterlimit="10"/>
<path d="M134.674 44.0166C140.022 45.3573 145.058 47.7248 149.503 50.987C150.794 51.9204 152.039 52.9144 153.248 53.9478C158.018 57.9967 162.216 62.682 166.295 67.4188" stroke="black" stroke-width="1.38498" stroke-miterlimit="10"/>
<path d="M172.412 112.105C172.387 112.09 172.365 112.072 172.345 112.05C166.993 106.698 161.602 101.386 156.235 96.0518C151.737 91.5847 145.888 87.0116 143.143 81.1504" stroke="black" stroke-width="1.38498" stroke-miterlimit="10"/>
<path d="M109.656 150.639C110.093 150.499 110.508 150.36 110.902 150.214C110.909 150.217 110.916 150.217 110.923 150.214" stroke="black" stroke-width="1.38498" stroke-miterlimit="10"/>
<path d="M68.9169 87.7053L100.875 78.4013L159.562 61.3118C162.381 60.4999 165.408 60.8375 167.979 62.2504C170.55 63.6633 172.458 66.0365 173.284 68.8519L185.889 112.15C186.701 114.969 186.365 117.995 184.954 120.567C183.543 123.139 181.172 125.049 178.358 125.879L115.812 144.086L109.842 145.82L103.781 147.593L97.8106 149.335L92.9616 150.739L75.7479 155.751C72.9285 156.564 69.9016 156.228 67.3298 154.814C64.7577 153.402 62.8506 151.027 62.0254 148.211L49.4211 104.913C48.6083 102.095 48.9438 99.0706 50.3543 96.4997C51.765 93.9289 54.1361 92.0211 56.9491 91.1935L57.4007 91.0631L57.7795 90.951L65.8166 88.6084L68.9169 87.7053Z" fill="white"/>
<path d="M73.7217 88.8353L103.331 80.2163L157.712 64.3815C160.326 63.6244 163.133 63.9345 165.519 65.244C167.905 66.5532 169.675 68.7552 170.44 71.367L182.114 111.474C182.866 114.086 182.555 116.889 181.25 119.273C179.944 121.657 177.749 123.429 175.144 124.202L117.183 141.077L111.653 142.689L106.025 144.328L100.494 145.947L95.9966 147.235L77.5918 152.69C74.9776 153.448 72.1695 153.138 69.7835 151.829C67.3972 150.519 65.6279 148.317 64.8633 145.704L53.1955 105.576C52.4385 102.964 52.747 100.159 54.0532 97.7731C55.3597 95.3878 57.5575 93.617 60.1659 92.8478L60.5841 92.7266L60.9357 92.6266L70.8487 89.6566L73.7217 88.8353Z" fill="#E8732A"/>
<path d="M76.9271 90.2591L104.381 82.2675L156.811 66.9175C159.233 66.2205 161.832 66.5102 164.041 67.7237C166.25 68.9371 167.889 70.9758 168.6 73.3939L179.431 110.594C180.129 113.016 179.84 115.616 178.627 117.826C177.415 120.036 175.378 121.676 172.961 122.389L117.216 138.709L112.088 140.2L106.872 141.716L101.742 143.213L97.5867 144.425L78.8546 149.941C76.4307 150.644 73.8272 150.357 71.6145 149.143C69.4022 147.929 67.7617 145.887 67.0535 143.464L56.2191 106.267C55.5209 103.846 55.8094 101.246 57.0216 99.0373C58.2342 96.8283 60.2719 95.189 62.6894 94.4777L64.7442 93.8928L65.0715 93.7958L74.2633 91.0441L76.9271 90.2591Z" fill="#E8732A"/>
<path d="M117.734 112.4L68.3929 126.325C68.1298 126.399 67.8546 126.421 67.5831 126.389C67.3119 126.357 67.0494 126.272 66.8109 126.138C66.5724 126.004 66.3627 125.825 66.1936 125.61C66.0248 125.395 65.8996 125.149 65.826 124.886C65.772 124.704 65.7444 124.515 65.7441 124.325C65.7463 123.872 65.8948 123.432 66.1681 123.071C66.4412 122.71 66.8242 122.447 67.2594 122.322L116.601 108.405C116.402 109.085 116.392 109.806 116.573 110.49C116.769 111.225 117.172 111.887 117.734 112.4Z" fill="#E8732A"/>
<path d="M129.259 107.562C129.259 108.017 129.111 108.458 128.837 108.821C128.564 109.184 128.18 109.449 127.744 109.575L124.183 110.581C124.386 109.874 124.388 109.126 124.189 108.418C123.991 107.71 123.599 107.072 123.059 106.574L126.62 105.571C127.15 105.424 127.718 105.492 128.198 105.762C128.679 106.032 129.033 106.481 129.183 107.011C129.237 107.19 129.263 107.376 129.259 107.562Z" fill="#D7E8F0"/>
<path d="M131.502 115.509C131.501 115.962 131.352 116.402 131.079 116.764C130.806 117.125 130.423 117.388 129.987 117.513L80.9521 131.344C81.2461 130.664 81.3416 129.916 81.2273 129.184C81.1131 128.452 80.7937 127.768 80.3066 127.21L128.854 113.506C129.385 113.359 129.952 113.428 130.432 113.698C130.912 113.968 131.266 114.416 131.418 114.946C131.474 115.128 131.502 115.318 131.502 115.509Z" fill="#D7E8F0"/>
<path d="M75.0547 132.991L70.6361 134.237C70.3667 134.343 70.0782 134.391 69.7887 134.379C69.4996 134.368 69.216 134.295 68.9562 134.167C68.6965 134.039 68.4665 133.858 68.281 133.635C68.0955 133.413 67.9586 133.154 67.8789 132.876C67.7991 132.598 67.7789 132.306 67.8186 132.019C67.8586 131.732 67.958 131.457 68.1107 131.211C68.2634 130.965 68.4659 130.754 68.705 130.59C68.9441 130.427 69.2147 130.316 69.4996 130.263L73.4394 129.154C73.3545 129.698 73.3803 130.254 73.5152 130.788C73.7512 131.681 74.2967 132.462 75.0547 132.991Z" fill="#E8732A"/>
<path d="M118.981 129.284L73.2004 142.204C72.6698 142.348 72.1034 142.278 71.6239 142.008C71.1445 141.739 70.7899 141.292 70.6366 140.764C70.5832 140.584 70.5578 140.397 70.5608 140.21C70.5617 139.756 70.7099 139.314 70.9832 138.951C71.2563 138.588 71.64 138.324 72.0761 138.197L117.79 125.308C117.598 126.016 117.609 126.763 117.819 127.466C118.029 128.168 118.432 128.798 118.981 129.284Z" fill="#E8732A"/>
<path d="M134.077 123.452C134.077 123.905 133.929 124.347 133.656 124.708C133.382 125.07 132.998 125.332 132.561 125.455L125.382 127.477L118.987 129.295C118.439 128.808 118.036 128.179 117.826 127.476C117.615 126.774 117.605 126.027 117.796 125.319L124.312 123.482L131.434 121.47C131.964 121.32 132.532 121.387 133.013 121.655C133.494 121.923 133.849 122.371 134.001 122.9C134.052 123.08 134.077 123.266 134.077 123.452Z" fill="#D7E8F0"/>
<path d="M124.182 110.58C123.944 111.412 123.439 112.142 122.745 112.658C122.051 113.174 121.206 113.448 120.341 113.436C119.476 113.424 118.639 113.128 117.959 112.593C117.279 112.059 116.793 111.315 116.578 110.477C116.448 109.976 116.417 109.454 116.489 108.941C116.56 108.428 116.732 107.935 116.994 107.488C117.257 107.042 117.604 106.652 118.018 106.34C118.431 106.028 118.902 105.8 119.403 105.671C120.04 105.505 120.707 105.501 121.346 105.66C121.984 105.819 122.573 106.135 123.058 106.58C123.598 107.077 123.99 107.716 124.188 108.423C124.387 109.131 124.385 109.88 124.182 110.586V110.58Z" fill="white"/>
<g opacity="0.72">
<path opacity="0.72" d="M122.067 108.69C122.116 109.168 122.028 109.649 121.813 110.078C121.709 110.291 121.588 110.494 121.449 110.684C121.373 110.785 120.976 111.357 120.861 111.333C120.079 111.194 118.961 110.584 118.6 109.769C118.546 109.641 118.509 109.507 118.488 109.369C118.46 109.169 118.494 108.966 118.583 108.786C118.673 108.606 118.815 108.456 118.991 108.358C119.167 108.26 119.368 108.217 119.569 108.235C119.77 108.253 119.96 108.332 120.116 108.46C120.199 108.255 120.348 108.082 120.538 107.969C120.729 107.855 120.951 107.807 121.171 107.831C121.392 107.855 121.598 107.95 121.76 108.102C121.921 108.254 122.029 108.454 122.067 108.672V108.69Z" fill="#E8732A"/>
</g>
<path d="M80.9524 131.342C80.629 132.099 80.0771 132.734 79.374 133.161C78.6712 133.588 77.8521 133.784 77.032 133.722C76.2122 133.66 75.4321 133.342 74.8015 132.815C74.1708 132.287 73.7211 131.575 73.5153 130.778C73.3804 130.245 73.3547 129.689 73.4395 129.145C73.5668 128.395 73.9081 127.697 74.4221 127.136C74.9357 126.575 75.6006 126.174 76.3368 125.981C77.0478 125.793 77.7978 125.809 78.5 126.027C79.2025 126.246 79.8286 126.659 80.3069 127.218C80.7942 127.775 81.1133 128.459 81.2275 129.191C81.3418 129.923 81.2463 130.672 80.9524 131.351V131.342Z" fill="white"/>
<g opacity="0.72">
<path opacity="0.72" d="M79.0067 128.989C79.0543 129.467 78.9652 129.948 78.7491 130.377C78.6485 130.591 78.5267 130.794 78.3855 130.983C78.3097 131.083 77.9127 131.656 77.8005 131.631C77.0156 131.492 75.9004 130.883 75.5397 130.065C75.4843 129.937 75.4464 129.802 75.4276 129.665C75.3997 129.465 75.4327 129.262 75.5224 129.081C75.6122 128.901 75.7543 128.752 75.9304 128.654C76.1061 128.555 76.3077 128.512 76.5086 128.53C76.7092 128.549 76.8995 128.627 77.055 128.755C77.1147 128.609 77.2078 128.477 77.3266 128.372C77.4454 128.267 77.5869 128.191 77.7399 128.149C77.8784 128.117 78.0224 128.113 78.1624 128.138C78.3027 128.163 78.4364 128.216 78.5549 128.295C78.6737 128.374 78.7749 128.476 78.8528 128.595C78.9304 128.714 78.9828 128.848 79.0067 128.989Z" fill="#E8732A"/>
</g>
<path d="M125.375 127.476C125.099 128.383 124.504 129.16 123.7 129.662C122.896 130.165 121.938 130.359 121.001 130.21C120.065 130.06 119.215 129.577 118.607 128.849C118 128.121 117.676 127.198 117.696 126.25C117.717 125.302 118.079 124.394 118.718 123.693C119.356 122.992 120.226 122.545 121.168 122.436C122.11 122.327 123.059 122.562 123.841 123.099C124.623 123.635 125.184 124.437 125.42 125.355C125.599 126.052 125.584 126.786 125.375 127.476Z" fill="white"/>
<g opacity="0.72">
<path opacity="0.72" d="M123.277 125.548C123.323 126.026 123.234 126.507 123.02 126.936C122.918 127.149 122.796 127.352 122.656 127.542C122.58 127.642 122.183 128.215 122.071 128.191C121.286 128.052 120.168 127.442 119.807 126.627C119.753 126.498 119.715 126.363 119.695 126.224C119.667 126.025 119.7 125.821 119.79 125.641C119.88 125.46 120.022 125.311 120.198 125.213C120.374 125.115 120.575 125.072 120.776 125.09C120.977 125.108 121.167 125.187 121.323 125.315C121.408 125.11 121.557 124.939 121.747 124.826C121.938 124.713 122.16 124.665 122.381 124.69C122.601 124.714 122.807 124.809 122.969 124.961C123.131 125.112 123.239 125.312 123.277 125.53V125.548Z" fill="#E8732A"/>
</g>
<path d="M117.244 138.08C114.616 138.225 111.789 134.443 110.925 133.501C110.829 133.4 110.72 133.314 110.601 133.243L108.252 131.343L108.646 134.331C109.273 135.77 112.586 138.91 114.947 142.514C117.308 146.117 115.059 146.905 113.795 147.362C112.531 147.82 111.21 145.432 111.725 148.026C112.24 150.62 109.18 150.657 107.27 150.332C105.361 150.008 104.676 147.908 105.109 149.557C105.543 151.205 104.112 152.408 102.821 152.463C101.842 152.511 99.9605 151.19 99.1119 150.554C98.918 151.596 98.2179 153.554 95.7783 152.511C92.5386 151.126 89.3928 142.85 86.9896 134.379C84.5863 125.909 69.0212 110.459 66.7513 94.0998C66.7513 94.0726 66.7513 94.0331 66.7513 94.0059C66.63 92.7694 66.5685 91.5238 66.5664 90.2692C66.567 87.8844 66.7985 85.5054 67.2574 83.1654C67.5856 81.4629 68.0238 79.7833 68.5696 78.1377L94.269 83.2412C94.0933 83.4352 93.9175 83.6291 93.7417 83.8322C87.726 90.8177 91.2415 99.6761 95.8177 106.18C100.461 112.799 105.803 119.339 111.91 124.666C113.703 126.227 115.379 127.918 116.923 129.724L116.589 129.909C116.952 130.616 117.357 131.3 117.802 131.958C119.617 134.461 119.884 137.931 117.244 138.08Z" fill="#EBF2FB"/>
<path d="M100.875 78.4013L159.562 61.3118C162.382 60.4999 165.408 60.8375 167.98 62.2504C170.551 63.6633 172.458 66.0365 173.285 68.8519L185.889 112.15C186.701 114.969 186.365 117.995 184.954 120.567C183.543 123.139 181.172 125.049 178.358 125.879L115.813 144.086" stroke="black" stroke-width="1.38498" stroke-miterlimit="10"/>
<path d="M92.9465 150.739L75.7479 155.751C72.9285 156.565 69.9016 156.228 67.3298 154.815C64.7577 153.402 62.8506 151.027 62.0254 148.211L49.4211 104.913C48.6083 102.095 48.9438 99.0706 50.3543 96.5001C51.765 93.9292 54.1361 92.0211 56.9491 91.1935L57.4007 91.0632L57.7795 90.951L65.8166 88.6084" stroke="black" stroke-width="1.38498" stroke-miterlimit="10"/>
<path d="M109.844 145.819H109.834" stroke="black" stroke-width="1.38498" stroke-miterlimit="10"/>
<path d="M97.795 149.335H97.7852" stroke="black" stroke-width="1.38498" stroke-miterlimit="10"/>
<path d="M101.063 132.737C101.909 137.349 105.751 142.347 109.828 145.808C111.012 146.814 113.631 148.038 115.052 146.89C118.119 144.417 112.876 140.344 111.431 138.707C109.676 136.719 108.258 134.388 107.73 131.761C107.684 131.599 107.694 131.426 107.758 131.27C107.819 131.185 107.906 131.122 108.006 131.092C108.106 131.06 108.213 131.062 108.312 131.097C108.508 131.169 108.684 131.285 108.827 131.437C110.488 132.952 111.97 134.628 113.473 136.286C114.537 137.471 117.304 138.94 118.662 137.431C121.607 134.155 113.27 126.521 111.137 124.648C105.036 119.314 99.6841 112.774 95.0412 106.162C90.465 99.6579 86.9496 90.7995 92.9653 83.814C96.105 80.1773 100.754 78.5892 104.906 76.4405C111.603 72.9857 112.982 67.2275 112.982 67.2275" stroke="black" stroke-width="1.38498" stroke-miterlimit="10"/>
<path d="M97.1719 137.425C97.1719 137.425 100.639 147.308 108.003 150.384C108.441 150.578 108.916 150.672 109.395 150.658C109.873 150.643 110.342 150.522 110.767 150.302C111.676 149.793 112.419 148.786 111.143 146.768" stroke="black" stroke-width="1.38498" stroke-miterlimit="10"/>
<path d="M92.3711 139.734C93.7227 143.401 95.5168 147.235 98.402 149.963C99.7172 151.202 101.384 152.43 103.251 152.508C105.5 152.602 105.675 150.335 104.766 148.793C104.57 148.462 104.333 148.157 104.063 147.884" stroke="black" stroke-width="1.38498" stroke-miterlimit="10"/>
<path d="M98.403 149.964C98.403 149.964 98.2394 153.903 94.9997 152.512C91.76 151.121 88.6051 142.848 86.211 134.374C83.8168 125.901 68.1638 110.405 65.9424 94.0068L65.9666 94.2068C65.9666 94.1704 65.9666 94.1431 65.9666 94.1068C65.5881 90.4546 65.7554 86.7661 66.4636 83.1633C73.4794 47.6569 120.781 42.9595 120.781 42.9595" stroke="black" stroke-width="1.38498" stroke-miterlimit="10"/>
<path d="M190.864 117.944C189.554 121.808 186.318 124.272 182.329 124.872C180.62 125.124 178.778 125.354 177.177 124.569C176.005 123.996 174.85 122.66 175.201 121.257C174.68 121.263 174.16 121.204 173.653 121.081C172.959 120.914 172.241 120.584 171.934 119.944C171.628 119.305 171.844 118.414 172.341 117.841C172.882 117.307 173.549 116.917 174.28 116.708C174.458 116.642 174.639 116.587 174.823 116.541C174.231 116.546 173.639 116.509 173.053 116.429C171.925 116.284 170.662 115.802 170.325 114.723C170.232 114.356 170.233 113.972 170.328 113.606C170.424 113.239 170.61 112.903 170.871 112.629C171.401 112.084 172.066 111.689 172.798 111.483C172.874 111.465 172.938 111.438 173.01 111.419C171.674 111.401 170.307 111.135 169.716 109.868C169.526 109.418 169.472 108.922 169.561 108.441C169.65 107.961 169.878 107.517 170.216 107.164C171.398 105.837 173.168 105.649 174.838 105.522C176.508 105.395 178.538 105.337 180.505 105.301C180.932 105.289 181.351 105.18 181.73 104.982C182.108 104.784 182.437 104.502 182.69 104.157C182.943 103.813 183.114 103.415 183.189 102.995C183.265 102.574 183.243 102.142 183.126 101.731C182.36 99.0031 182.035 96.027 183.651 95.2997C186.06 94.2087 187.721 97.1817 188.412 99.0091C190.524 104.61 192.876 112.029 190.864 117.944Z" fill="#FBE9D8"/>
<path d="M180.702 115.693C178.753 116.109 176.78 116.533 174.804 116.551C174.62 116.597 174.439 116.653 174.262 116.718C173.53 116.927 172.864 117.317 172.322 117.851C171.825 118.424 171.586 119.272 171.916 119.954C172.246 120.636 172.94 120.924 173.634 121.091C174.141 121.214 174.661 121.273 175.183 121.267C176.249 121.245 177.311 121.112 178.35 120.87C178.526 120.833 180.677 120.585 180.844 120.545" fill="#FBE9D8"/>
<path d="M180.702 115.693C178.753 116.109 176.78 116.533 174.804 116.551C174.62 116.597 174.439 116.653 174.262 116.718C173.53 116.927 172.864 117.317 172.322 117.851C171.825 118.424 171.586 119.272 171.916 119.954C172.246 120.636 172.94 120.924 173.634 121.091C174.141 121.214 174.661 121.273 175.183 121.267C176.249 121.245 177.311 121.112 178.35 120.87C178.526 120.833 180.677 120.585 180.844 120.545" stroke="black" stroke-width="1.38498" stroke-miterlimit="10"/>
<path d="M172.989 111.429C172.916 111.447 172.852 111.475 172.777 111.493C172.044 111.698 171.38 112.093 170.849 112.638C170.589 112.913 170.402 113.249 170.307 113.615C170.211 113.981 170.21 114.366 170.304 114.733C170.655 115.811 171.919 116.293 173.031 116.439C173.618 116.518 174.209 116.556 174.801 116.551" stroke="black" stroke-width="1.38498" stroke-miterlimit="10"/>
<path d="M182.338 111.226C182.19 111.226 182.05 111.226 181.905 111.226L174.862 111.384C174.31 111.384 173.65 111.438 172.989 111.42C171.652 111.402 170.286 111.135 169.695 109.869C169.505 109.418 169.451 108.922 169.54 108.442C169.629 107.962 169.856 107.518 170.195 107.165C171.377 105.838 173.146 105.65 174.816 105.523C176.486 105.395 178.52 105.344 180.487 105.301C180.915 105.292 181.336 105.184 181.716 104.986C182.097 104.788 182.427 104.505 182.681 104.16C182.935 103.815 183.106 103.415 183.182 102.993C183.258 102.571 183.235 102.137 183.117 101.725C182.35 98.9978 182.02 96.0187 183.638 95.2914C186.048 94.2004 187.708 97.1734 188.399 99.0008C190.521 104.601 192.876 112.032 190.863 117.936C189.551 121.8 186.317 124.27 182.332 124.864C180.626 125.118 178.777 125.349 177.18 124.561C176.013 123.991 174.856 122.658 175.204 121.254" fill="#FBE9D8"/>
<path d="M182.338 111.226C182.19 111.226 182.05 111.226 181.905 111.226L174.862 111.384C174.31 111.384 173.65 111.438 172.989 111.42C171.652 111.402 170.286 111.135 169.695 109.869C169.505 109.418 169.451 108.922 169.54 108.442C169.629 107.962 169.856 107.518 170.195 107.165C171.377 105.838 173.146 105.65 174.816 105.523C176.486 105.395 178.52 105.344 180.487 105.301C180.915 105.292 181.336 105.184 181.716 104.986C182.097 104.788 182.427 104.505 182.681 104.16C182.935 103.815 183.106 103.415 183.182 102.993C183.258 102.571 183.235 102.137 183.117 101.725C182.35 98.9978 182.02 96.0187 183.638 95.2914C186.048 94.2004 187.708 97.1734 188.399 99.0008C190.521 104.601 192.876 112.032 190.863 117.936C189.551 121.8 186.317 124.27 182.332 124.864C180.626 125.118 178.777 125.349 177.18 124.561C176.013 123.991 174.856 122.658 175.204 121.254" stroke="black" stroke-width="1.38498" stroke-miterlimit="10"/>
<g opacity="0.54">
<path opacity="0.54" d="M126.524 95.3494C126.471 94.9993 126.391 94.6539 126.284 94.3159L125.093 90.4641C124.729 89.2852 124.326 88.0396 123.399 87.2274C121.681 85.7121 119.032 86.2788 116.835 86.9395L111.443 88.5578C110.204 88.9306 108.946 89.3124 107.864 90.0186C106.782 90.7247 105.879 91.8218 105.709 93.1037C105.582 94.0493 105.861 94.9948 106.137 95.91L107.246 99.6074C107.613 100.82 108.019 102.099 108.973 102.941C110.674 104.42 113.271 103.865 115.435 103.226L120.95 101.598C124.278 100.604 127.06 98.8255 126.524 95.3494Z" fill="white"/>
<path opacity="0.54" d="M118.96 95.8001C119.183 95.5661 119.339 95.2767 119.413 94.9624C119.487 94.6479 119.475 94.3193 119.38 94.0105C119.284 93.702 119.109 93.4244 118.87 93.2062C118.632 92.988 118.34 92.8374 118.024 92.7695L116.315 92.3816L114.608 91.9937C114.294 91.9179 113.966 91.927 113.657 92.0203C113.347 92.1137 113.069 92.2876 112.849 92.5243C112.629 92.761 112.476 93.0519 112.406 93.3671C112.336 93.6826 112.352 94.0108 112.451 94.3181L112.969 95.991L113.484 97.6639C113.575 97.9742 113.747 98.2546 113.983 98.4761C114.219 98.6976 114.509 98.8522 114.824 98.9243C115.139 98.9962 115.468 98.9828 115.776 98.8855C116.085 98.788 116.362 98.6101 116.578 98.37L117.769 97.0851L118.96 95.8001Z" fill="#E8732A"/>
</g>
<path d="M241.025 223.688H226.166" stroke="#CCDDE2" stroke-width="1.38498" stroke-miterlimit="10"/>
<path d="M223.635 130.788C232.721 130.788 240.088 123.422 240.088 114.335C240.088 105.248 232.721 97.8818 223.635 97.8818C214.548 97.8818 207.182 105.248 207.182 114.335C207.182 123.422 214.548 130.788 223.635 130.788Z" fill="#E8732A"/>
<path d="M220.974 121.711C220.782 121.711 220.593 121.673 220.416 121.6C220.239 121.527 220.079 121.419 219.944 121.284L215.701 117.041C215.427 116.768 215.274 116.398 215.273 116.011C215.273 115.625 215.426 115.255 215.699 114.982C215.972 114.708 216.342 114.555 216.729 114.554C217.115 114.554 217.485 114.707 217.759 114.98L220.983 118.205L229.526 109.655C229.799 109.382 230.169 109.228 230.556 109.228C230.942 109.228 231.312 109.381 231.586 109.654C231.859 109.927 232.013 110.297 232.013 110.683C232.013 111.069 231.86 111.44 231.587 111.713L222.001 121.299C221.727 121.566 221.357 121.715 220.974 121.711Z" fill="white"/>
</svg>
