<svg width="284" height="281" viewBox="0 0 284 281" fill="none" xmlns="http://www.w3.org/2000/svg">
<path d="M40.6465 126.718C50.9577 112.305 66.4103 105.773 66.4103 105.773C66.9147 105.563 64.7654 85.8178 64.7215 84.4173C64.0699 61.3511 67.8954 37.3513 85.2342 20.6955C106.909 -0.111814 146.237 -4.42302 171.101 13.1069C170.788 12.8751 179.282 6.17954 179.999 5.7503C184.64 2.94958 189.876 1.28454 195.283 0.890793C217.039 -0.675778 236.991 16.4187 245.153 37.0975C253.315 57.7762 251.441 104.892 236.468 118.481" stroke="#CCDDE2" stroke-width="1.58224" stroke-miterlimit="10"/>
<path d="M31.3516 151.72C31.8876 146.044 33.3471 140.493 35.6722 135.287C35.8937 134.792 36.1255 134.307 36.3677 133.833" stroke="#CCDDE2" stroke-width="1.58224" stroke-miterlimit="10"/>
<path d="M58.2407 211.7C55.7342 209.423 53.4126 207.104 51.2852 204.773" stroke="#CCDDE2" stroke-width="1.58224" stroke-miterlimit="10"/>
<path d="M267.108 143.96C267.127 145.526 267.108 147.124 267.033 148.725C266.588 158.629 264.467 168.865 259.166 177.205C258.201 178.744 257.124 180.21 255.945 181.592C244.665 180.103 242.983 168.599 229.94 162.094C214.315 154.283 188.729 157.081 188.729 157.081L201.334 145.454C200.66 110.438 174.953 112.587 174.953 112.587L173.646 115.786C174.639 112.889 175.642 110.187 176.657 107.681L176.714 107.549C188.62 77.9787 200.955 74.3129 210.552 70.0424C212.844 69.4979 215.192 69.2181 217.548 69.209C242.084 69.0774 256.484 94.0642 262.781 114.179C264.348 119.192 266.757 129.914 267.08 141.97C267.086 142.615 267.108 143.289 267.108 143.96Z" fill="#2E2E2E"/>
<path d="M280.894 275.201C278.989 277.823 275.846 279.252 272.606 279.252H235.385C233.954 279.272 232.535 278.993 231.22 278.433C229.903 277.872 228.719 277.042 227.743 275.997C227.611 275.862 227.487 275.72 227.373 275.57C226.207 274.125 225.477 272.377 225.271 270.532C225.083 268.837 226.343 267.33 228.047 267.399C228.693 267.424 229.308 267.682 229.778 268.126C230.248 268.569 230.541 269.168 230.604 269.812C230.604 269.946 230.632 270.078 230.651 270.21C230.788 270.974 231.125 271.689 231.625 272.284C232.068 272.807 232.624 273.223 233.25 273.5C233.877 273.777 234.559 273.909 235.244 273.885H272.766C273.438 273.896 274.104 273.762 274.719 273.492C275.334 273.221 275.883 272.821 276.329 272.318C276.831 271.737 277.174 271.035 277.323 270.281C277.473 269.528 277.423 268.748 277.181 268.02L260.422 218.187C260.285 217.805 260.123 217.432 259.936 217.072C258.952 214.993 257.393 213.241 255.443 212.022C253.493 210.804 251.235 210.17 248.936 210.197C241.88 210.282 232.922 210.301 232.079 210.301C213.302 210.232 204.758 210.232 200.059 210.357C200.381 209.202 200.964 208.137 201.763 207.243C201.763 207.243 201.782 207.224 201.782 207.215C202.928 205.993 204.497 205.255 206.168 205.15C213.13 204.58 220.023 203.54 226.719 201.722C238.534 198.52 249.803 193.028 257.633 184.195C261.444 179.92 264.325 174.899 266.093 169.451C267.464 165.125 268.329 160.654 268.668 156.129C268.789 154.7 268.865 153.261 268.894 151.811V151.746C268.894 151.413 268.913 151.072 268.913 150.74C268.955 148.675 268.861 146.61 268.631 144.558C270.676 144.574 272.636 145.385 274.095 146.82C274.223 147.158 274.317 147.507 274.377 147.864C274.433 148.201 274.462 148.543 274.461 148.885V189.412C274.465 192.18 273.918 194.921 272.854 197.477C271.789 200.032 270.228 202.35 268.261 204.298C265.002 207.525 264.075 212.422 265.62 216.73L282.275 266.29C282.779 267.777 282.916 269.363 282.675 270.914C282.435 272.466 281.824 273.936 280.894 275.201Z" fill="#2B5BA8"/>
<path d="M51.2871 273.95V160.333H58.2396V273.997L51.2871 273.95Z" fill="#2E2E2E"/>
<path d="M188.732 157.066C193.711 156.536 199.47 155.909 205 156.035" stroke="black" stroke-width="1.58224" stroke-miterlimit="10"/>
<path d="M161.612 162.084C152.795 164.309 144.217 167.52 136.898 172.859C124.616 181.807 119.001 198.501 124.02 212.963C124.02 212.982 143.759 269.92 143.759 269.92H138.564C137.445 269.92 136.336 270.141 135.303 270.572C134.269 271.002 133.331 271.632 132.542 272.427C130.998 273.962 130.236 276.522 130.236 278.872H176.992L159.224 220.752C158.781 219.32 158.682 217.803 158.934 216.324C159.185 214.846 159.782 213.448 160.674 212.243C161.567 211.038 162.731 210.06 164.072 209.388C165.412 208.716 166.892 208.37 168.392 208.376C178.515 208.661 187.918 209.05 198.157 208.605" stroke="black" stroke-width="1.58224" stroke-miterlimit="10"/>
<path d="M267.181 149.198V149.135C266.727 136.916 266.113 124.86 262.77 114.169C256.472 94.0545 242.072 69.0677 217.536 69.1992C215.18 69.2083 212.833 69.4881 210.54 70.0327C194.367 73.877 183.135 90.4482 176.702 107.54L176.646 107.671C176.032 109.311 175.464 110.946 174.941 112.578C174.587 113.675 174.151 114.745 173.635 115.777C171.664 119.747 168.541 123.031 164.674 125.197C160.806 127.363 156.375 128.311 151.96 127.917C122.258 125.217 83.1121 123.675 70.7832 144.545" stroke="black" stroke-width="1.58224" stroke-miterlimit="10"/>
<path d="M218.576 126.47C214.252 131.69 209.699 136.731 204.993 141.606C195.359 151.595 187.047 162.204 172.095 162.912C160.168 163.485 148.813 158.908 137.534 155.734C125.468 152.341 119.362 149.627 108.117 146.2C104.878 145.216 101.519 144.689 98.1345 144.633L86.8145 144.721" stroke="black" stroke-width="1.58224" stroke-miterlimit="10"/>
<path d="M174.422 270.655C175.5 270.171 176.669 269.923 177.85 269.928H183.057C183.057 269.928 172.173 248.77 163.469 234.686" stroke="black" stroke-width="1.58224" stroke-miterlimit="10"/>
<path d="M181.574 208.653L217.982 279.252H176.799H169.33" stroke="black" stroke-width="1.58224" stroke-miterlimit="10"/>
<path d="M280.894 275.201C278.989 277.823 275.847 279.252 272.607 279.252H235.385C232.299 279.252 229.288 277.973 227.364 275.561C226.198 274.116 225.469 272.368 225.262 270.523C225.074 268.828 226.334 267.321 228.038 267.39C228.684 267.415 229.299 267.673 229.769 268.116C230.239 268.56 230.532 269.159 230.595 269.802C230.671 270.712 231.028 271.576 231.616 272.274C232.065 272.789 232.622 273.2 233.248 273.476C233.873 273.753 234.551 273.889 235.235 273.875H272.767C273.439 273.887 274.105 273.753 274.72 273.482C275.334 273.212 275.884 272.811 276.329 272.309C276.831 271.727 277.174 271.025 277.324 270.272C277.473 269.518 277.424 268.739 277.181 268.01L260.422 218.187C259.573 215.828 258.012 213.791 255.954 212.36C253.896 210.928 251.443 210.172 248.936 210.197C241.88 210.282 232.923 210.301 232.08 210.301C211.172 210.235 202.942 210.235 198.58 210.395C198.512 210.394 198.445 210.38 198.383 210.354C198.32 210.328 198.263 210.289 198.216 210.241C198.168 210.193 198.13 210.136 198.105 210.073C198.079 210.01 198.066 209.942 198.066 209.875C198.06 207.94 198.77 206.072 200.059 204.63C200.064 204.626 200.069 204.621 200.072 204.616C200.075 204.611 200.077 204.604 200.078 204.598C201.226 203.38 202.793 202.643 204.464 202.537C211.426 201.967 218.319 200.926 225.015 199.109C236.83 195.907 248.1 190.415 255.929 181.582C259.74 177.307 262.621 172.286 264.389 166.838C265.757 162.513 266.618 158.045 266.955 153.522C267.078 152.089 267.153 150.65 267.18 149.205V149.136C267.18 148.807 267.199 148.465 267.199 148.133C267.242 146.068 267.148 144.003 266.917 141.951C270.326 141.932 273.763 144.411 274.358 147.87C274.415 148.207 274.443 148.549 274.443 148.891V189.412C274.446 192.18 273.9 194.921 272.835 197.476C271.771 200.032 270.21 202.35 268.243 204.298C264.984 207.525 264.057 212.422 265.601 216.73L282.257 266.29C282.763 267.775 282.903 269.361 282.666 270.912C282.429 272.463 281.821 273.934 280.894 275.201Z" stroke="black" stroke-width="1.58224" stroke-miterlimit="10"/>
<path d="M102.067 151.724H5.09282C2.71699 151.724 0.791016 153.65 0.791016 156.026V156.029C0.791016 158.405 2.71699 160.331 5.09282 160.331H102.067C104.443 160.331 106.369 158.405 106.369 156.029V156.026C106.369 153.65 104.443 151.724 102.067 151.724Z" stroke="black" stroke-width="1.58224" stroke-miterlimit="10"/>
<path d="M74.605 274.489H35.3938C34.0631 274.489 32.9844 275.568 32.9844 276.899C32.9844 278.229 34.0631 279.308 35.3938 279.308H74.605C75.9357 279.308 77.0144 278.229 77.0144 276.899C77.0144 275.568 75.9357 274.489 74.605 274.489Z" stroke="black" stroke-width="1.58224" stroke-miterlimit="10"/>
<path d="M45.8652 147.861V148.293C45.9279 151.267 48.7258 151.721 51.1383 151.74L97.7783 151.708C99.8211 151.708 101.507 150.142 101.51 148.218V148.137C101.472 146.257 99.8305 144.725 97.8127 144.721C97.8127 144.721 71.7199 144.627 51.5112 144.568C51.1477 145.627 50.2266 146.448 49.0767 147.118C48.0876 147.637 46.9816 147.892 45.8652 147.861Z" stroke="black" stroke-width="1.58224" stroke-miterlimit="10"/>
<path d="M20.216 105.97C20.2257 106.465 20.3673 106.949 20.6264 107.371L42.2451 143.681C42.5249 144.117 42.8921 144.491 43.3232 144.779C43.7546 145.067 44.2409 145.262 44.7516 145.354C45.6154 145.524 46.5105 145.427 47.3176 145.075C48.643 144.486 49.4074 143.298 49.3824 142.095C49.3777 141.944 49.362 141.793 49.3354 141.644C49.269 141.312 49.1458 140.994 48.9719 140.704L27.3533 104.394C26.4133 102.806 24.1136 102.182 22.265 103C20.946 103.576 20.1815 104.764 20.216 105.97Z" stroke="black" stroke-width="1.58224" stroke-miterlimit="10"/>
<path d="M78.6758 144.721C78.6758 144.721 81.2794 142.243 87.2669 138.308" stroke="black" stroke-width="1.58224" stroke-miterlimit="10"/>
<path d="M99.9051 103.99L90.4148 114.514C89.754 115.247 88.8366 115.699 87.8525 115.775C86.8681 115.852 85.8921 115.547 85.126 114.925C84.7028 114.581 84.3575 114.152 84.1125 113.665C83.8675 113.178 83.7283 112.645 83.7048 112.1C83.681 111.556 83.7731 111.012 83.9749 110.506C84.1767 109.999 84.4837 109.542 84.8754 109.163L86.6111 107.483C86.6769 107.389 86.7521 107.305 86.8273 107.217L88.0806 105.835L98.8586 94.1237C100.167 92.6859 101.814 91.5991 103.65 90.9621C105.486 90.3248 107.453 90.1581 109.37 90.4768L109.53 90.505" stroke="black" stroke-width="1.58224" stroke-miterlimit="10"/>
<path d="M113.272 106.838H103.778C102.698 106.838 101.662 106.409 100.898 105.645C100.134 104.881 99.7051 103.845 99.7051 102.765C99.7051 101.685 100.134 100.649 100.898 99.885C101.662 99.1211 102.698 98.6919 103.778 98.6919H117.251" stroke="black" stroke-width="1.58224" stroke-miterlimit="10"/>
<path d="M105.993 106.838C105.861 108.502 105.225 109.733 104.288 110.598C101.876 112.791 97.4517 112.55 94.375 111.043" stroke="black" stroke-width="1.58224" stroke-miterlimit="10"/>
<path d="M88.0954 105.829C85.3664 102.543 85.9273 98.0748 88.0484 94.6189C96.8055 80.3193 113.499 89.1266 124.474 95.2894C131.008 98.9756 137.253 103.15 143.157 107.778C148.383 111.851 153.221 116.726 159.5 119.177C163.259 120.646 167.699 120.997 171.44 119.302" stroke="black" stroke-width="1.58224" stroke-miterlimit="10"/>
<path d="M104.287 110.573C110.91 115.461 117.233 120.742 123.224 126.386" stroke="black" stroke-width="1.58224" stroke-miterlimit="10"/>
<path d="M184.865 33.7033C186.451 35.1508 188.885 35.2292 190.9 35.0349C193.475 34.7999 196.026 34.1764 198.548 33.6501L200.08 33.5717H200.102C200.396 33.5749 200.686 33.6353 200.956 33.7506C201.227 33.8656 201.472 34.0329 201.677 34.2425C201.883 34.4525 202.045 34.7006 202.155 34.9732C202.265 35.2458 202.32 35.5372 202.317 35.8307C202.352 39.1375 202.022 42.4379 201.333 45.6719L204.269 47.2604C204.648 46.2014 204.222 44.6756 205.121 44.5597C205.698 43.485 206.556 42.7863 207.903 43.5853C210.541 45.1518 211.582 49.7544 209.041 51.863L210.67 54.9084C211.238 55.9762 212.159 56.8134 213.275 57.2774C214.392 57.7414 215.635 57.8035 216.792 57.4526L215.128 53.7742C219.032 54.4667 221.764 49.5946 220.574 46.6213C219.762 44.5785 219.803 42.99 220.887 41.0036C220.959 40.8688 220.223 40.6902 220.286 40.5524C220.323 39.0955 219.919 37.5352 219.217 36.7926C217.983 35.4642 215.498 35.226 216.006 33.2083C216.231 32.3304 216.315 31.4218 216.253 30.5169C216.121 29.3342 215.737 28.1934 215.126 27.1717C214.516 26.1496 213.694 25.2702 212.716 24.5922C210.661 23.2418 208.361 24.4668 206.164 24.4324C203.498 24.4042 201.587 22.142 198.792 22.1076C197.401 22.0856 196.286 22.6277 195.095 23.3013C194.099 23.8747 193.118 24.4731 192.166 25.1217C191.213 25.7702 190.367 26.3311 189.23 26.3342C187.748 26.353 186.316 25.413 184.825 25.8517C184.07 26.0547 183.408 26.5078 182.945 27.1363C182.472 29.4485 183.327 32.3091 184.865 33.7033Z" fill="#2B5BA8"/>
<path d="M204.281 46.9171C204.472 46.1009 204.754 45.3086 205.121 44.5547C205.697 43.4801 206.559 42.7814 207.903 43.5803C210.541 45.1469 211.581 49.7495 209.04 51.8581L210.67 54.9035C211.237 55.971 212.159 56.8085 213.275 57.2725C214.392 57.7365 215.635 57.7982 216.792 57.4476" stroke="black" stroke-width="1.58224" stroke-linecap="round" stroke-linejoin="round"/>
<path d="M215.129 53.769L216.786 57.4536C217.203 58.334 218.397 61.0411 219.647 63.8546C220.537 65.8692 221.464 67.9434 222.153 69.4692" stroke="black" stroke-width="1.58224" stroke-linecap="round" stroke-linejoin="round"/>
<path d="M188.281 40.5376C188.281 40.5376 193.166 39.322 195.299 43.0253" stroke="black" stroke-width="1.58224" stroke-miterlimit="10"/>
<path d="M189.72 51.5949C188.405 51.9552 186.634 52.2779 185.619 51.1312L187.831 46.4753C188.368 45.3336 188.501 44.0431 188.207 42.8158C187.725 40.7511 186.518 37.6148 187.812 34.8921" stroke="black" stroke-width="1.58224" stroke-miterlimit="10"/>
<path d="M193.006 45.3549C193.377 44.7398 193.091 43.8879 192.368 43.4521C191.644 43.0163 190.758 43.1614 190.387 43.7764C190.016 44.3914 190.302 45.2433 191.025 45.6792C191.748 46.1153 192.635 45.9699 193.006 45.3549Z" fill="black"/>
<path d="M200.134 74.6674L198.975 61.8027" stroke="black" stroke-width="1.58224" stroke-miterlimit="10"/>
<path d="M204.27 47.2543C204.27 47.1415 204.27 47.0256 204.27 46.9128C204.276 46.7918 204.276 46.6706 204.27 46.5493" stroke="black" stroke-width="1.58224" stroke-linecap="round" stroke-linejoin="round"/>
<path d="M204.273 47.2586L203.264 46.7166L201.334 45.667" stroke="black" stroke-width="1.58224" stroke-linecap="round" stroke-linejoin="round"/>
<path d="M196.195 51.9263C196.195 51.9263 196.098 55.1847 192.373 56.5257" stroke="black" stroke-width="1.58224" stroke-miterlimit="10"/>
<path d="M215.13 53.7688C219.034 54.4613 221.766 49.5892 220.575 46.6159C219.764 44.5731 219.804 42.9846 220.888 40.9982C220.96 40.8634 221.02 40.7318 221.083 40.6002C221.888 38.8238 221.603 37.0629 220.337 35.5528C219.137 34.124 217.329 33.6227 217.849 31.5392C218.083 30.6347 218.17 29.6985 218.106 28.7664C217.971 27.5498 217.577 26.3764 216.95 25.3252C216.323 24.2741 215.478 23.3695 214.472 22.6724C212.36 21.2719 209.982 22.5408 207.707 22.5063C204.969 22.4656 202.992 20.1346 200.119 20.1001C198.681 20.1001 197.521 20.6359 196.3 21.3314C195.272 21.9236 194.254 22.5471 193.282 23.2113C192.311 23.8755 191.402 24.4646 190.249 24.4646C188.72 24.4646 187.245 23.5246 185.716 23.9633C184.187 24.4019 183.278 25.6677 182.977 27.134C182.489 29.4337 183.344 32.3068 184.882 33.7136C186.468 35.1611 188.902 35.2394 190.917 35.0452C193.492 34.8102 196.043 34.1867 198.565 33.6603L200.097 33.582H200.119C200.413 33.5848 200.703 33.6456 200.973 33.7606C201.244 33.8759 201.489 34.0429 201.694 34.2528C201.9 34.4624 202.062 34.7109 202.172 34.9831C202.282 35.2557 202.337 35.5471 202.334 35.841C202.369 39.1477 202.039 42.4479 201.35 45.6822" stroke="black" stroke-width="1.58224" stroke-miterlimit="10"/>
<path d="M204.862 57.3342C204.862 57.3342 199.04 65.0668 193.868 63.3342C188.695 61.6015 188.432 52.0298 188.432 52.0298" stroke="black" stroke-width="1.58224" stroke-linecap="round" stroke-linejoin="round"/>
<path d="M51.2871 273.95V160.333H58.2396V273.997" stroke="black" stroke-width="1.58224" stroke-miterlimit="10"/>
<path d="M57.6858 94.2207C63.8841 94.2207 68.9087 89.1961 68.9087 82.9978C68.9087 76.7995 63.8841 71.7749 57.6858 71.7749C51.4875 71.7749 46.4629 76.7995 46.4629 82.9978C46.4629 89.1961 51.4875 94.2207 57.6858 94.2207Z" fill="#2B5BA8"/>
<path d="M53.2956 85.8927C52.9672 85.6683 52.6759 85.3945 52.4309 85.0812C51.9975 84.5448 51.776 83.8684 51.8077 83.1797C51.8393 82.491 52.1225 81.8378 52.6032 81.3434C52.9168 81.0206 53.3009 80.7747 53.7255 80.6252C54.15 80.4758 54.6034 80.4266 55.0502 80.4817C54.9511 79.8604 55.057 79.2235 55.3522 78.6677C55.647 78.1118 56.1151 77.6669 56.685 77.4006C57.2553 77.1343 57.8966 77.0604 58.512 77.1907C59.1276 77.321 59.6844 77.6481 60.0976 78.1225C60.9718 79.1126 61.3822 80.5851 61.5358 81.8823C61.615 82.5593 61.6257 83.243 61.5671 83.9219C61.5389 84.2634 61.4167 86.2342 61.0971 86.3595C58.9854 87.1679 55.3854 87.3433 53.2956 85.8927Z" fill="white"/>
<path d="M136.869 91.5728C140.192 91.5728 142.885 88.8795 142.885 85.5571C142.885 82.2348 140.192 79.5415 136.869 79.5415C133.547 79.5415 130.854 82.2348 130.854 85.5571C130.854 88.8795 133.547 91.5728 136.869 91.5728Z" fill="#2B5BA8"/>
<path d="M136.456 82.7697C136.639 82.6591 136.839 82.5798 137.048 82.5347C137.408 82.4482 137.786 82.4962 138.113 82.6691C138.439 82.8424 138.691 83.1288 138.822 83.4747C138.907 83.7006 138.938 83.9434 138.913 84.1837C138.889 84.4237 138.809 84.6552 138.681 84.8595C138.997 84.9601 139.274 85.159 139.471 85.4276C139.667 85.6961 139.773 86.0197 139.773 86.3525C139.773 86.6849 139.667 87.0088 139.471 87.2774C139.274 87.5456 138.997 87.7445 138.681 87.8454C137.963 88.0024 137.216 87.9479 136.528 87.6887C136.182 87.5719 135.848 87.4209 135.532 87.2376C135.372 87.1467 134.442 86.6391 134.457 86.4543C134.548 85.2386 135.284 83.4527 136.456 82.7697Z" fill="white"/>
<path d="M90.2264 78.6957C90.9006 79.2584 91.6532 79.7196 92.4603 80.0649C93.9467 80.6853 95.5687 80.909 97.1675 80.7141C98.7664 80.5192 100.287 79.9123 101.581 78.9526C102.583 78.1881 103.461 77.1323 104.498 76.3647C105.221 75.7979 106.09 75.446 107.004 75.3495C107.308 75.3583 107.61 75.2947 107.885 75.1647C108.58 74.7323 107.759 74.0148 107.687 73.5072C107.591 72.6954 107.795 71.8764 108.261 71.2044C109.451 69.4298 109.991 67.298 109.788 65.1706C109.585 63.0435 108.653 61.0517 107.15 59.5334C105.646 58.0151 103.663 57.0636 101.539 56.8402C99.4134 56.6171 97.2763 57.1359 95.4901 58.3083C93.7261 59.4645 92.4164 61.1783 91.088 62.8169C89.9162 64.2613 88.6911 65.6838 87.8327 67.3349C85.8149 71.2169 86.993 75.9981 90.2264 78.6957Z" fill="#2B5BA8"/>
<path d="M102.192 65.9005C103.301 65.9005 104.2 65.0013 104.2 63.8921C104.2 62.7827 103.301 61.8838 102.192 61.8838C101.083 61.8838 100.184 62.7827 100.184 63.8921C100.184 65.0013 101.083 65.9005 102.192 65.9005Z" fill="white"/>
<path d="M98.3072 70.6505C99.4163 70.6505 100.316 69.7513 100.316 68.6421C100.316 67.533 99.4163 66.6338 98.3072 66.6338C97.198 66.6338 96.2988 67.533 96.2988 68.6421C96.2988 69.7513 97.198 70.6505 98.3072 70.6505Z" fill="white"/>
<path d="M94.6626 75.1085C95.7718 75.1085 96.671 74.2093 96.671 73.1001C96.671 71.991 95.7718 71.0918 94.6626 71.0918C93.5535 71.0918 92.6543 71.991 92.6543 73.1001C92.6543 74.2093 93.5535 75.1085 94.6626 75.1085Z" fill="white"/>
<g opacity="0.46">
<path opacity="0.46" d="M152.748 54.2922C152.591 55.0789 152.26 55.8202 151.78 56.4629C151.299 57.1051 150.682 57.6321 149.972 58.005L133.222 66.9031C132.59 67.2402 131.898 67.4492 131.185 67.5185C130.473 67.5874 129.753 67.515 129.069 67.3054C128.384 67.0958 127.748 66.7533 127.196 66.2972C126.644 65.841 126.187 65.2801 125.853 64.6472L112.502 39.51C111.826 38.2352 111.683 36.7441 112.106 35.364C112.528 33.9841 113.481 32.828 114.755 32.1503L131.517 23.2553C134.04 21.9143 137.52 22.942 138.874 25.508L152.227 50.6358C152.828 51.7547 153.013 53.0502 152.748 54.2922Z" fill="#2B5BA8"/>
</g>
<path d="M147.775 52.3877L131.442 46.1622C131.234 46.0813 131.061 45.929 130.955 45.7329C130.849 45.5365 130.816 45.3087 130.862 45.0906L134.65 27.6672C134.693 27.4817 134.791 27.3138 134.932 27.1856C135.072 27.0572 135.248 26.9745 135.437 26.9485C135.625 26.9221 135.817 26.9538 135.987 27.039C136.157 27.1242 136.297 27.2593 136.389 27.426L148.934 51.0687C149.023 51.2369 149.058 51.4283 149.036 51.6173C149.014 51.8062 148.934 51.9842 148.809 52.127C148.683 52.2699 148.517 52.3714 148.332 52.4181C148.148 52.4645 147.953 52.4538 147.775 52.3877Z" fill="white"/>
<g opacity="0.46">
<path opacity="0.46" d="M172.174 71.7842C172.517 72.0298 172.8 72.3494 173.003 72.7194C173.205 73.0892 173.323 73.4999 173.346 73.921L173.972 83.8813C173.996 84.2572 173.945 84.6342 173.824 84.9904C173.701 85.3469 173.51 85.6756 173.261 85.9579C173.011 86.2402 172.708 86.4705 172.37 86.6356C172.031 86.8007 171.663 86.8975 171.287 86.9204L156.339 87.8415C155.581 87.887 154.837 87.6301 154.268 87.1272C153.7 86.6246 153.354 85.9169 153.306 85.1596L152.695 75.1931C152.668 74.4405 152.931 73.7064 153.43 73.1421C153.928 72.5778 154.624 72.2263 155.374 72.1602L170.319 71.2202C170.985 71.1829 171.642 71.3828 172.174 71.7842Z" fill="#2B5BA8"/>
</g>
<path d="M170.186 73.7515L163.644 80.2277C163.561 80.3063 163.453 80.3539 163.339 80.3618C163.225 80.3699 163.111 80.338 163.018 80.2715L155.498 74.6632C155.418 74.6027 155.358 74.5191 155.327 74.4235C155.296 74.328 155.295 74.2249 155.324 74.1287C155.353 74.0325 155.411 73.9476 155.489 73.8849C155.568 73.8226 155.664 73.7859 155.765 73.7797L169.826 72.9118C169.924 72.9093 170.021 72.9362 170.104 72.9895C170.187 73.0424 170.252 73.1192 170.291 73.2097C170.33 73.3 170.34 73.3999 170.322 73.4967C170.303 73.5932 170.256 73.6819 170.186 73.7515Z" fill="white"/>
<g opacity="0.46">
<path opacity="0.46" d="M70.6594 126.518C69.6785 126.679 68.6865 126.763 67.6924 126.768C58.1739 126.768 58.4935 117.942 58.4935 117.942L66.3796 119.647C66.0816 118.917 65.9676 118.124 66.0475 117.34C66.127 116.555 66.3984 115.802 66.837 115.147C68.6417 112.509 72.8338 113.866 72.8338 113.866L75.4406 112.187L74.8767 115.32L78.3701 114.731L76.5748 116.808C78.9873 119.126 82.061 126.185 74.6479 129.854C67.2349 133.523 64.036 129.127 64.036 129.127L67.6924 126.771L70.6594 126.518Z" fill="#2B5BA8"/>
</g>
<path d="M70.5037 117.885C71.1335 117.885 71.6442 117.375 71.6442 116.745C71.6442 116.115 71.1335 115.604 70.5037 115.604C69.874 115.604 69.3633 116.115 69.3633 116.745C69.3633 117.375 69.874 117.885 70.5037 117.885Z" fill="white"/>
<path d="M90.3828 279.251H220.806" stroke="black" stroke-width="0.98694" stroke-miterlimit="10"/>
</svg>
