<svg width="354" height="318" viewBox="0 0 354 318" fill="none" xmlns="http://www.w3.org/2000/svg">
<path d="M116.777 196.277C116.777 159.53 134.09 127.023 160.767 106H35.3333L61.8333 26.5H256.167L277.72 91.16C292.56 97.6967 305.633 107.237 316.41 119.073L281.253 17.6667C277.72 7.42 267.827 0 256.167 0H61.8333C50.1733 0 40.28 7.42 36.7467 17.6667L0 123.667V265C0 274.717 7.95 282.667 17.6667 282.667H35.3333C45.05 282.667 53 274.717 53 265V247.333H128.79C121.193 231.963 116.777 214.65 116.777 196.277ZM61.8333 194.333C47.17 194.333 35.3333 182.497 35.3333 167.833C35.3333 153.17 47.17 141.333 61.8333 141.333C76.4967 141.333 88.3333 153.17 88.3333 167.833C88.3333 182.497 76.4967 194.333 61.8333 194.333ZM231.61 116.777C275.777 116.777 311.11 152.11 311.11 196.277C311.11 212 306.693 226.487 298.92 238.5L353.333 293.443L328.777 318L273.833 263.763C261.467 271.36 247.333 275.777 231.61 275.777C187.443 275.777 152.11 240.443 152.11 196.277C152.11 152.11 187.443 116.777 231.61 116.777ZM231.61 152.11C222.875 152.11 214.335 154.7 207.072 159.553C199.809 164.407 194.148 171.304 190.805 179.375C187.462 187.445 186.588 196.326 188.292 204.893C189.996 213.461 194.203 221.33 200.379 227.507C206.556 233.684 214.426 237.891 222.994 239.595C231.561 241.299 240.441 240.424 248.512 237.081C256.582 233.738 263.48 228.078 268.333 220.814C273.186 213.551 275.777 205.012 275.777 196.277C275.777 171.72 256.167 152.11 231.61 152.11Z" fill="#7C3CDA"/>
</svg>
